<?xml version="1.0" encoding="utf-8"?>
<!-- Generator: Adobe Illustrator 27.8.1, SVG Export Plug-In . SVG Version: 6.00 Build 0)  -->
<svg version="1.1" id="Layer_1" xmlns="http://www.w3.org/2000/svg" xmlns:xlink="http://www.w3.org/1999/xlink" x="0px" y="0px"
	 viewBox="0 0 262.29 246.57" style="enable-background:new 0 0 262.29 246.57;" xml:space="preserve">
<style type="text/css">
	.st0{fill:#FEECCC;}
	.st1{fill:#FFE5B8;}
</style>
<rect class="st0" width="262.29" height="246.57"/>
<path class="st1" d="M53.65,110.07l0.05-1.8l-6.05-0.81l-1.01,3.63h-0.02c-1.14,0.01-2.16-0.68-2.52-1.75l-0.58-1.71l-6,1.31
	l0.29,3.75h-0.02c-1.08,0.4-2.27,0.1-2.98-0.77l-1.14-1.4l-5.22,3.27l1.56,3.41L30,117.21c-0.89,0.74-2.14,0.85-3.12,0.27
	l-1.52-0.91l-3.81,4.83l2.64,2.66l-0.01,0.02c-0.59,0.99-1.73,1.52-2.85,1.31l-1.76-0.32l-1.95,5.82l3.4,1.57v0.02
	c-0.22,1.13-1.12,2.02-2.26,2.2l-1.76,0.29l0.16,6.1l3.76,0.31v0.01c0.19,1.13-0.36,2.27-1.37,2.84l-1.56,0.88l2.24,5.65l3.65-0.99
	l0.01,0.01c0.57,0.99,0.43,2.24-0.32,3.11l-1.18,1.35l4.05,4.51l3.12-2.18l0.02,0.01c0.87,0.73,1.17,1.93,0.75,3.01l-0.66,1.68
	l5.37,2.83l2.2-3.1h0.02c1.08,0.4,1.77,1.42,1.74,2.57l-0.05,1.79l6.05,0.81l1.01-3.64h0.02c1.15-0.01,2.17,0.72,2.53,1.8l0.57,1.67
	l6-1.31l-0.29-3.75h0.02c1.09-0.41,2.29-0.08,3.01,0.81L59,163.1l5.21-3.27l-1.55-3.41l0.02-0.01c0.89-0.74,2.14-0.85,3.11-0.27
	l1.53,0.91l3.81-4.83l-2.64-2.66l0.04-0.07c0.57-0.96,1.68-1.47,2.77-1.27l1.81,0.33l1.94-5.82l-3.4-1.58v-0.02
	c0.22-1.13,1.12-2.02,2.26-2.21l1.75-0.29l-0.16-6.1l-3.76-0.31v-0.01c-0.19-1.13,0.37-2.28,1.38-2.84l1.55-0.87l-2.24-5.64
	l-3.64,0.99l-0.01-0.01c-0.56-0.99-0.46-2.22,0.3-3.09l1.19-1.36l-4.05-4.51l-3.11,2.17l-0.02-0.01c-0.87-0.73-1.19-1.92-0.77-2.98
	l0.66-1.7l-5.37-2.83l-2.19,3.09h-0.02c-1.07-0.4-1.78-1.4-1.76-2.54H53.65z M68.61,136.84c-0.02,12.3-10.01,22.25-22.31,22.23
	c-12.3-0.02-22.25-10.01-22.23-22.31c0.02-12.3,10.01-22.25,22.31-22.23C58.68,114.55,68.63,124.54,68.61,136.84z"/>
<path class="st1" d="M46.37,116.02c-11.48-0.02-20.8,9.27-20.82,20.75c-0.02,11.48,9.27,20.8,20.75,20.82
	c11.48,0.02,20.8-9.27,20.82-20.75C67.15,125.36,57.85,116.04,46.37,116.02z M34.17,142.75c-3.29,0-5.96-2.68-5.95-5.97
	c0.01-3.29,2.68-5.96,5.97-5.95c3.29,0.01,5.96,2.68,5.95,5.97C40.14,140.09,37.47,142.75,34.17,142.75z M46.31,154.92
	c-3.29-0.01-5.96-2.68-5.95-5.97c0.01-3.29,2.68-5.96,5.97-5.95c3.29,0,5.96,2.68,5.95,5.97C52.27,152.27,49.6,154.93,46.31,154.92z
	 M44.38,136.8c0-1.08,0.88-1.96,1.96-1.96c1.08,0,1.96,0.88,1.96,1.96c0,1.08-0.88,1.96-1.96,1.96
	C45.25,138.76,44.38,137.88,44.38,136.8z M46.34,130.62c-3.29-0.01-5.96-2.68-5.95-5.97c0.01-3.29,2.68-5.96,5.97-5.95
	c3.29,0,5.96,2.68,5.95,5.97C52.31,127.95,49.64,130.62,46.34,130.62z M58.48,142.79c-3.29,0-5.96-2.68-5.95-5.97
	c0.01-3.29,2.68-5.96,5.97-5.95c3.29,0.01,5.96,2.68,5.95,5.97C64.44,140.13,61.77,142.79,58.48,142.79z"/>
<path class="st1" d="M126.85,20.28l0.04-1.47l-4.96-0.66l-0.83,2.98h-0.02c-0.94,0.01-1.77-0.56-2.07-1.44l-0.47-1.4l-4.92,1.07
	l0.24,3.08h-0.02c-0.88,0.33-1.86,0.09-2.44-0.63l-0.93-1.15l-4.28,2.68l1.28,2.8l-0.01,0.01c-0.73,0.61-1.76,0.69-2.56,0.22
	l-1.25-0.74l-3.12,3.97l2.17,2.18l-0.01,0.02c-0.48,0.81-1.42,1.25-2.34,1.08l-1.44-0.27l-1.6,4.77l2.79,1.29v0.02
	c-0.18,0.93-0.92,1.65-1.85,1.81l-1.44,0.24l0.13,5l3.08,0.26v0.01c0.15,0.93-0.3,1.86-1.13,2.33l-1.28,0.72l1.84,4.63l3-0.81
	l0.01,0.02c0.46,0.81,0.35,1.84-0.27,2.55l-0.97,1.11l3.32,3.7l2.56-1.79l0.01,0.01c0.72,0.6,0.96,1.59,0.62,2.47l-0.54,1.38
	l4.41,2.32l1.81-2.55h0.01c0.88,0.32,1.46,1.17,1.43,2.11l-0.04,1.46l4.96,0.66l0.83-2.99h0.02c0.94,0,1.78,0.59,2.08,1.48
	l0.46,1.37l4.92-1.08l-0.24-3.08h0.01c0.89-0.33,1.88-0.06,2.47,0.66l0.91,1.12l4.28-2.68l-1.28-2.8l0.01-0.01
	c0.73-0.61,1.75-0.7,2.55-0.22l1.26,0.75l3.12-3.96l-2.17-2.18l0.03-0.05c0.46-0.79,1.38-1.21,2.27-1.04l1.49,0.28l1.6-4.77
	l-2.79-1.29v-0.02c0.18-0.93,0.92-1.65,1.86-1.81l1.44-0.24l-0.13-5l-3.08-0.26v-0.01c-0.15-0.93,0.3-1.86,1.13-2.33l1.28-0.72
	l-1.84-4.63l-2.99,0.81l-0.01-0.02c-0.46-0.81-0.38-1.82,0.25-2.54l0.98-1.12l-3.33-3.7l-2.55,1.78l-0.01-0.01
	c-0.71-0.6-0.98-1.57-0.63-2.45l0.54-1.4l-4.41-2.32l-1.8,2.53h-0.01c-0.88-0.32-1.46-1.15-1.44-2.08L126.85,20.28z M103.43,36.06
	c6.79,3.75,8.32,11.08,2.79,17.23C102.48,49.21,101.36,42.27,103.43,36.06z M126.89,59.42c-4.25,2.58-13.72,0.99-17.5-2.94
	C114.89,51.6,121.98,51.64,126.89,59.42z M130.74,57.61c-2.9-6.77-1.37-13.76,8.36-16.22C140.25,46.63,136.07,54.74,130.74,57.61z
	 M124.81,40.35c1.02,2.23,0.06,4.83-2.18,5.84c-2.19,0.99-4.89-0.04-5.85-2.23c-0.96-2.2,0.11-4.89,2.3-5.84
	C121.24,37.18,123.81,38.19,124.81,40.35z M138.65,37.29c-8.45,0.6-13.75-3.54-13.16-12.99C132.24,26.38,136.59,30.62,138.65,37.29z
	 M121.28,23.89c-1.74,8-8.44,11.48-15.75,8.18C107.86,27.21,116.07,22.95,121.28,23.89z"/>
<path class="st1" d="M236.39,85.95c-1.61-0.15-0.85-2.44-0.85-2.44h-3.84c0,0,0.75,2.23-0.91,2.44c-1.57,0.2-1.65-2-1.65-2
	l-3.61,1.31c0,0,1.58,1.68,0.02,2.59c-1.37,0.8-2.27-1.3-2.27-1.3l-2.94,2.47c0,0,1.91,1.12,0.89,2.46c-1,1.31-2.56-0.47-2.56-0.47
	l-1.93,3.33c0,0,2.32,0.3,1.68,1.97c-0.73,1.88-2.57,0.47-2.57,0.47l-0.67,3.78c0,0,2.34-0.5,2.25,1.3c-0.09,1.89-2.25,1.3-2.25,1.3
	l0.66,3.78c0,0,1.98-1.37,2.57,0.5c0.54,1.71-1.68,1.94-1.68,1.94l1.92,3.33c0,0,1.35-1.9,2.54-0.46c1.17,1.41-0.88,2.46-0.88,2.46
	l2.94,2.48c0,0,0.71-2.24,2.25-1.29c1.35,0.83,0,2.6,0,2.6l3.61,1.32c0,0-0.28-2.36,1.66-1.99c1.85,0.35,0.89,2.44,0.89,2.44h3.84
	c0,0-0.96-2.1,0.87-2.43c1.99-0.36,1.69,1.99,1.69,1.99l3.61-1.31c0,0-1.27-1.82-0.05-2.57c1.59-0.98,2.3,1.28,2.3,1.28l2.95-2.47
	c0,0-1.85-1.24-0.91-2.43c1.07-1.35,2.58,0.45,2.58,0.45l1.92-3.33c0,0-2.21-0.23-1.67-1.98c0.5-1.64,2.57-0.46,2.57-0.46l0.67-3.78
	c0,0-2.33,0.6-2.25-1.3c0.08-1.89,2.26-1.3,2.26-1.3l-0.66-3.78c0,0-2.02,1.22-2.55-0.44c-0.46-1.43,1.67-2,1.67-2l-1.92-3.33
	c0,0-1.55,1.78-2.55,0.48c-1.03-1.33,0.88-2.47,0.88-2.47l-2.94-2.48c0,0-0.9,2.1-2.25,1.31c-1.29-0.75,0-2.61,0-2.61l-3.61-1.32
	c0,0,0.02,2.15-1.7,1.99L236.39,85.95z M226.3,112.04c-2.77-1.4-4.52-3.74-5.28-6.7c-0.42-1.64-0.36-3.4-0.53-5.24
	c2.54,1.43,4.75,2.53,6.81,3.86c1.32,0.85,2.62,1.86,3.57,3.09c1.11,1.43,0.86,3.22-0.16,4.31
	C229.61,112.54,227.92,112.87,226.3,112.04L226.3,112.04z M243.34,104.8c1.05,1.01,1.38,2.28,0.92,3.64
	c-0.91,2.76-3.01,4.42-5.54,5.55c-2.09,0.93-4.3,1.19-6.49,0.74c1.32-2.38,2.58-4.68,3.86-6.98c0.87-1.54,1.88-2.93,3.67-3.51
	C241.04,103.83,242.29,103.8,243.34,104.8z M233.25,105.06c-1.63-0.16-2.99-1.83-2.84-3.5c0.16-1.76,1.8-3.09,3.55-2.91
	c1.74,0.19,3.03,1.84,2.82,3.61C236.58,103.92,234.92,105.23,233.25,105.06L233.25,105.06z M240.56,91.36
	c3.72,1.71,5.52,4.8,6.03,8.73c0.14,1.07,0.01,2.17,0.01,3.27c-2.49-1.4-4.75-2.68-7.02-3.93c-1.56-0.86-2.95-1.87-3.56-3.64
	c-0.46-1.33-0.51-2.66,0.6-3.7C237.74,91.04,239.1,90.69,240.56,91.36z M235.2,89.08c-1.27,2.25-2.38,4.51-3.75,6.6
	c-0.88,1.33-1.98,2.64-3.27,3.56c-1.44,1.03-3.12,0.66-4.14-0.4c-1.1-1.14-1.3-2.76-0.54-4.32
	C225.47,90.42,230.93,87.93,235.2,89.08L235.2,89.08z"/>
<path class="st1" d="M61.66,185.53c-2.76-0.27-1.47-4.2-1.47-4.2l-6.61-0.01c0,0,1.29,3.85-1.57,4.21c-2.7,0.33-2.83-3.44-2.83-3.44
	l-6.21,2.25c0,0,2.71,2.89,0.03,4.46c-2.36,1.38-3.91-2.23-3.91-2.23l-5.07,4.24c0,0,3.28,1.92,1.52,4.23
	c-1.72,2.25-4.4-0.81-4.4-0.81l-3.32,5.72c0,0,3.98,0.52,2.89,3.38c-1.25,3.24-4.43,0.82-4.43,0.82l-1.16,6.51
	c0,0,4.02-0.87,3.87,2.24c-0.16,3.26-3.87,2.23-3.87,2.23l1.14,6.51c0,0,3.41-2.35,4.42,0.86c0.93,2.95-2.89,3.34-2.89,3.34
	l3.29,5.73c0,0,2.32-3.28,4.38-0.8c2.02,2.42-1.51,4.23-1.51,4.23l5.06,4.26c0,0,1.23-3.85,3.86-2.22c2.33,1.44,0,4.47,0,4.47
	l6.21,2.27c0,0-0.48-4.06,2.86-3.42c3.18,0.61,1.53,4.2,1.53,4.2l6.61,0.01c0,0-1.65-3.61,1.5-4.2c3.41-0.63,2.9,3.42,2.9,3.42
	l6.21-2.25c0,0-2.18-3.13-0.08-4.43c2.74-1.69,3.95,2.2,3.95,2.2l5.07-4.24c0,0-3.19-2.12-1.56-4.18c1.84-2.33,4.44,0.77,4.44,0.77
	l3.32-5.72c0,0-3.8-0.4-2.88-3.41c0.86-2.81,4.42-0.79,4.42-0.79l1.16-6.51c0,0-4,1.02-3.87-2.24c0.13-3.26,3.88-2.23,3.88-2.23
	l-1.14-6.51c0,0-3.47,2.11-4.4-0.76c-0.79-2.45,2.87-3.44,2.87-3.44l-3.29-5.73c0,0-2.67,3.05-4.38,0.82
	c-1.77-2.3,1.51-4.25,1.51-4.25l-5.06-4.26c0,0-1.54,3.61-3.87,2.25c-2.21-1.3,0-4.49,0-4.49l-6.21-2.27c0,0,0.03,3.7-2.92,3.42
	L61.66,185.53z M47.46,199.94c-1.18-1.99-2.34-3.99-3.35-6.06c-0.66-1.35,0.36-2.76,2.2-2.75c0.29,0.23,0.98,0.56,1.32,1.11
	c1.14,1.85,2.3,3.73,3.12,5.72c0.29,0.71-0.09,2.1-0.66,2.67C49.19,201.53,48.07,200.96,47.46,199.94L47.46,199.94z M41.26,210.38
	c-2.32-0.45-4.62-1.12-6.83-1.97c-0.62-0.24-1.3-1.48-1.18-2.12c0.13-0.74,1.12-1.31,1.65-1.87c2.84,0.88,5.28,1.51,7.58,2.45
	c0.54,0.22,1.07,1.64,0.85,2.25C43.11,209.74,41.88,210.5,41.26,210.38L41.26,210.38z M52.35,235.46c-0.24,0.61-1.71,1.25-2.35,1.04
	c-0.65-0.21-1.47-1.55-1.34-2.22c0.47-2.38,1.23-4.73,2.11-6.99c0.22-0.55,1.44-1.12,2.05-0.99c0.71,0.15,1.25,1.08,1.79,1.59
	C53.82,230.67,53.26,233.13,52.35,235.46z M66.37,226.07c1.11,1.8,2.07,3.69,3.08,5.54c0.66,1.21,0.39,2.21-0.8,2.85
	c-1.14,0.61-2.06,0.14-2.67-0.91c-1.09-1.89-2.18-3.78-3.16-5.73c-0.73-1.46,0.18-2.98,2.14-3C65.27,225.08,66,225.46,66.37,226.07z
	 M37.8,225.63c-1.36,0.67-2.81-0.29-2.77-2.18c0.3-0.34,0.74-1.1,1.39-1.51c1.72-1.08,3.55-2.01,5.33-2.99
	c1.17-0.64,2.21-0.47,2.89,0.7c0.63,1.09,0.27,2.1-0.77,2.7C41.88,223.5,39.87,224.62,37.8,225.63L37.8,225.63z M72.38,215.41
	c2.37,0.47,4.72,1.16,6.98,2.03c0.59,0.23,1.19,1.48,1.08,2.16c-0.11,0.68-1.09,1.23-1.63,1.78c-2.78-0.85-5.28-1.5-7.64-2.44
	c-0.53-0.21-1.02-1.63-0.81-2.23c0.22-0.62,1.42-1.41,2.02-1.29L72.38,215.41z M66.7,213.12c-0.15,5.23-4.77,9.71-9.93,9.65
	c-5.29-0.06-9.85-4.73-9.75-10c0.09-5.42,4.64-9.81,10-9.67C62.44,203.25,66.86,207.81,66.7,213.12z M78.63,202.34
	c-0.23,0.29-0.54,1.01-1.09,1.34c-1.85,1.14-3.78,2.17-5.69,3.19c-1.18,0.63-2.42,0.42-2.78-0.82c-0.22-0.74,0.28-2.13,0.92-2.58
	c1.76-1.26,3.72-2.25,5.67-3.22C77.16,199.5,78.63,200.4,78.63,202.34z M63.67,189.37c0.63,0.21,1.45,1.43,1.33,2.04
	c-0.47,2.38-1.16,4.74-2.05,7.01c-0.23,0.58-1.52,1.14-2.21,1.02c-0.67-0.11-1.18-1.11-1.69-1.65c0.85-2.76,1.47-5.2,2.39-7.52
	c0.22-0.56,1.62-1.11,2.22-0.91L63.67,189.37z"/>
<path class="st1" d="M193.66,4.7h-0.03l-1.3-4.7l-7.81,1.02l0.05,2.3c0.03,1.48-0.88,2.8-2.26,3.29l-0.02,0.01l-2.83-4.01
	l-6.95,3.63l0.84,2.17c0.53,1.38,0.14,2.94-0.98,3.88l-0.02,0.02l-4.03-2.83l-5.24,5.8l1.51,1.75c0.98,1.13,1.14,2.74,0.41,4.02
	L165,21.06l-4.71-1.3l-2.91,7.27l2.01,1.13c1.3,0.74,2.01,2.21,1.76,3.67v0.01l-4.85,0.39l-0.23,7.87l2.26,0.39
	c1.47,0.25,2.63,1.4,2.9,2.85v0.03l-4.39,2.02l2.48,7.52l2.26-0.41c1.45-0.26,2.92,0.42,3.68,1.7l0.01,0.02l-3.42,3.42l4.9,6.25
	l1.97-1.16c1.27-0.75,2.88-0.6,4.02,0.36l0.02,0.02l-2.02,4.39l6.72,4.24l1.47-1.81c0.92-1.13,2.47-1.51,3.85-0.99l0.02,0.01
	l-0.39,4.83l7.73,1.71l0.76-2.2c0.47-1.38,1.79-2.27,3.26-2.25h0.03l1.3,4.69l7.81-1.02l-0.05-2.32c-0.03-1.47,0.89-2.76,2.28-3.26
	l0.03-0.01l2.81,3.99l6.95-3.63l-0.85-2.19c-0.53-1.38-0.11-2.91,1.01-3.85l0.02-0.02l4.01,2.82l5.24-5.8l-1.53-1.77
	c-0.97-1.12-1.1-2.72-0.38-3.99l0.01-0.02l4.69,1.29l2.91-7.27l-2-1.13c-1.31-0.74-2.01-2.21-1.77-3.67v-0.01l4.85-0.39l0.23-7.87
	l-2.26-0.39c-1.47-0.25-2.63-1.39-2.9-2.86v-0.03l4.39-2.02l-2.48-7.52l-2.34,0.43c-1.41,0.26-2.84-0.41-3.57-1.65l-0.05-0.08
	l3.42-3.42l-4.9-6.25L219.1,13c-1.27,0.75-2.88,0.6-4.02-0.36l-0.02-0.02l2.02-4.39l-6.72-4.24l-1.44,1.76
	c-0.93,1.14-2.49,1.55-3.89,1.04l-0.02-0.01l0.39-4.83l-7.73-1.71l-0.74,2.15C196.47,3.78,195.16,4.71,193.66,4.7L193.66,4.7z
	 M190.67,37.86c0,3.91-7.3,7.07-11.21,7.06c-3.91-0.01-7.07-3.18-7.06-7.09s3.18-7.07,7.09-7.06S190.68,33.95,190.67,37.86
	L190.67,37.86z M193.91,35.53c1.29,0,2.33,1.04,2.33,2.34c0,1.29-1.05,2.33-2.33,2.33c-1.29,0-2.33-1.05-2.33-2.34
	C191.59,36.57,192.63,35.53,193.91,35.53L193.91,35.53z M193.9,41.1c3.91,0.01,7.07,7.3,7.06,11.21s-3.18,7.07-7.09,7.06
	s-7.07-3.18-7.07-7.09C186.81,48.37,189.99,41.09,193.9,41.1L193.9,41.1z M197.14,37.87c0.01-3.91,7.3-7.07,11.21-7.06
	c3.91,0.01,7.07,3.18,7.07,7.09s-3.18,7.07-7.09,7.06S197.13,41.77,197.14,37.87z M193.91,34.63c-3.91-0.01-7.07-7.3-7.06-11.21
	c0.01-3.91,3.18-7.07,7.09-7.07c3.91,0.01,7.07,3.18,7.06,7.09C201,27.35,197.82,34.63,193.91,34.63z M184.66,25.26
	c0.96,0.97,0.96,2.53-0.01,3.5c-0.97,0.96-2.53,0.96-3.5-0.01c-0.96-0.97-0.96-2.53,0.01-3.5
	C182.12,24.29,183.69,24.29,184.66,25.26L184.66,25.26z M167.32,37.82c0.01-4.52,1.15-8.78,3.16-12.51l1.65,0.95
	c-1.84,3.45-2.89,7.38-2.9,11.56c-0.01,4.18,1.03,8.12,2.86,11.57l-1.65,0.95C168.45,46.6,167.31,42.34,167.32,37.82L167.32,37.82z
	 M181.3,47.28c0.97-0.96,2.53-0.96,3.5,0.01c0.96,0.97,0.96,2.53-0.01,3.5c-0.97,0.96-2.53,0.96-3.5-0.01
	C180.33,49.81,180.33,48.25,181.3,47.28L181.3,47.28z M171.32,51.86l1.65-0.95c4.21,6.73,11.57,11.28,20.01,11.6v1.9
	C183.84,64.11,175.86,59.16,171.32,51.86z M216.44,51.94c-4.57,7.28-12.56,12.2-21.7,12.49v-1.9c8.45-0.28,15.83-4.81,20.06-11.53
	L216.44,51.94L216.44,51.94z M203.33,50.64c-0.96-0.97-0.96-2.53,0.01-3.5c0.97-0.96,2.53-0.96,3.49,0.01c0.96,0.97,0.96,2.53,0,3.5
	C205.86,51.61,204.29,51.61,203.33,50.64L203.33,50.64z M220.49,37.9c-0.01,4.52-1.15,8.79-3.16,12.51l-1.65-0.95
	c1.84-3.45,2.89-7.38,2.9-11.57c0.01-4.19-1.03-8.12-2.86-11.57l1.65-0.95C219.36,29.11,220.49,33.37,220.49,37.9L220.49,37.9z
	 M206.68,28.61c-0.97,0.96-2.53,0.96-3.49-0.01s-0.96-2.53,0-3.5c0.97-0.96,2.53-0.96,3.5,0.01
	C207.65,26.08,207.65,27.64,206.68,28.61z M216.48,23.85l-1.65,0.95c-4.21-6.73-11.57-11.29-20.01-11.6v-1.91
	C203.96,11.6,211.94,16.55,216.48,23.85z M193.06,13.19c-8.45,0.28-15.82,4.81-20.06,11.53l-1.64-0.95
	c4.57-7.28,12.56-12.2,21.7-12.49L193.06,13.19L193.06,13.19z"/>
<path class="st1" d="M120.92,93.26c-3.05-0.29-1.63-4.64-1.63-4.64l-7.3-0.01c0,0,1.43,4.25-1.74,4.65c-2.98,0.37-3.13-3.8-3.13-3.8
	l-6.86,2.49c0,0,2.99,3.2,0.04,4.93c-2.6,1.53-4.32-2.47-4.32-2.47l-5.6,4.68c0,0,3.63,2.13,1.68,4.67
	c-1.9,2.49-4.86-0.89-4.86-0.89l-3.66,6.32c0,0,4.41,0.58,3.19,3.73c-1.37,3.58-4.89,0.91-4.89,0.91L80.57,121
	c0,0,4.44-0.96,4.27,2.48c-0.18,3.6-4.28,2.46-4.28,2.46l1.26,7.19c0,0,3.76-2.6,4.88,0.95c1.02,3.26-3.2,3.69-3.2,3.69l3.64,6.33
	c0,0,2.56-3.62,4.83-0.89c2.23,2.68-1.67,4.67-1.67,4.67l5.59,4.71c0,0,1.35-4.26,4.27-2.46c2.58,1.59,0,4.93,0,4.93l6.86,2.51
	c0,0-0.52-4.48,3.17-3.78c3.52,0.67,1.7,4.64,1.7,4.64l7.3,0.02c0,0-1.83-3.99,1.65-4.63c3.77-0.7,3.21,3.78,3.21,3.78l6.87-2.49
	c0,0-2.41-3.46-0.09-4.9c3.02-1.86,4.37,2.43,4.37,2.43l5.6-4.68c0,0-3.52-2.35-1.72-4.62c2.03-2.57,4.9,0.84,4.9,0.84l3.66-6.32
	c0,0-4.2-0.44-3.18-3.76c0.95-3.11,4.88-0.88,4.88-0.88l1.28-7.19c0,0-4.42,1.13-4.27-2.47c0.15-3.6,4.28-2.47,4.28-2.47l-1.26-7.19
	c0,0-3.84,2.32-4.86-0.83c-0.88-2.71,3.18-3.8,3.18-3.8l-3.64-6.33c0,0-2.94,3.37-4.84,0.91c-1.95-2.54,1.67-4.7,1.67-4.7l-5.59-4.7
	c0,0-1.7,3.99-4.27,2.49c-2.45-1.43,0-4.96,0-4.96l-6.86-2.51c0,0,0.04,4.09-3.23,3.77L120.92,93.26z M133.52,141.99
	c-3.04,2.96-6.8,5.16-10.99,6.34l-1.52-15.36L133.52,141.99z M108.57,148.32c-4.1-1.15-7.86-3.32-10.99-6.38l12.54-9.01
	L108.57,148.32L108.57,148.32z M89.83,123.49c0-2.19,0.28-4.32,0.8-6.35l14.09,6.37l-14.12,6.34
	C90.09,127.79,89.83,125.66,89.83,123.49L89.83,123.49z M141.35,123.58c0,2.19-0.28,4.32-0.8,6.35l-14.07-6.37l14.09-6.33
	C141.08,119.26,141.35,121.39,141.35,123.58z M123.14,123.55c0,4.18-3.4,7.55-7.57,7.55c-4.17,0-7.56-3.4-7.55-7.57
	c0-4.18,3.4-7.55,7.57-7.55C119.77,115.99,123.15,119.37,123.14,123.55z M133.58,105.13l-12.54,8.99l1.57-15.37
	C126.8,99.94,130.55,102.17,133.58,105.13z M110.18,114.12l-12.52-9.04c3.04-2.96,6.81-5.16,11-6.34L110.18,114.12L110.18,114.12z"
	/>
<path class="st1" d="M38.5,20.95c-3.63,0.68-10.53,3.59-10.62,3.64c-0.05,0.02-4.06-2.19-5.71-3.05c-3.3,2.92-6.58,5.85-9.84,8.82
	c0.75,1.91,1.93,3.63,2.75,5.5c-2.19,3.16-4.89,7.24-6.05,10.89c-0.08,0.25,0,0-5.39,0.89c0.02,1.68-0.03,15.27-0.03,15.27
	l5.69,0.72c0.76,3.64,1.9,7.17,3.69,10.45c-1.02,1.78-2.37,3.36-3.34,5.18c2.97,3.34,5.95,6.67,8.95,9.98
	c1.53-0.96,5.59-2.91,5.59-2.91c5.44,3.71,10.44,5.12,10.44,5.12c0.28,1.75,0.91,4.12,1.25,5.85c4.39,0.27,8.78,0.51,13.17,0.72
	c0.93-1.79,1.24-3.81,2.03-5.65c3.75-0.71,11.13-3.98,11.4-3.82c0.8,0.48,2.62,2.58,3.98,3.51l10.95-9.65
	c-0.84-1.97-2.28-3.59-3.01-4.77c1.3-1.78,5.25-10.79,5.5-10.86c1.77-0.42,3.81-0.74,5.53-1.34c0.27-4.35,0.51-8.7,0.72-13.05
	c-1.63-0.82-3.85-1.21-5.54-1.83c-0.26-0.1-0.55-4.15-3.98-11.38c0.56-0.99,1.8-2.64,3.24-5.04l-9.33-10.54
	c-2.88,2.08-3.85,2.61-4.94,3.39c-3.29-2.28-6.85-3.96-10.68-5.12c-0.52-1.93-0.34-3.76-0.77-6.04c-4.35-0.27-9.28-0.29-13.63-0.5
	C39.61,17.1,39.26,19.1,38.5,20.95L38.5,20.95z M42.95,58.58c-1.06-1.07-1.06-2.79,0.01-3.85c1.07-1.07,2.79-1.06,3.86,0.01
	c1.07,1.07,1.06,2.79-0.01,3.85C45.74,59.65,44.01,59.64,42.95,58.58z M19.75,66.96c-1.33-3.24-2.02-6.74-2.02-10.35
	c0.01-3.61,0.72-7.1,2.05-10.34l19.94,10.37L19.75,66.96z M50.07,56.67l19.96-10.31c1.33,3.24,2.02,6.74,2.01,10.34
	c-0.01,3.6-0.71,7.1-2.05,10.34L50.07,56.67z M23.41,40.04c0.71-0.91,1.47-1.79,2.31-2.62c4.28-4.26,9.72-6.92,15.61-7.69
	l0.98,22.43L23.41,40.04z M16.97,44.81l1.53,0.8c-2.93,7.02-2.94,14.98-0.04,22.01l-1.54,0.79C13.77,60.88,13.79,52.33,16.97,44.81z
	 M42.28,61.13l-1.05,22.43c-5.88-0.79-11.32-3.46-15.58-7.74c-0.83-0.83-1.59-1.71-2.3-2.63L42.28,61.13L42.28,61.13z M23.4,78.07
	c-1-1-1.9-2.06-2.73-3.16l1.46-0.93c0.76,1,1.59,1.96,2.5,2.87c4.52,4.54,10.29,7.36,16.54,8.16l-0.08,1.73
	C34.4,85.91,28.22,82.91,23.4,78.07z M69.03,74.99c-0.83,1.1-1.74,2.15-2.74,3.15c-4.84,4.83-11.03,7.81-17.71,8.62l-0.08-1.73
	c6.25-0.79,12.04-3.59,16.57-8.11c0.91-0.91,1.74-1.87,2.5-2.86L69.03,74.99L69.03,74.99z M64.05,75.89
	c-4.27,4.26-9.72,6.92-15.61,7.69l-0.98-22.42l18.89,12.12C65.65,74.18,64.89,75.06,64.05,75.89z M72.79,68.5l-1.53-0.8
	c2.93-7.02,2.94-14.98,0.04-22l1.54-0.8C75.99,52.44,75.97,60.98,72.79,68.5z M47.48,52.18l1.05-22.43
	c5.88,0.79,11.32,3.46,15.58,7.74c0.83,0.83,1.59,1.71,2.3,2.63L47.48,52.18L47.48,52.18z M66.36,35.25c1,1,1.9,2.06,2.73,3.16
	l-1.46,0.93c-0.76-1-1.59-1.96-2.5-2.87c-4.52-4.54-10.3-7.36-16.54-8.16l0.08-1.73C55.36,27.4,61.53,30.4,66.36,35.25L66.36,35.25z
	 M41.26,28.29c-6.25,0.78-12.04,3.59-16.57,8.11c-0.91,0.91-1.74,1.87-2.51,2.86l-1.46-0.94c0.83-1.1,1.75-2.15,2.74-3.15
	c4.84-4.83,11.03-7.81,17.71-8.62L41.26,28.29L41.26,28.29z"/>
<path class="st1" d="M175.02,106.82c-0.01,3.85,3.11,6.97,6.96,6.98c3.85,0,6.98-3.11,6.98-6.96c0.01-3.85-3.11-6.98-6.96-6.98
	C178.15,99.86,175.03,102.97,175.02,106.82z"/>
<path class="st1" d="M178.03,84.61c-2.26,0.43-6.56,2.23-6.61,2.26c-0.03,0.02-2.52-1.36-3.55-1.89c-2.05,1.82-4.1,3.64-6.12,5.49
	c0.47,1.19,1.19,2.25,1.71,3.42c-1.36,1.97-3.05,4.5-3.77,6.78c-0.05,0.15,0,0-3.36,0.56c0.01,1.05-0.02,9.5-0.02,9.5l3.54,0.45
	c0.47,2.27,1.18,4.46,2.3,6.51c-0.64,1.11-1.48,2.09-2.08,3.22c1.85,2.07,3.7,4.15,5.57,6.21c0.95-0.6,3.47-1.81,3.47-1.81
	c3.38,2.31,6.5,3.19,6.5,3.19c0.18,1.09,0.57,2.56,0.78,3.64c2.73,0.17,5.46,0.32,8.19,0.45c0.58-1.12,0.77-2.37,1.27-3.52
	c2.33-0.44,6.93-2.48,7.09-2.38c0.5,0.3,1.63,1.61,2.48,2.18l6.82-6.01c-0.53-1.22-1.42-2.23-1.87-2.96
	c0.81-1.11,3.26-6.72,3.42-6.75c1.1-0.26,2.37-0.46,3.44-0.83c0.17-2.71,0.31-5.42,0.45-8.12c-1.01-0.51-2.39-0.75-3.45-1.14
	c-0.16-0.06-0.34-2.58-2.48-7.08c0.35-0.62,1.12-1.65,2.01-3.14l-5.81-6.56c-1.8,1.3-2.39,1.63-3.07,2.11
	c-2.05-1.42-4.26-2.47-6.65-3.19c-0.32-1.2-0.21-2.34-0.48-3.76c-2.71-0.17-5.78-0.19-8.48-0.31
	C178.72,82.22,178.51,83.46,178.03,84.61L178.03,84.61z M197.52,106.86c-0.01,8.57-6.98,15.51-15.55,15.5
	c-8.57-0.01-15.51-6.97-15.49-15.55c0.01-8.57,6.98-15.51,15.55-15.49C190.59,91.33,197.53,98.29,197.52,106.86z"/>
<path class="st1" d="M124.99,182.45c-3.02,0.57-8.76,2.99-8.83,3.03c-0.04,0.02-3.37-1.83-4.75-2.53c-2.74,2.42-5.48,4.87-8.18,7.34
	c0.62,1.6,1.6,3.02,2.29,4.58c-1.83,2.62-4.07,6.02-5.03,9.06c-0.07,0.21,0,0-4.48,0.74c0.02,1.39-0.02,12.7-0.02,12.7l4.74,0.6
	c0.63,3.03,1.58,5.96,3.07,8.7c-0.85,1.48-1.98,2.79-2.78,4.31c2.47,2.77,4.95,5.55,7.44,8.3c1.28-0.8,4.65-2.42,4.65-2.42
	c4.52,3.08,8.68,4.26,8.68,4.26c0.24,1.45,0.76,3.42,1.04,4.86c3.65,0.23,7.3,0.43,10.96,0.6c0.77-1.49,1.04-3.17,1.69-4.7
	c3.12-0.59,9.26-3.31,9.48-3.18c0.67,0.4,2.18,2.15,3.31,2.92l9.11-8.02c-0.71-1.64-1.9-2.99-2.51-3.96
	c1.08-1.48,4.37-8.98,4.58-9.03c1.47-0.35,3.17-0.61,4.61-1.12c0.23-3.62,0.42-7.24,0.6-10.86c-1.35-0.68-3.2-1.01-4.61-1.52
	c-0.22-0.08-0.46-3.46-3.32-9.47c0.47-0.83,1.5-2.2,2.69-4.2l-7.77-8.77c-2.4,1.74-3.2,2.17-4.11,2.82c-2.73-1.9-5.7-3.3-8.88-4.26
	c-0.44-1.6-0.28-3.13-0.64-5.03c-3.62-0.23-7.72-0.25-11.34-0.42C125.91,179.25,125.62,180.91,124.99,182.45L124.99,182.45z
	 M157.51,212.19c-0.09,15.23-12.31,27.22-27.62,27.11c-15.11-0.11-26.9-12.23-26.81-27.58c0.09-14.92,12.29-26.82,27.38-26.72
	C145.42,185.11,157.6,197.35,157.51,212.19L157.51,212.19z"/>
<path class="st1" d="M107.92,212.1c-0.03,12.61,10.08,22.48,23,22.46c11.58-0.01,21.84-10.62,21.76-22.52
	c-0.08-12.19-10.25-22.29-22.45-22.3C117.98,189.74,107.94,199.79,107.92,212.1L107.92,212.1z M131.03,193.66
	c9.99,0.28,17.96,8.79,17.73,18.91c-0.23,10.28-8.56,18.29-18.79,18.08c-10.47-0.22-18.41-8.66-18.13-19.27
	C112.11,201.36,120.76,193.37,131.03,193.66L131.03,193.66z"/>
<path class="st1" d="M121.98,212.23c0,4.48,3.73,8.25,8.23,8.3c4.57,0.05,8.38-3.72,8.41-8.29c0.02-4.56-3.8-8.45-8.31-8.45
	C125.82,203.79,121.98,207.68,121.98,212.23L121.98,212.23z"/>
<path class="st1" d="M227.01,139.93l0.07-2.88l-9.69-1.3l-1.63,5.82h-0.03c-1.83,0.01-3.46-1.09-4.04-2.81l-0.93-2.74l-9.6,2.1
	l0.46,6l-0.03,0.01c-1.72,0.63-3.64,0.15-4.78-1.25l-1.82-2.24l-8.36,5.24l2.5,5.46l-0.03,0.02c-1.42,1.19-3.42,1.36-4.99,0.43
	l-2.44-1.45l-6.1,7.74l4.23,4.26l-0.01,0.03c-0.94,1.59-2.77,2.43-4.57,2.1l-2.81-0.52l-3.11,9.32l5.45,2.52v0.03
	c-0.35,1.81-1.8,3.23-3.62,3.53l-2.81,0.47l0.25,9.77l6.02,0.5v0.01c0.3,1.81-0.58,3.64-2.2,4.55l-2.5,1.4l3.59,9.04l5.85-1.59
	l0.02,0.02c0.91,1.59,0.7,3.58-0.52,4.98l-1.88,2.16l6.49,7.22l5.01-3.49l0.03,0.02c1.39,1.17,1.88,3.1,1.21,4.82l-1.05,2.69
	l8.61,4.53l3.53-4.97l0.03,0.01c1.72,0.62,2.84,2.26,2.79,4.1l-0.07,2.86l9.69,1.3l1.63-5.83h0.03c1.84-0.01,3.47,1.15,4.06,2.88
	l0.91,2.67l9.6-2.1l-0.46-6l0.03-0.01c1.73-0.64,3.67-0.11,4.82,1.3l1.78,2.19l8.35-5.23l-2.49-5.46l0.03-0.02
	c1.41-1.19,3.42-1.36,4.99-0.43l2.45,1.45l6.1-7.74l-4.23-4.26l0.06-0.1c0.91-1.54,2.69-2.36,4.44-2.04l2.9,0.54l3.11-9.32
	l-5.45-2.52v-0.03c0.35-1.81,1.8-3.23,3.62-3.54l2.8-0.47l-0.25-9.77l-6.02-0.5v-0.02c-0.3-1.82,0.58-3.64,2.21-4.55l2.49-1.4
	l-3.59-9.04L251.3,162l-0.02-0.03c-0.9-1.58-0.73-3.56,0.48-4.95l1.9-2.19l-6.49-7.22l-4.99,3.48l-0.03-0.02
	c-1.39-1.16-1.9-3.07-1.24-4.78l1.06-2.72l-8.61-4.54l-3.51,4.95l-0.03-0.01c-1.71-0.62-2.86-2.23-2.81-4.06L227.01,139.93z
	 M215.22,219.5c-2.7,0-4.89-2.2-4.88-4.89c0-2.7,2.2-4.89,4.9-4.88c2.7,0.01,4.88,2.2,4.88,4.9
	C220.12,217.32,217.92,219.5,215.22,219.5z M235.4,207.93c1.34,2.34,0.54,5.33-1.8,6.67c-2.34,1.35-5.32,0.54-6.67-1.8
	c-1.34-2.34-0.54-5.33,1.8-6.67C231.07,204.79,234.06,205.59,235.4,207.93z M201.76,206.08c2.34,1.35,3.13,4.35,1.78,6.68
	c-1.35,2.34-4.35,3.13-6.68,1.78c-2.34-1.35-3.14-4.34-1.78-6.68S199.42,204.73,201.76,206.08L201.76,206.08z M178.54,182.68
	c0-2.7,2.2-4.88,4.9-4.88c2.7,0,4.88,2.2,4.88,4.9c0,2.7-2.2,4.88-4.89,4.88C180.72,187.58,178.54,185.38,178.54,182.68z
	 M183.44,201.06c-1.34-2.34-0.54-5.32,1.8-6.67c2.34-1.35,5.33-0.54,6.68,1.8c1.34,2.34,0.54,5.33-1.8,6.67
	C187.76,204.21,184.78,203.4,183.44,201.06L183.44,201.06z M245.3,194.49c2.34,1.35,3.13,4.34,1.78,6.68
	c-1.35,2.34-4.35,3.13-6.68,1.78c-2.34-1.35-3.13-4.34-1.78-6.68C239.98,193.94,242.97,193.14,245.3,194.49z M252.03,182.81
	c0,2.7-2.19,4.88-4.9,4.88c-2.7,0-4.88-2.19-4.88-4.89c0.01-2.7,2.2-4.89,4.9-4.88C249.85,177.91,252.03,180.11,252.03,182.81
	L252.03,182.81z M234.94,182.78c-0.02,10.85-8.83,19.63-19.68,19.62c-10.85-0.02-19.63-8.83-19.62-19.69
	c0.02-10.85,8.83-19.63,19.68-19.62C226.17,163.12,234.95,171.93,234.94,182.78L234.94,182.78z M247.14,164.43
	c1.35,2.34,0.54,5.32-1.8,6.67c-2.34,1.35-5.33,0.54-6.67-1.8c-1.34-2.34-0.54-5.33,1.8-6.67
	C242.8,161.28,245.79,162.09,247.14,164.43z M190.18,162.55c2.34,1.35,3.13,4.35,1.78,6.68c-1.35,2.34-4.35,3.13-6.68,1.78
	c-2.34-1.35-3.13-4.35-1.78-6.68S187.84,161.19,190.18,162.55z M195.17,157.57c-1.35-2.34-0.54-5.33,1.8-6.67
	c2.34-1.34,5.33-0.54,6.67,1.8c1.34,2.34,0.54,5.33-1.8,6.68C199.5,160.71,196.52,159.91,195.17,157.57z M233.71,150.96
	c2.33,1.35,3.13,4.34,1.78,6.68c-1.35,2.33-4.34,3.13-6.68,1.78c-2.34-1.35-3.13-4.35-1.78-6.68
	C228.39,150.4,231.38,149.6,233.71,150.96L233.71,150.96z M220.23,150.9c0,2.7-2.2,4.88-4.9,4.88c-2.7,0-4.88-2.19-4.88-4.9
	c0-2.7,2.2-4.88,4.9-4.88C218.04,146,220.23,148.2,220.23,150.9z"/>
<path class="st1" d="M209.1,182.74c-0.01,3.42,2.76,6.2,6.18,6.2c3.42,0,6.2-2.76,6.2-6.18s-2.76-6.19-6.18-6.2
	C211.88,176.55,209.1,179.32,209.1,182.74z"/>
<path class="st1" d="M203.95,171.38c-3.04,3.03-4.71,7.06-4.72,11.35c-0.01,4.29,1.66,8.33,4.68,11.37
	c3.03,3.04,7.06,4.71,11.35,4.72c4.29,0.01,8.32-1.66,11.37-4.68c3.04-3.03,4.71-7.06,4.72-11.35c0.01-8.85-7.18-16.07-16.04-16.09
	C211.02,166.69,206.99,168.35,203.95,171.38L203.95,171.38z M229.39,182.78c-0.01,3.77-1.48,7.31-4.15,9.97
	c-2.67,2.66-6.21,4.12-9.98,4.11c-3.77-0.01-7.31-1.48-9.97-4.14c-2.66-2.67-4.12-6.21-4.11-9.98c0.01-3.77,1.48-7.31,4.14-9.97
	c2.67-2.66,6.21-4.12,9.98-4.11C223.08,168.67,229.4,175.01,229.39,182.78L229.39,182.78z"/>
</svg>
