<svg width="615" height="45" viewBox="0 0 615 45" fill="none" xmlns="http://www.w3.org/2000/svg">
<path d="M274.646 17.9188L274.692 16.1223L268.644 15.314L267.63 18.9483H267.609C266.467 18.9535 265.452 18.2689 265.087 17.1981L264.51 15.4889L258.513 16.7965L258.802 20.5442H258.781C257.705 20.9457 256.511 20.6472 255.801 19.772L254.663 18.3717L249.443 21.6406L251.003 25.0486L250.988 25.0589C250.102 25.8001 248.851 25.9083 247.868 25.3266L246.344 24.4204L242.535 29.2543L245.176 31.9106L245.166 31.926C244.579 32.9195 243.436 33.4447 242.314 33.2388L240.558 32.9143L238.613 38.7315L242.015 40.3067V40.3271C241.799 41.4596 240.893 42.3452 239.755 42.5305L238 42.8238L238.16 48.924L241.917 49.2329V49.2433C242.108 50.3758 241.557 51.5133 240.543 52.0796L238.983 52.9548L241.222 58.6018L244.877 57.6084L244.888 57.6238C245.454 58.6122 245.32 59.8631 244.563 60.7331L243.384 62.0819L247.436 66.5912L250.56 64.4087L250.576 64.419C251.446 65.15 251.749 66.3545 251.327 67.4252L250.668 69.1086L256.043 71.9399L258.246 68.8358H258.261C259.337 69.2322 260.032 70.2565 260.006 71.4045L259.96 73.1909L266.008 73.999L267.022 70.3596H267.043C268.196 70.3544 269.21 71.075 269.576 72.156L270.142 73.824L276.139 72.5165L275.851 68.7687H275.871C276.957 68.3621 278.162 68.6917 278.878 69.5771L279.989 70.9465L285.204 67.6776L283.649 64.2697L283.665 64.2594C284.55 63.5181 285.801 63.41 286.779 63.9917L288.308 64.8978L292.117 60.064L289.477 57.4076L289.513 57.3407C290.079 56.3781 291.191 55.8684 292.282 56.0691L294.094 56.4039L296.035 50.5868L292.632 49.0115V48.9909C292.848 47.8584 293.754 46.9729 294.892 46.7825L296.642 46.4891L296.483 40.3889L292.725 40.075V40.0647C292.534 38.9322 293.09 37.7893 294.104 37.2231L295.659 36.3531L293.42 30.7111L289.775 31.6995L289.765 31.6841C289.204 30.6958 289.307 29.4602 290.063 28.5902L291.252 27.2261L287.201 22.7165L284.087 24.8889L284.072 24.8786C283.202 24.1528 282.882 22.9636 283.299 21.898L283.963 20.1994L278.589 17.3681L276.396 20.4567H276.381C275.31 20.0604 274.6 19.0565 274.626 17.9188H274.646ZM289.6 44.6927C289.58 56.9908 279.593 66.9466 267.29 66.926C254.992 66.9054 245.037 56.9185 245.057 44.6153C245.078 32.3171 255.064 22.3613 267.367 22.3819C279.665 22.4025 289.621 32.3894 289.6 44.6927Z" fill="#006867"/>
<path d="M267.362 23.8695C255.883 23.8489 246.56 33.1408 246.545 44.6204C246.524 56.1 255.816 65.4226 267.295 65.4381C278.774 65.4535 288.097 56.1669 288.112 44.6872C288.133 33.2076 278.841 23.885 267.362 23.8695ZM255.162 50.5969C251.873 50.5918 249.206 47.92 249.211 44.6254C249.217 41.336 251.888 38.6694 255.183 38.6745C258.477 38.6797 261.139 41.3514 261.133 44.646C261.128 47.9406 258.457 50.6021 255.162 50.5969ZM267.295 62.7714C264.006 62.7663 261.339 60.0894 261.344 56.7999C261.35 53.5105 264.021 50.8441 267.316 50.8493C270.605 50.8544 273.272 53.5259 273.266 56.8205C273.261 60.1151 270.59 62.7766 267.295 62.7714ZM265.365 44.6513C265.365 43.5703 266.245 42.695 267.326 42.695C268.407 42.695 269.282 43.5753 269.282 44.6563C269.282 45.7374 268.402 46.6126 267.321 46.6126C266.24 46.6126 265.365 45.7323 265.365 44.6513ZM267.331 38.4636C264.042 38.4585 261.375 35.7816 261.381 32.4921C261.386 29.2027 264.057 26.5361 267.352 26.5412C270.641 26.5464 273.308 29.2233 273.302 32.5127C273.297 35.8022 270.626 38.4688 267.331 38.4636ZM279.464 50.6381C276.175 50.633 273.508 47.9612 273.514 44.6666C273.519 41.3772 276.19 38.7106 279.485 38.7157C282.774 38.7209 285.441 41.3926 285.435 44.6872C285.43 47.9767 282.759 50.6433 279.464 50.6381Z" fill="#006867"/>
<path d="M328.224 29.4402C326.618 29.2857 327.369 27 327.369 27H323.529C323.529 27 324.281 29.2343 322.618 29.4402C321.048 29.6358 320.971 27.4429 320.971 27.4429L317.362 28.7502C317.362 28.7502 318.937 30.4336 317.383 31.3447C316.014 32.1478 315.113 30.0475 315.113 30.0475L312.168 32.5133C312.168 32.5133 314.078 33.6304 313.054 34.9688C312.05 36.2763 310.495 34.5005 310.495 34.5005L308.57 37.826C308.57 37.826 310.886 38.1296 310.248 39.7924C309.522 41.6765 307.674 40.2659 307.674 40.2659L307 44.0446C307 44.0446 309.337 43.54 309.25 45.3469C309.157 47.2413 307 46.6441 307 46.6441L307.659 50.4278C307.659 50.4278 309.641 49.0583 310.228 50.927C310.768 52.6412 308.544 52.8677 308.544 52.8677L310.459 56.1985C310.459 56.1985 311.808 54.2938 313.002 55.7352C314.176 57.1457 312.127 58.1958 312.127 58.1958L315.066 60.6719C315.066 60.6719 315.777 58.4325 317.311 59.3797C318.665 60.2136 317.311 61.9742 317.311 61.9742L320.919 63.292C320.919 63.292 320.641 60.9344 322.582 61.3051C324.43 61.6551 323.472 63.745 323.472 63.745H327.313C327.313 63.745 326.35 61.65 328.183 61.3154C330.17 60.9499 329.871 63.3076 329.871 63.3076L333.485 62.0001C333.485 62.0001 332.218 60.1777 333.438 59.4262C335.029 58.4429 335.734 60.7078 335.734 60.7078L338.679 58.242C338.679 58.242 336.826 57.0066 337.773 55.8071C338.843 54.4532 340.352 56.255 340.352 56.255L342.277 52.9296C342.277 52.9296 340.069 52.6979 340.604 50.9476C341.103 49.3106 343.173 50.4894 343.173 50.4894L343.847 46.7059C343.847 46.7059 341.52 47.303 341.597 45.4034C341.675 43.509 343.852 44.1062 343.852 44.1062L343.193 40.3225C343.193 40.3225 341.175 41.5427 340.64 39.8851C340.182 38.4592 342.313 37.8825 342.313 37.8825L340.398 34.5518C340.398 34.5518 338.849 36.3279 337.85 35.0306C336.82 33.6973 338.73 32.5598 338.73 32.5598L335.791 30.0837C335.791 30.0837 334.895 32.184 333.541 31.3912C332.254 30.6396 333.541 28.7811 333.541 28.7811L329.933 27.4633C329.933 27.4633 329.953 29.6152 328.234 29.4505L328.224 29.4402ZM318.134 55.5291C315.36 54.1238 313.61 51.7866 312.858 48.8267C312.441 47.1845 312.503 45.424 312.333 43.5914C314.876 45.0173 317.079 46.1241 319.138 47.4522C320.456 48.3016 321.758 49.3157 322.711 50.5409C323.823 51.972 323.57 53.7584 322.551 54.8497C321.444 56.0337 319.761 56.3579 318.129 55.5291H318.134ZM335.173 48.2965C336.228 49.3055 336.548 50.5719 336.095 51.9412C335.183 54.7056 333.088 56.3579 330.551 57.4905C328.461 58.4222 326.252 58.6796 324.064 58.2317C325.382 55.8534 326.643 53.5525 327.93 51.2565C328.795 49.7173 329.809 48.3275 331.595 47.7458C332.882 47.3237 334.123 47.2927 335.173 48.2965ZM325.084 48.5489C323.452 48.3842 322.098 46.7163 322.247 45.0535C322.407 43.2981 324.044 41.9595 325.794 42.1448C327.534 42.3301 328.826 43.9877 328.61 45.7586C328.414 47.4162 326.762 48.7188 325.079 48.5489H325.084ZM332.399 34.8504C336.12 36.5646 337.922 39.6533 338.432 43.5811C338.571 44.6518 338.447 45.7535 338.442 46.85C335.95 45.4549 333.696 44.1732 331.42 42.9223C329.856 42.0626 328.466 41.0484 327.858 39.2776C327.4 37.9494 327.344 36.6212 328.461 35.5814C329.583 34.5364 330.942 34.1812 332.399 34.8504ZM327.035 32.5751C325.768 34.8299 324.656 37.0897 323.282 39.1745C322.402 40.5078 321.3 41.8103 320.013 42.7317C318.572 43.7613 316.889 43.3959 315.869 42.3303C314.773 41.1875 314.567 39.5709 315.329 38.006C317.311 33.9134 322.772 31.422 327.04 32.5751H327.035Z" fill="#006867"/>
<path d="M492.694 4.1748L492.766 1.29726L483.078 0L481.451 5.81692H481.42C479.593 5.82722 477.961 4.73089 477.379 3.01152L476.453 0.272723L466.852 2.36804L467.31 8.37022L467.28 8.38052C465.555 9.0137 463.64 8.53512 462.503 7.12977L460.685 4.88514L452.326 10.1207L454.822 15.5771L454.797 15.5978C453.376 16.7869 451.373 16.9568 449.803 16.0251L447.363 14.5735L441.258 22.3158L445.49 26.573L445.474 26.5987C444.537 28.1894 442.705 29.0336 440.903 28.699L438.092 28.179L434.978 37.4966L440.429 40.0189V40.0499C440.079 41.8619 438.633 43.2777 436.811 43.5814L434 44.0497L434.252 53.8202L440.27 54.3197V54.335C440.574 56.147 439.693 57.9746 438.072 58.8806L435.575 60.2809L439.163 69.3255L445.016 67.7349L445.031 67.7605C445.937 69.3461 445.726 71.3435 444.512 72.7437L442.627 74.9056L449.119 82.1282L454.127 78.6328L454.153 78.6534C455.548 79.8219 456.032 81.7574 455.363 83.4717L454.313 86.164L462.92 90.6992L466.451 85.7316L466.482 85.7419C468.201 86.3648 469.323 88.0068 469.277 89.8446L469.205 92.7018L478.898 93.999L480.525 88.1665H480.555C482.398 88.1562 484.025 89.3145 484.617 91.0494L485.523 93.721L495.123 91.6257L494.665 85.6235L494.696 85.6132C496.431 84.9749 498.366 85.4999 499.514 86.9155L501.29 89.1086L509.645 83.8733L507.153 78.4113L507.179 78.3907C508.595 77.2016 510.597 77.0266 512.167 77.9584L514.612 79.41L520.712 71.6677L516.481 67.4104L516.543 67.3076C517.454 65.7633 519.23 64.9448 520.98 65.2691L523.883 65.8095L526.998 56.4919L521.546 53.9695V53.9386C521.896 52.1266 523.348 50.7111 525.17 50.4023L527.976 49.9337L527.723 40.1682L521.706 39.669V39.6535C521.402 37.8363 522.287 36.0089 523.914 35.1029L526.406 33.7078L522.818 24.6683L516.985 26.2485L516.97 26.2229C516.074 24.6425 516.239 22.6606 517.454 21.2707L519.358 19.0828L512.872 11.8606L507.884 15.3404L507.859 15.3198C506.469 14.1564 505.954 12.2518 506.618 10.5427L507.678 7.82452L499.072 3.28952L495.561 8.23649L495.53 8.22619C493.816 7.6033 492.673 5.99725 492.719 4.16978L492.694 4.1748ZM480.911 83.7446C478.213 83.7446 476.025 81.5464 476.031 78.8489C476.031 76.1515 478.229 73.9637 480.926 73.9688C483.623 73.974 485.811 76.1668 485.806 78.8643C485.806 81.5617 483.608 83.7498 480.911 83.7446ZM501.089 72.1774C502.433 74.5197 501.63 77.5054 499.288 78.8489C496.951 80.1977 493.965 79.3896 492.616 77.0525C491.273 74.7154 492.076 71.7243 494.418 70.3807C496.755 69.032 499.746 69.8403 501.089 72.1774ZM467.444 70.3294C469.781 71.6833 470.579 74.674 469.22 77.006C467.866 79.3431 464.876 80.1411 462.544 78.7821C460.207 77.4282 459.409 74.4424 460.763 72.1053C462.116 69.7682 465.107 68.9754 467.439 70.3241L467.444 70.3294ZM444.228 46.9325C444.228 44.2351 446.426 42.0524 449.124 42.0524C451.821 42.0524 454.009 44.2504 454.004 46.9479C453.999 49.6453 451.806 51.8334 449.108 51.8282C446.411 51.8282 444.223 49.63 444.228 46.9325ZM449.124 65.3103C447.78 62.9732 448.583 59.9875 450.92 58.6388C453.263 57.29 456.248 58.0981 457.597 60.4352C458.94 62.7775 458.137 65.7632 455.795 67.1068C453.453 68.4555 450.467 67.6473 449.124 65.305V65.3103ZM510.988 58.7416C513.325 60.0955 514.118 63.0864 512.764 65.4184C511.416 67.7555 508.42 68.5482 506.088 67.1995C503.751 65.8456 502.953 62.8548 504.312 60.5177C505.666 58.1857 508.656 57.3877 510.988 58.7416ZM517.716 47.0562C517.716 49.7537 515.523 51.9363 512.821 51.9363C510.124 51.9363 507.936 49.7432 507.941 47.0406C507.946 44.3432 510.139 42.1554 512.836 42.1605C515.534 42.1605 517.721 44.3587 517.711 47.0562H517.716ZM500.626 47.0303C500.606 57.8819 491.798 66.664 480.941 66.6485C470.09 66.6279 461.308 57.8202 461.324 46.9635C461.344 36.1119 470.157 27.3298 481.008 27.3452C491.86 27.3658 500.642 36.1737 500.626 47.0253V47.0303ZM512.826 28.6784C514.175 31.0155 513.367 34.0012 511.024 35.35C508.687 36.6987 505.697 35.8905 504.353 33.5482C503.009 31.2111 503.813 28.2203 506.155 26.8767C508.492 25.528 511.483 26.3362 512.826 28.6784ZM455.862 26.7942C458.199 28.1481 458.992 31.139 457.643 33.4761C456.289 35.8132 453.299 36.6061 450.962 35.2522C448.624 33.8983 447.832 30.9074 449.186 28.5703C450.539 26.2332 453.525 25.4404 455.862 26.7942ZM460.855 21.8164C459.507 19.4741 460.315 16.4884 462.657 15.1448C464.994 13.8012 467.985 14.6044 469.328 16.9415C470.672 19.2838 469.869 22.2694 467.532 23.6181C465.19 24.9617 462.204 24.1586 460.855 21.8164ZM499.401 15.2066C501.733 16.5554 502.531 19.5461 501.177 21.8832C499.823 24.2152 496.832 25.0132 494.5 23.6593C492.163 22.3054 491.371 19.3146 492.724 16.9775C494.078 14.6455 497.069 13.8475 499.401 15.2014V15.2066ZM485.914 15.1448C485.914 17.8423 483.716 20.0249 481.019 20.0249C478.321 20.0249 476.134 17.8321 476.139 15.1295C476.139 12.432 478.337 10.2494 481.034 10.2494C483.732 10.2494 485.919 12.4422 485.914 15.1448Z" fill="#006867"/>
<path d="M474.785 46.9944C474.78 50.4177 477.544 53.1923 480.967 53.1974C484.39 53.2026 487.165 50.4332 487.17 47.015C487.175 43.5969 484.411 40.8221 480.988 40.8118C477.57 40.8066 474.79 43.5763 474.785 46.9944Z" fill="#006867"/>
<path d="M469.637 35.628C466.6 38.6601 464.922 42.6907 464.917 46.9788C464.907 51.2721 466.575 55.308 469.601 58.3452C472.628 61.3824 476.659 63.0606 480.952 63.0657C485.245 63.0709 489.276 61.4083 492.318 58.3814C495.355 55.3545 497.033 51.3238 497.038 47.0356C497.054 38.1814 489.857 30.9642 481.003 30.9487C476.71 30.9436 472.68 32.6061 469.643 35.633L469.637 35.628ZM495.077 47.0304C495.072 50.7986 493.6 54.3402 490.928 56.9965C488.262 59.6579 484.715 61.12 480.947 61.1097C477.179 61.0994 473.637 59.6323 470.981 56.9658C468.32 54.2992 466.863 50.7523 466.868 46.9841C466.873 43.2159 468.345 39.6743 471.012 37.018C473.678 34.3566 477.225 32.8945 480.993 32.9048C488.771 32.9203 495.087 39.2573 495.077 47.0356V47.0304Z" fill="#006867"/>
<path d="M579.358 14.8019C576.305 14.5085 577.731 10.1639 577.731 10.1639L570.432 10.1536C570.432 10.1536 571.857 14.4055 568.697 14.8019C565.716 15.1726 565.567 11.0029 565.567 11.0029L558.705 13.4893C558.705 13.4893 561.696 16.686 558.741 18.4157C556.137 19.9446 554.422 15.9499 554.422 15.9499L548.822 20.6294C548.822 20.6294 552.451 22.7554 550.505 25.2984C548.6 27.7899 545.64 24.4078 545.64 24.4078L541.98 30.7242C541.98 30.7242 546.387 31.3059 545.172 34.4564C543.798 38.0341 540.287 35.3622 540.287 35.3622L539.005 42.5488C539.005 42.5488 543.448 41.586 543.278 45.0247C543.098 48.6282 539 47.4855 539 47.4855L540.256 54.6768C540.256 54.6768 544.019 52.0772 545.136 55.6292C546.16 58.8878 541.939 59.3202 541.939 59.3202L545.579 65.6468C545.579 65.6468 548.137 62.0229 550.412 64.7616C552.641 67.4436 548.745 69.4358 548.745 69.4358L554.33 74.1407C554.33 74.1407 555.684 69.8836 558.597 71.6802C561.176 73.2709 558.597 76.6118 558.597 76.6118L565.454 79.1186C565.454 79.1186 564.929 74.6401 568.62 75.3402C572.135 76.0094 570.318 79.9835 570.318 79.9835L577.618 79.9991C577.618 79.9991 575.79 76.0044 579.27 75.3661C583.043 74.6711 582.477 79.1495 582.477 79.1495L589.344 76.6634C589.344 76.6634 586.935 73.1987 589.257 71.7677C592.278 69.9042 593.622 74.2026 593.622 74.2026L599.222 69.518C599.222 69.518 595.701 67.1706 597.503 64.8953C599.531 62.3265 602.404 65.7396 602.404 65.7396L606.064 59.4232C606.064 59.4232 601.868 58.9805 602.882 55.6601C603.835 52.5509 607.762 54.7852 607.762 54.7852L609.044 47.5986C609.044 47.5986 604.622 48.7312 604.772 45.1277C604.921 41.5243 609.054 42.6619 609.054 42.6619L607.798 35.4706C607.798 35.4706 603.958 37.7922 602.939 34.6366C602.064 31.9288 606.115 30.8323 606.115 30.8323L602.476 24.5056C602.476 24.5056 599.531 27.8774 597.637 25.4168C595.686 22.8789 599.31 20.7219 599.31 20.7219L593.725 16.022C593.725 16.022 592.026 20.0116 589.452 18.5084C587.007 17.0774 589.452 13.5512 589.452 13.5512L582.595 11.0441C582.595 11.0441 582.632 15.1367 579.363 14.8175L579.358 14.8019ZM591.959 63.5364C588.917 66.4913 585.154 68.6995 580.964 69.8732L579.445 54.5122L591.959 63.5364ZM566.998 69.8629C562.901 68.7098 559.138 66.5427 556.013 63.4849L568.558 54.4762L566.993 69.8629H566.998ZM548.266 45.035C548.266 42.842 548.549 40.7161 549.069 38.6827L563.158 45.0556L549.038 51.3926C548.523 49.3386 548.261 47.2074 548.261 45.035H548.266ZM599.778 45.1227C599.778 47.3157 599.495 49.4415 598.975 51.4698L584.907 45.1021L598.996 38.7702C599.511 40.8035 599.784 42.9298 599.778 45.1227ZM581.576 45.0918C581.571 49.2667 578.179 52.6435 574.004 52.6383C569.829 52.6332 566.447 49.2408 566.458 45.0659C566.463 40.891 569.855 37.5142 574.03 37.5194C578.205 37.5297 581.581 40.9169 581.576 45.0918ZM592.016 26.6781L579.471 35.6712L581.041 20.2999C585.231 21.489 588.984 23.7129 592.016 26.6781ZM568.609 35.6609L556.085 26.6162C559.127 23.6614 562.89 21.4531 567.08 20.2742L568.609 35.6558V35.6609Z" fill="#006867"/>
<path d="M384.017 15.6946C381.001 16.266 375.256 18.6857 375.184 18.7217C375.148 18.7423 371.812 16.894 370.433 16.1888C367.689 18.6134 364.956 21.0586 362.248 23.5244C362.871 25.1202 363.849 26.5411 364.539 28.1009C362.711 30.7263 360.467 34.1239 359.504 37.1611C359.437 37.367 359.504 37.161 355.021 37.9023C355.036 39.2974 355 50.6072 355 50.6072L359.736 51.2042C360.369 54.2362 361.316 57.1654 362.804 59.8989C361.954 61.3815 360.827 62.6942 360.024 64.2077C362.495 66.9823 364.971 69.7571 367.468 72.506C368.744 71.7081 372.116 70.0864 372.116 70.0864C376.636 73.17 380.8 74.3487 380.8 74.3487C381.037 75.8004 381.557 77.7721 381.84 79.2135C385.49 79.44 389.144 79.6407 392.799 79.8157C393.571 78.3229 393.834 76.6448 394.493 75.1159C397.612 74.5239 403.753 71.8057 403.975 71.9344C404.644 72.3359 406.152 74.0813 407.285 74.8534L416.396 66.8278C415.691 65.1908 414.502 63.8423 413.889 62.8642C414.97 61.3867 418.254 53.8864 418.465 53.8349C419.933 53.4848 421.636 53.2223 423.073 52.7179C423.299 49.0989 423.495 45.48 423.67 41.8559C422.316 41.1764 420.473 40.847 419.057 40.3322C418.841 40.255 418.599 36.8728 415.742 30.8653C416.211 30.0365 417.24 28.6671 418.435 26.6646L410.667 17.898C408.268 19.6328 407.465 20.0702 406.559 20.7137C403.826 18.8193 400.86 17.4141 397.674 16.4514C397.237 14.8505 397.391 13.3216 397.031 11.422C393.412 11.1955 389.314 11.175 385.69 11C384.939 12.498 384.65 14.1607 384.022 15.6999L384.017 15.6946ZM416.54 45.4388C416.448 60.666 404.227 72.6604 388.918 72.5523C373.804 72.4441 362.021 60.3212 362.109 44.9755C362.196 30.0572 374.402 18.1502 389.494 18.2532C404.448 18.3561 416.623 30.5977 416.535 45.4388H416.54Z" fill="#006867"/>
<path d="M366.948 45.3461C366.922 57.9531 377.027 67.8215 389.948 67.8112C401.53 67.8009 411.789 57.1912 411.712 45.2946C411.635 33.1046 401.463 22.9995 389.263 22.9944C377.011 22.9944 366.974 33.043 366.948 45.3411V45.3461ZM390.066 26.9118C400.052 27.1949 408.026 35.7044 407.8 45.825C407.568 56.1103 399.239 64.1203 389.011 63.9041C378.54 63.6828 370.597 55.2454 370.875 44.6358C371.138 34.613 379.796 26.6184 390.071 26.9118H390.066Z" fill="#006867"/>
<path d="M381.006 45.4801C381.001 49.9638 384.733 53.7267 389.237 53.7782C393.803 53.8297 397.623 50.0615 397.643 45.4851C397.664 40.9242 393.844 37.0376 389.33 37.0325C384.851 37.0325 381.006 40.9294 381.001 45.4801H381.006Z" fill="#006867"/>
<path d="M30.0726 23.1363L30.1086 21.6641L25.1463 21L24.3124 23.9806H24.2969C23.3601 23.9857 22.5261 23.4246 22.2276 22.5443L21.754 21.144L16.8328 22.2148L17.0696 25.2932H17.0542C16.1739 25.6227 15.1907 25.3807 14.6091 24.66L13.6773 23.5121L9.39447 26.1941L10.6711 28.9894L10.6608 28.9997C9.93499 29.6072 8.90544 29.6945 8.10241 29.2209L6.85153 28.4797L3.7269 32.4486L5.89407 34.6261L5.88377 34.6417C5.40504 35.455 4.46302 35.8874 3.54159 35.7175L2.10025 35.4498L0.50446 40.2218L3.29451 41.5138V41.5294C3.11434 42.456 2.37306 43.1817 1.44134 43.3362L0 43.5729L0.128691 48.5767L3.21213 48.8341V48.8444C3.36656 49.771 2.91357 50.7079 2.08479 51.1712L0.803033 51.8868L2.64075 56.5199L5.63669 55.7065L5.64696 55.7218C6.11025 56.5352 6.00217 57.5596 5.37931 58.2751L4.41155 59.3818L7.73691 63.0833L10.3005 61.2919L10.3107 61.3022C11.0263 61.8994 11.2734 62.8927 10.9285 63.7678L10.388 65.1475L14.7995 67.4693L16.6063 64.921H16.6218C17.502 65.2453 18.0786 66.0895 18.0528 67.0264L18.0168 68.4885L22.9791 69.1526L23.8131 66.1667H23.8285C24.7705 66.1667 25.6045 66.7537 25.9082 67.6442L26.3714 69.0136L31.2926 67.9376L31.0558 64.8592H31.0712C31.9618 64.5297 32.9501 64.7974 33.5421 65.5233L34.4533 66.6456L38.731 63.9636L37.4544 61.1682L37.4646 61.1579C38.1904 60.5505 39.2148 60.4577 40.0179 60.9365L41.2739 61.683L44.3985 57.7191L42.2314 55.5366L42.2622 55.485C42.7255 54.6923 43.6418 54.2754 44.5324 54.4401L46.0201 54.7181L47.6158 49.9461L44.8258 48.6539V48.6386C45.006 47.7119 45.7472 46.9861 46.6841 46.8265L48.1203 46.5845L47.9916 41.5809L44.9081 41.3235V41.3132C44.7537 40.3815 45.2067 39.4496 46.0406 38.9811L47.3172 38.2658L45.4795 33.6327L42.4887 34.4409L42.4785 34.4253C42.0203 33.6171 42.1027 32.6031 42.7255 31.8876L43.7036 30.7653L40.3782 27.064L37.825 28.8451L37.8147 28.8348C37.1043 28.2377 36.8366 27.2647 37.1815 26.3896L37.7272 24.9946L33.3156 22.673L31.5139 25.2057H31.4985C30.6183 24.8814 30.0366 24.0576 30.0572 23.1207L30.0726 23.1363ZM6.65076 38.9092C13.4354 42.6568 14.9694 49.9873 9.43566 56.1441C5.69846 52.0619 4.58141 45.1278 6.65076 38.9092ZM30.1035 62.275C25.8515 64.8592 16.385 63.2686 12.6015 59.3306C18.1094 54.4504 25.1978 54.4966 30.1035 62.275ZM33.9642 60.4682C31.0609 53.6937 32.595 46.7133 42.3189 44.2526C43.4668 49.4828 39.2869 57.5957 33.9642 60.4682ZM28.0238 43.2024C29.0482 45.4366 28.0805 48.0311 25.8412 49.0452C23.6483 50.0388 20.951 49.009 19.9935 46.8109C19.036 44.6128 20.1016 41.9206 22.2945 40.9734C24.4617 40.0365 27.0303 41.0404 28.0238 43.2024ZM41.871 40.1394C33.4186 40.7365 28.1217 36.5977 28.7085 27.1515C35.4571 29.2312 39.812 33.473 41.871 40.1394ZM24.5028 26.7448C22.7578 34.7496 16.0658 38.2296 8.75617 34.9247C11.0778 30.0652 19.2883 25.8027 24.5028 26.7448Z" fill="#006867"/>
<path d="M96.5933 11.6999H96.5676L95.2704 7L87.4614 8.01926L87.5129 10.3202C87.5438 11.7976 86.6378 13.1205 85.253 13.6147L85.2325 13.625L82.4013 9.61488L75.4571 13.2442L76.2961 15.4165C76.8315 16.8012 76.4351 18.356 75.3129 19.2929L75.2923 19.3082L71.2669 16.4769L66.0214 22.2785L67.5348 24.0237C68.5129 25.1511 68.6776 26.7622 67.9415 28.0389L67.9312 28.0595L63.2211 26.7623L60.3075 34.0363L62.3151 35.1687C63.6174 35.9048 64.3278 37.3771 64.0756 38.834V38.8443L59.2265 39.2304L59 47.1014L61.265 47.4875C62.7321 47.7346 63.8954 48.8825 64.1682 50.3394V50.365L59.7773 52.3829L62.2585 59.8988L64.5234 59.487C65.9751 59.2245 67.4473 59.904 68.1989 61.191L68.2092 61.2113L64.786 64.6296L69.6814 70.8841L71.6529 69.7208C72.9193 68.9744 74.5356 69.1186 75.6733 70.0813L75.6938 70.0966L73.6708 74.4876L80.3885 78.7242L81.8608 76.9174C82.7822 75.7901 84.3265 75.409 85.7112 75.9238L85.7369 75.9341L85.3509 80.768L93.0775 82.4823L93.8342 80.2788C94.3078 78.8941 95.6256 78.014 97.0978 78.0294H97.1235L98.4208 82.719L106.23 81.6998L106.178 79.3833C106.147 77.911 107.069 76.6189 108.454 76.1247L108.479 76.1143L111.295 80.1092L118.239 76.4798L117.39 74.287C116.86 72.9074 117.277 71.3732 118.399 70.4415L118.419 70.4261L122.424 73.2418L127.67 67.4455L126.141 65.6797C125.168 64.5575 125.039 62.9617 125.765 61.6902L125.775 61.6696L130.47 62.9565L133.384 55.6827L131.381 54.5554C130.074 53.8193 129.368 52.347 129.616 50.8851V50.8748L134.465 50.4887L134.696 42.6227L132.436 42.2366C130.969 41.9844 129.806 40.8416 129.533 39.3797V39.3538L133.924 37.3359L131.443 29.82L129.106 30.2473C127.695 30.5047 126.264 29.8407 125.539 28.5949L125.487 28.5127L128.91 25.0945L124.015 18.84L122.038 20.0032C120.772 20.7497 119.161 20.6054 118.023 19.6428L118.002 19.6275L120.025 15.2365L113.308 10.9946L111.872 12.7551C110.945 13.8928 109.385 14.3097 107.985 13.795L107.959 13.7847L108.345 8.95104L100.619 7.23678L99.8827 9.3884C99.4039 10.7835 98.0913 11.7102 96.6036 11.6999H96.5933ZM93.6077 44.857C93.6025 48.7642 86.3083 51.9249 82.4013 51.9146C78.4942 51.9095 75.3284 48.7333 75.3387 44.8261C75.3438 40.9189 78.5199 37.7529 82.427 37.7632C86.3341 37.7735 93.618 40.9498 93.6128 44.857H93.6077ZM96.8456 42.5302C98.1325 42.5302 99.1723 43.575 99.1723 44.8671C99.1723 46.154 98.1222 47.1939 96.8404 47.1939C95.5535 47.1939 94.5085 46.144 94.5137 44.857C94.5188 43.57 95.5638 42.5302 96.8507 42.5302H96.8456ZM96.8353 48.0947C100.742 48.0999 103.903 55.3945 103.893 59.3068C103.882 63.2191 100.711 66.3798 96.8044 66.3695C92.8973 66.3643 89.7315 63.1881 89.7367 59.2809C89.7418 55.3737 92.923 48.0896 96.8301 48.0947H96.8353ZM100.073 44.8671C100.078 40.9599 107.373 37.7991 111.28 37.8094C115.187 37.8197 118.352 40.9908 118.347 44.898C118.342 48.8052 115.166 51.9712 111.259 51.9609C107.352 51.9506 100.068 48.7742 100.073 44.8671ZM96.8456 41.6293C92.9385 41.6242 89.7778 34.3297 89.7881 30.4225C89.7933 26.5153 92.9694 23.3494 96.8765 23.3546C100.784 23.3597 103.949 26.536 103.939 30.4431C103.934 34.3503 100.753 41.6345 96.8456 41.6293ZM87.5901 32.2549C88.5527 33.2227 88.5527 34.7878 87.5849 35.7556C86.6172 36.7182 85.0523 36.7181 84.0845 35.7503C83.1219 34.7825 83.1219 33.2176 84.0897 32.2549C85.0574 31.2923 86.6223 31.2924 87.5901 32.2602V32.2549ZM70.2528 44.8158C70.2579 40.2909 71.4059 36.0336 73.4134 32.3014L75.0607 33.2538C73.2178 36.7029 72.1677 40.6358 72.1626 44.8158C72.1574 48.9958 73.1921 52.9339 75.0247 56.388L73.3774 57.3352C71.3801 53.5979 70.2476 49.3354 70.2579 44.8105L70.2528 44.8158ZM84.2338 54.2824C85.2016 53.3198 86.7665 53.3199 87.7342 54.2877C88.6968 55.2555 88.6968 56.8204 87.7291 57.7831C86.7613 58.7457 85.1964 58.7456 84.2287 57.7778C83.2661 56.81 83.2661 55.2452 84.2338 54.2774V54.2824ZM74.2577 58.8642L75.9049 57.9168C80.1106 64.6501 87.4717 69.2009 95.919 69.515V71.4195C86.7768 71.1055 78.7979 66.1586 74.2577 58.8642ZM119.377 58.9361C114.811 66.2202 106.817 71.1365 97.6743 71.4248V69.52C106.127 69.2369 113.503 64.7068 117.735 57.9889L119.377 58.9413V58.9361ZM106.261 57.6388C105.298 56.671 105.298 55.1061 106.266 54.1434C107.234 53.1808 108.798 53.1809 109.761 54.1487C110.724 55.1165 110.724 56.6814 109.761 57.6441C108.793 58.6067 107.228 58.6066 106.266 57.6388H106.261ZM123.423 44.898C123.418 49.4229 122.27 53.6853 120.262 57.4123L118.615 56.4599C120.458 53.0109 121.508 49.0781 121.513 44.8929C121.518 40.7129 120.484 36.7749 118.651 33.3207L120.298 32.3736C122.29 36.1109 123.423 40.3731 123.418 44.898H123.423ZM109.617 35.6063C108.649 36.5689 107.084 36.5688 106.122 35.601C105.159 34.6332 105.159 33.0685 106.127 32.1059C107.095 31.1432 108.659 31.1431 109.622 32.1109C110.585 33.0787 110.585 34.6436 109.617 35.6063ZM119.418 30.8496L117.771 31.797C113.565 25.0636 106.204 20.5077 97.7567 20.1988V18.289C106.899 18.603 114.878 23.55 119.418 30.8496ZM95.9962 20.1938C87.5438 20.4769 80.1723 25.0069 75.941 31.7248L74.2989 30.7724C78.8648 23.4883 86.8591 18.5722 96.0014 18.284V20.1938H95.9962Z" fill="#006867"/>
<path d="M179.886 8.64701C176.257 9.33166 169.354 12.2403 169.266 12.2867C169.22 12.3073 165.21 10.0935 163.557 9.23895C160.258 12.1578 156.979 15.0922 153.72 18.0573C154.472 19.9723 155.645 21.6865 156.469 23.5603C154.276 26.7159 151.579 30.798 150.415 34.4529C150.338 34.7 150.415 34.4529 145.026 35.3435C145.046 37.0217 145 50.6172 145 50.6172L150.693 51.3326C151.455 54.9772 152.593 58.4985 154.379 61.7828C153.355 63.5639 152.006 65.1443 151.038 66.9615C154.008 70.2973 156.984 73.6279 159.985 76.9379C161.519 75.9804 165.57 74.0295 165.57 74.0295C171.006 77.7359 176.01 79.1514 176.01 79.1514C176.293 80.8965 176.915 83.2698 177.26 84.9995C181.651 85.2672 186.037 85.5142 190.433 85.7201C191.365 83.9287 191.674 81.9107 192.467 80.0678C196.214 79.3574 203.601 76.0885 203.863 76.2429C204.666 76.7217 206.484 78.822 207.843 79.7486L218.797 70.1015C217.953 68.1299 216.522 66.5136 215.785 65.3347C217.088 63.5587 221.031 54.5399 221.283 54.4781C223.049 54.056 225.092 53.7366 226.817 53.1343C227.09 48.7844 227.326 44.4295 227.538 40.0796C225.906 39.2611 223.692 38.8698 221.994 38.2469C221.731 38.1491 221.443 34.0927 218.009 26.8652C218.57 25.8716 219.806 24.2242 221.247 21.8202L211.914 11.2827C209.032 13.3676 208.069 13.8927 206.978 14.67C203.688 12.3896 200.126 10.7061 196.302 9.54787C195.776 7.62259 195.962 5.78495 195.529 3.50448C191.18 3.23164 186.253 3.21106 181.898 3C180.998 4.80173 180.648 6.79907 179.891 8.65228L179.886 8.64701ZM184.338 46.2775C183.278 45.2119 183.278 43.4874 184.344 42.427C185.409 41.3614 187.134 41.3664 188.199 42.432C189.265 43.4976 189.26 45.2221 188.194 46.2826C187.128 47.3482 185.399 47.3431 184.338 46.2775ZM161.133 54.6581C159.805 51.4201 159.11 47.9198 159.115 44.3112C159.12 40.7026 159.83 37.207 161.169 33.969L181.106 44.3418L161.133 54.6581ZM191.452 44.3677L211.41 34.0565C212.738 37.2945 213.428 40.7952 213.423 44.3986C213.418 48.0021 212.712 51.5025 211.374 54.7405L191.452 44.3677ZM164.793 27.7454C165.503 26.8343 166.265 25.9541 167.099 25.1253C171.377 20.8629 176.823 18.2065 182.712 17.4395L183.695 39.8737L164.793 27.7454ZM158.358 32.5122L159.892 33.3102C156.963 40.3318 156.953 48.2904 159.856 55.3171L158.317 56.1099C155.162 48.5787 155.177 40.0331 158.358 32.5122ZM183.669 48.8308L182.619 71.265C176.735 70.4774 171.299 67.8056 167.037 63.5277C166.208 62.6938 165.447 61.8136 164.736 60.8973L183.664 48.8308H183.669ZM164.788 65.7671C163.789 64.7632 162.883 63.703 162.054 62.6065L163.516 61.6747C164.278 62.6734 165.102 63.6358 166.013 64.547C170.532 69.0822 176.303 71.9034 182.552 72.7116L182.47 74.4412C175.788 73.6124 169.611 70.606 164.788 65.7671ZM210.422 62.6887C209.588 63.7852 208.682 64.8405 207.678 65.8392C202.834 70.6679 196.646 73.6483 189.965 74.4565L189.888 72.7269C196.137 71.9393 201.923 69.1338 206.458 64.6191C207.369 63.708 208.198 62.7504 208.96 61.7569L210.416 62.694L210.422 62.6887ZM205.439 63.5896C201.166 67.8519 195.715 70.5083 189.831 71.2753L188.853 48.8514L207.745 60.9694C207.034 61.8806 206.273 62.7608 205.439 63.5896ZM214.179 56.2024L212.645 55.4046C215.574 48.383 215.585 40.4295 212.681 33.4027L214.221 32.6049C217.376 40.1362 217.361 48.6815 214.179 56.2024ZM188.863 39.8787L189.913 17.4498C195.797 18.2374 201.238 20.909 205.495 25.1869C206.324 26.0208 207.086 26.9013 207.791 27.8176L188.858 39.8787H188.863ZM207.75 22.9478C208.749 23.9516 209.655 25.0067 210.483 26.1083L209.021 27.0401C208.26 26.0414 207.436 25.0839 206.525 24.1676C202.005 19.6324 196.229 16.8063 189.98 16.0032L190.063 14.2737C196.744 15.1024 202.916 18.1037 207.745 22.9478H207.75ZM182.65 15.9879C176.396 16.7704 170.615 19.5759 166.08 24.0957C165.169 25.0069 164.34 25.9644 163.573 26.9579L162.111 26.0209C162.945 24.9244 163.856 23.869 164.855 22.8703C169.698 18.0417 175.886 15.0612 182.568 14.253L182.645 15.9826L182.65 15.9879Z" fill="#006867"/>
</svg>
