<svg width="879" height="42" viewBox="0 0 879 42" fill="none" xmlns="http://www.w3.org/2000/svg">
<path d="M295.143 16.2033L295.185 14.5789L289.715 13.8479L288.798 17.1343H288.78C287.746 17.139 286.829 16.5199 286.499 15.5517L285.977 14.0061L280.555 15.1885L280.815 18.5774H280.797C279.824 18.9405 278.744 18.6705 278.101 17.8792L277.073 16.6129L272.353 19.5689L273.763 22.6505L273.749 22.6599C272.949 23.3302 271.817 23.4279 270.928 22.9019L269.551 22.0825L266.106 26.4536L268.494 28.8557L268.485 28.8695C267.954 29.7679 266.921 30.2429 265.906 30.0567L264.318 29.7633L262.559 35.0235L265.636 36.448V36.4664C265.44 37.4905 264.621 38.2913 263.592 38.4588L262.005 38.7241L262.149 44.2403L265.547 44.5196V44.529C265.72 45.5531 265.222 46.5817 264.304 47.0937L262.894 47.8852L264.919 52.9916L268.224 52.0933L268.233 52.1072C268.745 53.0009 268.624 54.1321 267.94 54.9188L266.874 56.1385L270.537 60.2161L273.363 58.2425L273.377 58.2518C274.163 58.9128 274.438 60.002 274.056 60.9703L273.461 62.4925L278.32 65.0527L280.313 62.2458H280.326C281.299 62.6043 281.928 63.5305 281.904 64.5686L281.863 66.1839L287.332 66.9147L288.249 63.6237H288.268C289.31 63.6191 290.227 64.2706 290.558 65.2482L291.07 66.7565L296.493 65.5741L296.232 62.1852H296.251C297.233 61.8174 298.322 62.1155 298.969 62.9161L299.975 64.1544L304.69 61.1985L303.284 58.1168L303.298 58.1075C304.099 57.4372 305.23 57.3394 306.114 57.8654L307.497 58.6848L310.941 54.3137L308.553 51.9117L308.586 51.8512C309.098 50.9808 310.104 50.5198 311.09 50.7014L312.729 51.0041L314.484 45.7438L311.407 44.3194V44.3008C311.602 43.2767 312.422 42.476 313.45 42.3038L315.033 42.0385L314.889 36.5223L311.491 36.2384V36.2291C311.318 35.205 311.821 34.1716 312.738 33.6595L314.144 32.8729L312.119 27.771L308.823 28.6647L308.814 28.6509C308.307 27.7571 308.4 26.6398 309.084 25.8531L310.159 24.6196L306.496 20.5417L303.68 22.5062L303.666 22.4969C302.879 21.8405 302.591 20.7652 302.968 19.8016L303.568 18.2656L298.708 15.7053L296.725 18.4983H296.712C295.743 18.1399 295.101 17.2321 295.124 16.2033H295.143ZM308.665 40.414C308.647 51.5348 299.616 60.5375 288.491 60.5189C277.371 60.5002 268.368 51.4694 268.387 40.344C268.405 29.2233 277.436 20.2206 288.561 20.2392C299.681 20.2578 308.684 29.2886 308.665 40.414Z" fill="#006867"/>
<path d="M288.556 21.5845C278.176 21.5659 269.746 29.9682 269.732 40.3488C269.713 50.7294 278.115 59.1595 288.496 59.1735C298.876 59.1874 307.306 50.7898 307.32 40.4092C307.338 30.0286 298.936 21.5985 288.556 21.5845ZM277.524 45.7531C274.55 45.7485 272.138 43.3325 272.143 40.3533C272.148 37.3788 274.564 34.9675 277.543 34.9721C280.522 34.9768 282.928 37.3928 282.924 40.3719C282.919 43.3511 280.503 45.7578 277.524 45.7531ZM288.496 56.7621C285.521 56.7575 283.11 54.3368 283.115 51.3623C283.119 48.3878 285.535 45.9767 288.514 45.9813C291.489 45.986 293.9 48.4017 293.895 51.3809C293.89 54.3601 291.475 56.7668 288.496 56.7621ZM286.75 40.3767C286.75 39.3992 287.546 38.6077 288.523 38.6077C289.501 38.6077 290.292 39.4037 290.292 40.3813C290.292 41.3588 289.496 42.1503 288.519 42.1503C287.541 42.1503 286.75 41.3543 286.75 40.3767ZM288.528 34.7814C285.554 34.7768 283.142 32.3561 283.147 29.3816C283.152 26.4071 285.568 23.9958 288.547 24.0004C291.521 24.0051 293.932 26.4257 293.928 29.4002C293.923 32.3748 291.507 34.7861 288.528 34.7814ZM299.5 45.7904C296.525 45.7858 294.114 43.3698 294.119 40.3906C294.123 37.4161 296.539 35.0047 299.518 35.0094C302.493 35.0141 304.904 37.43 304.899 40.4092C304.895 43.3838 302.479 45.7951 299.5 45.7904Z" fill="#006867"/>
<path d="M343.591 26.6216C342.139 26.482 342.819 24.415 342.819 24.415H339.346C339.346 24.415 340.026 26.4354 338.522 26.6216C337.102 26.7985 337.033 24.8155 337.033 24.8155L333.769 25.9977C333.769 25.9977 335.194 27.5199 333.788 28.3438C332.55 29.07 331.735 27.1708 331.735 27.1708L329.073 29.4005C329.073 29.4005 330.8 30.4106 329.873 31.6209C328.966 32.8033 327.56 31.1975 327.56 31.1975L325.819 34.2046C325.819 34.2046 327.914 34.4792 327.336 35.9827C326.68 37.6864 325.009 36.4109 325.009 36.4109L324.399 39.8278C324.399 39.8278 326.513 39.3716 326.433 41.0055C326.35 42.7185 324.399 42.1785 324.399 42.1785L324.995 45.6C324.995 45.6 326.787 44.3616 327.318 46.0514C327.807 47.6015 325.796 47.8063 325.796 47.8063L327.527 50.8182C327.527 50.8182 328.747 49.0959 329.827 50.3993C330.888 51.6748 329.036 52.6243 329.036 52.6243L331.693 54.8633C331.693 54.8633 332.336 52.8383 333.723 53.6948C334.947 54.4489 333.723 56.041 333.723 56.041L336.986 57.2327C336.986 57.2327 336.735 55.1007 338.49 55.4359C340.161 55.7524 339.295 57.6422 339.295 57.6422H342.767C342.767 57.6422 341.897 55.7478 343.554 55.4452C345.351 55.1147 345.081 57.2468 345.081 57.2468L348.348 56.0644C348.348 56.0644 347.203 54.4165 348.307 53.7369C349.745 52.8478 350.383 54.8958 350.383 54.8958L353.045 52.6661C353.045 52.6661 351.369 51.5489 352.226 50.4643C353.194 49.24 354.558 50.8693 354.558 50.8693L356.299 47.8622C356.299 47.8622 354.302 47.6527 354.786 46.07C355.238 44.5897 357.109 45.6557 357.109 45.6557L357.719 42.2344C357.719 42.2344 355.615 42.7743 355.685 41.0566C355.754 39.3436 357.723 39.8835 357.723 39.8835L357.127 36.4621C357.127 36.4621 355.303 37.5655 354.819 36.0666C354.404 34.7772 356.332 34.2557 356.332 34.2557L354.6 31.2439C354.6 31.2439 353.199 32.8499 352.296 31.6769C351.365 30.4712 353.092 29.4426 353.092 29.4426L350.434 27.2035C350.434 27.2035 349.624 29.1027 348.4 28.3859C347.236 27.7062 348.4 26.0256 348.4 26.0256L345.137 24.8339C345.137 24.8339 345.155 26.7799 343.601 26.6309L343.591 26.6216ZM334.468 50.2129C331.959 48.9421 330.376 46.8287 329.697 44.1521C329.319 42.6672 329.375 41.0752 329.222 39.418C331.521 40.7075 333.513 41.7083 335.375 42.9093C336.567 43.6773 337.745 44.5944 338.606 45.7023C339.611 46.9963 339.383 48.6117 338.462 49.5985C337.461 50.6692 335.939 50.9624 334.463 50.2129H334.468ZM349.875 43.6728C350.83 44.5851 351.118 45.7303 350.708 46.9685C349.885 49.4682 347.99 50.9624 345.695 51.9865C343.805 52.829 341.808 53.0618 339.83 52.6568C341.022 50.5062 342.162 48.4255 343.326 46.3494C344.108 44.9575 345.025 43.7008 346.64 43.1748C347.804 42.793 348.926 42.765 349.875 43.6728ZM340.752 43.901C339.276 43.752 338.052 42.2438 338.187 40.7402C338.331 39.1529 339.811 37.9424 341.394 38.11C342.967 38.2775 344.136 39.7765 343.94 41.3778C343.763 42.8767 342.269 44.0546 340.747 43.901H340.752ZM347.366 31.5139C350.732 33.064 352.361 35.857 352.822 39.4087C352.947 40.377 352.836 41.3732 352.831 42.3647C350.578 41.1032 348.539 39.9441 346.482 38.813C345.067 38.0356 343.81 37.1185 343.261 35.5172C342.846 34.3162 342.795 33.1152 343.805 32.1749C344.82 31.2299 346.049 30.9087 347.366 31.5139ZM342.516 29.4564C341.371 31.4953 340.365 33.5388 339.123 35.424C338.327 36.6297 337.33 37.8074 336.167 38.6407C334.863 39.5717 333.341 39.2413 332.42 38.2777C331.428 37.2443 331.242 35.7824 331.931 34.3673C333.723 30.6666 338.662 28.4137 342.521 29.4564H342.516Z" fill="#006867"/>
<path d="M696.539 6.52052C694.044 6.27846 695.208 2.72221 695.208 2.72221L689.231 2.71289C689.231 2.71289 690.399 6.19478 687.811 6.51597C685.372 6.81855 685.251 3.40636 685.251 3.40636L679.632 5.44065C679.632 5.44065 682.081 8.05682 679.66 9.47193C677.528 10.7241 676.127 7.45629 676.127 7.45629L671.542 11.2873C671.542 11.2873 674.512 13.0236 672.92 15.1091C671.361 17.1479 668.94 14.3783 668.94 14.3783L665.943 19.5499C665.943 19.5499 669.545 20.0246 668.554 22.6082C667.427 25.5361 664.551 23.3485 664.551 23.3485L663.503 29.2322C663.503 29.2322 667.139 28.4455 666.999 31.2572C666.85 34.2084 663.499 33.2728 663.499 33.2728L664.528 39.1613C664.528 39.1613 667.609 37.0339 668.521 39.9387C669.359 42.606 665.905 42.9598 665.905 42.9598L668.884 48.1408C668.884 48.1408 670.979 45.1757 672.841 47.4194C674.666 49.6119 671.477 51.2456 671.477 51.2456L676.048 55.0953C676.048 55.0953 677.156 51.6135 679.539 53.0844C681.648 54.3832 679.539 57.1248 679.539 57.1248L685.153 59.1777C685.153 59.1777 684.72 55.5095 687.741 56.0868C690.618 56.636 689.128 59.8853 689.128 59.8853L695.105 59.8946C695.105 59.8946 693.611 56.6269 696.46 56.1008C699.546 55.5329 699.085 59.1964 699.085 59.1964L704.703 57.1621C704.703 57.1621 702.73 54.3273 704.629 53.1542C707.105 51.6274 708.204 55.1464 708.204 55.1464L712.789 51.3154C712.789 51.3154 709.908 49.3976 711.378 47.531C713.04 45.4269 715.391 48.2247 715.391 48.2247L718.389 43.0528C718.389 43.0528 714.953 42.6899 715.782 39.9714C716.559 37.4298 719.776 39.259 719.776 39.259L720.823 33.3753C720.823 33.3753 717.202 34.3016 717.323 31.3503C717.444 28.4037 720.828 29.3347 720.828 29.3347L719.799 23.4462C719.799 23.4462 716.657 25.35 715.824 22.7618C715.107 20.546 718.421 19.6477 718.421 19.6477L715.442 14.4667C715.442 14.4667 713.031 17.2272 711.481 15.2116C709.884 13.1354 712.849 11.3664 712.849 11.3664L708.278 7.51675C708.278 7.51675 706.887 10.7799 704.783 9.55103C702.781 8.37798 704.783 5.49179 704.783 5.49179L699.169 3.4391C699.169 3.4391 699.197 6.78586 696.525 6.52984L696.539 6.52052ZM683.696 19.5545C682.63 17.7576 681.583 15.947 680.67 14.071C680.075 12.8467 680.992 11.5712 682.663 11.5805C682.923 11.79 683.552 12.088 683.854 12.5861C684.883 14.2619 685.935 15.9564 686.68 17.7625C686.945 18.4049 686.596 19.6569 686.079 20.1736C685.256 20.9929 684.25 20.4809 683.701 19.5499L683.696 19.5545ZM678.087 28.9949C675.988 28.5899 673.907 27.9847 671.91 27.212C671.351 26.9979 670.732 25.876 670.839 25.2941C670.96 24.6284 671.854 24.1071 672.334 23.6044C674.903 24.4004 677.105 24.9682 679.19 25.8201C679.679 26.0202 680.154 27.3051 679.958 27.8543C679.763 28.4129 678.65 29.1065 678.087 28.9994V28.9949ZM688.118 51.6693C687.904 52.2186 686.568 52.8005 685.991 52.6096C685.404 52.4188 684.66 51.2084 684.781 50.6033C685.209 48.4527 685.889 46.3301 686.689 44.2866C686.885 43.7885 687.993 43.2716 688.542 43.3926C689.184 43.5323 689.673 44.3657 690.162 44.8312C689.445 47.3448 688.937 49.5699 688.118 51.6693ZM700.798 43.1833C701.799 44.8125 702.669 46.5209 703.586 48.1967C704.187 49.2906 703.94 50.1936 702.865 50.7708C701.831 51.3247 700.998 50.9011 700.454 49.9469C699.471 48.2385 698.485 46.5255 697.6 44.7659C696.939 43.4486 697.763 42.0754 699.532 42.0568C699.802 42.2896 700.463 42.634 700.798 43.1833ZM674.959 42.783C673.725 43.3882 672.422 42.5176 672.455 40.8092C672.725 40.5066 673.12 39.8131 673.716 39.4407C675.276 38.4631 676.923 37.6252 678.539 36.7361C679.595 36.1542 680.536 36.3079 681.15 37.3645C681.722 38.3514 681.397 39.2591 680.452 39.8084C678.65 40.8558 676.835 41.8705 674.964 42.7876L674.959 42.783ZM706.226 33.5428C708.371 33.9711 710.494 34.5902 712.533 35.3769C713.064 35.5817 713.608 36.7175 713.506 37.3273C713.403 37.9464 712.524 38.4398 712.03 38.9379C709.512 38.1652 707.259 37.5834 705.118 36.7315C704.643 36.5407 704.196 35.2605 704.387 34.7159C704.587 34.1526 705.672 33.4403 706.216 33.5474L706.226 33.5428ZM701.091 31.476C700.952 36.2008 696.776 40.26 692.112 40.2041C687.327 40.1483 683.207 35.9262 683.291 31.1642C683.375 26.2672 687.485 22.2964 692.336 22.4175C697.242 22.5431 701.236 26.6721 701.091 31.476ZM711.877 21.7192C711.672 21.9799 711.392 22.6315 710.894 22.9341C709.219 23.9629 707.478 24.8937 705.746 25.8201C704.68 26.3926 703.554 26.1973 703.233 25.0754C703.037 24.4051 703.489 23.1483 704.066 22.7386C705.653 21.5982 707.431 20.7044 709.195 19.8293C710.555 19.159 711.877 19.9736 711.877 21.7192ZM698.354 9.99312C698.927 10.184 699.667 11.2873 699.555 11.8412C699.132 13.9965 698.503 16.1284 697.703 18.1766C697.498 18.698 696.325 19.21 695.701 19.0983C695.096 18.9959 694.63 18.093 694.17 17.6088C694.938 15.1091 695.496 12.9026 696.334 10.8125C696.534 10.3098 697.8 9.80703 698.345 9.98857L698.354 9.99312Z" fill="#006867"/>
<path d="M492.315 3.77513L492.381 1.17306L483.62 0L482.149 5.26004H482.121C480.469 5.26935 478.993 4.27797 478.467 2.72321L477.629 0.246614L468.948 2.14134L469.362 7.56889L469.335 7.57821C467.775 8.15077 466.044 7.71801 465.015 6.4472L463.372 4.41746L455.812 9.15177L458.07 14.0859L458.047 14.1045C456.762 15.1798 454.951 15.3335 453.531 14.4909L451.325 13.1783L445.804 20.1794L449.631 24.0291L449.617 24.0523C448.769 25.4906 447.112 26.2541 445.483 25.9515L442.942 25.4813L440.125 33.9068L445.055 36.1877V36.2157C444.738 37.8542 443.43 39.1345 441.783 39.4091L439.241 39.8326L439.469 48.6677L444.911 49.1194V49.1332C445.185 50.7718 444.389 52.4244 442.923 53.2436L440.665 54.5099L443.91 62.6886L449.202 61.2503L449.216 61.2735C450.036 62.7072 449.845 64.5134 448.746 65.7796L447.042 67.7345L452.912 74.2656L457.441 71.1048L457.465 71.1235C458.726 72.1802 459.164 73.9304 458.559 75.4805L457.609 77.915L465.392 82.0161L468.585 77.5241L468.613 77.5334C470.168 78.0967 471.183 79.5815 471.141 81.2433L471.075 83.8269L479.841 85L481.311 79.7259H481.339C483.006 79.7166 484.477 80.764 485.012 82.3327L485.831 84.7486L494.513 82.8539L494.098 77.4263L494.126 77.417C495.695 76.8398 497.445 77.3145 498.483 78.5946L500.089 80.5778L507.644 75.8437L505.391 70.9046L505.414 70.886C506.694 69.8107 508.505 69.6525 509.925 70.495L512.136 71.8076L517.652 64.8065L513.826 60.9569L513.881 60.8639C514.705 59.4674 516.311 58.7273 517.894 59.0205L520.519 59.5092L523.335 51.0837L518.406 48.8028V48.7748C518.722 47.1362 520.035 45.8563 521.683 45.577L524.22 45.1533L523.992 36.3227L518.55 35.8713V35.8572C518.276 34.214 519.076 32.5616 520.547 31.7423L522.8 30.4808L519.556 22.3066L514.282 23.7356L514.268 23.7124C513.458 22.2834 513.607 20.4911 514.705 19.2343L516.428 17.2559L510.562 10.7251L506.052 13.8718L506.029 13.8531C504.772 12.8011 504.306 11.0788 504.907 9.53339L505.866 7.07544L498.083 2.9746L494.908 7.44797L494.88 7.43865C493.33 6.8754 492.297 5.4231 492.339 3.77058L492.315 3.77513ZM481.661 75.7273C479.221 75.7273 477.243 73.7395 477.248 71.3003C477.248 68.8611 479.235 66.8828 481.675 66.8874C484.114 66.8921 486.092 68.875 486.087 71.3142C486.087 73.7534 484.1 75.732 481.661 75.7273ZM499.908 65.2675C501.122 67.3855 500.396 70.0854 498.278 71.3003C496.165 72.5199 493.465 71.7892 492.246 69.6758C491.031 67.5625 491.757 64.8577 493.875 63.6428C495.988 62.4232 498.693 63.1541 499.908 65.2675ZM469.483 63.5964C471.597 64.8207 472.318 67.5251 471.089 69.6338C469.865 71.7472 467.161 72.4688 465.052 71.2399C462.939 70.0156 462.217 67.3156 463.441 65.2022C464.666 63.0889 467.37 62.372 469.479 63.5916L469.483 63.5964ZM448.49 42.4394C448.49 40.0002 450.478 38.0265 452.917 38.0265C455.356 38.0265 457.334 40.0141 457.33 42.4533C457.325 44.8925 455.342 46.8711 452.903 46.8664C450.464 46.8664 448.485 44.8786 448.49 42.4394ZM452.917 59.0578C451.702 56.9444 452.428 54.2446 454.541 53.025C456.659 51.8054 459.359 52.5361 460.579 54.6494C461.794 56.7675 461.068 59.4673 458.95 60.6823C456.832 61.9019 454.132 61.1711 452.917 59.053V59.0578ZM508.859 53.1179C510.972 54.3422 511.689 57.0468 510.465 59.1555C509.245 61.2689 506.536 61.9858 504.427 60.7662C502.314 59.5419 501.593 56.8374 502.821 54.724C504.046 52.6153 506.75 51.8937 508.859 53.1179ZM514.943 42.5513C514.943 44.9905 512.96 46.9642 510.516 46.9642C508.077 46.9642 506.098 44.981 506.103 42.5372C506.108 40.098 508.091 38.1196 510.53 38.1243C512.969 38.1243 514.947 40.1121 514.938 42.5513H514.943ZM499.489 42.5279C499.47 52.3406 491.506 60.2819 481.688 60.2679C471.876 60.2493 463.935 52.2847 463.949 42.4674C463.967 32.6547 471.937 24.7134 481.749 24.7273C491.561 24.7459 499.503 32.7106 499.489 42.5233V42.5279ZM510.521 25.9329C511.74 28.0462 511.009 30.7461 508.891 31.9657C506.778 33.1853 504.074 32.4545 502.859 30.3365C501.644 28.2231 502.37 25.5186 504.488 24.3036C506.601 23.084 509.306 23.8149 510.521 25.9329ZM459.01 24.2291C461.123 25.4533 461.84 28.1579 460.621 30.2712C459.396 32.3846 456.692 33.1016 454.579 31.8773C452.465 30.653 451.749 27.9485 452.973 25.8351C454.197 23.7218 456.897 23.0048 459.01 24.2291ZM463.525 19.7278C462.306 17.6097 463.037 14.9099 465.154 13.6949C467.268 12.48 469.972 13.2063 471.187 15.3196C472.402 17.4376 471.676 20.1374 469.563 21.357C467.445 22.572 464.745 21.8458 463.525 19.7278ZM498.381 13.7508C500.489 14.9704 501.211 17.6749 499.987 19.7882C498.762 21.8969 496.058 22.6185 493.949 21.3943C491.836 20.17 491.119 17.4655 492.343 15.3521C493.568 13.2434 496.272 12.5218 498.381 13.7461V13.7508ZM486.185 13.6949C486.185 16.1341 484.197 18.1078 481.758 18.1078C479.319 18.1078 477.341 16.1249 477.346 13.6811C477.346 11.2418 479.333 9.26814 481.772 9.26814C484.211 9.26814 486.19 11.2511 486.185 13.6949Z" fill="#006867"/>
<path d="M476.121 42.4955C476.116 45.5911 478.616 48.1 481.712 48.1047C484.807 48.1094 487.316 45.6051 487.321 42.5142C487.325 39.4233 484.826 36.9141 481.73 36.9048C478.639 36.9001 476.126 39.4046 476.121 42.4955Z" fill="#006867"/>
<path d="M471.467 32.2172C468.72 34.9589 467.203 38.6037 467.198 42.4813C467.189 46.3636 468.697 50.0131 471.434 52.7595C474.171 55.506 477.816 57.0235 481.698 57.0281C485.58 57.0328 489.225 55.5294 491.976 52.7923C494.722 50.0551 496.24 46.4103 496.244 42.5327C496.258 34.5261 489.751 27.9998 481.745 27.9859C477.862 27.9812 474.218 29.4846 471.471 32.2217L471.467 32.2172ZM494.471 42.5279C494.466 45.9353 493.135 49.1379 490.719 51.5399C488.308 53.9465 485.101 55.2686 481.693 55.2593C478.286 55.25 475.083 53.9234 472.682 51.5121C470.275 49.1009 468.958 45.8935 468.962 42.4861C468.967 39.0786 470.298 35.8761 472.709 33.4741C475.121 31.0675 478.328 29.7453 481.735 29.7547C488.769 29.7686 494.48 35.499 494.471 42.5327V42.5279Z" fill="#006867"/>
<path d="M570.683 13.385C567.922 13.1197 569.212 9.19096 569.212 9.19096L562.611 9.18164C562.611 9.18164 563.901 13.0266 561.043 13.385C558.347 13.7201 558.212 9.94967 558.212 9.94967L552.007 12.1981C552.007 12.1981 554.712 15.0887 552.04 16.6528C549.685 18.0353 548.135 14.423 548.135 14.423L543.07 18.6546C543.07 18.6546 546.352 20.577 544.592 22.8766C542.87 25.1296 540.193 22.0713 540.193 22.0713L536.884 27.7829C536.884 27.7829 540.868 28.3089 539.77 31.1578C538.527 34.393 535.352 31.977 535.352 31.977L534.193 38.4755C534.193 38.4755 538.211 37.6048 538.057 40.7144C537.894 43.9729 534.189 42.9396 534.189 42.9396L535.324 49.4425C535.324 49.4425 538.727 47.0917 539.737 50.3037C540.664 53.2503 536.847 53.6413 536.847 53.6413L540.138 59.3623C540.138 59.3623 542.451 56.0853 544.509 58.5617C546.524 60.987 543 62.7885 543 62.7885L548.051 67.043C548.051 67.043 549.275 63.1934 551.91 64.818C554.242 66.2564 551.91 69.2775 551.91 69.2775L558.11 71.5443C558.11 71.5443 557.635 67.4945 560.973 68.1276C564.152 68.7328 562.509 72.3264 562.509 72.3264L569.109 72.3405C569.109 72.3405 567.457 68.7282 570.604 68.151C574.016 67.5226 573.504 71.5723 573.504 71.5723L579.713 69.3241C579.713 69.3241 577.535 66.1912 579.634 64.8971C582.366 63.212 583.581 67.0989 583.581 67.0989L588.646 62.8628C588.646 62.8628 585.462 60.7401 587.091 58.6826C588.925 56.3598 591.522 59.4461 591.522 59.4461L594.832 53.7345C594.832 53.7345 591.038 53.3341 591.955 50.3316C592.816 47.52 596.368 49.5404 596.368 49.5404L597.527 43.0419C597.527 43.0419 593.529 44.066 593.664 40.8076C593.799 37.5491 597.536 38.5778 597.536 38.5778L596.401 32.0749C596.401 32.0749 592.928 34.1743 592.007 31.3208C591.215 28.8722 594.879 27.8807 594.879 27.8807L591.588 22.1597C591.588 22.1597 588.925 25.2087 587.212 22.9836C585.448 20.6887 588.725 18.7382 588.725 18.7382L583.674 14.4883C583.674 14.4883 582.138 18.0959 579.811 16.7367C577.6 15.4426 579.811 12.254 579.811 12.254L573.611 9.98694C573.611 9.98694 573.643 13.6877 570.687 13.3991L570.683 13.385ZM582.078 57.4539C579.327 60.1259 575.924 62.1226 572.135 63.184L570.762 49.2936L582.078 57.4539ZM559.506 63.1747C555.801 62.1319 552.398 60.1724 549.573 57.4073L560.917 49.2611L559.502 63.1747H559.506ZM542.567 40.7237C542.567 38.7407 542.823 36.8182 543.294 34.9795L556.034 40.7423L543.266 46.4726C542.8 44.6153 542.563 42.6881 542.563 40.7237H542.567ZM589.148 40.803C589.148 42.786 588.892 44.7084 588.422 46.5424L575.701 40.7844L588.441 35.0586C588.906 36.8973 589.153 38.82 589.148 40.803ZM572.689 40.7751C572.684 44.5502 569.617 47.6038 565.842 47.5991C562.067 47.5945 559.008 44.5268 559.018 40.7516C559.022 36.9765 562.09 33.9229 565.865 33.9276C569.64 33.9369 572.694 36.9999 572.689 40.7751ZM582.129 24.1242L570.785 32.2563L572.205 18.3566C575.994 19.4319 579.387 21.4429 582.129 24.1242ZM560.963 32.247L549.638 24.0683C552.389 21.3963 555.792 19.3994 559.581 18.3334L560.963 32.2424V32.247Z" fill="#006867"/>
<path d="M624.355 41.3507C624.345 44.8326 627.166 47.6582 630.648 47.6629C634.13 47.6675 636.955 44.8512 636.96 41.3693C636.965 37.8874 634.149 35.0618 630.667 35.0571C627.185 35.0525 624.359 37.8688 624.355 41.3507Z" fill="#006867"/>
<path d="M627.064 21.2648C625.02 21.6512 621.134 23.2851 621.087 23.313C621.064 23.3269 618.806 22.0796 617.875 21.6001C616.018 23.2433 614.17 24.8957 612.341 26.5622C612.764 27.6421 613.42 28.601 613.891 29.6577C612.657 31.4359 611.135 33.731 610.483 35.7885C610.437 35.9281 610.483 35.7883 607.448 36.291C607.458 37.236 607.434 44.8841 607.434 44.8841L610.637 45.2891C611.065 47.342 611.707 49.3204 612.713 51.1731C612.136 52.1786 611.377 53.0629 610.832 54.087C612.503 55.963 614.179 57.8389 615.869 59.7009C616.73 59.161 619.011 58.0624 619.011 58.0624C622.069 60.1478 624.885 60.9438 624.885 60.9438C625.044 61.926 625.397 63.2621 625.588 64.235C628.06 64.3886 630.527 64.5237 632.999 64.64C633.525 63.6299 633.697 62.4941 634.144 61.4607C636.252 61.0603 640.409 59.2217 640.558 59.3054C641.01 59.5754 642.034 60.7577 642.797 61.279L648.96 55.8467C648.485 54.7388 647.68 53.8263 647.266 53.1653C647.997 52.1645 650.217 47.0907 650.361 47.0582C651.353 46.8208 652.507 46.6438 653.475 46.304C653.629 43.8555 653.759 41.4068 653.88 38.9583C652.963 38.4975 651.716 38.2788 650.762 37.925C650.613 37.8692 650.45 35.5881 648.523 31.5197C648.839 30.9611 649.533 30.0303 650.343 28.6803L645.092 22.7498C643.467 23.9228 642.928 24.2207 642.313 24.6536C640.46 23.3688 638.459 22.4239 636.304 21.7722C636.01 20.6875 636.113 19.6541 635.871 18.3693C633.422 18.2157 630.648 18.2018 628.2 18.0854C627.692 19.1002 627.497 20.2268 627.068 21.2648H627.064ZM644.687 41.3883C644.678 49.1389 638.38 55.4138 630.629 55.3999C622.879 55.3859 616.604 49.0923 616.618 41.3417C616.632 33.5912 622.926 27.3162 630.676 27.3302C638.426 27.3441 644.696 33.6378 644.687 41.3883Z" fill="#006867"/>
<path d="M394.043 14.1919C391.316 14.7087 386.121 16.8967 386.056 16.9293C386.023 16.9479 383.007 15.2765 381.759 14.6388C379.278 16.8313 376.806 19.0424 374.358 21.2722C374.921 22.7152 375.806 24 376.429 25.4105C374.777 27.7845 372.747 30.8569 371.877 33.6033C371.816 33.7895 371.877 33.6033 367.823 34.2736C367.837 35.5351 367.804 45.7622 367.804 45.7622L372.086 46.302C372.659 49.0438 373.515 51.6925 374.861 54.1643C374.093 55.505 373.073 56.692 372.347 58.0606C374.581 60.5696 376.82 63.0787 379.078 65.5645C380.232 64.843 383.281 63.3766 383.281 63.3766C387.368 66.1649 391.134 67.2308 391.134 67.2308C391.348 68.5435 391.818 70.3264 392.074 71.6298C395.375 71.8347 398.68 72.0162 401.984 72.1744C402.683 70.8245 402.92 69.307 403.516 67.9245C406.337 67.3892 411.89 64.9312 412.09 65.0476C412.695 65.4107 414.059 66.9889 415.083 67.6872L423.322 60.4299C422.685 58.9496 421.609 57.7302 421.055 56.8457C422.033 55.5097 425.003 48.7274 425.194 48.6809C426.52 48.3643 428.061 48.127 429.36 47.6708C429.564 44.3983 429.741 41.1258 429.9 37.8487C428.675 37.2343 427.009 36.9364 425.729 36.4709C425.533 36.401 425.315 33.3426 422.731 27.9103C423.155 27.1608 424.086 25.9225 425.166 24.1117L418.141 16.1844C415.972 17.7531 415.246 18.1487 414.427 18.7306C411.955 17.0175 409.274 15.7468 406.393 14.8763C405.997 13.4286 406.137 12.0461 405.811 10.3284C402.538 10.1236 398.833 10.105 395.556 9.94678C394.877 11.3014 394.616 12.8049 394.048 14.1967L394.043 14.1919ZM423.453 41.0886C423.369 54.858 412.318 65.7041 398.475 65.6063C384.808 65.5086 374.153 54.5462 374.232 40.6697C374.311 27.1795 385.348 16.4125 398.996 16.5056C412.518 16.5987 423.527 27.6682 423.448 41.0886H423.453Z" fill="#006867"/>
<path d="M378.608 41.0049C378.585 52.4049 387.722 61.3286 399.406 61.3193C409.879 61.31 419.156 51.7159 419.086 40.9583C419.017 29.9353 409.819 20.7976 398.787 20.793C387.708 20.793 378.631 29.8796 378.608 41.0003V41.0049ZM399.513 24.3353C408.543 24.5914 415.754 32.2862 415.549 41.4379C415.339 50.7385 407.808 57.9817 398.559 57.7862C389.091 57.586 381.908 49.9564 382.16 40.3625C382.397 31.2993 390.226 24.07 399.518 24.3353H399.513Z" fill="#006867"/>
<path d="M391.32 41.126C391.316 45.1804 394.691 48.5831 398.764 48.6296C402.892 48.6762 406.346 45.2688 406.365 41.1305C406.384 37.0062 402.93 33.4917 398.847 33.4871C394.798 33.4871 391.32 37.011 391.316 41.126H391.32Z" fill="#006867"/>
<path d="M73.9836 20.9213L74.0162 19.59L69.5289 18.9895L68.7749 21.6848H68.7609C67.9137 21.6894 67.1596 21.182 66.8897 20.386L66.4614 19.1197L62.0114 20.088L62.2255 22.8717H62.2115C61.4156 23.1696 60.5265 22.9508 60.0005 22.2991L59.158 21.2611L55.2851 23.6863L56.4395 26.214L56.4302 26.2234C55.7739 26.7726 54.8429 26.8516 54.1168 26.4234L52.9856 25.7531L50.1601 29.3421L52.1198 31.3111L52.1105 31.3252C51.6776 32.0607 50.8258 32.4516 49.9926 32.298L48.6892 32.056L47.2462 36.3711L49.7692 37.5394V37.5535C49.6062 38.3914 48.9359 39.0477 48.0934 39.1873L46.79 39.4014L46.9064 43.9262L49.6947 44.1589V44.1682C49.8343 45.0061 49.4247 45.8533 48.6752 46.2723L47.5162 46.9194L49.178 51.1089L51.8871 50.3734L51.8964 50.3872C52.3153 51.1227 52.2176 52.049 51.6544 52.6961L50.7792 53.6968L53.7863 57.044L56.1044 55.4241L56.1137 55.4334C56.7607 55.9734 56.9841 56.8716 56.6723 57.6629L56.1835 58.9105L60.1727 61.01L61.8066 58.7057H61.8205C62.6165 58.999 63.1379 59.7623 63.1146 60.6095L63.082 61.9317L67.5693 62.5322L68.3234 59.8322H68.3373C69.1891 59.8322 69.9432 60.3629 70.2179 61.1682L70.6368 62.4065L75.0868 61.4335L74.8727 58.6498H74.8867C75.692 58.3519 76.5857 58.594 77.121 59.2503L77.9449 60.2652L81.8131 57.84L80.6587 55.3122L80.668 55.3029C81.3243 54.7536 82.2506 54.6697 82.9768 55.1027L84.1126 55.7777L86.9381 52.1933L84.9784 50.2197L85.0063 50.1731C85.4252 49.4562 86.2538 49.0793 87.0591 49.2282L88.4044 49.4796L89.8473 45.1645L87.3244 43.9959V43.9821C87.4873 43.1442 88.1576 42.4878 89.0048 42.3435L90.3035 42.1246L90.1871 37.6001L87.3989 37.3674V37.358C87.2592 36.5155 87.6689 35.6728 88.423 35.2492L89.5774 34.6023L87.9156 30.4128L85.2111 31.1436L85.2018 31.1295C84.7875 30.3987 84.862 29.4818 85.4252 28.8347L86.3097 27.8199L83.3026 24.473L80.9938 26.0836L80.9845 26.0743C80.3422 25.5343 80.1001 24.6545 80.412 23.8631L80.9054 22.6017L76.9162 20.5024L75.287 22.7926H75.273C74.4771 22.4993 73.9511 21.7544 73.9697 20.9072L73.9836 20.9213ZM52.8041 35.1842C58.9392 38.573 60.3263 45.2017 55.3224 50.7691C51.943 47.0777 50.9328 40.8074 52.8041 35.1842ZM74.0116 56.313C70.1667 58.6498 61.6064 57.2115 58.1851 53.6505C63.1658 49.2376 69.5755 49.2793 74.0116 56.313ZM77.5027 54.6792C74.8774 48.5533 76.2645 42.2411 85.0575 40.016C86.0956 44.7455 82.3158 52.0817 77.5027 54.6792ZM72.131 39.0664C73.0573 41.0866 72.1822 43.4328 70.1574 44.3498C68.1744 45.2482 65.7353 44.3171 64.8695 42.3294C64.0037 40.3417 64.9672 37.9073 66.9502 37.0507C68.9099 36.2035 71.2326 37.1113 72.131 39.0664ZM84.6526 36.2966C77.0093 36.8366 72.2195 33.094 72.7501 24.5521C78.8526 26.4327 82.7906 30.2684 84.6526 36.2966ZM68.9471 24.1843C67.3691 31.4228 61.3178 34.5696 54.7079 31.5811C56.8073 27.1868 64.2317 23.3324 68.9471 24.1843Z" fill="#006867"/>
<path d="M134.136 10.5798H134.113L132.94 6.32983L125.878 7.25151L125.925 9.33216C125.953 10.6681 125.133 11.8644 123.881 12.3113L123.863 12.3206L121.303 8.69437L115.023 11.9763L115.782 13.9405C116.266 15.1927 115.908 16.5987 114.893 17.4459L114.874 17.4597L111.234 14.8995L106.491 20.1457L107.859 21.7238C108.744 22.7432 108.893 24.2001 108.227 25.3546L108.218 25.3732L103.959 24.2001L101.324 30.7778L103.139 31.8018C104.317 32.4674 104.959 33.7988 104.731 35.1162V35.1255L100.346 35.4746L100.142 42.5921L102.19 42.9412C103.516 43.1647 104.568 44.2027 104.815 45.5201V45.5433L100.844 47.368L103.088 54.1643L105.136 53.792C106.449 53.5546 107.78 54.1691 108.46 55.3328L108.469 55.3512L105.374 58.4422L109.8 64.098L111.583 63.0461C112.728 62.3711 114.19 62.5015 115.219 63.372L115.237 63.3859L113.408 67.3565L119.482 71.1875L120.814 69.5537C121.647 68.5343 123.043 68.1897 124.296 68.6552L124.319 68.6645L123.97 73.0356L130.957 74.5858L131.641 72.5933C132.069 71.3411 133.261 70.5453 134.592 70.5593H134.615L135.788 74.7999L142.85 73.8782L142.803 71.7835C142.775 70.4521 143.609 69.2837 144.861 68.8368L144.884 68.8275L147.43 72.4399L153.71 69.158L152.941 67.1751C152.462 65.9275 152.839 64.5403 153.854 63.6977L153.872 63.6838L157.494 66.23L162.237 60.9886L160.855 59.3919C159.975 58.3771 159.859 56.934 160.515 55.7842L160.524 55.7656L164.769 56.9293L167.404 50.3519L165.593 49.3325C164.411 48.6668 163.773 47.3356 163.997 46.0136V46.0042L168.382 45.6551L168.591 38.5422L166.548 38.193C165.221 37.965 164.169 36.9316 163.922 35.6096V35.5862L167.893 33.7615L165.649 26.9652L163.536 27.3516C162.26 27.5843 160.966 26.9839 160.31 25.8573L160.264 25.783L163.359 22.692L158.932 17.0363L157.145 18.0882C156 18.7632 154.543 18.6328 153.514 17.7623L153.495 17.7484L155.325 13.7778L149.25 9.94199L147.952 11.534C147.114 12.5627 145.703 12.9398 144.437 12.4743L144.414 12.465L144.763 8.09409L137.776 6.54394L137.11 8.48958C136.677 9.75108 135.49 10.5891 134.145 10.5798H134.136ZM131.436 40.5626C131.431 44.0957 124.836 46.9539 121.303 46.9446C117.77 46.9399 114.907 44.0678 114.916 40.5346C114.921 37.0015 117.793 34.1386 121.326 34.1479C124.859 34.1572 131.445 37.0295 131.441 40.5626H131.436ZM134.364 38.4585C135.528 38.4585 136.468 39.4033 136.468 40.5717C136.468 41.7354 135.518 42.6757 134.359 42.6757C133.196 42.6757 132.251 41.7263 132.255 40.5626C132.26 39.3988 133.205 38.4585 134.369 38.4585H134.364ZM134.355 43.4904C137.888 43.495 140.746 50.0913 140.737 53.629C140.727 57.1668 137.86 60.0249 134.327 60.0155C130.794 60.0109 127.931 57.1388 127.936 53.6056C127.94 50.0725 130.817 43.4857 134.35 43.4904H134.355ZM137.283 40.5717C137.287 37.0385 143.883 34.1804 147.416 34.1897C150.949 34.199 153.812 37.0665 153.807 40.5996C153.803 44.1328 150.931 46.9957 147.398 46.9864C143.865 46.9771 137.278 44.1048 137.283 40.5717ZM134.364 37.6439C130.831 37.6393 127.973 31.0431 127.982 27.51C127.987 23.9769 130.859 21.1141 134.392 21.1187C137.925 21.1234 140.788 23.9955 140.778 27.5286C140.774 31.0618 137.897 37.6486 134.364 37.6439ZM125.995 29.167C126.865 30.0421 126.865 31.4574 125.99 32.3325C125.115 33.203 123.7 33.2029 122.825 32.3277C121.954 31.4526 121.954 30.0375 122.829 29.167C123.704 28.2965 125.119 28.2966 125.995 29.1717V29.167ZM110.317 40.5253C110.322 36.4336 111.36 32.5839 113.175 29.209L114.665 30.0702C112.998 33.1891 112.049 36.7455 112.044 40.5253C112.039 44.3052 112.975 47.8662 114.632 50.9897L113.143 51.8461C111.336 48.4666 110.312 44.6123 110.322 40.5205L110.317 40.5253ZM122.96 49.0857C123.835 48.2152 125.25 48.2153 126.125 49.0904C126.995 49.9656 126.995 51.3807 126.12 52.2512C125.245 53.1217 123.83 53.1215 122.955 52.2464C122.085 51.3713 122.085 49.9563 122.96 49.0811V49.0857ZM113.939 53.2288L115.428 52.3721C119.231 58.4608 125.888 62.576 133.526 62.8599V64.5821C125.259 64.2982 118.044 59.8249 113.939 53.2288ZM154.738 53.2938C150.609 59.8806 143.38 64.3262 135.113 64.5869V62.8645C142.757 62.6084 149.427 58.5121 153.253 52.4373L154.738 53.2986V53.2938ZM142.878 52.1207C142.007 51.2456 142.007 49.8304 142.882 48.96C143.757 48.0895 145.173 48.0896 146.043 48.9647C146.913 49.8399 146.913 51.255 146.043 52.1255C145.168 52.996 143.753 52.9959 142.882 52.1207H142.878ZM158.397 40.5996C158.392 44.6914 157.354 48.5457 155.539 51.9159L154.049 51.0547C155.716 47.9359 156.665 44.3796 156.67 40.5951C156.675 36.8152 155.739 33.2542 154.082 30.1307L155.571 29.2743C157.373 32.6538 158.397 36.5079 158.392 40.5996H158.397ZM145.913 32.1975C145.038 33.068 143.622 33.0678 142.752 32.1927C141.882 31.3176 141.882 29.9027 142.757 29.0322C143.632 28.1617 145.047 28.1616 145.917 29.0367C146.788 29.9119 146.788 31.327 145.913 32.1975ZM154.776 27.8962L153.286 28.7528C149.483 22.6641 142.827 18.5443 135.188 18.265V16.5381C143.455 16.822 150.67 21.2954 154.776 27.8962ZM133.596 18.2605C125.953 18.5165 119.287 22.6129 115.461 28.6876L113.976 27.8264C118.105 21.2396 125.334 16.7942 133.601 16.5335V18.2605H133.596Z" fill="#006867"/>
<path d="M209.454 7.81928C206.173 8.43839 199.931 11.0686 199.851 11.1105C199.809 11.1291 196.183 9.12728 194.689 8.35456C191.705 10.9939 188.74 13.6474 185.794 16.3287C186.473 18.0604 187.535 19.6104 188.279 21.3049C186.296 24.1584 183.857 27.8496 182.805 31.1546C182.736 31.3781 182.805 31.1546 177.932 31.96C177.95 33.4775 177.908 45.7715 177.908 45.7715L183.057 46.4184C183.746 49.7141 184.774 52.8982 186.39 55.8681C185.463 57.4787 184.244 58.9078 183.369 60.551C186.054 63.5675 188.745 66.5792 191.459 69.5723C192.846 68.7065 196.509 66.9423 196.509 66.9423C201.425 70.2939 205.949 71.5739 205.949 71.5739C206.205 73.1519 206.768 75.298 207.08 76.8621C211.051 77.1042 215.017 77.3276 218.992 77.5138C219.835 75.8938 220.114 74.0691 220.831 72.4026C224.22 71.7602 230.899 68.8042 231.137 68.9439C231.863 69.3768 233.506 71.276 234.735 72.1139L244.64 63.3904C243.877 61.6075 242.583 60.146 241.917 59.08C243.095 57.474 246.661 49.3186 246.889 49.2627C248.485 48.881 250.333 48.5922 251.893 48.0476C252.139 44.1141 252.353 40.1761 252.544 36.2426C251.069 35.5025 249.067 35.1487 247.531 34.5854C247.294 34.497 247.033 30.8289 243.928 24.2933C244.436 23.3949 245.553 21.9052 246.856 19.7313L238.417 10.2027C235.81 12.088 234.94 12.5628 233.953 13.2657C230.978 11.2035 227.757 9.68127 224.299 8.6339C223.824 6.89294 223.991 5.23123 223.6 3.16907C219.667 2.92236 215.212 2.90374 211.274 2.71289C210.46 4.34213 210.143 6.14826 209.459 7.82405L209.454 7.81928ZM213.481 41.8472C212.522 40.8837 212.522 39.3243 213.485 38.3653C214.449 37.4017 216.008 37.4063 216.972 38.3699C217.935 39.3335 217.931 40.8929 216.967 41.8518C216.004 42.8154 214.44 42.8108 213.481 41.8472ZM192.497 49.4255C191.296 46.4975 190.667 43.3323 190.672 40.0691C190.677 36.806 191.319 33.6451 192.529 30.7171L210.558 40.0969L192.497 49.4255ZM219.914 40.1203L237.961 30.7962C239.162 33.7242 239.785 36.8897 239.781 40.1482C239.776 43.4067 239.138 46.572 237.928 49.5L219.914 40.1203ZM195.806 25.0893C196.449 24.2654 197.138 23.4694 197.892 22.72C201.76 18.8657 206.685 16.4636 212.01 15.77L212.899 36.0565L195.806 25.0893ZM189.988 29.3997L191.375 30.1214C188.726 36.4708 188.717 43.6674 191.342 50.0214L189.951 50.7383C187.097 43.9281 187.111 36.2006 189.988 29.3997ZM212.876 44.1561L211.926 64.4425C206.606 63.7303 201.69 61.3143 197.836 57.446C197.086 56.6919 196.397 55.8959 195.755 55.0673L212.871 44.1561H212.876ZM195.802 59.4709C194.899 58.5632 194.079 57.6045 193.33 56.6129L194.652 55.7704C195.341 56.6734 196.086 57.5437 196.91 58.3677C200.996 62.4687 206.215 65.0198 211.866 65.7506L211.791 67.3146C205.749 66.5652 200.163 63.8466 195.802 59.4709ZM237.067 56.6873C236.313 57.6788 235.494 58.6331 234.586 59.5362C230.206 63.9025 224.61 66.5977 218.568 67.3285L218.499 65.7645C224.15 65.0523 229.382 62.5153 233.483 58.4329C234.307 57.609 235.056 56.7431 235.745 55.8447L237.062 56.692L237.067 56.6873ZM232.561 57.5019C228.697 61.3562 223.768 63.7583 218.448 64.4519L217.563 44.1747L234.646 55.1326C234.004 55.9565 233.315 56.7524 232.561 57.5019ZM240.465 50.8219L239.078 50.1005C241.726 43.7511 241.736 36.5591 239.11 30.205L240.502 29.4836C243.356 36.2938 243.342 44.021 240.465 50.8219ZM217.572 36.061L218.522 15.7793C223.842 16.4916 228.763 18.9074 232.612 22.7757C233.362 23.5298 234.051 24.326 234.688 25.1545L217.568 36.061H217.572ZM234.651 20.7509C235.554 21.6587 236.373 22.6128 237.123 23.6089L235.801 24.4515C235.112 23.5485 234.367 22.6826 233.543 21.854C229.456 17.753 224.233 15.1974 218.582 14.4713L218.657 12.9073C224.699 13.6567 230.28 16.3706 234.646 20.7509H234.651ZM211.954 14.4574C206.298 15.165 201.071 17.7019 196.97 21.789C196.146 22.6129 195.397 23.4788 194.703 24.3772L193.381 23.5298C194.135 22.5383 194.959 21.584 195.862 20.6809C200.242 16.3146 205.838 13.6195 211.88 12.8886L211.949 14.4526L211.954 14.4574Z" fill="#006867"/>
<path d="M9.29765 6.52028C6.80265 6.27822 7.96636 2.72197 7.96636 2.72197L1.98954 2.71265C1.98954 2.71265 3.15791 6.19454 0.569816 6.51573C-1.86932 6.8183 -1.99035 3.40612 -1.99035 3.40612L-7.60874 5.4404C-7.60874 5.4404 -5.1603 8.05657 -7.58082 9.47169C-9.71273 10.7239 -11.1138 7.45605 -11.1138 7.45605L-15.6989 11.2871C-15.6989 11.2871 -12.7291 13.0234 -14.321 15.1088C-15.8804 17.1477 -18.3009 14.3781 -18.3009 14.3781L-21.2986 19.5497C-21.2986 19.5497 -17.6958 20.0244 -18.6873 22.6079C-19.8137 25.5359 -22.6904 23.3482 -22.6904 23.3482L-23.7378 29.232C-23.7378 29.232 -20.1023 28.4453 -20.242 31.2569C-20.3909 34.2082 -23.7424 33.2726 -23.7424 33.2726L-22.7137 39.1611C-22.7137 39.1611 -19.6322 37.0337 -18.7199 39.9384C-17.882 42.6057 -21.3359 42.9596 -21.3359 42.9596L-18.3568 48.1405C-18.3568 48.1405 -16.2621 45.1754 -14.4002 47.4191C-12.5755 49.6116 -15.764 51.2454 -15.764 51.2454L-11.193 55.0951C-11.193 55.0951 -10.0851 51.6132 -7.70184 53.0842C-5.5932 54.3829 -7.70184 57.1246 -7.70184 57.1246L-2.0881 59.1775C-2.0881 59.1775 -2.521 55.5093 0.499993 56.0865C3.37669 56.6358 1.88713 59.8851 1.88713 59.8851L7.86395 59.8944C7.86395 59.8944 6.36975 56.6266 9.21851 56.1006C12.3047 55.5327 11.8438 59.1961 11.8438 59.1961L17.4622 57.1618C17.4622 57.1618 15.4886 54.327 17.3878 53.154C19.8641 51.6271 20.9627 55.1462 20.9627 55.1462L25.5477 51.3152C25.5477 51.3152 22.6664 49.3974 24.1373 47.5307C25.7991 45.4267 28.1498 48.2244 28.1498 48.2244L31.1475 43.0526C31.1475 43.0526 27.7122 42.6896 28.5408 39.9711C29.3181 37.4295 32.5346 39.2588 32.5346 39.2588L33.582 33.3751C33.582 33.3751 29.9605 34.3014 30.0815 31.3501C30.2025 28.4035 33.5866 29.3345 33.5866 29.3345L32.5579 23.446C32.5579 23.446 29.4159 25.3497 28.5827 22.7616C27.8658 20.5458 31.1801 19.6474 31.1801 19.6474L28.201 14.4665C28.201 14.4665 25.7898 17.2269 24.2397 15.2113C22.6431 13.1352 25.6082 11.3662 25.6082 11.3662L21.0372 7.51651C21.0372 7.51651 19.6454 10.7797 17.5414 9.55079C15.5398 8.37773 17.5414 5.49154 17.5414 5.49154L11.9276 3.43885C11.9276 3.43885 11.9556 6.78562 9.28368 6.5296L9.29765 6.52028ZM-3.54507 19.5542C-4.61103 17.7574 -5.65837 15.9467 -6.57072 14.0708C-7.16654 12.8465 -6.24953 11.571 -4.57844 11.5803C-4.31777 11.7898 -3.68937 12.0878 -3.3868 12.5858C-2.35808 14.2616 -1.30609 15.9561 -0.561311 17.7622C-0.295985 18.4046 -0.645099 19.6567 -1.16179 20.1734C-1.98569 20.9927 -2.99114 20.4807 -3.54041 19.5497L-3.54507 19.5542ZM-9.15415 28.9947C-11.2535 28.5897 -13.3342 27.9845 -15.3311 27.2118C-15.8897 26.9976 -16.5088 25.8757 -16.4017 25.2939C-16.2807 24.6282 -15.387 24.1069 -14.9075 23.6042C-12.3381 24.4002 -10.1363 24.968 -8.05096 25.8198C-7.5622 26.02 -7.0874 27.3048 -7.28291 27.8541C-7.47841 28.4127 -8.59092 29.1063 -9.15415 28.9992V28.9947ZM0.877034 51.6691C0.662911 52.2183 -0.673029 52.8002 -1.25023 52.6094C-1.83674 52.4185 -2.58151 51.2082 -2.46049 50.603C-2.03224 48.4524 -1.35264 46.3299 -0.552003 44.2863C-0.356499 43.7882 0.751355 43.2713 1.30063 43.3924C1.94299 43.532 2.43175 44.3654 2.92051 44.8309C2.20366 47.3446 1.69629 49.5697 0.877034 51.6691ZM13.5568 43.183C14.5576 44.8123 15.4281 46.5207 16.3451 48.1965C16.9456 49.2904 16.6988 50.1933 15.6236 50.7706C14.5902 51.3245 13.757 50.9009 13.2124 49.9466C12.2302 48.2382 11.2434 46.5253 10.359 44.7657C9.69796 43.4483 10.5219 42.0752 12.2907 42.0566C12.5607 42.2893 13.2217 42.6337 13.5568 43.183ZM-12.2822 42.7828C-13.5157 43.3879 -14.8191 42.5173 -14.7865 40.8089C-14.5165 40.5064 -14.1209 39.8128 -13.5251 39.4404C-11.9657 38.4629 -10.3179 37.6249 -8.70263 36.7358C-7.64598 36.154 -6.70571 36.3076 -6.09127 37.3643C-5.51872 38.3512 -5.84456 39.2589 -6.78949 39.8082C-8.59092 40.8555 -10.4063 41.8703 -12.2776 42.7873L-12.2822 42.7828ZM18.9844 33.5426C21.1303 33.9708 23.2529 34.5899 25.2917 35.3766C25.8223 35.5814 26.367 36.7172 26.2646 37.327C26.1621 37.9461 25.2824 38.4395 24.789 38.9376C22.2707 38.1649 20.0178 37.5832 17.8765 36.7313C17.4017 36.5404 16.9549 35.2603 17.1457 34.7156C17.3459 34.1524 18.4304 33.4401 18.9751 33.5471L18.9844 33.5426ZM13.8501 31.4758C13.7104 36.2006 9.53504 40.2597 4.87089 40.2039C0.0857114 40.148 -4.03382 35.926 -3.95004 31.1639C-3.86625 26.2669 0.243978 22.2962 5.09432 22.4172C10.0005 22.5429 13.9944 26.6719 13.8501 31.4758ZM24.6354 21.719C24.4305 21.9797 24.1513 22.6313 23.6532 22.9339C21.9774 23.9626 20.2365 24.8935 18.5049 25.8198C17.439 26.3924 16.3125 26.197 15.9913 25.0752C15.7958 24.4049 16.2473 23.148 16.8245 22.7384C18.4118 21.5979 20.19 20.7042 21.9542 19.829C23.3134 19.1587 24.6354 19.9734 24.6354 21.719ZM11.113 9.99287C11.6856 10.1837 12.4257 11.2871 12.314 11.841C11.8904 13.9963 11.262 16.1282 10.4614 18.1764C10.2565 18.6977 9.08352 19.2098 8.45977 19.098C7.85464 18.9956 7.38916 18.0927 6.92833 17.6086C7.69638 15.1089 8.25496 12.9024 9.09283 10.8123C9.29299 10.3095 10.5591 9.80678 11.1037 9.98833L11.113 9.99287Z" fill="#006867"/>
<path d="M758.512 20.9213L758.545 19.59L754.058 18.9895L753.304 21.6848H753.29C752.442 21.6894 751.688 21.182 751.418 20.386L750.99 19.1197L746.54 20.088L746.754 22.8717H746.74C745.944 23.1696 745.055 22.9508 744.529 22.2991L743.687 21.2611L739.814 23.6863L740.968 26.214L740.959 26.2234C740.303 26.7726 739.372 26.8516 738.645 26.4234L737.514 25.7531L734.689 29.3421L736.649 31.3111L736.639 31.3252C736.206 32.0607 735.354 32.4516 734.521 32.298L733.218 32.056L731.775 36.3711L734.298 37.5394V37.5535C734.135 38.3914 733.465 39.0477 732.622 39.1873L731.319 39.4014L731.435 43.9262L734.223 44.1589V44.1682C734.363 45.0061 733.953 45.8533 733.204 46.2723L732.045 46.9194L733.707 51.1089L736.416 50.3734L736.425 50.3872C736.844 51.1227 736.746 52.049 736.183 52.6961L735.308 53.6968L738.315 57.044L740.633 55.4241L740.642 55.4334C741.289 55.9734 741.513 56.8716 741.201 57.6629L740.712 58.9105L744.701 61.01L746.335 58.7057H746.349C747.145 58.999 747.667 59.7623 747.643 60.6095L747.611 61.9317L752.098 62.5322L752.852 59.8322H752.866C753.718 59.8322 754.472 60.3629 754.747 61.1682L755.165 62.4065L759.616 61.4335L759.401 58.6498H759.415C760.221 58.3519 761.114 58.594 761.65 59.2503L762.474 60.2652L766.342 57.84L765.187 55.3122L765.197 55.3029C765.853 54.7536 766.779 54.6697 767.505 55.1027L768.641 55.7777L771.467 52.1933L769.507 50.2197L769.535 50.1731C769.954 49.4562 770.782 49.0793 771.588 49.2282L772.933 49.4796L774.376 45.1645L771.853 43.9959V43.9821C772.016 43.1442 772.686 42.4878 773.534 42.3435L774.832 42.1246L774.716 37.6001L771.928 37.3674V37.358C771.788 36.5155 772.198 35.6728 772.952 35.2492L774.106 34.6023L772.444 30.4128L769.74 31.1436L769.731 31.1295C769.316 30.3987 769.391 29.4818 769.954 28.8347L770.838 27.8199L767.831 24.473L765.523 26.0836L765.513 26.0743C764.871 25.5343 764.629 24.6545 764.941 23.8631L765.434 22.6017L761.445 20.5024L759.816 22.7926H759.802C759.006 22.4993 758.48 21.7544 758.498 20.9072L758.512 20.9213ZM737.333 35.1842C743.468 38.573 744.855 45.2017 739.851 50.7691C736.472 47.0777 735.462 40.8074 737.333 35.1842ZM758.54 56.313C754.695 58.6498 746.135 57.2115 742.714 53.6505C747.694 49.2376 754.104 49.2793 758.54 56.313ZM762.031 54.6792C759.406 48.5533 760.793 42.2411 769.586 40.016C770.624 44.7455 766.844 52.0817 762.031 54.6792ZM756.66 39.0664C757.586 41.0866 756.711 43.4328 754.686 44.3498C752.703 45.2482 750.264 44.3171 749.398 42.3294C748.532 40.3417 749.496 37.9073 751.479 37.0507C753.439 36.2035 755.761 37.1113 756.66 39.0664ZM769.181 36.2966C761.538 36.8366 756.748 33.094 757.279 24.5521C763.381 26.4327 767.319 30.2684 769.181 36.2966ZM753.476 24.1843C751.898 31.4228 745.846 34.5696 739.237 31.5811C741.336 27.1868 748.76 23.3324 753.476 24.1843Z" fill="#006867"/>
<path d="M818.665 10.5798H818.641L817.468 6.32983L810.407 7.25151L810.453 9.33216C810.481 10.6681 809.662 11.8644 808.41 12.3113L808.391 12.3206L805.831 8.69437L799.552 11.9763L800.311 13.9405C800.795 15.1927 800.436 16.5987 799.421 17.4459L799.403 17.4597L795.763 14.8995L791.02 20.1457L792.388 21.7238C793.272 22.7432 793.421 24.2001 792.756 25.3546L792.746 25.3732L788.487 24.2001L785.853 30.7778L787.668 31.8018C788.846 32.4674 789.488 33.7988 789.26 35.1162V35.1255L784.875 35.4746L784.67 42.5921L786.718 42.9412C788.045 43.1647 789.097 44.2027 789.344 45.5201V45.5433L785.373 47.368L787.617 54.1643L789.665 53.792C790.978 53.5546 792.309 54.1691 792.988 55.3328L792.998 55.3512L789.902 58.4422L794.329 64.098L796.112 63.0461C797.257 62.3711 798.719 62.5015 799.747 63.372L799.766 63.3859L797.937 67.3565L804.011 71.1875L805.342 69.5537C806.176 68.5343 807.572 68.1897 808.824 68.6552L808.848 68.6645L808.498 73.0356L815.485 74.5858L816.17 72.5933C816.598 71.3411 817.79 70.5453 819.121 70.5593H819.144L820.317 74.7999L827.378 73.8782L827.332 71.7835C827.304 70.4521 828.137 69.2837 829.389 68.8368L829.413 68.8275L831.959 72.4399L838.238 69.158L837.47 67.1751C836.991 65.9275 837.368 64.5403 838.383 63.6977L838.401 63.6838L842.023 66.23L846.766 60.9886L845.383 59.3919C844.504 58.3771 844.387 56.934 845.044 55.7842L845.053 55.7656L849.298 56.9293L851.933 50.3519L850.122 49.3325C848.94 48.6668 848.302 47.3356 848.525 46.0136V46.0042L852.91 45.6551L853.12 38.5422L851.076 38.193C849.75 37.965 848.698 36.9316 848.451 35.6096V35.5862L852.422 33.7615L850.178 26.9652L848.065 27.3516C846.789 27.5843 845.495 26.9839 844.839 25.8573L844.792 25.783L847.888 22.692L843.461 17.0363L841.674 18.0882C840.528 18.7632 839.071 18.6328 838.043 17.7623L838.024 17.7484L839.853 13.7778L833.779 9.94199L832.48 11.534C831.642 12.5627 830.232 12.9398 828.966 12.4743L828.943 12.465L829.292 8.09409L822.305 6.54394L821.639 8.48958C821.206 9.75108 820.019 10.5891 818.674 10.5798H818.665ZM815.965 40.5626C815.96 44.0957 809.364 46.9539 805.831 46.9446C802.298 46.9399 799.435 44.0678 799.445 40.5346C799.449 37.0015 802.321 34.1386 805.854 34.1479C809.388 34.1572 815.974 37.0295 815.969 40.5626H815.965ZM818.893 38.4585C820.056 38.4585 820.997 39.4033 820.997 40.5717C820.997 41.7354 820.047 42.6757 818.888 42.6757C817.724 42.6757 816.779 41.7263 816.784 40.5626C816.789 39.3988 817.734 38.4585 818.897 38.4585H818.893ZM818.883 43.4904C822.416 43.495 825.275 50.0913 825.265 53.629C825.256 57.1668 822.388 60.0249 818.855 60.0155C815.322 60.0109 812.46 57.1388 812.464 53.6056C812.469 50.0725 815.346 43.4857 818.879 43.4904H818.883ZM821.811 40.5717C821.816 37.0385 828.412 34.1804 831.945 34.1897C835.478 34.199 838.341 37.0665 838.336 40.5996C838.331 44.1328 835.459 46.9957 831.926 46.9864C828.393 46.9771 821.807 44.1048 821.811 40.5717ZM818.893 37.6439C815.36 37.6393 812.502 31.0431 812.511 27.51C812.516 23.9769 815.388 21.1141 818.921 21.1187C822.454 21.1234 825.316 23.9955 825.307 27.5286C825.302 31.0618 822.426 37.6486 818.893 37.6439ZM810.523 29.167C811.394 30.0421 811.394 31.4574 810.519 32.3325C809.644 33.203 808.228 33.2029 807.353 32.3277C806.483 31.4526 806.483 30.0375 807.358 29.167C808.233 28.2965 809.648 28.2966 810.523 29.1717V29.167ZM794.846 40.5253C794.85 36.4336 795.888 32.5839 797.704 29.209L799.193 30.0702C797.527 33.1891 796.577 36.7455 796.573 40.5253C796.568 44.3052 797.504 47.8662 799.161 50.9897L797.671 51.8461C795.865 48.4666 794.841 44.6123 794.85 40.5205L794.846 40.5253ZM807.488 49.0857C808.363 48.2152 809.779 48.2153 810.654 49.0904C811.524 49.9656 811.524 51.3807 810.649 52.2512C809.774 53.1217 808.359 53.1215 807.484 52.2464C806.613 51.3713 806.613 49.9563 807.488 49.0811V49.0857ZM798.467 53.2288L799.957 52.3721C803.76 58.4608 810.416 62.576 818.055 62.8599V64.5821C809.788 64.2982 802.573 59.8249 798.467 53.2288ZM839.267 53.2938C835.138 59.8806 827.909 64.3262 819.642 64.5869V62.8645C827.285 62.6084 833.956 58.5121 837.782 52.4373L839.267 53.2986V53.2938ZM827.406 52.1207C826.536 51.2456 826.536 49.8304 827.411 48.96C828.286 48.0895 829.701 48.0896 830.572 48.9647C831.442 49.8399 831.442 51.255 830.572 52.1255C829.697 52.996 828.282 52.9959 827.411 52.1207H827.406ZM842.926 40.5996C842.921 44.6914 841.883 48.5457 840.068 51.9159L838.578 51.0547C840.244 47.9359 841.194 44.3796 841.199 40.5951C841.203 36.8152 840.268 33.2542 838.611 30.1307L840.1 29.2743C841.902 32.6538 842.926 36.5079 842.921 40.5996H842.926ZM830.441 32.1975C829.566 33.068 828.151 33.0678 827.281 32.1927C826.41 31.3176 826.41 29.9027 827.285 29.0322C828.16 28.1617 829.576 28.1616 830.446 29.0367C831.316 29.9119 831.316 31.327 830.441 32.1975ZM839.304 27.8962L837.815 28.7528C834.012 22.6641 827.355 18.5443 819.717 18.265V16.5381C827.984 16.822 835.199 21.2954 839.304 27.8962ZM818.125 18.2605C810.481 18.5165 803.816 22.6129 799.989 28.6876L798.504 27.8264C802.633 21.2396 809.862 16.7942 818.129 16.5335V18.2605H818.125Z" fill="#006867"/>
<path d="M893.983 7.81903C890.701 8.43815 884.459 11.0684 884.38 11.1103C884.338 11.1289 880.712 9.12704 879.218 8.35431C876.234 10.9937 873.269 13.6472 870.322 16.3285C871.002 18.0601 872.063 19.6102 872.808 21.3046C870.825 24.1581 868.386 27.8494 867.334 31.1544C867.264 31.3778 867.334 31.1544 862.46 31.9597C862.479 33.4772 862.437 45.7712 862.437 45.7712L867.585 46.4181C868.274 49.7138 869.303 52.898 870.918 55.8679C869.992 57.4785 868.772 58.9076 867.897 60.5508C870.583 63.5672 873.274 66.5789 875.987 69.5721C877.375 68.7063 881.038 66.9421 881.038 66.9421C885.953 70.2937 890.478 71.5737 890.478 71.5737C890.734 73.1517 891.297 75.2978 891.609 76.8619C895.58 77.1039 899.546 77.3273 903.521 77.5135C904.363 75.8936 904.643 74.0688 905.359 72.4024C908.748 71.76 915.428 68.804 915.665 68.9436C916.391 69.3765 918.035 71.2758 919.263 72.1137L929.169 63.3902C928.406 61.6073 927.112 60.1457 926.446 59.0798C927.624 57.4738 931.189 49.3183 931.417 49.2625C933.014 48.8808 934.862 48.592 936.421 48.0474C936.668 44.1139 936.882 40.1758 937.073 36.2424C935.597 35.5022 933.596 35.1484 932.06 34.5852C931.822 34.4967 931.562 30.8287 928.457 24.2931C928.964 23.3947 930.081 21.9049 931.385 19.7311L922.945 10.2024C920.339 12.0877 919.468 12.5626 918.481 13.2655C915.507 11.2033 912.286 9.68103 908.827 8.63366C908.353 6.89269 908.52 5.23098 908.129 3.16883C904.196 2.92211 899.741 2.9035 895.803 2.71265C894.988 4.34189 894.672 6.14801 893.988 7.82381L893.983 7.81903ZM898.009 41.847C897.051 40.8834 897.051 39.324 898.014 38.3651C898.978 37.4015 900.537 37.406 901.501 38.3696C902.464 39.3332 902.459 40.8926 901.496 41.8515C900.532 42.8151 898.968 42.8106 898.009 41.847ZM877.025 49.4252C875.824 46.4972 875.196 43.332 875.201 40.0689C875.205 36.8057 875.848 33.6448 877.058 30.7169L895.086 40.0966L877.025 49.4252ZM904.442 40.12L922.489 30.796C923.69 33.7239 924.314 36.8895 924.309 40.148C924.305 43.4065 923.667 46.5718 922.457 49.4998L904.442 40.12ZM880.335 25.0891C880.977 24.2651 881.666 23.4692 882.42 22.7198C886.289 18.8654 891.213 16.4634 896.539 15.7698L897.428 36.0562L880.335 25.0891ZM874.516 29.3995L875.904 30.1211C873.255 36.4705 873.246 43.6671 875.871 50.0212L874.479 50.7381C871.626 43.9278 871.64 36.2004 874.516 29.3995ZM897.404 44.1559L896.455 64.4423C891.134 63.7301 886.219 61.314 882.365 57.4457C881.615 56.6916 880.926 55.8957 880.284 55.0671L897.4 44.1559H897.404ZM880.33 59.4707C879.427 58.563 878.608 57.6042 877.859 56.6127L879.181 55.7701C879.87 56.6732 880.614 57.5435 881.438 58.3674C885.525 62.4685 890.743 65.0195 896.394 65.7504L896.32 67.3144C890.278 66.5649 884.692 63.8464 880.33 59.4707ZM921.596 56.687C920.841 57.6785 920.022 58.6329 919.115 59.5359C914.734 63.9023 909.139 66.5974 903.097 67.3283L903.027 65.7642C908.678 65.052 913.91 62.5151 918.011 58.4326C918.835 57.6087 919.585 56.7429 920.274 55.8444L921.591 56.6918L921.596 56.687ZM917.09 57.5016C913.226 61.356 908.297 63.758 902.976 64.4516L902.092 44.1745L919.175 55.1323C918.533 55.9563 917.844 56.7522 917.09 57.5016ZM924.994 50.8217L923.606 50.1003C926.255 43.7509 926.264 36.5588 923.639 30.2048L925.031 29.4833C927.884 36.2936 927.87 44.0208 924.994 50.8217ZM902.101 36.0608L903.051 15.7791C908.371 16.4913 913.291 18.9071 917.141 22.7754C917.89 23.5295 918.579 24.3257 919.217 25.1543L902.096 36.0608H902.101ZM919.18 20.7507C920.083 21.6584 920.902 22.6125 921.651 23.6087L920.329 24.4513C919.641 23.5482 918.896 22.6823 918.072 21.8538C913.985 17.7527 908.762 15.1972 903.111 14.471L903.186 12.907C909.228 13.6565 914.809 16.3704 919.175 20.7507H919.18ZM896.483 14.4572C890.827 15.1647 885.6 17.7017 881.499 21.7888C880.675 22.6127 879.925 23.4785 879.232 24.377L877.91 23.5296C878.664 22.5381 879.488 21.5838 880.391 20.6807C884.771 16.3143 890.366 13.6192 896.408 12.8884L896.478 14.4524L896.483 14.4572Z" fill="#006867"/>
</svg>
