<svg width="879" height="41" viewBox="0 0 879 41" fill="none" xmlns="http://www.w3.org/2000/svg">
<path d="M462.419 24.7969L462.377 26.4214L467.846 27.1523L468.763 23.8659H468.782C469.815 23.8612 470.732 24.4803 471.063 25.4485L471.584 26.9941L477.007 25.8118L476.746 22.4228H476.765C477.738 22.0597 478.818 22.3297 479.46 23.1211L480.489 24.3873L485.209 21.4314L483.798 18.3497L483.812 18.3404C484.613 17.6701 485.744 17.5723 486.633 18.0983L488.011 18.9177L491.456 14.5466L489.068 12.1446L489.077 12.1307C489.608 11.2323 490.641 10.7574 491.656 10.9436L493.243 11.237L495.003 5.97672L491.926 4.55227V4.53386C492.121 3.50976 492.94 2.70898 493.969 2.5414L495.557 2.27615L495.412 -3.24005L492.014 -3.5194V-3.52872C491.842 -4.55281 492.34 -5.58145 493.257 -6.0935L494.667 -6.88494L492.643 -11.9913L489.338 -11.0931L489.328 -11.1069C488.816 -12.0007 488.937 -13.1319 489.622 -13.9186L490.688 -15.1382L487.024 -19.2159L484.199 -17.2423L484.185 -17.2516C483.398 -17.9126 483.123 -19.0018 483.505 -19.97L484.101 -21.4922L479.241 -24.0525L477.249 -21.2456H477.235C476.262 -21.604 475.634 -22.5303 475.657 -23.5683L475.699 -25.1837L470.23 -25.9145L469.313 -22.6235H469.294C468.251 -22.6188 467.334 -23.2704 467.004 -24.2479L466.492 -25.7563L461.069 -24.5739L461.329 -21.1849H461.311C460.329 -20.8172 459.239 -21.1152 458.592 -21.9159L457.587 -23.1542L452.872 -20.1982L454.277 -17.1166L454.263 -17.1073C453.463 -16.4369 452.332 -16.3392 451.447 -16.8652L450.065 -17.6846L446.62 -13.3135L449.008 -10.9115L448.976 -10.851C448.463 -9.98051 447.458 -9.51957 446.471 -9.70111L444.833 -10.0039L443.078 -4.7436L446.155 -3.31915V-3.30051C445.959 -2.27642 445.14 -1.47574 444.111 -1.30351L442.529 -1.03826L442.673 4.47794L446.071 4.76183V4.77115C446.243 5.79525 445.74 6.82866 444.823 7.34071L443.418 8.12738L445.442 13.2292L448.738 12.3355L448.747 12.3494C449.255 13.2431 449.162 14.3604 448.477 15.1471L447.402 16.3807L451.066 20.4585L453.882 18.494L453.896 18.5034C454.682 19.1597 454.971 20.235 454.594 21.1986L453.993 22.7347L458.853 25.2949L460.836 22.5019H460.85C461.818 22.8603 462.461 23.7681 462.437 24.7969H462.419ZM448.896 0.586215C448.915 -10.5345 457.945 -19.5372 469.07 -19.5186C480.191 -19.5 489.193 -10.4692 489.175 0.656222C489.156 11.777 480.126 20.7797 469.001 20.7611C457.88 20.7424 448.878 11.7116 448.896 0.586215Z" fill="#006867"/>
<path d="M469.005 19.416C479.386 19.4346 487.816 11.0323 487.83 0.651727C487.848 -9.72888 479.446 -18.159 469.066 -18.173C458.686 -18.187 450.256 -9.78934 450.242 0.591266C450.223 10.9719 458.625 19.402 469.005 19.416ZM480.037 -4.75264C483.012 -4.74799 485.423 -2.33201 485.418 0.647181C485.414 3.62171 482.998 6.03302 480.019 6.02837C477.04 6.02371 474.633 3.60773 474.638 0.628543C474.643 -2.35065 477.058 -4.7573 480.037 -4.75264ZM469.066 -15.7616C472.04 -15.757 474.452 -13.3363 474.447 -10.3618C474.442 -7.38727 472.026 -4.97619 469.047 -4.98085C466.073 -4.9855 463.662 -7.40126 463.666 -10.3804C463.671 -13.3596 466.087 -15.7663 469.066 -15.7616ZM470.812 0.623769C470.812 1.60132 470.016 2.3928 469.038 2.3928C468.061 2.3928 467.269 1.59677 467.269 0.619224C467.269 -0.358323 468.065 -1.14981 469.043 -1.14981C470.02 -1.14981 470.812 -0.353777 470.812 0.623769ZM469.033 6.21907C472.008 6.22372 474.419 8.64436 474.414 11.6189C474.41 14.5934 471.994 17.0047 469.015 17.0001C466.04 16.9954 463.629 14.5748 463.634 11.6003C463.638 8.62572 466.054 6.21441 469.033 6.21907ZM458.062 -4.78992C461.036 -4.78526 463.448 -2.36928 463.443 0.609904C463.438 3.58444 461.022 5.99574 458.043 5.99109C455.069 5.98643 452.658 3.57045 452.662 0.591266C452.667 -2.38327 455.083 -4.79457 458.062 -4.78992Z" fill="#006867"/>
<path d="M413.97 14.3784C415.423 14.518 414.743 16.585 414.743 16.585H418.216C418.216 16.585 417.536 14.5646 419.039 14.3784C420.459 14.2015 420.529 16.1845 420.529 16.1845L423.792 15.0023C423.792 15.0023 422.368 13.4801 423.773 12.6562C425.012 11.93 425.826 13.8292 425.826 13.8292L428.489 11.5995C428.489 11.5995 426.762 10.5894 427.688 9.37906C428.596 8.19669 430.002 9.80251 430.002 9.80251L431.742 6.79541C431.742 6.79541 429.648 6.52085 430.225 5.01729C430.881 3.31356 432.552 4.58906 432.552 4.58906L433.162 1.17215C433.162 1.17215 431.049 1.62844 431.128 -0.00545675C431.212 -1.71849 433.162 -1.17852 433.162 -1.17852L432.566 -4.59998C432.566 -4.59998 430.774 -3.36163 430.244 -5.05138C429.755 -6.60149 431.766 -6.80632 431.766 -6.80632L430.034 -9.81819C430.034 -9.81819 428.815 -8.0959 427.735 -9.39929C426.673 -10.6748 428.526 -11.6243 428.526 -11.6243L425.868 -13.8633C425.868 -13.8633 425.226 -11.8383 423.839 -12.6948C422.614 -13.4489 423.839 -15.041 423.839 -15.041L420.576 -16.2327C420.576 -16.2327 420.827 -14.1007 419.072 -14.4359C417.401 -14.7524 418.267 -16.6422 418.267 -16.6422H414.794C414.794 -16.6422 415.665 -14.7478 414.008 -14.4452C412.211 -14.1147 412.481 -16.2468 412.481 -16.2468L409.213 -15.0644C409.213 -15.0644 410.358 -13.4165 409.255 -12.7369C407.817 -11.8478 407.179 -13.8958 407.179 -13.8958L404.516 -11.6661C404.516 -11.6661 406.192 -10.5489 405.336 -9.4643C404.367 -8.24004 403.003 -9.86934 403.003 -9.86934L401.263 -6.86224C401.263 -6.86224 403.26 -6.65272 402.775 -5.07002C402.324 -3.58974 400.453 -4.65567 400.453 -4.65567L399.843 -1.23444C399.843 -1.23444 401.947 -1.77429 401.877 -0.0565979C401.807 1.65644 399.838 1.11647 399.838 1.11647L400.434 4.53792C400.434 4.53792 402.259 3.43451 402.743 4.93341C403.157 6.22284 401.23 6.74427 401.23 6.74427L402.962 9.75614C402.962 9.75614 404.363 8.15009 405.266 9.32314C406.197 10.5288 404.47 11.5574 404.47 11.5574L407.128 13.7965C407.128 13.7965 407.938 11.8973 409.162 12.6141C410.326 13.2938 409.162 14.9744 409.162 14.9744L412.425 16.1661C412.425 16.1661 412.406 14.2201 413.961 14.3691L413.97 14.3784ZM423.094 -9.21291C425.603 -7.9421 427.185 -5.82873 427.865 -3.15212C428.242 -1.66718 428.186 -0.0752087 428.34 1.58196C426.04 0.292535 424.048 -0.708286 422.186 -1.90927C420.994 -2.67734 419.817 -3.59437 418.956 -4.70226C417.95 -5.99635 418.178 -7.61168 419.1 -8.59853C420.101 -9.66918 421.623 -9.96236 423.098 -9.21291H423.094ZM407.686 -2.67275C406.732 -3.58513 406.443 -4.73029 406.853 -5.96852C407.677 -8.46824 409.571 -9.96239 411.866 -10.9865C413.756 -11.829 415.753 -12.0618 417.731 -11.6568C416.54 -9.50617 415.399 -7.42549 414.236 -5.34937C413.454 -3.95753 412.537 -2.70076 410.921 -2.17475C409.758 -1.79304 408.636 -1.76503 407.686 -2.67275ZM416.81 -2.90096C418.285 -2.752 419.51 -1.24376 419.375 0.259795C419.23 1.84714 417.75 3.05762 416.167 2.89004C414.594 2.72246 413.426 1.22355 413.621 -0.377764C413.798 -1.87667 415.292 -3.05457 416.814 -2.90096H416.81ZM410.195 9.48611C406.83 7.93601 405.201 5.14303 404.74 1.59128C404.614 0.623048 404.726 -0.373164 404.73 -1.36467C406.983 -0.103175 409.022 1.05586 411.08 2.18702C412.495 2.9644 413.752 3.88147 414.301 5.48278C414.715 6.68377 414.766 7.88484 413.756 8.82514C412.741 9.7701 411.513 10.0913 410.195 9.48611ZM415.046 11.5436C416.191 9.5047 417.196 7.46124 418.439 5.57598C419.235 4.37033 420.231 3.19255 421.395 2.35931C422.698 1.42831 424.22 1.75872 425.142 2.7223C426.133 3.7557 426.32 5.21755 425.631 6.63267C423.839 10.3334 418.9 12.5863 415.041 11.5436H415.046Z" fill="#006867"/>
<path d="M61.0224 34.4795C63.5174 34.7215 62.3537 38.2778 62.3537 38.2778L68.3305 38.2871C68.3305 38.2871 67.1622 34.8052 69.7503 34.484C72.1894 34.1815 72.3104 37.5936 72.3104 37.5936L77.9288 35.5594C77.9288 35.5594 75.4804 32.9432 77.9009 31.5281C80.0328 30.2759 81.4339 33.5437 81.4339 33.5437L86.0189 29.7127C86.0189 29.7127 83.0491 27.9764 84.6411 25.8909C86.2005 23.8521 88.621 26.6217 88.621 26.6217L91.6187 21.4501C91.6187 21.4501 88.0159 20.9754 89.0073 18.3918C90.1338 15.4639 93.0105 17.6515 93.0105 17.6515L94.0578 11.7678C94.0578 11.7678 90.4224 12.5545 90.5621 9.74284C90.711 6.79158 94.0625 7.7272 94.0625 7.7272L93.0338 1.83869C93.0338 1.83869 89.9523 3.96606 89.0399 1.06135C88.2021 -1.60596 91.6559 -1.95985 91.6559 -1.95985L88.6768 -7.14079C88.6768 -7.14079 86.5822 -4.17565 84.7202 -6.41935C82.8955 -8.61185 86.0841 -10.2456 86.0841 -10.2456L81.513 -14.0953C81.513 -14.0953 80.4052 -10.6135 78.0219 -12.0844C75.9133 -13.3832 78.0219 -16.1248 78.0219 -16.1248L72.4082 -18.1777C72.4082 -18.1777 72.8411 -14.5095 69.8201 -15.0868C66.9434 -15.636 68.4329 -18.8853 68.4329 -18.8853L62.4561 -18.8946C62.4561 -18.8946 63.9503 -15.6269 61.1016 -15.1008C58.0154 -14.5329 58.4762 -18.1964 58.4762 -18.1964L52.8578 -16.1621C52.8578 -16.1621 54.8315 -13.3273 52.9323 -12.1542C50.4559 -10.6274 49.3574 -14.1464 49.3574 -14.1464L44.7724 -10.3154C44.7724 -10.3154 47.6537 -8.3976 46.1828 -6.53096C44.521 -4.4269 42.1703 -7.22466 42.1703 -7.22466L39.1726 -2.05281C39.1726 -2.05281 42.6079 -1.68989 41.7793 1.02862C41.0019 3.57024 37.7854 1.74096 37.7854 1.74096L36.7381 7.62469C36.7381 7.62469 40.3596 6.69839 40.2385 9.64965C40.1175 12.5963 36.7334 11.6653 36.7334 11.6653L37.7622 17.5538C37.7622 17.5538 40.9042 15.65 41.7374 18.2382C42.4543 20.454 39.14 21.3523 39.14 21.3523L42.1191 26.5333C42.1191 26.5333 44.5303 23.7728 46.0804 25.7884C47.677 27.8646 44.7119 29.6336 44.7119 29.6336L49.2829 33.4832C49.2829 33.4832 50.6747 30.2201 52.7787 31.449C54.7803 32.622 52.7787 35.5082 52.7787 35.5082L58.3924 37.5609C58.3924 37.5609 58.3645 34.2141 61.0364 34.4702L61.0224 34.4795ZM73.8651 21.4455C74.9311 23.2424 75.9784 25.053 76.8908 26.929C77.4866 28.1533 76.5696 29.4288 74.8985 29.4195C74.6378 29.21 74.0094 28.912 73.7069 28.4139C72.6781 26.7381 71.6262 25.0436 70.8814 23.2375C70.6161 22.5951 70.9652 21.3431 71.4819 20.8264C72.3058 20.0071 73.3112 20.5191 73.8605 21.4501L73.8651 21.4455ZM79.4742 12.0051C81.5736 12.4101 83.6543 13.0153 85.6512 13.788C86.2098 14.0021 86.8289 15.124 86.7218 15.7059C86.6008 16.3716 85.7071 16.8929 85.2276 17.3956C82.6581 16.5996 80.4564 16.0318 78.371 15.1799C77.8823 14.9798 77.4075 13.6949 77.603 13.1457C77.7985 12.5871 78.911 11.8935 79.4742 12.0006V12.0051ZM69.443 -10.6693C69.6572 -11.2186 70.9931 -11.8005 71.5703 -11.6096C72.1568 -11.4188 72.9016 -10.2084 72.7806 -9.60329C72.3523 -7.45269 71.6727 -5.3301 70.8721 -3.28656C70.6766 -2.78848 69.5687 -2.27158 69.0194 -2.39261C68.3771 -2.53226 67.8883 -3.36566 67.3996 -3.83116C68.1164 -6.34485 68.6238 -8.5699 69.443 -10.6693ZM56.7632 -2.18328C55.7624 -3.81252 54.892 -5.52091 53.975 -7.1967C53.3745 -8.29062 53.6212 -9.19359 54.6965 -9.7708C55.7299 -10.3247 56.5631 -9.90113 57.1077 -8.94686C58.0899 -7.23849 59.0767 -5.52551 59.9611 -3.76592C60.6221 -2.44856 59.7982 -1.07543 58.0294 -1.05681C57.7594 -1.28955 57.0984 -1.63399 56.7632 -2.18328ZM82.6023 -1.78301C83.8358 -2.38816 85.1392 -1.51757 85.1066 0.190811C84.8366 0.493385 84.4409 1.18695 83.8451 1.55935C82.2857 2.53689 80.6379 3.37482 79.0227 4.26392C77.9661 4.84579 77.0258 4.69213 76.4113 3.63545C75.8388 2.6486 76.1646 1.74087 77.1096 1.19159C78.911 0.144216 80.7264 -0.870525 82.5976 -1.78756L82.6023 -1.78301ZM51.3357 7.45717C49.1898 7.02892 47.0672 6.40983 45.0284 5.62314C44.4977 5.41832 43.9531 4.28253 44.0555 3.67273C44.1579 3.05362 45.0377 2.56021 45.5311 2.06212C48.0494 2.83485 50.3023 3.4166 52.4435 4.26847C52.9183 4.45932 53.3652 5.73948 53.1744 6.28411C52.9742 6.84736 51.8896 7.55969 51.345 7.45263L51.3357 7.45717ZM56.47 9.52396C56.6096 4.79915 60.785 0.740008 65.4492 0.795868C70.2344 0.851728 74.3539 5.07376 74.2701 9.83581C74.1863 14.7328 70.0761 18.7036 65.2257 18.5825C60.3195 18.4569 56.3257 14.3279 56.47 9.52396ZM45.6847 19.2808C45.8895 19.0201 46.1688 18.3685 46.6669 18.0659C48.3426 17.0371 50.0835 16.1063 51.8151 15.1799C52.8811 14.6074 54.0076 14.8027 54.3288 15.9246C54.5243 16.5949 54.0727 17.8517 53.4955 18.2614C51.9082 19.4018 50.1301 20.2956 48.3659 21.1707C47.0067 21.841 45.6847 21.0264 45.6847 19.2808ZM59.207 31.0069C58.6345 30.816 57.8944 29.7127 58.0061 29.1588C58.4297 27.0035 59.0581 24.8716 59.8587 22.8234C60.0635 22.302 61.2365 21.79 61.8603 21.9017C62.4654 22.0041 62.9309 22.907 63.3917 23.3912C62.6237 25.8909 62.0651 28.0974 61.2272 30.1875C61.0271 30.6902 59.761 31.193 59.2163 31.0114L59.207 31.0069Z" fill="#006867"/>
<path d="M265.246 37.2249L265.181 39.8269L273.941 41L275.412 35.74H275.44C277.093 35.7307 278.568 36.722 279.094 38.2768L279.932 40.7534L288.613 38.8587L288.199 33.4311L288.227 33.4218C289.786 32.8492 291.518 33.282 292.547 34.5528L294.19 36.5825L301.749 31.8482L299.492 26.9141L299.515 26.8955C300.8 25.8202 302.61 25.6665 304.03 26.5091L306.237 27.8217L311.757 20.8206L307.931 16.9709L307.945 16.9477C308.792 15.5094 310.449 14.7459 312.078 15.0485L314.62 15.5187L317.436 7.09319L312.507 4.81229V4.78433C312.823 3.14578 314.131 1.8655 315.779 1.59085L318.321 1.1674L318.092 -7.66774L312.651 -8.11938V-8.13324C312.376 -9.7718 313.172 -11.4244 314.639 -12.2436L316.896 -13.5099L313.652 -21.6886L308.359 -20.2503L308.345 -20.2735C307.526 -21.7072 307.717 -23.5134 308.815 -24.7796L310.519 -26.7345L304.649 -33.2656L300.12 -30.1048L300.097 -30.1235C298.835 -31.1802 298.398 -32.9304 299.003 -34.4805L299.953 -36.915L292.17 -41.0161L288.976 -36.5241L288.948 -36.5334C287.394 -37.0967 286.379 -38.5815 286.421 -40.2433L286.486 -42.8269L277.721 -44L276.25 -38.7259H276.222C274.556 -38.7166 273.085 -39.764 272.549 -41.3327L271.73 -43.7486L263.049 -41.8539L263.463 -36.4263L263.435 -36.417C261.867 -35.8398 260.116 -36.3145 259.078 -37.5946L257.472 -39.5778L249.918 -34.8437L252.171 -29.9046L252.147 -29.886C250.867 -28.8107 249.056 -28.6525 247.637 -29.495L245.426 -30.8076L239.91 -23.8065L243.736 -19.9569L243.68 -19.8639C242.856 -18.4674 241.25 -17.7273 239.668 -18.0205L237.042 -18.5092L234.226 -10.0837L239.156 -7.80276V-7.7748C238.839 -6.13625 237.526 -4.8563 235.879 -4.577L233.342 -4.15332L233.57 4.67728L239.011 5.12868V5.14278C239.286 6.78598 238.485 8.43843 237.014 9.25771L234.761 10.5192L238.006 18.6934L243.28 17.2644L243.294 17.2876C244.104 18.7166 243.955 20.5089 242.856 21.7657L241.134 23.7441L246.999 30.2749L251.51 27.1282L251.533 27.1469C252.79 28.1989 253.255 29.9212 252.655 31.4666L251.696 33.9246L259.479 38.0254L262.653 33.552L262.681 33.5613C264.231 34.1246 265.265 35.5769 265.223 37.2294L265.246 37.2249ZM275.901 -34.7273C278.34 -34.7273 280.318 -32.7395 280.314 -30.3003C280.314 -27.8611 278.326 -25.8828 275.887 -25.8874C273.448 -25.8921 271.47 -27.875 271.474 -30.3142C271.474 -32.7534 273.462 -34.732 275.901 -34.7273ZM257.654 -24.2675C256.439 -26.3855 257.165 -29.0854 259.283 -30.3003C261.396 -31.5199 264.096 -30.7892 265.316 -28.6758C266.531 -26.5625 265.805 -23.8577 263.687 -22.6428C261.573 -21.4232 258.869 -22.1541 257.654 -24.2675ZM288.078 -22.5964C285.965 -23.8207 285.243 -26.5251 286.472 -28.6338C287.696 -30.7472 290.401 -31.4688 292.509 -30.2399C294.623 -29.0156 295.344 -26.3156 294.12 -24.2022C292.896 -22.0889 290.191 -21.372 288.083 -22.5916L288.078 -22.5964ZM309.071 -1.43943C309.071 0.999778 307.084 2.97348 304.645 2.97348C302.205 2.97348 300.227 0.985913 300.232 -1.4533C300.236 -3.89251 302.219 -5.87109 304.659 -5.86644C307.098 -5.86644 309.076 -3.87864 309.071 -1.43943ZM304.645 -18.0578C305.86 -15.9444 305.133 -13.2446 303.02 -12.025C300.902 -10.8054 298.202 -11.5361 296.983 -13.6494C295.768 -15.7675 296.494 -18.4673 298.612 -19.6823C300.73 -20.9019 303.43 -20.1711 304.645 -18.053V-18.0578ZM248.703 -12.1179C246.589 -13.3422 245.873 -16.0468 247.097 -18.1555C248.316 -20.2689 251.025 -20.9858 253.134 -19.7662C255.247 -18.5419 255.969 -15.8374 254.74 -13.724C253.516 -11.6153 250.811 -10.8937 248.703 -12.1179ZM242.619 -1.55126C242.619 -3.99047 244.602 -5.96417 247.046 -5.96417C249.485 -5.96417 251.463 -3.98103 251.458 -1.53717C251.454 0.902041 249.471 2.8804 247.032 2.87574C244.592 2.87574 242.614 0.887949 242.623 -1.55126H242.619ZM258.073 -1.52785C258.092 -11.3406 266.056 -19.2819 275.873 -19.2679C285.685 -19.2493 293.627 -11.2847 293.613 -1.46739C293.594 8.34531 285.625 16.2866 275.813 16.2727C266 16.2541 258.059 8.2894 258.073 -1.5233V-1.52785ZM247.041 15.0671C245.821 12.9538 246.552 10.2539 248.67 9.03428C250.783 7.81467 253.488 8.5455 254.703 10.6635C255.918 12.7769 255.192 15.4814 253.074 16.6964C250.96 17.916 248.256 17.1851 247.041 15.0671ZM298.551 16.7709C296.438 15.5467 295.721 12.8421 296.941 10.7288C298.165 8.61539 300.87 7.89843 302.983 9.12269C305.096 10.347 305.813 13.0515 304.589 15.1649C303.365 17.2782 300.665 17.9952 298.551 16.7709ZM294.036 21.2722C295.256 23.3903 294.525 26.0901 292.407 27.3051C290.294 28.52 287.589 27.7937 286.374 25.6804C285.159 23.5624 285.886 20.8626 287.999 19.643C290.117 18.428 292.817 19.1542 294.036 21.2722ZM259.181 27.2492C257.072 26.0296 256.351 23.3251 257.575 21.2118C258.799 19.1031 261.504 18.3815 263.612 19.6057C265.725 20.83 266.442 23.5345 265.218 25.6479C263.994 27.7566 261.289 28.4782 259.181 27.2539V27.2492ZM271.376 27.3051C271.376 24.8659 273.364 22.8922 275.803 22.8922C278.242 22.8922 280.221 24.8751 280.216 27.3189C280.216 29.7582 278.228 31.7319 275.789 31.7319C273.35 31.7319 271.372 29.7489 271.376 27.3051Z" fill="#006867"/>
<path d="M281.44 -1.49554C281.445 -4.59111 278.945 -7.10005 275.85 -7.1047C272.754 -7.10936 270.246 -4.60509 270.241 -1.51418C270.236 1.57673 272.736 4.0859 275.831 4.09521C278.922 4.09986 281.436 1.59536 281.44 -1.49554Z" fill="#006867"/>
<path d="M286.095 8.78284C288.841 6.04106 290.359 2.3963 290.363 -1.4813C290.373 -5.36355 288.864 -9.0131 286.127 -11.7595C283.39 -14.506 279.746 -16.0235 275.864 -16.0281C271.981 -16.0328 268.337 -14.5294 265.586 -11.7923C262.839 -9.05514 261.322 -5.41027 261.317 -1.53267C261.303 6.4739 267.811 13.0002 275.817 13.0141C279.699 13.0188 283.344 11.5154 286.09 8.7783L286.095 8.78284ZM263.091 -1.52789C263.095 -4.93534 264.427 -8.1379 266.842 -10.5399C269.254 -12.9465 272.461 -14.2686 275.868 -14.2593C279.276 -14.25 282.478 -12.9234 284.88 -10.5121C287.287 -8.10086 288.604 -4.89352 288.599 -1.48607C288.595 1.92137 287.263 5.12394 284.852 7.52591C282.441 9.93253 279.234 11.2547 275.826 11.2453C268.793 11.2314 263.081 5.50101 263.091 -1.53267V-1.52789Z" fill="#006867"/>
<path d="M186.879 27.615C189.639 27.8803 188.35 31.809 188.35 31.809L194.95 31.8184C194.95 31.8184 193.661 27.9734 196.519 27.615C199.214 27.2799 199.349 31.0503 199.349 31.0503L205.554 28.8019C205.554 28.8019 202.85 25.9113 205.521 24.3472C207.877 22.9647 209.427 26.577 209.427 26.577L214.491 22.3454C214.491 22.3454 211.21 20.423 212.969 18.1234C214.692 15.8704 217.368 18.9287 217.368 18.9287L220.678 13.2171C220.678 13.2171 216.693 12.6911 217.792 9.84221C219.034 6.607 222.209 9.02304 222.209 9.02304L223.368 2.52448C223.368 2.52448 219.351 3.39516 219.505 0.285631C219.668 -2.97286 223.373 -1.93958 223.373 -1.93958L222.237 -8.44246C222.237 -8.44246 218.834 -6.09174 217.824 -9.30368C216.898 -12.2503 220.715 -12.6413 220.715 -12.6413L217.424 -18.3623C217.424 -18.3623 215.11 -15.0853 213.053 -17.5617C211.037 -19.987 214.561 -21.7885 214.561 -21.7885L209.511 -26.043C209.511 -26.043 208.286 -22.1934 205.652 -23.818C203.32 -25.2564 205.652 -28.2775 205.652 -28.2775L199.452 -30.5443C199.452 -30.5443 199.926 -26.4945 196.589 -27.1276C193.41 -27.7328 195.053 -31.3264 195.053 -31.3264L188.452 -31.3405C188.452 -31.3405 190.105 -27.7282 186.958 -27.151C183.546 -26.5226 184.058 -30.5723 184.058 -30.5723L177.848 -28.3241C177.848 -28.3241 180.027 -25.1912 177.928 -23.8971C175.195 -22.212 173.98 -26.0989 173.98 -26.0989L168.916 -21.8628C168.916 -21.8628 172.1 -19.7401 170.471 -17.6826C168.636 -15.3598 166.039 -18.4461 166.039 -18.4461L162.73 -12.7345C162.73 -12.7345 166.523 -12.3341 165.606 -9.33163C164.745 -6.52003 161.193 -8.54042 161.193 -8.54042L160.034 -2.04186C160.034 -2.04186 164.033 -3.06605 163.898 0.19244C163.763 3.45093 160.025 2.42219 160.025 2.42219L161.161 8.92508C161.161 8.92508 164.633 6.82573 165.555 9.67924C166.346 12.1278 162.683 13.1193 162.683 13.1193L165.974 18.8403C165.974 18.8403 168.637 15.7913 170.349 18.0164C172.114 20.3113 168.837 22.2618 168.837 22.2618L173.887 26.5117C173.887 26.5117 175.423 22.9041 177.751 24.2633C179.962 25.5574 177.751 28.746 177.751 28.746L183.951 31.0131C183.951 31.0131 183.918 27.3123 186.874 27.6009L186.879 27.615ZM175.484 -16.4539C178.235 -19.1259 181.637 -21.1226 185.427 -22.184L186.8 -8.29358L175.484 -16.4539ZM198.055 -22.1747C201.76 -21.1319 205.163 -19.1724 207.989 -16.4073L196.645 -8.26108L198.06 -22.1747H198.055ZM214.994 0.276312C214.994 2.25933 214.738 4.18177 214.268 6.02049L201.528 0.257674L214.296 -5.47264C214.761 -3.6153 214.999 -1.68809 214.999 0.276312H214.994ZM168.413 0.196986C168.413 -1.78604 168.669 -3.70835 169.139 -5.54242L181.861 0.215624L169.121 5.94139C168.655 4.10267 168.408 2.18001 168.413 0.196986ZM184.873 0.224943C184.877 -3.55025 187.945 -6.60376 191.72 -6.59911C195.495 -6.59445 198.553 -3.52684 198.544 0.248355C198.539 4.02354 195.472 7.07706 191.697 7.0724C187.922 7.06309 184.868 4.00013 184.873 0.224943ZM175.433 16.8758L186.776 8.7437L185.357 22.6434C181.568 21.5681 178.174 19.5571 175.433 16.8758ZM196.598 8.75302L207.923 16.9317C205.172 19.6037 201.77 21.6006 197.981 22.6666L196.598 8.75756V8.75302Z" fill="#006867"/>
<path d="M133.207 -0.350679C133.216 -3.83261 130.395 -6.65821 126.913 -6.66286C123.431 -6.66752 120.606 -3.85124 120.601 -0.369317C120.597 3.11261 123.413 5.93821 126.895 5.94287C130.376 5.94752 133.202 3.13125 133.207 -0.350679Z" fill="#006867"/>
<path d="M130.497 19.7352C132.541 19.3488 136.428 17.7149 136.474 17.687C136.498 17.6731 138.755 18.9204 139.686 19.3999C141.543 17.7567 143.391 16.1043 145.221 14.4378C144.797 13.3579 144.141 12.399 143.671 11.3423C144.904 9.56413 146.426 7.26903 147.078 5.21153C147.125 5.07188 147.078 5.21172 150.113 4.70898C150.104 3.76402 150.127 -3.8841 150.127 -3.8841L146.924 -4.28914C146.496 -6.34198 145.854 -8.32041 144.848 -10.1731C145.426 -11.1786 146.184 -12.0629 146.729 -13.087C145.058 -14.963 143.382 -16.8389 141.692 -18.7009C140.831 -18.161 138.55 -17.0624 138.55 -17.0624C135.492 -19.1478 132.676 -19.9438 132.676 -19.9438C132.518 -20.926 132.164 -22.2621 131.973 -23.235C129.501 -23.3886 127.034 -23.5237 124.563 -23.64C124.037 -22.6299 123.864 -21.4941 123.417 -20.4607C121.309 -20.0603 117.152 -18.2217 117.003 -18.3054C116.552 -18.5754 115.528 -19.7577 114.764 -20.279L108.601 -14.8467C109.076 -13.7388 109.881 -12.8263 110.295 -12.1653C109.565 -11.1645 107.344 -6.09075 107.2 -6.05816C106.209 -5.82076 105.054 -5.64382 104.086 -5.304C103.932 -2.85548 103.802 -0.406835 103.681 2.04169C104.598 2.50253 105.845 2.72119 106.8 3.07496C106.949 3.13082 107.112 5.41188 109.039 9.48034C108.722 10.0389 108.029 10.9697 107.219 12.3197L112.469 18.2502C114.094 17.0772 114.634 16.7793 115.248 16.3464C117.101 17.6312 119.102 18.5761 121.258 19.2278C121.551 20.3125 121.448 21.3459 121.691 22.6307C124.139 22.7843 126.913 22.7982 129.362 22.9146C129.869 21.8998 130.065 20.7732 130.493 19.7352H130.497ZM112.874 -0.388315C112.884 -8.13886 119.182 -14.4138 126.932 -14.3999C134.682 -14.3859 140.957 -8.09226 140.943 -0.34172C140.929 7.40882 134.636 13.6838 126.885 13.6698C119.135 13.6559 112.865 7.36223 112.874 -0.388315Z" fill="#006867"/>
<path d="M363.518 26.8081C366.246 26.2913 371.441 24.1033 371.506 24.0707C371.539 24.0521 374.555 25.7235 375.802 26.3612C378.283 24.1687 380.755 21.9576 383.204 19.7278C382.64 18.2848 381.756 17 381.132 15.5895C382.785 13.2155 384.814 10.1431 385.685 7.39669C385.745 7.21049 385.685 7.39671 389.739 6.7264C389.725 5.4649 389.758 -4.76218 389.758 -4.76218L385.475 -5.302C384.903 -8.04379 384.046 -10.6925 382.701 -13.1643C383.469 -14.505 384.488 -15.692 385.214 -17.0606C382.98 -19.5696 380.741 -22.0787 378.484 -24.5645C377.329 -23.843 374.28 -22.3766 374.28 -22.3766C370.193 -25.1649 366.427 -26.2308 366.427 -26.2308C366.213 -27.5435 365.743 -29.3264 365.487 -30.6298C362.187 -30.8347 358.882 -31.0162 355.577 -31.1744C354.879 -29.8245 354.641 -28.307 354.046 -26.9245C351.225 -26.3892 345.672 -23.9312 345.471 -24.0476C344.866 -24.4107 343.502 -25.9889 342.478 -26.6872L334.239 -19.4299C334.877 -17.9496 335.952 -16.7302 336.506 -15.8457C335.529 -14.5097 332.559 -7.72741 332.368 -7.68086C331.041 -7.36432 329.501 -7.12696 328.202 -6.67077C327.997 -3.39832 327.82 -0.125818 327.662 3.15129C328.886 3.76575 330.553 4.06365 331.833 4.52915C332.028 4.59897 332.247 7.65736 334.83 13.0897C334.407 13.8392 333.476 15.0775 332.396 16.8883L339.42 24.8156C341.589 23.2469 342.315 22.8513 343.135 22.2694C345.606 23.9825 348.288 25.2532 351.169 26.1237C351.565 27.5714 351.425 28.9539 351.751 30.6716C355.023 30.8764 358.728 30.895 362.005 31.0532C362.685 29.6986 362.946 28.1951 363.514 26.8033L363.518 26.8081ZM334.109 -0.0885601C334.193 -13.858 345.243 -24.7041 359.087 -24.6063C372.753 -24.5086 383.408 -13.5462 383.329 0.330343C383.25 13.8205 372.213 24.5875 358.565 24.4944C345.043 24.4013 334.034 13.3318 334.114 -0.0885601H334.109Z" fill="#006867"/>
<path d="M378.954 -0.00486203C378.977 -11.4049 369.839 -20.3286 358.156 -20.3193C347.682 -20.31 338.405 -10.7159 338.475 0.0417332C338.545 11.0647 347.743 20.2024 358.775 20.207C369.853 20.207 378.93 11.1204 378.954 -0.000316149V-0.00486203ZM358.049 16.6647C349.018 16.4086 341.808 8.71384 342.013 -0.437857C342.222 -9.73851 349.754 -16.9817 359.003 -16.7862C368.471 -16.586 375.653 -8.95645 375.402 0.637471C375.165 9.70072 367.335 16.93 358.044 16.6647H358.049Z" fill="#006867"/>
<path d="M366.241 -0.125714C366.246 -4.1802 362.871 -7.58282 358.798 -7.62937C354.669 -7.67592 351.215 -4.26854 351.197 -0.13026C351.178 3.99405 354.632 7.50853 358.714 7.51318C362.764 7.51318 366.241 3.98929 366.246 -0.125714H366.241Z" fill="#006867"/>
<path d="M683.578 20.0785L683.545 21.4097L688.033 22.0103L688.787 19.315H688.801C689.648 19.3103 690.402 19.8178 690.672 20.6138L691.1 21.88L695.55 20.9117L695.336 18.1281H695.35C696.146 17.8302 697.035 18.0489 697.561 18.7006L698.404 19.7387L702.276 17.3135L701.122 14.7857L701.131 14.7764C701.788 14.2271 702.719 14.1481 703.445 14.5764L704.576 15.2467L707.401 11.6577L705.442 9.68864L705.451 9.67455C705.884 8.93907 706.736 8.54812 707.569 8.70173L708.872 8.9438L710.315 4.62862L707.792 3.46033V3.44624C707.955 2.60834 708.626 1.9521 709.468 1.81245L710.771 1.59834L710.655 -2.9264L707.867 -3.15915V-3.16847C707.727 -4.00637 708.137 -4.85358 708.886 -5.27253L710.045 -5.91964L708.384 -10.1091L705.674 -9.3736L705.665 -9.38746C705.246 -10.1229 705.344 -11.0493 705.907 -11.6963L706.782 -12.6971L703.775 -16.0442L701.457 -14.4243L701.448 -14.4336C700.801 -14.9736 700.577 -15.8718 700.889 -16.6631L701.378 -17.9108L697.389 -20.0103L695.755 -17.706H695.741C694.945 -17.9992 694.424 -18.7626 694.447 -19.6098L694.48 -20.932L689.992 -21.5325L689.238 -18.8324H689.224C688.372 -18.8324 687.618 -19.3632 687.344 -20.1685L686.925 -21.4068L682.475 -20.4337L682.689 -17.6501H682.675C681.87 -17.3521 680.976 -17.5942 680.441 -18.2506L679.617 -19.2654L675.748 -16.8402L676.903 -14.3125L676.894 -14.3031C676.237 -13.7539 675.311 -13.67 674.585 -14.1029L673.449 -14.778L670.623 -11.1935L672.583 -9.21995L672.555 -9.17335C672.136 -8.45648 671.308 -8.07953 670.502 -8.22849L669.157 -8.47988L667.714 -4.1647L670.237 -2.99618V-2.98232C670.074 -2.14442 669.404 -1.48806 668.557 -1.34375L667.258 -1.12487L667.374 3.39965L670.163 3.63239V3.64171C670.302 4.48427 669.893 5.32694 669.139 5.75055L667.984 6.39743L669.646 10.5869L672.35 9.85616L672.36 9.87025C672.774 10.6011 672.7 11.518 672.136 12.165L671.252 13.1799L674.259 16.5268L676.568 14.9162L676.577 14.9255C677.219 15.4655 677.461 16.3453 677.15 17.1366L676.656 18.3981L680.645 20.4974L682.275 18.2072H682.288C683.084 18.5004 683.61 19.2454 683.592 20.0926L683.578 20.0785ZM704.757 5.81555C698.622 2.42673 697.235 -4.20196 702.239 -9.76932C705.619 -6.07792 706.629 0.192336 704.757 5.81555ZM683.55 -15.3132C687.395 -17.65 695.955 -16.2118 699.376 -12.6507C694.396 -8.2378 687.986 -8.27957 683.55 -15.3132ZM680.059 -13.6795C682.684 -7.5535 681.297 -1.24134 672.504 0.983738C671.466 -3.74572 675.246 -11.082 680.059 -13.6795ZM685.431 1.93337C684.504 -0.0868902 685.379 -2.43305 687.404 -3.35008C689.387 -4.24849 691.826 -3.31734 692.692 -1.32966C693.558 0.658016 692.594 3.0925 690.611 3.94902C688.652 4.79622 686.329 3.88846 685.431 1.93337ZM672.909 4.70318C680.552 4.1632 685.342 7.9058 684.811 16.4477C678.709 14.5671 674.771 10.7314 672.909 4.70318ZM688.614 16.8154C690.192 9.57695 696.244 6.43012 702.854 9.41862C700.754 13.8129 693.33 17.6673 688.614 16.8154Z" fill="#006867"/>
<path d="M623.426 30.42H623.449L624.622 34.6699L631.683 33.7482L631.637 31.6676C631.609 30.3316 632.428 29.1353 633.68 28.6885L633.699 28.6791L636.259 32.3054L642.538 29.0235L641.78 27.0592C641.296 25.807 641.654 24.4011 642.669 23.5539L642.687 23.54L646.327 26.1003L651.071 20.8541L649.702 19.276C648.818 18.2565 648.669 16.7996 649.334 15.6452L649.344 15.6265L653.603 16.7996L656.238 10.2219L654.422 9.19799C653.245 8.53233 652.602 7.20095 652.83 5.88359V5.87427L657.215 5.52514L657.42 -1.59234L655.372 -1.94146C654.045 -2.1649 652.993 -3.20298 652.746 -4.52034V-4.54353L656.717 -6.36824L654.473 -13.1646L652.425 -12.7923C651.113 -12.5549 649.781 -13.1693 649.102 -14.3331L649.092 -14.3515L652.188 -17.4425L647.761 -23.0982L645.978 -22.0463C644.833 -21.3713 643.372 -21.5018 642.343 -22.3722L642.324 -22.3861L644.154 -26.3567L638.079 -30.1877L636.748 -28.554C635.915 -27.5345 634.518 -27.19 633.266 -27.6555L633.243 -27.6648L633.592 -32.0359L626.605 -33.586L625.921 -31.5936C625.492 -30.3414 624.301 -29.5455 622.969 -29.5595H622.946L621.773 -33.8001L614.712 -32.8785L614.758 -30.7837C614.786 -29.4524 613.953 -28.284 612.701 -27.8371L612.678 -27.8278L610.131 -31.4401L603.852 -28.1582L604.62 -26.1753C605.099 -24.9278 604.722 -23.5405 603.708 -22.698L603.689 -22.6841L600.068 -25.2302L595.324 -19.9888L596.707 -18.3921C597.587 -17.3773 597.703 -15.9343 597.047 -14.7845L597.037 -14.7658L592.792 -15.9296L590.157 -9.35216L591.968 -8.33275C593.151 -7.66708 593.788 -6.33581 593.565 -5.0138V-5.00448L589.18 -4.65536L588.97 2.45758L591.014 2.80671C592.341 3.0348 593.393 4.06812 593.639 5.39013V5.41354L589.669 7.23826L591.912 14.0346L594.026 13.6482C595.301 13.4154 596.595 14.0159 597.251 15.1424L597.298 15.2167L594.202 18.3077L598.629 23.9635L600.417 22.9115C601.562 22.2366 603.019 22.367 604.047 23.2375L604.066 23.2514L602.237 27.222L608.311 31.0578L609.61 29.4658C610.448 28.437 611.858 28.06 613.124 28.5255L613.148 28.5348L612.799 32.9057L619.786 34.4558L620.451 32.5102C620.884 31.2487 622.071 30.4107 623.416 30.42H623.426ZM626.125 0.437168C626.13 -3.09596 632.726 -5.9541 636.259 -5.94479C639.792 -5.94014 642.655 -3.06801 642.645 0.465125C642.641 3.99826 639.769 6.86117 636.236 6.85186C632.703 6.84255 626.116 3.9703 626.121 0.437168H626.125ZM623.198 2.54123C622.034 2.54123 621.094 1.59648 621.094 0.428076C621.094 -0.73567 622.043 -1.67599 623.202 -1.67599C624.366 -1.67599 625.311 -0.726578 625.306 0.437168C625.302 1.60091 624.357 2.54123 623.193 2.54123H623.198ZM623.207 -2.49061C619.674 -2.49526 616.816 -9.0915 616.825 -12.6293C616.834 -16.1671 619.702 -19.0251 623.235 -19.0158C626.768 -19.0111 629.63 -16.139 629.626 -12.6059C629.621 -9.07274 626.745 -2.48595 623.211 -2.49061H623.207ZM620.279 0.428076C620.274 3.96121 613.678 6.81935 610.145 6.81004C606.612 6.80073 603.75 3.93325 603.754 0.400119C603.759 -3.13301 606.631 -5.99593 610.164 -5.98662C613.697 -5.97731 620.284 -3.10506 620.279 0.428076ZM623.198 3.35585C626.731 3.36051 629.589 9.95662 629.579 13.4898C629.575 17.0229 626.703 19.8857 623.17 19.881C619.637 19.8764 616.774 17.0042 616.783 13.4711C616.788 9.93799 619.664 3.3512 623.198 3.35585ZM631.567 11.8328C630.696 10.9576 630.696 9.54239 631.572 8.66726C632.447 7.79678 633.862 7.79689 634.737 8.67203C635.607 9.54717 635.607 10.9623 634.732 11.8328C633.857 12.7033 632.442 12.7031 631.567 11.828V11.8328ZM647.244 0.474444C647.24 4.56617 646.202 8.41587 644.386 11.7907L642.897 10.9295C644.563 7.81068 645.513 4.25429 645.517 0.474444C645.522 -3.3054 644.587 -6.86645 642.929 -9.98995L644.419 -10.8464C646.225 -7.46687 647.249 -3.61251 647.24 0.479217L647.244 0.474444ZM634.602 -8.0859C633.727 -7.21542 632.312 -7.21554 631.437 -8.09068C630.566 -8.96581 630.566 -10.3809 631.441 -11.2514C632.316 -12.1219 633.731 -12.1218 634.607 -11.2467C635.477 -10.3715 635.477 -8.95649 634.602 -8.08136V-8.0859ZM643.623 -12.229L642.133 -11.3723C638.33 -17.4611 631.674 -21.5762 624.035 -21.8601V-23.5824C632.302 -23.2984 639.517 -18.8251 643.623 -12.229ZM602.823 -12.294C606.952 -18.8808 614.181 -23.3265 622.448 -23.5871V-21.8647C614.805 -21.6087 608.134 -17.5123 604.308 -11.4376L602.823 -12.2988V-12.294ZM614.684 -11.121C615.554 -10.2458 615.554 -8.83069 614.679 -7.96021C613.804 -7.08973 612.389 -7.08985 611.519 -7.96498C610.648 -8.84012 610.648 -10.2553 611.519 -11.1257C612.394 -11.9962 613.809 -11.9961 614.679 -11.121H614.684ZM599.165 0.400119C599.169 -3.69161 600.207 -7.54596 602.023 -10.9162L603.512 -10.055C601.846 -6.93611 600.896 -3.37984 600.891 0.404665C600.887 4.18451 601.822 7.74556 603.48 10.8691L601.99 11.7255C600.189 8.34598 599.165 4.49185 599.169 0.400119H599.165ZM611.649 8.80227C612.524 7.93179 613.939 7.93191 614.809 8.80704C615.68 9.68218 615.68 11.0971 614.805 11.9676C613.93 12.838 612.515 12.8382 611.644 11.963C610.774 11.0879 610.774 9.67275 611.649 8.80227ZM602.786 13.1036L604.276 12.2469C608.079 18.3356 614.735 22.4554 622.374 22.7347V24.4617C614.107 24.1777 606.892 19.7043 602.786 13.1036ZM623.966 22.7393C631.609 22.4832 638.275 18.3869 642.101 12.3121L643.586 13.1734C639.457 19.7602 632.228 24.2056 623.961 24.4662V22.7393H623.966Z" fill="#006867"/>
<path d="M548.107 33.1807C551.389 32.5616 557.631 29.9314 557.71 29.8895C557.752 29.8709 561.378 31.8727 562.872 32.6454C565.856 30.0061 568.821 27.3526 571.768 24.6713C571.088 22.9396 570.027 21.3896 569.282 19.6951C571.265 16.8416 573.704 13.1504 574.756 9.84535C574.826 9.62191 574.756 9.84536 579.63 9.04005C579.611 7.52252 579.653 -4.77147 579.653 -4.77147L574.505 -5.41835C573.816 -8.71408 572.787 -11.8982 571.172 -14.8681C572.098 -16.4787 573.318 -17.9078 574.193 -19.551C571.507 -22.5675 568.817 -25.5792 566.103 -28.5723C564.716 -27.7065 561.052 -25.9423 561.052 -25.9423C556.137 -29.2939 551.612 -30.5739 551.612 -30.5739C551.356 -32.1519 550.793 -34.298 550.481 -35.8621C546.511 -36.1042 542.545 -36.3276 538.569 -36.5138C537.727 -34.8938 537.448 -33.0691 536.731 -31.4026C533.342 -30.7602 526.662 -27.8042 526.425 -27.9439C525.699 -28.3768 524.056 -30.276 522.827 -31.1139L512.921 -22.3904C513.685 -20.6075 514.979 -19.146 515.644 -18.08C514.467 -16.474 510.901 -8.31857 510.673 -8.26271C509.076 -7.881 507.228 -7.59223 505.669 -7.0476C505.422 -3.11414 505.208 0.823914 505.017 4.75737C506.493 5.49752 508.494 5.85132 510.031 6.41457C510.268 6.50302 510.529 10.1711 513.633 16.7067C513.126 17.6051 512.009 19.0948 510.706 21.2687L519.145 30.7973C521.751 28.912 522.622 28.4372 523.609 27.7343C526.583 29.7965 529.804 31.3187 533.263 32.3661C533.738 34.1071 533.57 35.7688 533.961 37.8309C537.894 38.0776 542.349 38.0963 546.287 38.2871C547.102 36.6579 547.418 34.8517 548.103 33.1759L548.107 33.1807ZM544.081 -0.847243C545.04 0.116338 545.04 1.67575 544.076 2.63467C543.113 3.59826 541.553 3.59371 540.59 2.63013C539.626 1.66655 539.631 0.107137 540.594 -0.851789C541.558 -1.81537 543.122 -1.81082 544.081 -0.847243ZM565.065 -8.42545C566.266 -5.49747 566.894 -2.33226 566.889 0.930878C566.885 4.19402 566.242 7.35491 565.032 10.2829L547.004 0.903148L565.065 -8.42545ZM537.648 0.879737L519.601 10.2038C518.4 7.27581 517.776 4.11027 517.781 0.85178C517.786 -2.40671 518.423 -5.57202 519.633 -8.50001L537.648 0.879737ZM561.755 15.9107C561.113 16.7346 560.424 17.5306 559.67 18.28C555.802 22.1343 550.877 24.5364 545.552 25.23L544.663 4.94353L561.755 15.9107ZM567.574 11.6003L566.187 10.8786C568.835 4.52923 568.845 -2.66737 566.219 -9.02142L567.611 -9.7383C570.464 -2.92807 570.45 4.79936 567.574 11.6003ZM544.686 -3.1561L545.635 -23.4425C550.956 -22.7303 555.871 -20.3143 559.726 -16.446C560.475 -15.6919 561.164 -14.8959 561.806 -14.0673L544.691 -3.1561H544.686ZM561.76 -18.4709C562.663 -17.5632 563.482 -16.6045 564.232 -15.6129L562.91 -14.7704C562.221 -15.6734 561.476 -16.5437 560.652 -17.3677C556.565 -21.4687 551.347 -24.0198 545.696 -24.7506L545.77 -26.3146C551.812 -25.5652 557.398 -22.8466 561.76 -18.4709ZM520.495 -15.6873C521.249 -16.6788 522.068 -17.6331 522.976 -18.5362C527.356 -22.9025 532.951 -25.5977 538.993 -26.3285L539.063 -24.7645C533.412 -24.0523 528.18 -21.5153 524.079 -17.4329C523.255 -16.609 522.506 -15.7431 521.817 -14.8447L520.499 -15.692L520.495 -15.6873ZM525.001 -16.5019C528.864 -20.3562 533.794 -22.7583 539.114 -23.4519L539.998 -3.17473L522.915 -14.1326C523.558 -14.9565 524.246 -15.7524 525.001 -16.5019ZM517.097 -9.82195L518.484 -9.10052C515.835 -2.75112 515.826 4.44093 518.451 10.795L517.059 11.5164C514.206 4.70618 514.22 -3.02102 517.097 -9.82195ZM539.989 4.93898L539.04 25.2207C533.719 24.5084 528.799 22.0926 524.949 18.2243C524.2 17.4702 523.511 16.674 522.873 15.8455L539.994 4.93898H539.989ZM522.911 20.2491C522.007 19.3413 521.188 18.3872 520.439 17.3911L521.761 16.5485C522.45 17.4515 523.194 18.3174 524.018 19.146C528.105 23.247 533.328 25.8026 538.979 26.5287L538.905 28.0927C532.863 27.3433 527.281 24.6294 522.915 20.2491H522.911ZM545.608 26.5426C551.263 25.835 556.491 23.2981 560.591 19.211C561.415 18.3871 562.165 17.5212 562.858 16.6228L564.18 17.4702C563.426 18.4617 562.602 19.416 561.699 20.3191C557.319 24.6854 551.724 27.3805 545.682 28.1114L545.612 26.5474L545.608 26.5426Z" fill="#006867"/>
<path d="M748.264 26.4795C750.759 26.7215 749.595 30.2778 749.595 30.2778L755.572 30.2871C755.572 30.2871 754.403 26.8052 756.991 26.484C759.431 26.1815 759.552 29.5936 759.552 29.5936L765.17 27.5594C765.17 27.5594 762.722 24.9432 765.142 23.5281C767.274 22.2759 768.675 25.5437 768.675 25.5437L773.26 21.7127C773.26 21.7127 770.29 19.9764 771.882 17.8909C773.442 15.8521 775.862 18.6217 775.862 18.6217L778.86 13.4501C778.86 13.4501 775.257 12.9754 776.249 10.3918C777.375 7.46385 780.252 9.65154 780.252 9.65154L781.299 3.76781C781.299 3.76781 777.664 4.55445 777.803 1.74284C777.952 -1.20842 781.304 -0.272801 781.304 -0.272801L780.275 -6.16131C780.275 -6.16131 777.193 -4.03394 776.281 -6.93865C775.443 -9.60596 778.897 -9.95985 778.897 -9.95985L775.918 -15.1408C775.918 -15.1408 773.823 -12.1757 771.961 -14.4194C770.137 -16.6119 773.325 -18.2456 773.325 -18.2456L768.754 -22.0953C768.754 -22.0953 767.646 -18.6135 765.263 -20.0844C763.154 -21.3832 765.263 -24.1248 765.263 -24.1248L759.649 -26.1777C759.649 -26.1777 760.082 -22.5095 757.061 -23.0868C754.185 -23.636 755.674 -26.8853 755.674 -26.8853L749.697 -26.8946C749.697 -26.8946 751.192 -23.6269 748.343 -23.1008C745.257 -22.5329 745.717 -26.1964 745.717 -26.1964L740.099 -24.1621C740.099 -24.1621 742.073 -21.3273 740.174 -20.1542C737.697 -18.6274 736.599 -22.1464 736.599 -22.1464L732.014 -18.3154C732.014 -18.3154 734.895 -16.3976 733.424 -14.531C731.762 -12.4269 729.412 -15.2247 729.412 -15.2247L726.414 -10.0528C726.414 -10.0528 729.849 -9.68989 729.021 -6.97138C728.243 -4.42976 725.027 -6.25904 725.027 -6.25904L723.979 -0.37531C723.979 -0.37531 727.601 -1.30161 727.48 1.64965C727.359 4.59626 723.975 3.6653 723.975 3.6653L725.003 9.5538C725.003 9.5538 728.145 7.65001 728.979 10.2382C729.695 12.454 726.381 13.3523 726.381 13.3523L729.36 18.5333C729.36 18.5333 731.772 15.7728 733.322 17.7884C734.918 19.8646 731.953 21.6336 731.953 21.6336L736.524 25.4832C736.524 25.4832 737.916 22.2201 740.02 23.449C742.021 24.622 740.02 27.5082 740.02 27.5082L745.634 29.5609C745.634 29.5609 745.606 26.2141 748.278 26.4702L748.264 26.4795ZM761.106 13.4455C762.172 15.2424 763.22 17.053 764.132 18.929C764.728 20.1533 763.811 21.4288 762.14 21.4195C761.879 21.21 761.251 20.912 760.948 20.4139C759.919 18.7381 758.867 17.0436 758.123 15.2375C757.857 14.5951 758.206 13.3431 758.723 12.8264C759.547 12.0071 760.552 12.5191 761.102 13.4501L761.106 13.4455ZM766.715 4.0051C768.815 4.41008 770.895 5.01527 772.892 5.78799C773.451 6.00212 774.07 7.12403 773.963 7.7059C773.842 8.37156 772.948 8.89287 772.469 9.39561C769.899 8.5996 767.698 8.03181 765.612 7.17994C765.123 6.97978 764.649 5.69495 764.844 5.14566C765.04 4.58706 766.152 3.89349 766.715 4.00055V4.0051ZM756.684 -18.6693C756.898 -19.2186 758.234 -19.8005 758.812 -19.6096C759.398 -19.4188 760.143 -18.2084 760.022 -17.6033C759.594 -15.4527 758.914 -13.3301 758.113 -11.2866C757.918 -10.7885 756.81 -10.2716 756.261 -10.3926C755.618 -10.5323 755.13 -11.3657 754.641 -11.8312C755.358 -14.3448 755.865 -16.5699 756.684 -18.6693ZM744.004 -10.1833C743.004 -11.8125 742.133 -13.5209 741.216 -15.1967C740.616 -16.2906 740.862 -17.1936 741.938 -17.7708C742.971 -18.3247 743.804 -17.9011 744.349 -16.9469C745.331 -15.2385 746.318 -13.5255 747.202 -11.7659C747.863 -10.4486 747.039 -9.07543 745.271 -9.05681C745.001 -9.28955 744.34 -9.63399 744.004 -10.1833ZM769.843 -9.78301C771.077 -10.3882 772.38 -9.51757 772.348 -7.80919C772.078 -7.50662 771.682 -6.81305 771.086 -6.44065C769.527 -5.46311 767.879 -4.62518 766.264 -3.73608C765.207 -3.15421 764.267 -3.30787 763.653 -4.36455C763.08 -5.3514 763.406 -6.25913 764.351 -6.80841C766.152 -7.85578 767.968 -8.87052 769.839 -9.78756L769.843 -9.78301ZM738.577 -0.542826C736.431 -0.971084 734.308 -1.59017 732.27 -2.37686C731.739 -2.58168 731.194 -3.71747 731.297 -4.32727C731.399 -4.94638 732.279 -5.43979 732.772 -5.93788C735.291 -5.16515 737.544 -4.5834 739.685 -3.73153C740.16 -3.54068 740.606 -2.26052 740.416 -1.71589C740.215 -1.15264 739.131 -0.440307 738.586 -0.547372L738.577 -0.542826ZM743.711 1.52396C743.851 -3.20085 748.026 -7.25999 752.69 -7.20413C757.476 -7.14827 761.595 -2.92624 761.511 1.83581C761.428 6.73285 757.317 10.7036 752.467 10.5825C747.561 10.4569 743.567 6.3279 743.711 1.52396ZM732.926 11.2808C733.131 11.0201 733.41 10.3685 733.908 10.0659C735.584 9.03714 737.325 8.10628 739.056 7.17994C740.122 6.60738 741.249 6.80271 741.57 7.92456C741.765 8.59488 741.314 9.85173 740.737 10.2614C739.149 11.4018 737.371 12.2956 735.607 13.1707C734.248 13.841 732.926 13.0264 732.926 11.2808ZM746.448 23.0069C745.876 22.816 745.136 21.7127 745.247 21.1588C745.671 19.0035 746.299 16.8716 747.1 14.8234C747.305 14.302 748.478 13.79 749.102 13.9017C749.707 14.0041 750.172 14.907 750.633 15.3912C749.865 17.8909 749.306 20.0974 748.468 22.1875C748.268 22.6902 747.002 23.193 746.458 23.0114L746.448 23.0069Z" fill="#006867"/>
<path d="M874.12 27.615C876.88 27.8803 875.591 31.809 875.591 31.809L882.191 31.8184C882.191 31.8184 880.902 27.9734 883.76 27.615C886.455 27.2799 886.59 31.0503 886.59 31.0503L892.795 28.8019C892.795 28.8019 890.091 25.9113 892.762 24.3472C895.118 22.9647 896.668 26.577 896.668 26.577L901.732 22.3454C901.732 22.3454 898.451 20.423 900.21 18.1234C901.932 15.8704 904.609 18.9287 904.609 18.9287L907.919 13.2171C907.919 13.2171 903.934 12.6911 905.033 9.84221C906.275 6.607 909.45 9.02304 909.45 9.02304L910.609 2.52448C910.609 2.52448 906.592 3.39516 906.746 0.285631C906.909 -2.97286 910.614 -1.93958 910.614 -1.93958L909.478 -8.44246C909.478 -8.44246 906.075 -6.09174 905.065 -9.30368C904.139 -12.2503 907.956 -12.6413 907.956 -12.6413L904.665 -18.3623C904.665 -18.3623 902.351 -15.0853 900.294 -17.5617C898.278 -19.987 901.802 -21.7885 901.802 -21.7885L896.752 -26.043C896.752 -26.043 895.527 -22.1934 892.893 -23.818C890.561 -25.2564 892.893 -28.2775 892.893 -28.2775L886.693 -30.5443C886.693 -30.5443 887.167 -26.4945 883.83 -27.1276C880.651 -27.7328 882.294 -31.3264 882.294 -31.3264L875.693 -31.3405C875.693 -31.3405 877.346 -27.7282 874.199 -27.151C870.787 -26.5226 871.299 -30.5723 871.299 -30.5723L865.089 -28.3241C865.089 -28.3241 867.268 -25.1912 865.169 -23.8971C862.436 -22.212 861.221 -26.0989 861.221 -26.0989L856.157 -21.8628C856.157 -21.8628 859.341 -19.7401 857.711 -17.6826C855.877 -15.3598 853.28 -18.4461 853.28 -18.4461L849.97 -12.7345C849.97 -12.7345 853.764 -12.3341 852.847 -9.33163C851.986 -6.52003 848.434 -8.54042 848.434 -8.54042L847.275 -2.04186C847.275 -2.04186 851.274 -3.06605 851.139 0.19244C851.004 3.45093 847.266 2.42219 847.266 2.42219L848.402 8.92508C848.402 8.92508 851.874 6.82573 852.796 9.67924C853.587 12.1278 849.924 13.1193 849.924 13.1193L853.215 18.8403C853.215 18.8403 855.877 15.7913 857.59 18.0164C859.355 20.3113 856.078 22.2618 856.078 22.2618L861.128 26.5117C861.128 26.5117 862.664 22.9041 864.992 24.2633C867.203 25.5574 864.992 28.746 864.992 28.746L871.192 31.0131C871.192 31.0131 871.159 27.3123 874.115 27.6009L874.12 27.615ZM862.725 -16.4539C865.476 -19.1259 868.878 -21.1226 872.667 -22.184L874.041 -8.29358L862.725 -16.4539ZM885.296 -22.1747C889.001 -21.1319 892.404 -19.1724 895.23 -16.4073L883.886 -8.26108L885.301 -22.1747H885.296ZM902.235 0.276312C902.235 2.25933 901.979 4.18177 901.509 6.02049L888.769 0.257674L901.537 -5.47264C902.002 -3.6153 902.24 -1.68809 902.24 0.276312H902.235ZM855.654 0.196986C855.654 -1.78604 855.91 -3.70835 856.38 -5.54242L869.102 0.215624L856.362 5.94139C855.896 4.10267 855.649 2.18001 855.654 0.196986ZM872.114 0.224943C872.118 -3.55025 875.186 -6.60376 878.961 -6.59911C882.736 -6.59445 885.794 -3.52684 885.785 0.248355C885.78 4.02354 882.713 7.07706 878.938 7.0724C875.162 7.06309 872.109 4.00013 872.114 0.224943ZM862.674 16.8758L874.017 8.7437L872.598 22.6434C868.809 21.5681 865.415 19.5571 862.674 16.8758ZM883.839 8.75302L895.164 16.9317C892.413 19.6037 889.011 21.6006 885.222 22.6666L883.839 8.75756V8.75302Z" fill="#006867"/>
<path d="M820.448 -0.350679C820.457 -3.83261 817.636 -6.65821 814.154 -6.66286C810.673 -6.66752 807.847 -3.85124 807.843 -0.369317C807.838 3.11261 810.654 5.93821 814.136 5.94287C817.618 5.94752 820.443 3.13125 820.448 -0.350679Z" fill="#006867"/>
<path d="M817.739 19.7352C819.782 19.3488 823.669 17.7149 823.716 17.687C823.739 17.6731 825.997 18.9204 826.927 19.3999C828.785 17.7567 830.633 16.1043 832.462 14.4378C832.039 13.3579 831.382 12.399 830.912 11.3423C832.146 9.56413 833.668 7.26903 834.319 5.21153C834.366 5.07188 834.319 5.21172 837.354 4.70898C837.345 3.76402 837.368 -3.8841 837.368 -3.8841L834.166 -4.28914C833.738 -6.34198 833.095 -8.32041 832.09 -10.1731C832.667 -11.1786 833.426 -12.0629 833.97 -13.087C832.299 -14.963 830.623 -16.8389 828.934 -18.7009C828.073 -18.161 825.792 -17.0624 825.792 -17.0624C822.733 -19.1478 819.917 -19.9438 819.917 -19.9438C819.759 -20.926 819.405 -22.2621 819.214 -23.235C816.743 -23.3886 814.276 -23.5237 811.804 -23.64C811.278 -22.6299 811.106 -21.4941 810.659 -20.4607C808.55 -20.0603 804.393 -18.2217 804.244 -18.3054C803.793 -18.5754 802.769 -19.7577 802.005 -20.279L795.842 -14.8467C796.317 -13.7388 797.123 -12.8263 797.537 -12.1653C796.806 -11.1645 794.586 -6.09075 794.441 -6.05816C793.45 -5.82076 792.295 -5.64382 791.327 -5.304C791.174 -2.85548 791.043 -0.406835 790.922 2.04169C791.839 2.50253 793.087 2.72119 794.041 3.07496C794.19 3.13082 794.353 5.41188 796.28 9.48034C795.963 10.0389 795.27 10.9697 794.46 12.3197L799.711 18.2502C801.335 17.0772 801.875 16.7793 802.49 16.3464C804.342 17.6312 806.344 18.5761 808.499 19.2278C808.792 20.3125 808.69 21.3459 808.932 22.6307C811.38 22.7843 814.155 22.7982 816.603 22.9146C817.11 21.8998 817.306 20.7732 817.734 19.7352H817.739ZM800.116 -0.388315C800.125 -8.13886 806.423 -14.4138 814.173 -14.3999C821.924 -14.3859 828.198 -8.09226 828.184 -0.34172C828.17 7.40882 821.877 13.6838 814.127 13.6698C806.376 13.6559 800.106 7.36223 800.116 -0.388315Z" fill="#006867"/>
<path d="M-0.950914 20.0785L-0.983501 21.4097L3.50378 22.0103L4.25786 19.315H4.27181C5.11899 19.3103 5.87308 19.8178 6.14306 20.6138L6.5713 21.88L11.0213 20.9117L10.8072 18.1281H10.8212C11.6172 17.8302 12.5062 18.0489 13.0322 18.7006L13.8748 19.7387L17.7476 17.3135L16.5932 14.7857L16.6025 14.7764C17.2588 14.2271 18.1898 14.1481 18.916 14.5764L20.0471 15.2467L22.8726 11.6577L20.9129 9.68864L20.9222 9.67455C21.3551 8.93907 22.2069 8.54812 23.0401 8.70173L24.3435 8.9438L25.7865 4.62862L23.2636 3.46033V3.44624C23.4265 2.60834 24.0968 1.9521 24.9393 1.81245L26.2427 1.59834L26.1263 -2.9264L23.3381 -3.15915V-3.16847C23.1984 -4.00637 23.608 -4.85358 24.3575 -5.27253L25.5165 -5.91964L23.8547 -10.1091L21.1456 -9.3736L21.1363 -9.38746C20.7174 -10.1229 20.8151 -11.0493 21.3784 -11.6963L22.2535 -12.6971L19.2465 -16.0442L16.9283 -14.4243L16.919 -14.4336C16.272 -14.9736 16.0486 -15.8718 16.3605 -16.6631L16.8492 -17.9108L12.86 -20.0103L11.2261 -17.706H11.2122C10.4162 -17.9992 9.89486 -18.7626 9.91814 -19.6098L9.95072 -20.932L5.46345 -21.5325L4.70936 -18.8324H4.69541C3.84358 -18.8324 3.08947 -19.3632 2.81484 -20.1685L2.39592 -21.4068L-2.05411 -20.4337L-1.84 -17.6501H-1.85395C-2.65924 -17.3521 -3.55297 -17.5942 -4.08827 -18.2506L-4.91219 -19.2654L-8.78036 -16.8402L-7.62597 -14.3125L-7.63526 -14.3031C-8.2916 -13.7539 -9.21792 -13.67 -9.94408 -14.1029L-11.0799 -14.778L-13.9054 -11.1935L-11.9457 -9.21995L-11.9736 -9.17335C-12.3925 -8.45648 -13.2211 -8.07953 -14.0264 -8.22849L-15.3716 -8.47988L-16.8146 -4.1647L-14.2917 -2.99618V-2.98232C-14.4546 -2.14442 -15.1249 -1.48806 -15.9721 -1.34375L-17.2708 -1.12487L-17.1544 3.39965L-14.3662 3.63239V3.64171C-14.2265 4.48427 -14.6362 5.32694 -15.3902 5.75055L-16.5446 6.39743L-14.8829 10.5869L-12.1784 9.85616L-12.1691 9.87025C-11.7548 10.6011 -11.8293 11.518 -12.3925 12.165L-13.277 13.1799L-10.2699 16.5268L-7.96111 14.9162L-7.95182 14.9255C-7.30945 15.4655 -7.06738 16.3453 -7.37925 17.1366L-7.87266 18.3981L-3.88346 20.4974L-2.25426 18.2072H-2.24031C-1.44434 18.5004 -0.918345 19.2454 -0.936964 20.0926L-0.950914 20.0785ZM20.2286 5.81555C14.0935 2.42673 12.7064 -4.20196 17.7103 -9.76932C21.0898 -6.07792 22.0999 0.192336 20.2286 5.81555ZM-0.978842 -15.3132C2.86606 -17.65 11.4263 -16.2118 14.8476 -12.6507C9.86694 -8.2378 3.45722 -8.27957 -0.978842 -15.3132ZM-4.46997 -13.6795C-1.84464 -7.5535 -3.23181 -1.24134 -12.0248 0.983738C-13.0628 -3.74572 -9.28308 -11.082 -4.46997 -13.6795ZM0.901705 1.93337C-0.024609 -0.0868902 0.850497 -2.43305 2.87535 -3.35008C4.85832 -4.24849 7.29745 -3.31734 8.16325 -1.32966C9.02905 0.658016 8.06551 3.0925 6.08255 3.94902C4.12286 4.79622 1.80009 3.88846 0.901705 1.93337ZM-11.6198 4.70318C-3.97658 4.1632 0.813255 7.9058 0.282603 16.4477C-5.8199 14.5671 -9.7579 10.7314 -11.6198 4.70318ZM4.08563 16.8154C5.66362 9.57695 11.7149 6.43012 18.3248 9.41862C16.2254 13.8129 8.80099 17.6673 4.08563 16.8154Z" fill="#006867"/>
</svg>
