<svg width="879" height="79" viewBox="0 0 879 79" fill="none" xmlns="http://www.w3.org/2000/svg">
<path d="M613.419 61.7967L613.377 63.4211L618.846 64.1521L619.763 60.8657H619.782C620.815 60.861 621.732 61.4801 622.063 62.4483L622.584 63.9939L628.007 62.8115L627.746 59.4226H627.765C628.738 59.0595 629.818 59.3295 630.46 60.1208L631.489 61.3871L636.209 58.4311L634.799 55.3495L634.812 55.3401C635.613 54.6698 636.744 54.5721 637.633 55.0981L639.011 55.9175L642.456 51.5464L640.068 49.1443L640.077 49.1305C640.608 48.2321 641.641 47.7571 642.656 47.9433L644.243 48.2367L646.003 42.9765L642.926 41.552V41.5336C643.121 40.5095 643.941 39.7087 644.969 39.5412L646.557 39.2759L646.412 33.7597L643.014 33.4804V33.471C642.842 32.4469 643.34 31.4183 644.257 30.9063L645.668 30.1148L643.643 25.0084L640.338 25.9067L640.328 25.8928C639.816 24.9991 639.937 23.8679 640.622 23.0812L641.688 21.8615L638.024 17.7839L635.199 19.7575L635.185 19.7482C634.398 19.0872 634.124 17.998 634.505 17.0297L635.101 15.5075L630.241 12.9473L628.249 15.7542H628.235C627.262 15.3957 626.634 14.4695 626.657 13.4314L626.699 11.8161L621.23 11.0853L620.313 14.3763H620.294C619.251 14.3809 618.334 13.7294 618.004 12.7518L617.492 11.2435L612.069 12.4259L612.33 15.8148H612.311C611.329 16.1826 610.24 15.8845 609.593 15.0839L608.587 13.8456L603.872 16.8015L605.277 19.8832L605.264 19.8925C604.463 20.5628 603.332 20.6606 602.447 20.1346L601.065 19.3152L597.62 23.6863L600.008 26.0883L599.976 26.1488C599.464 27.0192 598.458 27.4802 597.471 27.2986L595.833 26.9959L594.078 32.2562L597.155 33.6806V33.6992C596.959 34.7233 596.14 35.524 595.111 35.6962L593.529 35.9615L593.673 41.4777L597.071 41.7616V41.7709C597.243 42.795 596.741 43.8284 595.824 44.3405L594.418 45.1271L596.443 50.229L599.738 49.3353L599.748 49.3491C600.255 50.2429 600.162 51.3602 599.478 52.1469L598.402 53.3804L602.066 57.4583L604.882 55.4938L604.896 55.5031C605.682 56.1595 605.971 57.2348 605.594 58.1984L604.994 59.7344L609.853 62.2947L611.836 59.5017H611.85C612.818 59.8601 613.461 60.7679 613.437 61.7967H613.419ZM599.896 37.586C599.915 26.4652 608.946 17.4625 620.071 17.4811C631.191 17.4998 640.193 26.5306 640.175 37.656C640.156 48.7767 631.126 57.7794 620.001 57.7608C608.88 57.7422 599.878 48.7114 599.896 37.586Z" fill="#006867"/>
<path d="M620.006 56.4155C630.386 56.4341 638.816 48.0318 638.83 37.6512C638.848 27.2706 630.446 18.8405 620.066 18.8265C609.686 18.8126 601.256 27.2102 601.242 37.5908C601.223 47.9714 609.625 56.4015 620.006 56.4155ZM631.038 32.2469C634.012 32.2515 636.423 34.6675 636.419 37.6467C636.414 40.6212 633.998 43.0325 631.019 43.0279C628.04 43.0232 625.633 40.6072 625.638 37.6281C625.643 34.6489 628.058 32.2422 631.038 32.2469ZM620.066 21.2379C623.041 21.2425 625.452 23.6632 625.447 26.6377C625.442 29.6122 623.027 32.0233 620.048 32.0187C617.073 32.014 614.662 29.5983 614.667 26.6191C614.671 23.6399 617.087 21.2332 620.066 21.2379ZM621.812 37.6233C621.812 38.6008 621.016 39.3923 620.038 39.3923C619.061 39.3923 618.269 38.5963 618.269 37.6187C618.269 36.6412 619.065 35.8497 620.043 35.8497C621.02 35.8497 621.812 36.6457 621.812 37.6233ZM620.034 43.2186C623.008 43.2232 625.419 45.6439 625.415 48.6184C625.41 51.5929 622.994 54.0042 620.015 53.9996C617.04 53.9949 614.629 51.5743 614.634 48.5998C614.639 45.6252 617.054 43.2139 620.034 43.2186ZM609.062 32.2096C612.037 32.2142 614.448 34.6302 614.443 37.6094C614.438 40.5839 612.023 42.9953 609.043 42.9906C606.069 42.9859 603.658 40.57 603.662 37.5908C603.667 34.6162 606.083 32.2049 609.062 32.2096Z" fill="#006867"/>
<path d="M564.97 45.3781C566.423 45.5178 565.743 47.5847 565.743 47.5847H569.216C569.216 47.5847 568.536 45.5643 570.04 45.3781C571.459 45.2013 571.529 47.1842 571.529 47.1842L574.792 46.0021C574.792 46.0021 573.368 44.4799 574.774 43.6559C576.012 42.9298 576.826 44.829 576.826 44.829L579.489 42.5992C579.489 42.5992 577.762 41.5891 578.688 40.3788C579.596 39.1964 581.002 40.8023 581.002 40.8023L582.743 37.7952C582.743 37.7952 580.648 37.5206 581.225 36.017C581.881 34.3133 583.553 35.5888 583.553 35.5888L584.162 32.1719C584.162 32.1719 582.049 32.6282 582.128 30.9943C582.212 29.2813 584.162 29.8212 584.162 29.8212L583.567 26.3998C583.567 26.3998 581.774 27.6381 581.244 25.9484C580.755 24.3983 582.766 24.1934 582.766 24.1934L581.034 21.1816C581.034 21.1816 579.815 22.9039 578.735 21.6005C577.673 20.325 579.526 19.3755 579.526 19.3755L576.868 17.1364C576.868 17.1364 576.226 19.1614 574.839 18.3049C573.614 17.5508 574.839 15.9588 574.839 15.9588L571.576 14.7671C571.576 14.7671 571.827 16.899 570.072 16.5639C568.401 16.2473 569.267 14.3575 569.267 14.3575H565.794C565.794 14.3575 566.665 16.252 565.008 16.5545C563.211 16.885 563.481 14.753 563.481 14.753L560.213 15.9354C560.213 15.9354 561.358 17.5833 560.255 18.2629C558.817 19.152 558.179 17.1039 558.179 17.1039L555.516 19.3337C555.516 19.3337 557.192 20.4508 556.336 21.5355C555.367 22.7597 554.004 21.1304 554.004 21.1304L552.263 24.1375C552.263 24.1375 554.26 24.347 553.776 25.9297C553.324 27.41 551.453 26.3441 551.453 26.3441L550.843 29.7653C550.843 29.7653 552.947 29.2255 552.877 30.9432C552.807 32.6562 550.838 32.1162 550.838 32.1162L551.434 35.5377C551.434 35.5377 553.259 34.4343 553.743 35.9332C554.157 37.2226 552.23 37.744 552.23 37.744L553.962 40.7559C553.962 40.7559 555.363 39.1498 556.266 40.3229C557.197 41.5285 555.47 42.5572 555.47 42.5572L558.128 44.7963C558.128 44.7963 558.938 42.897 560.162 43.6139C561.326 44.2935 560.162 45.9741 560.162 45.9741L563.425 47.1658C563.425 47.1658 563.406 45.2199 564.961 45.3688L564.97 45.3781ZM574.094 21.7868C576.603 23.0577 578.186 25.171 578.865 27.8476C579.242 29.3326 579.186 30.9245 579.34 32.5817C577.04 31.2923 575.048 30.2915 573.186 29.0905C571.995 28.3224 570.817 27.4054 569.956 26.2975C568.95 25.0034 569.178 23.3881 570.1 22.4012C571.101 21.3306 572.623 21.0374 574.099 21.7868H574.094ZM558.686 28.327C557.732 27.4146 557.444 26.2695 557.853 25.0312C558.677 22.5315 560.572 21.0374 562.866 20.0133C564.756 19.1707 566.753 18.938 568.732 19.343C567.54 21.4936 566.399 23.5743 565.236 25.6504C564.454 27.0422 563.537 28.299 561.922 28.825C560.758 29.2067 559.636 29.2347 558.686 28.327ZM567.81 28.0988C569.285 28.2478 570.51 29.756 570.375 31.2596C570.23 32.8469 568.75 34.0574 567.168 33.8898C565.594 33.7222 564.426 32.2233 564.621 30.622C564.798 29.1231 566.292 27.9452 567.815 28.0988H567.81ZM561.195 40.4859C557.83 38.9358 556.201 36.1428 555.74 32.591C555.614 31.6228 555.726 30.6266 555.731 29.6351C557.984 30.8966 560.022 32.0556 562.08 33.1868C563.495 33.9642 564.752 34.8812 565.301 36.4825C565.715 37.6835 565.766 38.8846 564.756 39.8249C563.742 40.7699 562.513 41.091 561.195 40.4859ZM566.046 42.5433C567.191 40.5045 568.196 38.461 569.439 36.5757C570.235 35.3701 571.231 34.1923 572.395 33.3591C573.698 32.4281 575.22 32.7585 576.142 33.7221C577.134 34.7555 577.32 36.2173 576.631 37.6324C574.839 41.3331 569.9 43.5861 566.041 42.5433H566.046Z" fill="#006867"/>
<path d="M232.022 71.4795C234.517 71.7215 233.353 75.2778 233.353 75.2778L239.33 75.2871C239.33 75.2871 238.161 71.8052 240.75 71.484C243.189 71.1815 243.31 74.5936 243.31 74.5936L248.928 72.5594C248.928 72.5594 246.48 69.9432 248.9 68.5281C251.032 67.2759 252.433 70.5437 252.433 70.5437L257.018 66.7127C257.018 66.7127 254.048 64.9764 255.64 62.8909C257.2 60.8521 259.62 63.6217 259.62 63.6217L262.618 58.4501C262.618 58.4501 259.015 57.9754 260.007 55.3918C261.133 52.4639 264.01 54.6515 264.01 54.6515L265.057 48.7678C265.057 48.7678 261.422 49.5545 261.561 46.7428C261.71 43.7916 265.062 44.7272 265.062 44.7272L264.033 38.8387C264.033 38.8387 260.952 40.9661 260.039 38.0613C259.201 35.394 262.655 35.0402 262.655 35.0402L259.676 29.8592C259.676 29.8592 257.581 32.8243 255.719 30.5806C253.895 28.3881 257.083 26.7544 257.083 26.7544L252.512 22.9047C252.512 22.9047 251.404 26.3865 249.021 24.9156C246.913 23.6168 249.021 20.8752 249.021 20.8752L243.407 18.8223C243.407 18.8223 243.84 22.4905 240.819 21.9132C237.943 21.364 239.432 18.1147 239.432 18.1147L233.455 18.1054C233.455 18.1054 234.95 21.3731 232.101 21.8992C229.015 22.4671 229.475 18.8036 229.475 18.8036L223.857 20.8379C223.857 20.8379 225.831 23.6727 223.932 24.8458C221.455 26.3726 220.357 22.8536 220.357 22.8536L215.772 26.6846C215.772 26.6846 218.653 28.6024 217.182 30.469C215.52 32.5731 213.17 29.7753 213.17 29.7753L210.172 34.9472C210.172 34.9472 213.607 35.3101 212.779 38.0286C212.001 40.5702 208.785 38.741 208.785 38.741L207.737 44.6247C207.737 44.6247 211.359 43.6984 211.238 46.6497C211.117 49.5963 207.733 48.6653 207.733 48.6653L208.761 54.5538C208.761 54.5538 211.903 52.65 212.737 55.2382C213.454 57.454 210.139 58.3523 210.139 58.3523L213.118 63.5333C213.118 63.5333 215.53 60.7728 217.08 62.7884C218.676 64.8646 215.711 66.6336 215.711 66.6336L220.282 70.4832C220.282 70.4832 221.674 67.2201 223.778 68.449C225.78 69.622 223.778 72.5082 223.778 72.5082L229.392 74.5609C229.392 74.5609 229.364 71.2141 232.036 71.4702L232.022 71.4795ZM244.864 58.4455C245.93 60.2424 246.978 62.053 247.89 63.929C248.486 65.1533 247.569 66.4288 245.898 66.4195C245.637 66.21 245.009 65.912 244.706 65.4139C243.677 63.7381 242.625 62.0436 241.881 60.2375C241.615 59.5951 241.964 58.3431 242.481 57.8264C243.305 57.0071 244.31 57.5191 244.86 58.4501L244.864 58.4455ZM250.473 49.0051C252.573 49.4101 254.654 50.0153 256.65 50.788C257.209 51.0021 257.828 52.124 257.721 52.7059C257.6 53.3716 256.706 53.8929 256.227 54.3956C253.657 53.5996 251.456 53.0318 249.37 52.1799C248.882 51.9798 248.407 50.6949 248.602 50.1457C248.798 49.5871 249.91 48.8935 250.473 49.0006V49.0051ZM240.442 26.3307C240.656 25.7814 241.992 25.1995 242.57 25.3904C243.156 25.5812 243.901 26.7916 243.78 27.3967C243.352 29.5473 242.672 31.6699 241.871 33.7134C241.676 34.2115 240.568 34.7284 240.019 34.6074C239.376 34.4677 238.888 33.6343 238.399 33.1688C239.116 30.6552 239.623 28.4301 240.442 26.3307ZM227.763 34.8167C226.762 33.1875 225.891 31.4791 224.974 29.8033C224.374 28.7094 224.62 27.8064 225.696 27.2292C226.729 26.6753 227.562 27.0989 228.107 28.0531C229.089 29.7615 230.076 31.4745 230.96 33.2341C231.621 34.5514 230.797 35.9246 229.029 35.9432C228.759 35.7104 228.098 35.366 227.763 34.8167ZM253.602 35.217C254.835 34.6118 256.138 35.4824 256.106 37.1908C255.836 37.4934 255.44 38.1869 254.844 38.5593C253.285 39.5369 251.637 40.3748 250.022 41.2639C248.965 41.8458 248.025 41.6921 247.411 40.6355C246.838 39.6486 247.164 38.7409 248.109 38.1916C249.91 37.1442 251.726 36.1295 253.597 35.2124L253.602 35.217ZM222.335 44.4572C220.189 44.0289 218.066 43.4098 216.028 42.6231C215.497 42.4183 214.952 41.2825 215.055 40.6727C215.157 40.0536 216.037 39.5602 216.53 39.0621C219.049 39.8348 221.302 40.4166 223.443 41.2685C223.918 41.4593 224.364 42.7395 224.174 43.2841C223.973 43.8474 222.889 44.5597 222.344 44.4526L222.335 44.4572ZM227.469 46.524C227.609 41.7992 231.784 37.74 236.448 37.7959C241.234 37.8517 245.353 42.0738 245.269 46.8358C245.186 51.7328 241.075 55.7036 236.225 55.5825C231.319 55.4569 227.325 51.3279 227.469 46.524ZM216.684 56.2808C216.889 56.0201 217.168 55.3685 217.666 55.0659C219.342 54.0371 221.083 53.1063 222.814 52.1799C223.88 51.6074 225.007 51.8027 225.328 52.9246C225.524 53.5949 225.072 54.8517 224.495 55.2614C222.908 56.4018 221.129 57.2956 219.365 58.1707C218.006 58.841 216.684 58.0264 216.684 56.2808ZM230.206 68.0069C229.634 67.816 228.894 66.7127 229.005 66.1588C229.429 64.0035 230.057 61.8716 230.858 59.8234C231.063 59.302 232.236 58.79 232.86 58.9017C233.465 59.0041 233.93 59.907 234.391 60.3912C233.623 62.8909 233.064 65.0974 232.227 67.1875C232.026 67.6902 230.76 68.193 230.216 68.0114L230.206 68.0069Z" fill="#006867"/>
<path d="M304.206 36.6491C304.215 33.1672 301.394 30.3415 297.912 30.3369C294.431 30.3322 291.605 33.1485 291.6 36.6304C291.596 40.1124 294.412 42.938 297.894 42.9426C301.376 42.9473 304.201 40.131 304.206 36.6491Z" fill="#006867"/>
<path d="M301.497 56.7352C303.54 56.3488 307.427 54.7149 307.474 54.687C307.497 54.6731 309.754 55.9204 310.685 56.3999C312.543 54.7567 314.391 53.1043 316.22 51.4378C315.796 50.3579 315.14 49.399 314.67 48.3423C315.903 46.5641 317.426 44.269 318.077 42.2115C318.124 42.0719 318.077 42.2117 321.112 41.709C321.103 40.764 321.126 33.1159 321.126 33.1159L317.924 32.7109C317.495 30.658 316.853 28.6796 315.848 26.8269C316.425 25.8214 317.184 24.9371 317.728 23.913C316.057 22.037 314.381 20.1611 312.692 18.2991C311.83 18.839 309.55 19.9376 309.55 19.9376C306.491 17.8522 303.675 17.0562 303.675 17.0562C303.517 16.074 303.163 14.7379 302.972 13.765C300.501 13.6114 298.034 13.4763 295.562 13.36C295.036 14.3701 294.864 15.5059 294.417 16.5393C292.308 16.9397 288.151 18.7783 288.002 18.6946C287.551 18.4246 286.527 17.2423 285.763 16.721L279.6 22.1533C280.075 23.2612 280.88 24.1737 281.295 24.8347C280.564 25.8355 278.344 30.9093 278.199 30.9418C277.208 31.1792 276.053 31.3562 275.085 31.696C274.932 34.1445 274.801 36.5932 274.68 39.0417C275.597 39.5025 276.845 39.7212 277.799 40.075C277.948 40.1308 278.111 42.4119 280.038 46.4803C279.721 47.0389 279.028 47.9697 278.218 49.3197L283.469 55.2502C285.093 54.0772 285.633 53.7793 286.247 53.3464C288.1 54.6312 290.102 55.5761 292.257 56.2278C292.55 57.3125 292.448 58.3459 292.69 59.6307C295.138 59.7843 297.913 59.7982 300.361 59.9146C300.868 58.8998 301.064 57.7732 301.492 56.7352H301.497ZM283.874 36.6117C283.883 28.8611 290.181 22.5862 297.931 22.6001C305.681 22.6141 311.956 28.9077 311.942 36.6583C311.928 44.4088 305.635 50.6838 297.885 50.6698C290.134 50.6559 283.864 44.3622 283.874 36.6117Z" fill="#006867"/>
<path d="M874.32 47.611L874.287 48.9422L878.775 49.5427L879.529 46.8475H879.543C880.39 46.8428 881.144 47.3502 881.414 48.1462L881.842 49.4125L886.292 48.4442L886.078 45.6605H886.092C886.888 45.3626 887.777 45.5814 888.303 46.2331L889.146 47.2711L893.018 44.8459L891.864 42.3182L891.873 42.3089C892.53 41.7596 893.461 41.6806 894.187 42.1088L895.318 42.7791L898.143 39.1902L896.184 37.2211L896.193 37.207C896.626 36.4715 897.478 36.0806 898.311 36.2342L899.614 36.4763L901.057 32.1611L898.534 30.9928V30.9787C898.697 30.1408 899.368 29.4846 900.21 29.3449L901.514 29.1308L901.397 24.6061L898.609 24.3733V24.364C898.469 23.5261 898.879 22.6789 899.628 22.2599L900.787 21.6128L899.126 17.4234L896.416 18.1589L896.407 18.145C895.988 17.4095 896.086 16.4832 896.649 15.8362L897.524 14.8354L894.517 11.4882L892.199 13.1082L892.19 13.0989C891.543 12.5589 891.319 11.6607 891.631 10.8693L892.12 9.62171L888.131 7.52219L886.497 9.8265H886.483C885.687 9.53324 885.166 8.76989 885.189 7.92269L885.222 6.60052L880.734 6.00001L879.98 8.70003H879.966C879.114 8.70003 878.36 8.16931 878.086 7.364L877.667 6.1257L873.217 7.09875L873.431 9.88242H873.417C872.612 10.1803 871.718 9.93826 871.183 9.28191L870.359 8.26704L866.491 10.6923L867.645 13.22L867.636 13.2293C866.979 13.7786 866.053 13.8625 865.327 13.4296L864.191 12.7545L861.366 16.3389L863.325 18.3125L863.297 18.3591C862.878 19.076 862.05 19.4529 861.244 19.304L859.899 19.0526L858.456 23.3678L860.979 24.5363V24.5502C860.816 25.3881 860.146 26.0444 859.299 26.1887L858 26.4076L858.116 30.9321L860.905 31.1649V31.1742C861.044 32.0167 860.635 32.8594 859.881 33.283L858.726 33.9299L860.388 38.1194L863.092 37.3886L863.102 37.4027C863.516 38.1336 863.442 39.0504 862.878 39.6975L861.994 40.7124L865.001 44.0593L867.31 42.4487L867.319 42.458C867.961 42.9979 868.203 43.8777 867.892 44.6691L867.398 45.9306L871.387 48.0299L873.017 45.7396H873.031C873.827 46.0329 874.353 46.7778 874.334 47.625L874.32 47.611ZM895.499 33.348C889.364 29.9592 887.977 23.3305 892.981 17.7632C896.361 21.4546 897.371 27.7248 895.499 33.348ZM874.292 12.2192C878.137 9.88243 886.697 11.3207 890.119 14.8817C885.138 19.2947 878.728 19.2529 874.292 12.2192ZM870.801 13.853C873.426 19.979 872.039 26.2911 863.246 28.5162C862.208 23.7867 865.988 16.4505 870.801 13.853ZM876.173 29.4658C875.246 27.4456 876.121 25.0994 878.146 24.1824C880.129 23.284 882.568 24.2151 883.434 26.2028C884.3 28.1905 883.336 30.625 881.353 31.4815C879.394 32.3287 877.071 31.4209 876.173 29.4658ZM863.651 32.2356C871.294 31.6957 876.084 35.4383 875.553 43.9802C869.451 42.0995 865.513 38.2638 863.651 32.2356ZM879.357 44.3479C880.934 37.1094 886.986 33.9626 893.596 36.9511C891.496 41.3454 884.072 45.1998 879.357 44.3479Z" fill="#006867"/>
<path d="M814.289 67.374C816.784 67.6161 815.62 71.1723 815.62 71.1723L821.597 71.1816C821.597 71.1816 820.429 67.6998 823.017 67.3786C825.456 67.076 825.577 70.4882 825.577 70.4882L831.196 68.4539C831.196 68.4539 828.747 65.8377 831.168 64.4226C833.3 63.1704 834.701 66.4382 834.701 66.4382L839.286 62.6072C839.286 62.6072 836.316 60.8709 837.908 58.7855C839.467 56.7466 841.888 59.5162 841.888 59.5162L844.885 54.3446C844.885 54.3446 841.283 53.8699 842.274 51.2864C843.401 48.3584 846.277 50.5461 846.277 50.5461L847.325 44.6623C847.325 44.6623 843.689 45.449 843.829 42.6374C843.978 39.6861 847.329 40.6217 847.329 40.6217L846.301 34.7332C846.301 34.7332 843.219 36.8606 842.307 33.9559C841.469 31.2886 844.923 30.9347 844.923 30.9347L841.944 25.7537C841.944 25.7537 839.849 28.7189 837.987 26.4752C836.162 24.2827 839.351 22.6489 839.351 22.6489L834.78 18.7992C834.78 18.7992 833.672 22.2811 831.289 20.8101C829.18 19.5114 831.289 16.7697 831.289 16.7697L825.675 14.7168C825.675 14.7168 826.108 18.385 823.087 17.8078C820.21 17.2585 821.7 14.0092 821.7 14.0092L815.723 13.9999C815.723 13.9999 817.217 17.2677 814.368 17.7937C811.282 18.3616 811.743 14.6982 811.743 14.6982L806.125 16.7324C806.125 16.7324 808.098 19.5673 806.199 20.7403C803.723 22.2672 802.624 18.7481 802.624 18.7481L798.039 22.5791C798.039 22.5791 800.92 24.4969 799.45 26.3636C797.788 28.4676 795.437 25.6699 795.437 25.6699L792.439 30.8417C792.439 30.8417 795.875 31.2046 795.046 33.9231C794.269 36.4648 791.052 34.6355 791.052 34.6355L790.005 40.5192C790.005 40.5192 793.626 39.5929 793.505 42.5442C793.384 45.4908 790 44.5598 790 44.5598L791.029 50.4483C791.029 50.4483 794.171 48.5445 795.004 51.1327C795.721 53.3485 792.407 54.2469 792.407 54.2469L795.386 59.4278C795.386 59.4278 797.797 56.6674 799.347 58.683C800.944 60.7591 797.979 62.5281 797.979 62.5281L802.55 66.3778C802.55 66.3778 803.941 63.1146 806.045 64.3435C808.047 65.5166 806.045 68.4027 806.045 68.4027L811.659 70.4554C811.659 70.4554 811.631 67.1087 814.303 67.3647L814.289 67.374ZM827.132 54.3401C828.198 56.1369 829.245 57.9476 830.158 59.8235C830.753 61.0478 829.836 62.3233 828.165 62.314C827.905 62.1045 827.276 61.8065 826.974 61.3084C825.945 59.6326 824.893 57.9382 824.148 56.132C823.883 55.4897 824.232 54.2376 824.749 53.7209C825.572 52.9016 826.578 53.4136 827.127 54.3446L827.132 54.3401ZM832.741 44.8996C834.84 45.3046 836.921 45.9098 838.918 46.6825C839.477 46.8967 840.096 48.0186 839.989 48.6004C839.868 49.2661 838.974 49.7874 838.494 50.2901C835.925 49.4941 833.723 48.9263 831.638 48.0745C831.149 47.8743 830.674 46.5895 830.87 46.0402C831.065 45.4816 832.178 44.788 832.741 44.8951V44.8996ZM822.71 22.2252C822.924 21.6759 824.26 21.0941 824.837 21.2849C825.424 21.4758 826.168 22.6861 826.047 23.2912C825.619 25.4418 824.939 27.5644 824.139 29.608C823.943 30.1061 822.835 30.6229 822.286 30.5019C821.644 30.3623 821.155 29.5289 820.666 29.0634C821.383 26.5497 821.891 24.3246 822.71 22.2252ZM810.03 30.7113C809.029 29.082 808.159 27.3736 807.242 25.6978C806.641 24.6039 806.888 23.7009 807.963 23.1237C808.997 22.5698 809.83 22.9934 810.374 23.9477C811.357 25.656 812.343 27.369 813.228 29.1286C813.889 30.446 813.065 31.8191 811.296 31.8377C811.026 31.605 810.365 31.2605 810.03 30.7113ZM835.869 31.1115C837.103 30.5064 838.406 31.377 838.373 33.0853C838.103 33.3879 837.708 34.0815 837.112 34.4539C835.552 35.4314 833.905 36.2693 832.289 37.1585C831.233 37.7403 830.292 37.5867 829.678 36.53C829.106 35.5431 829.431 34.6354 830.376 34.0861C832.178 33.0387 833.993 32.024 835.864 31.107L835.869 31.1115ZM804.602 40.3517C802.457 39.9234 800.334 39.3044 798.295 38.5177C797.764 38.3129 797.22 37.1771 797.322 36.5673C797.425 35.9481 798.304 35.4547 798.798 34.9567C801.316 35.7294 803.569 36.3111 805.71 37.163C806.185 37.3539 806.632 38.634 806.441 39.1786C806.241 39.7419 805.156 40.4542 804.612 40.3472L804.602 40.3517ZM809.737 42.4185C809.876 37.6937 814.052 33.6345 818.716 33.6904C823.501 33.7463 827.621 37.9683 827.537 42.7303C827.453 47.6274 823.343 51.5981 818.492 51.4771C813.586 51.3514 809.592 47.2224 809.737 42.4185ZM798.951 52.1753C799.156 51.9146 799.436 51.263 799.934 50.9604C801.609 49.9317 803.35 49.0008 805.082 48.0745C806.148 47.5019 807.274 47.6972 807.595 48.8191C807.791 49.4894 807.339 50.7463 806.762 51.1559C805.175 52.2964 803.397 53.1901 801.633 54.0653C800.273 54.7356 798.951 53.9209 798.951 52.1753ZM812.474 63.9014C811.901 63.7106 811.161 62.6072 811.273 62.0533C811.696 59.898 812.325 57.7661 813.125 55.7179C813.33 55.1966 814.503 54.6845 815.127 54.7962C815.732 54.8987 816.198 55.8016 816.658 56.2857C815.89 58.7854 815.332 60.9919 814.494 63.082C814.294 63.5848 813.028 64.0875 812.483 63.906L812.474 63.9014Z" fill="#006867"/>
<path d="M685.12 74.6157C687.88 74.8811 686.591 78.8098 686.591 78.8098L693.191 78.8191C693.191 78.8191 691.902 74.9742 694.76 74.6157C697.455 74.2806 697.59 78.0511 697.59 78.0511L703.795 75.8027C703.795 75.8027 701.091 72.912 703.763 71.3479C706.118 69.9654 707.668 73.5777 707.668 73.5777L712.732 69.3462C712.732 69.3462 709.451 67.4237 711.21 65.1242C712.933 62.8712 715.609 65.9295 715.609 65.9295L718.919 60.2178C718.919 60.2178 714.934 59.6918 716.033 56.8429C717.276 53.6077 720.45 56.0238 720.45 56.0238L721.609 49.5252C721.609 49.5252 717.592 50.3959 717.746 47.2864C717.909 44.0279 721.614 45.0612 721.614 45.0612L720.478 38.5583C720.478 38.5583 717.075 40.909 716.065 37.6971C715.139 34.7505 718.956 34.3595 718.956 34.3595L715.665 28.6385C715.665 28.6385 713.352 31.9155 711.294 29.439C709.279 27.0138 712.802 25.2122 712.802 25.2122L707.752 20.9578C707.752 20.9578 706.528 24.8073 703.893 23.1827C701.561 21.7444 703.893 18.7232 703.893 18.7232L697.693 16.4564C697.693 16.4564 698.167 20.5062 694.83 19.8731C691.651 19.268 693.294 15.6743 693.294 15.6743L686.693 15.6602C686.693 15.6602 688.346 19.2725 685.199 19.8497C681.787 20.4781 682.299 16.4285 682.299 16.4285L676.09 18.6766C676.09 18.6766 678.268 21.8096 676.169 23.1036C673.436 24.7887 672.221 20.9018 672.221 20.9018L667.157 25.1379C667.157 25.1379 670.341 27.2606 668.712 29.3181C666.878 31.6409 664.28 28.5546 664.28 28.5546L660.971 34.2663C660.971 34.2663 664.764 34.6666 663.847 37.6691C662.986 40.4807 659.434 38.4603 659.434 38.4603L658.275 44.9589C658.275 44.9589 662.274 43.9347 662.139 47.1932C662.004 50.4517 658.266 49.4229 658.266 49.4229L659.402 55.9258C659.402 55.9258 662.874 53.8265 663.796 56.68C664.587 59.1285 660.924 60.1201 660.924 60.1201L664.215 65.8411C664.215 65.8411 666.878 62.792 668.591 65.0171C670.355 67.312 667.078 69.2625 667.078 69.2625L672.128 73.5125C672.128 73.5125 673.664 69.9048 675.992 71.2641C678.203 72.5582 675.992 75.7468 675.992 75.7468L682.192 78.0138C682.192 78.0138 682.159 74.313 685.115 74.6017L685.12 74.6157ZM673.725 30.5468C676.476 27.8749 679.879 25.8781 683.668 24.8168L685.041 38.7072L673.725 30.5468ZM696.296 24.8261C700.001 25.8688 703.404 27.8284 706.23 30.5934L694.886 38.7397L696.301 24.8261H696.296ZM713.235 47.277C713.235 49.2601 712.979 51.1825 712.509 53.0212L699.769 47.2584L712.537 41.5281C713.002 43.3854 713.24 45.3126 713.24 47.277H713.235ZM666.654 47.1977C666.654 45.2147 666.91 43.2924 667.38 41.4583L680.102 47.2164L667.362 52.9421C666.896 51.1034 666.65 49.1807 666.654 47.1977ZM683.114 47.2257C683.118 43.4505 686.186 40.397 689.961 40.4016C693.736 40.4063 696.794 43.4739 696.785 47.2491C696.78 51.0243 693.713 54.0778 689.938 54.0731C686.163 54.0638 683.109 51.0009 683.114 47.2257ZM673.674 63.8766L685.018 55.7444L683.598 69.6441C679.809 68.5688 676.415 66.5578 673.674 63.8766ZM694.839 55.7537L706.164 63.9325C703.413 66.6044 700.011 68.6013 696.222 69.6673L694.839 55.7583V55.7537Z" fill="#006867"/>
<path d="M763.526 36.2892C763.535 32.8073 760.714 29.9817 757.232 29.977C753.751 29.9724 750.925 32.7886 750.92 36.2706C750.916 39.7525 753.732 42.5781 757.214 42.5828C760.696 42.5874 763.521 39.7711 763.526 36.2892Z" fill="#006867"/>
<path d="M760.817 56.3753C762.86 55.9889 766.747 54.3551 766.794 54.3272C766.817 54.3132 769.074 55.5606 770.005 56.04C771.863 54.3968 773.711 52.7445 775.54 51.078C775.116 49.998 774.46 49.0391 773.99 47.9825C775.223 46.2043 776.746 43.9092 777.397 41.8517C777.444 41.712 777.397 41.8519 780.432 41.3491C780.423 40.4042 780.446 32.756 780.446 32.756L777.244 32.351C776.815 30.2982 776.173 28.3197 775.168 26.467C775.745 25.4616 776.504 24.5772 777.048 23.5531C775.377 21.6772 773.701 19.8012 772.012 17.9392C771.15 18.4792 768.87 19.5778 768.87 19.5778C765.811 17.4923 762.995 16.6964 762.995 16.6964C762.837 15.7142 762.483 14.378 762.292 13.4051C759.821 13.2515 757.353 13.1165 754.882 13.0001C754.356 14.0102 754.184 15.1461 753.737 16.1795C751.628 16.5798 747.471 18.4185 747.322 18.3347C746.871 18.0647 745.847 16.8825 745.083 16.3611L738.92 21.7934C739.395 22.9013 740.2 23.8138 740.615 24.4748C739.884 25.4756 737.664 30.5494 737.519 30.582C736.528 30.8194 735.373 30.9963 734.405 31.3361C734.252 33.7847 734.121 36.2333 734 38.6818C734.917 39.1427 736.165 39.3613 737.119 39.7151C737.268 39.771 737.431 42.052 739.358 46.1205C739.041 46.6791 738.348 47.6099 737.538 48.9598L742.788 54.8904C744.413 53.7173 744.953 53.4195 745.567 52.9866C747.42 54.2713 749.422 55.2163 751.577 55.868C751.87 56.9526 751.768 57.986 752.01 59.2708C754.458 59.4244 757.232 59.4383 759.681 59.5547C760.188 58.5399 760.384 57.4134 760.812 56.3753H760.817ZM743.193 36.2518C743.203 28.5013 749.501 22.2263 757.251 22.2403C765.001 22.2542 771.276 28.5479 771.262 36.2984C771.248 44.049 764.955 50.3239 757.205 50.31C749.454 50.296 743.184 44.0024 743.193 36.2518Z" fill="#006867"/>
<path d="M170.049 57.0787L170.017 58.41L174.504 59.0105L175.258 56.3152H175.272C176.119 56.3106 176.873 56.818 177.143 57.614L177.572 58.8803L182.022 57.912L181.807 55.1283H181.821C182.617 54.8304 183.506 55.0492 184.032 55.7009L184.875 56.7389L188.748 54.3137L187.593 51.786L187.603 51.7766C188.259 51.2274 189.19 51.1484 189.916 51.5766L191.047 52.2469L193.873 48.6579L191.913 46.6889L191.922 46.6748C192.355 45.9393 193.207 45.5484 194.04 45.702L195.344 45.944L196.787 41.6289L194.264 40.4606V40.4465C194.427 39.6086 195.097 38.9523 195.94 38.8127L197.243 38.5986L197.127 34.0738L194.338 33.8411V33.8318C194.199 32.9939 194.608 32.1467 195.358 31.7277L196.517 31.0806L194.855 26.8911L192.146 27.6266L192.137 27.6128C191.718 26.8773 191.815 25.951 192.379 25.3039L193.254 24.3032L190.247 20.956L187.929 22.5759L187.919 22.5666C187.272 22.0266 187.049 21.1284 187.361 20.3371L187.849 19.0895L183.86 16.99L182.226 19.2943H182.212C181.416 19.001 180.895 18.2377 180.918 17.3905L180.951 16.0683L176.464 15.4678L175.71 18.1678H175.696C174.844 18.1678 174.09 17.6371 173.815 16.8318L173.396 15.5935L168.946 16.5665L169.16 19.3502H169.146C168.341 19.6481 167.447 19.406 166.912 18.7497L166.088 17.7348L162.22 20.16L163.374 22.6878L163.365 22.6971C162.709 23.2464 161.782 23.3303 161.056 22.8973L159.92 22.2223L157.095 25.8067L159.055 27.7803L159.027 27.8269C158.608 28.5438 157.779 28.9207 156.974 28.7718L155.629 28.5204L154.186 32.8355L156.709 34.0041V34.0179C156.546 34.8558 155.875 35.5122 155.028 35.6565L153.729 35.8754L153.846 40.3999L156.634 40.6326V40.642C156.774 41.4845 156.364 42.3272 155.61 42.7508L154.456 43.3977L156.117 47.5872L158.822 46.8564L158.831 46.8705C159.245 47.6013 159.171 48.5182 158.608 49.1653L157.723 50.1801L160.73 53.527L163.039 51.9164L163.048 51.9257C163.691 52.4657 163.933 53.3455 163.621 54.1369L163.128 55.3983L167.117 57.4976L168.746 55.2074H168.76C169.556 55.5007 170.082 56.2456 170.063 57.0928L170.049 57.0787ZM191.229 42.8158C185.094 39.427 183.707 32.7983 188.711 27.2309C192.09 30.9223 193.1 37.1926 191.229 42.8158ZM170.021 21.687C173.866 19.3502 182.427 20.7885 185.848 24.3495C180.867 28.7624 174.457 28.7207 170.021 21.687ZM166.53 23.3208C169.156 29.4467 167.768 35.7589 158.975 37.984C157.937 33.2545 161.717 25.9183 166.53 23.3208ZM171.902 38.9336C170.976 36.9134 171.851 34.5672 173.876 33.6502C175.859 32.7518 178.298 33.6829 179.163 35.6706C180.029 37.6583 179.066 40.0927 177.083 40.9493C175.123 41.7965 172.8 40.8887 171.902 38.9336ZM159.38 41.7034C167.024 41.1634 171.813 44.906 171.283 53.4479C165.18 51.5673 161.242 47.7316 159.38 41.7034ZM175.086 53.8157C176.664 46.5772 182.715 43.4304 189.325 46.4189C187.226 50.8132 179.801 54.6676 175.086 53.8157Z" fill="#006867"/>
<path d="M109.897 67.4202H109.92L111.093 71.6702L118.155 70.7485L118.108 68.6678C118.08 67.3319 118.9 66.1356 120.152 65.6887L120.17 65.6794L122.73 69.3056L129.01 66.0237L128.251 64.0595C127.767 62.8073 128.125 61.4013 129.14 60.5541L129.159 60.5403L132.799 63.1005L137.542 57.8543L136.174 56.2762C135.289 55.2568 135.14 53.7999 135.806 52.6454L135.815 52.6268L140.074 53.7999L142.709 47.2222L140.894 46.1982C139.716 45.5326 139.074 44.2012 139.302 42.8838V42.8745L143.687 42.5254L143.891 35.4079L141.843 35.0588C140.517 34.8353 139.465 33.7973 139.218 32.4799V32.4567L143.188 30.632L140.945 23.8357L138.897 24.208C137.584 24.4454 136.253 23.8309 135.573 22.6672L135.564 22.6488L138.659 19.5578L134.233 13.902L132.45 14.9539C131.305 15.6289 129.843 15.4985 128.814 14.628L128.796 14.6141L130.625 10.6435L124.55 6.8125L123.219 8.44629C122.386 9.46573 120.99 9.81028 119.737 9.34478L119.714 9.33546L120.063 4.96437L113.076 3.41422L112.392 5.40668C111.964 6.65887 110.772 7.4547 109.441 7.44074H109.418L108.245 3.20011L101.183 4.12179L101.23 6.21653C101.258 7.54786 100.424 8.71629 99.1723 9.16317L99.149 9.17249L96.6028 5.56011L90.3234 8.842L91.0915 10.8249C91.5709 12.0725 91.1939 13.4597 90.1791 14.3023L90.1605 14.3162L86.539 11.77L81.7957 17.0114L83.1782 18.6081C84.058 19.6229 84.1744 21.066 83.518 22.2158L83.5087 22.2344L79.2635 21.0707L76.6289 27.6481L78.4396 28.6675C79.6219 29.3332 80.2596 30.6644 80.0362 31.9864V31.9958L75.6514 32.3449L75.4419 39.4578L77.4853 39.807C78.812 40.035 79.864 41.0684 80.1107 42.3904V42.4138L76.1401 44.2385L78.3837 51.0348L80.497 50.6484C81.7725 50.4157 83.0665 51.0161 83.7228 52.1427L83.7694 52.217L80.6739 55.308L85.1007 60.9637L86.8881 59.9118C88.0332 59.2368 89.4902 59.3672 90.5189 60.2377L90.5375 60.2516L88.7082 64.2222L94.7828 68.058L96.0814 66.466C96.9193 65.4373 98.3297 65.0602 99.5958 65.5257L99.6191 65.535L99.27 69.9059L106.257 71.4561L106.923 69.5104C107.355 68.2489 108.542 67.4109 109.888 67.4202H109.897ZM112.597 37.4374C112.602 33.9043 119.197 31.0461 122.73 31.0554C126.263 31.0601 129.126 33.9322 129.117 37.4654C129.112 40.9985 126.24 43.8614 122.707 43.8521C119.174 43.8428 112.588 40.9705 112.592 37.4374H112.597ZM109.669 39.5415C108.505 39.5415 107.565 38.5967 107.565 37.4283C107.565 36.2646 108.515 35.3243 109.674 35.3243C110.837 35.3243 111.782 36.2737 111.778 37.4374C111.773 38.6012 110.828 39.5415 109.664 39.5415H109.669ZM109.678 34.5096C106.145 34.505 103.287 27.9087 103.296 24.371C103.306 20.8332 106.173 17.9751 109.706 17.9845C113.239 17.9891 116.102 20.8612 116.097 24.3944C116.093 27.9275 113.216 34.5143 109.683 34.5096H109.678ZM106.75 37.4283C106.746 40.9615 100.15 43.8196 96.6168 43.8103C93.0837 43.801 90.221 40.9335 90.2257 37.4004C90.2303 33.8672 93.1023 31.0043 96.6354 31.0136C100.168 31.0229 106.755 33.8952 106.75 37.4283ZM109.669 40.3561C113.202 40.3607 116.06 46.9569 116.051 50.49C116.046 54.0231 113.174 56.8859 109.641 56.8813C106.108 56.8766 103.245 54.0045 103.255 50.4714C103.259 46.9382 106.136 40.3514 109.669 40.3561ZM118.038 48.833C117.168 47.9579 117.168 46.5426 118.043 45.6675C118.918 44.797 120.333 44.7971 121.208 45.6723C122.079 46.5474 122.079 47.9625 121.204 48.833C120.329 49.7035 118.913 49.7034 118.038 48.8283V48.833ZM133.716 37.4747C133.711 41.5664 132.673 45.4161 130.858 48.791L129.368 47.9298C131.035 44.8109 131.984 41.2545 131.989 37.4747C131.994 33.6948 131.058 30.1338 129.401 27.0103L130.89 26.1539C132.696 29.5334 133.721 33.3877 133.711 37.4795L133.716 37.4747ZM121.073 28.9143C120.198 29.7848 118.783 29.7847 117.908 28.9096C117.038 28.0344 117.038 26.6193 117.913 25.7488C118.788 24.8783 120.203 24.8785 121.078 25.7536C121.948 26.6287 121.948 28.0437 121.073 28.9189V28.9143ZM130.094 24.7712L128.605 25.6279C124.802 19.5392 118.145 15.424 110.507 15.1401V13.4179C118.774 13.7018 125.989 18.1751 130.094 24.7712ZM89.2947 24.7062C93.4236 18.1194 100.653 13.6738 108.92 13.4131V15.1355C101.276 15.3916 94.6059 19.4879 90.7796 25.5627L89.2947 24.7014V24.7062ZM101.155 25.8793C102.026 26.7544 102.026 28.1696 101.151 29.04C100.275 29.9105 98.8604 29.9104 97.9899 29.0353C97.1195 28.1601 97.1195 26.745 97.9899 25.8745C98.8651 25.004 100.28 25.0041 101.151 25.8793H101.155ZM85.636 37.4004C85.6406 33.3086 86.6787 29.4543 88.4941 26.0841L89.9836 26.9453C88.3172 30.0641 87.3676 33.6204 87.3629 37.4049C87.3583 41.1848 88.2939 44.7458 89.951 47.8693L88.4615 48.7257C86.66 45.3462 85.636 41.4921 85.6406 37.4004H85.636ZM98.1203 45.8025C98.9954 44.932 100.41 44.9322 101.281 45.8073C102.151 46.6824 102.151 48.0973 101.276 48.9678C100.401 49.8383 98.9861 49.8384 98.1156 48.9633C97.2452 48.0881 97.2452 46.673 98.1203 45.8025ZM89.2575 50.1038L90.747 49.2472C94.55 55.3359 101.206 59.4557 108.845 59.735V61.4619C100.578 61.178 93.363 56.7046 89.2575 50.1038ZM110.437 59.7395C118.08 59.4835 124.746 55.3871 128.572 49.3124L130.057 50.1736C125.928 56.7604 118.699 61.2058 110.432 61.4665V59.7395H110.437Z" fill="#006867"/>
<path d="M34.5786 70.1807C37.8603 69.5616 44.1024 66.9314 44.1816 66.8895C44.2235 66.8709 47.8496 68.8727 49.3438 69.6454C52.3275 67.0061 55.2927 64.3526 58.2392 61.6713C57.5596 59.9396 56.4983 58.3896 55.7535 56.6951C57.7365 53.8416 60.1756 50.1504 61.2276 46.8454C61.2974 46.6219 61.2276 46.8454 66.1012 46.04C66.0826 44.5225 66.1245 32.2285 66.1245 32.2285L60.9762 31.5816C60.2873 28.2859 59.2586 25.1018 57.6434 22.1319C58.5697 20.5213 59.7893 19.0922 60.6644 17.449C57.9785 14.4325 55.288 11.4208 52.5742 8.42766C51.1871 9.29348 47.5237 11.0577 47.5237 11.0577C42.6082 7.70609 38.0837 6.4261 38.0837 6.4261C37.8277 4.84807 37.2645 2.70196 36.9526 1.13788C32.982 0.895822 29.0161 0.672429 25.0409 0.486229C24.1983 2.10616 23.919 3.93091 23.2022 5.59739C19.8134 6.23978 13.1338 9.19577 12.8964 9.05612C12.1702 8.62321 10.527 6.72395 9.29815 5.88605L-0.607318 14.6096C0.156076 16.3925 1.45011 17.854 2.11575 18.92C0.938079 20.526 -2.62756 28.6814 -2.85564 28.7373C-4.45226 29.119 -6.30023 29.4078 -7.8596 29.9524C-8.10631 33.8859 -8.32044 37.8239 -8.51129 41.7574C-7.0357 42.4975 -5.03411 42.8513 -3.49801 43.4146C-3.26062 43.503 -2.99995 47.1711 0.10483 53.7067C-0.402548 54.6051 -1.51967 56.0948 -2.82303 58.2687L5.61621 67.7973C8.22292 65.912 9.09336 65.4372 10.0802 64.7343C13.0546 66.7965 16.2758 68.3187 19.7343 69.3661C20.2091 71.1071 20.0415 72.7688 20.4326 74.8309C24.3659 75.0776 28.8206 75.0963 32.7586 75.2871C33.5732 73.6579 33.8897 71.8517 34.574 70.1759L34.5786 70.1807ZM30.5522 36.1528C31.5111 37.1163 31.5111 38.6757 30.5475 39.6347C29.584 40.5983 28.0246 40.5937 27.061 39.6301C26.0975 38.6665 26.1022 37.1071 27.0657 36.1482C28.0293 35.1846 29.5933 35.1892 30.5522 36.1528ZM51.5362 28.5745C52.7372 31.5025 53.3656 34.6677 53.3609 37.9309C53.3563 41.194 52.7139 44.3549 51.5036 47.2829L33.4754 37.9031L51.5362 28.5745ZM24.1192 37.8797L6.07237 47.2038C4.87142 44.2758 4.24766 41.1103 4.25231 37.8518C4.25697 34.5933 4.89467 31.428 6.10493 28.5L24.1192 37.8797ZM48.2266 52.9107C47.5843 53.7346 46.8953 54.5306 46.1412 55.28C42.2731 59.1343 37.3483 61.5364 32.0231 62.23L31.134 41.9435L48.2266 52.9107ZM54.0452 48.6003L52.658 47.8786C55.3066 41.5292 55.3159 34.3326 52.6906 27.9786L54.0824 27.2617C56.9358 34.0719 56.9219 41.7994 54.0452 48.6003ZM31.1573 33.8439L32.1069 13.5575C37.4274 14.2697 42.3429 16.6857 46.1971 20.554C46.9465 21.3081 47.6355 22.1041 48.2778 22.9327L31.162 33.8439H31.1573ZM48.2313 18.5291C49.1343 19.4368 49.9536 20.3955 50.703 21.3871L49.381 22.2296C48.6921 21.3266 47.9473 20.4563 47.1234 19.6323C43.0365 15.5313 37.8184 12.9802 32.1674 12.2494L32.2419 10.6854C38.2839 11.4348 43.8697 14.1534 48.2313 18.5291ZM6.96606 21.3127C7.72015 20.3212 8.53944 19.3669 9.44713 18.4638C13.8273 14.0975 19.4225 11.4023 25.4645 10.6715L25.5342 12.2355C19.8833 12.9477 14.6512 15.4847 10.5503 19.5671C9.72642 20.391 8.977 21.2569 8.28808 22.1553L6.97072 21.308L6.96606 21.3127ZM11.472 20.4981C15.3355 16.6438 20.265 14.2417 25.5854 13.5481L26.4699 33.8253L9.38662 22.8674C10.029 22.0435 10.7179 21.2476 11.472 20.4981ZM3.56806 27.1781L4.9552 27.8995C2.30659 34.2489 2.29731 41.4409 4.92264 47.795L3.53084 48.5164C0.677426 41.7062 0.69137 33.979 3.56806 27.1781ZM26.4606 41.939L25.511 62.2207C20.1905 61.5084 15.2703 59.0926 11.4208 55.2243C10.6714 54.4702 9.98245 53.674 9.34474 52.8455L26.4652 41.939H26.4606ZM9.38196 57.2491C8.47892 56.3413 7.65964 55.3872 6.91021 54.3911L8.23223 53.5485C8.92114 54.4515 9.66591 55.3174 10.4898 56.146C14.5768 60.247 19.7995 62.8026 25.4505 63.5287L25.376 65.0927C19.334 64.3433 13.7529 61.6294 9.38662 57.2491H9.38196ZM32.079 63.5426C37.7346 62.835 42.962 60.2981 47.0629 56.211C47.8868 55.3871 48.6363 54.5212 49.3298 53.6228L50.6518 54.4702C49.8977 55.4617 49.0738 56.416 48.1708 57.3191C43.7906 61.6854 38.1954 64.3805 32.1534 65.1114L32.0836 63.5474L32.079 63.5426Z" fill="#006867"/>
</svg>
