<svg width="52" height="52" viewBox="0 0 52 52" fill="none" xmlns="http://www.w3.org/2000/svg">
<path d="M48.4306 22.6179C48.2681 22.5543 48.1429 20.01 46.0932 15.4415C46.4585 14.8263 47.2571 13.8127 48.1927 12.3294L42.4886 5.6046C40.6512 6.86801 40.0406 7.18514 39.3467 7.65499C37.3167 6.1826 35.1059 5.07922 32.7246 4.30027C32.4237 3.08801 32.565 1.94225 32.3256 0.506387C29.6024 0.274019 26.5139 0.192909 23.7878 0C23.197 1.11581 22.9518 2.36095 22.4518 3.5089C20.1686 3.88815 15.799 5.61045 15.7448 5.63675C15.717 5.65064 13.2332 4.20674 12.2076 3.65212C10.0993 5.43142 8.00051 7.22314 5.91857 9.03386C6.36292 10.2432 7.07374 11.3298 7.5664 12.515C6.14697 14.4602 4.39885 16.9768 3.62069 19.2464C3.56798 19.4013 3.62068 19.2464 0.228389 19.7279C0.216676 20.7772 0 29.2835 0 29.2835L3.55846 29.8118C3.98597 32.1019 4.64921 34.3225 5.72385 36.4021C5.05769 37.5033 4.18877 38.4723 3.55628 39.5968C5.37102 41.7262 7.19088 43.8511 9.02538 45.9628C9.999 45.3841 12.567 44.2201 12.567 44.2201C15.9227 46.6132 19.039 47.5712 19.039 47.5712C19.1928 48.668 19.5507 50.1594 19.7425 51.2467C22.4899 51.4768 25.2387 51.6909 27.989 51.8809C28.5973 50.7717 28.8213 49.5141 29.3418 48.3735C31.7012 47.9796 36.3768 46.0374 36.5378 46.1382C37.0356 46.4495 38.1439 47.7896 38.9828 48.3881L45.9834 42.5029C45.4805 41.2585 44.6079 40.2253 44.1613 39.4799C45.0017 38.3875 47.5997 32.799 47.7586 32.7646C48.8698 32.525 50.1575 32.3547 51.2468 32.0025C51.4796 29.285 51.6867 26.5645 51.88 23.8433C50.8698 23.3099 49.4862 23.0322 48.4313 22.6194L48.4306 22.6179ZM28.6017 9.15662C32.2795 9.73023 35.6513 11.4788 38.2625 14.2132C38.7705 14.7466 39.2361 15.3078 39.6666 15.8902L27.6296 23.1747L28.601 9.15589L28.6017 9.15662ZM14.1921 13.6403C16.9322 11.0331 20.3838 9.44598 24.085 9.0492L24.3903 23.1016L12.709 15.2486C13.1673 14.6867 13.6577 14.1481 14.1921 13.6403ZM8.91922 25.5349C8.97339 23.2792 9.46533 21.1002 10.3489 19.0936L22.7022 25.8608L10.0393 32.0368C9.2523 29.9908 8.86578 27.7914 8.91922 25.5349ZM23.2776 42.725C19.6012 42.1514 16.2309 40.4028 13.6182 37.667C13.1087 37.135 12.6439 36.5739 12.2142 35.99L24.2475 28.7033L23.2776 42.725ZM24.7036 27.1169C24.0521 26.4352 24.0784 25.3566 24.7614 24.707C25.4437 24.0559 26.5264 24.0815 27.1772 24.7647C27.8287 25.4465 27.8031 26.525 27.1193 27.1746C26.4363 27.8257 25.3536 27.8001 24.7036 27.1169ZM37.6886 38.2406C34.9493 40.8486 31.4977 42.4349 27.7972 42.8325L27.4963 28.7888L39.171 36.6338C38.7134 37.195 38.2222 37.7335 37.6893 38.2414L37.6886 38.2406ZM42.96 26.346C42.9059 28.6025 42.4161 30.7815 41.5333 32.7873L29.1888 26.0201L41.8429 19.8463C42.6291 21.8908 43.0142 24.0896 42.9608 26.3453L42.96 26.346Z" fill="#AD1E23"/>
</svg>
