<svg width="53" height="53" viewBox="0 0 53 53" fill="none" xmlns="http://www.w3.org/2000/svg">
<g clip-path="url(#clip0_247_6802)">
<path d="M30.6738 49.3497C30.6076 48.1985 30.3766 47.059 30.7562 45.8989C31.0953 44.8611 31.2961 43.7776 31.5498 42.7126C31.5866 42.5579 31.6293 42.3774 31.5866 42.2338C31.0239 40.3276 30.6789 38.3455 29.5742 36.63C29.2306 36.096 28.7467 35.5105 28.7386 34.9426C28.7297 34.3541 29.2174 33.7567 29.4932 33.1652C29.7602 32.5937 30.0331 32.025 30.3634 31.3297C28.8033 31.3312 28.0052 30.2647 27.088 29.3646C26.8813 29.1613 26.5871 29 26.3054 28.9293C25.2285 28.6604 24.1436 28.424 23.0557 28.2023C22.6983 28.1294 22.5033 27.957 22.3577 27.6226C22.0289 26.8662 21.6523 26.1311 21.2948 25.3879C21.2603 25.3945 21.225 25.4004 21.1904 25.407V26.847C20.7549 27.0061 20.5284 26.8419 20.3099 26.5391C19.3052 25.1463 18.2695 23.7756 17.2721 22.3768C17.1074 22.1463 17.0095 21.82 17.0007 21.5342C16.9691 20.5038 17.0044 19.4711 16.9772 18.4399C16.9698 18.1637 16.8838 17.8595 16.7433 17.6216C16.0702 16.4814 15.3391 15.3736 14.6859 14.2224C14.4366 13.7819 14.1769 13.7127 13.7135 13.7981C11.9188 14.1303 10.1373 14.5089 8.28374 14.489C7.31723 14.4787 6.67436 14.0286 5.94249 13.502C6.50739 13.049 7.04213 12.6196 7.57761 12.1895C7.12157 12.2204 6.70893 12.3132 6.29629 12.4053C6.26466 12.4126 6.22494 12.4089 6.2014 12.4266C6.06533 12.532 5.72183 12.7271 5.67549 12.7537C4.16026 15.4281 3.16653 18.3876 2.70755 21.627C1.88006 27.465 2.99809 32.9472 5.99324 38.0332C6.11534 38.2409 6.22788 38.456 6.36543 38.6534C6.69937 39.1321 6.66847 39.5925 6.40809 40.1066C4.33017 44.2092 2.26696 48.3185 0.20375 52.4285C0.114013 52.6075 0.0669379 52.8086 -0.000732422 52.9994C4.3846 50.8906 8.77361 48.7877 13.1523 46.6642C13.6929 46.402 14.1424 46.4211 14.6499 46.7283C17.4339 48.4172 20.4438 49.5147 23.6552 50.003C26.1178 50.3772 28.5584 50.4081 30.9658 50.0715C30.8849 50.0811 30.8062 50.09 30.7312 50.0966C30.7312 50.0966 30.687 49.5906 30.6731 49.349L30.6738 49.3497Z" fill="#AD1E23"/>
<path d="M14.2564 7.78545C15.5429 7.67938 16.7735 7.41349 17.8407 6.63715C18.1607 6.4044 18.4763 6.3985 18.8499 6.51267C19.5031 6.71228 20.1673 6.9686 20.8366 6.99733C21.8774 7.04299 22.9278 6.93546 23.9701 6.85149C24.1709 6.83528 24.4106 6.66735 24.5379 6.49868C24.8424 6.09578 25.1057 5.65826 25.358 5.21853C25.5147 4.94453 25.6736 4.83626 26.0163 4.90328C26.6063 5.01745 27.216 5.13309 27.8096 5.10142C29.0983 5.03145 30.3826 4.87677 31.6661 4.73535C31.8375 4.7162 32.0456 4.61087 32.1501 4.47682C32.8378 3.59736 33.708 2.94182 34.6553 2.38204C34.8186 2.28555 35.0452 2.24945 35.2394 2.25829C36.1926 2.30175 38.2544 2.44612 38.2544 2.44612C38.2382 2.43875 38.2698 2.45274 38.2544 2.44612C35.6432 1.19175 32.932 0.454454 30.0442 0.127421C29.6367 0.0810176 29.2285 0.0427164 28.8203 0.000732422H25.9288C25.0315 0.131104 24.1311 0.242325 23.2374 0.395529C18.691 1.1726 14.6602 3.07072 11.1774 6.09725C10.0748 7.05552 9.07596 8.07271 8.17859 9.14661C8.24111 9.13188 8.67729 9.0295 8.81337 8.98752C10.5941 8.43583 12.3881 7.94013 14.2549 7.78618L14.2564 7.78545ZM30.5297 1.64695C30.6201 1.59686 30.7871 1.60496 30.8813 1.65579C31.3527 1.9099 31.8117 2.18758 32.3443 2.49694C31.5491 3.10239 30.8739 3.74467 30.0832 4.17409C29.5882 4.44293 28.9107 4.35234 28.3311 4.49155C27.6316 4.65948 27.2146 4.21902 26.6246 3.84632C27.9817 3.07882 29.2528 2.35626 30.5304 1.64768L30.5297 1.64695ZM20.6123 3.21361C20.6123 3.21361 20.6535 3.20919 20.6785 3.2254C21.3581 3.67765 22.0569 3.62093 22.7564 3.29022C23.0617 3.14585 23.2257 3.23718 23.3669 3.52739C23.5295 3.864 23.7362 4.17851 23.9568 4.56005C22.827 4.85983 21.734 5.15445 20.6366 5.43361C20.5453 5.45644 20.4181 5.38941 20.3232 5.33565C19.8701 5.07711 19.4229 4.809 18.9301 4.5188C19.5207 4.06066 20.0584 3.64376 20.613 3.21361H20.6123Z" fill="#AD1E23"/>
<path d="M52.3981 22.3686C51.9612 18.3654 50.635 14.6966 48.449 11.3577C48.3982 11.3577 47.5796 11.4196 47.4986 11.427C46.3916 11.5257 45.2854 11.6376 44.1769 11.715C43.8268 11.7393 43.6135 11.8718 43.4428 12.1746C43.1714 12.6548 42.8595 13.1115 42.4999 13.6808C42.0468 13.3825 41.604 13.1483 41.2288 12.8323C40.4786 12.2003 39.7776 11.5087 39.031 10.8716C38.6912 10.5814 38.4823 10.2529 38.3705 9.82199C37.9902 8.36434 37.379 7.09377 36.1403 6.08542C35.2054 5.32381 34.1566 5.42178 33.1672 5.0918C32.9878 5.78637 33.0753 6.29018 33.6137 6.7277C34.183 7.19026 34.6898 7.73311 35.1974 8.26564C35.6446 8.73483 36.055 9.23864 36.4684 9.71225C35.6872 10.4304 34.884 10.5144 34.0124 10.0496C33.8116 9.94279 33.599 9.83893 33.3798 9.78885C32.7803 9.65185 32.5523 9.3145 32.6759 8.70242C32.709 8.53964 32.659 8.23986 32.5567 8.19051C31.9484 7.89736 31.3137 7.65945 30.6664 7.39355C30.484 8.17504 30.2692 8.88435 30.1655 9.60986C30.0824 10.1925 29.8198 10.4547 29.2512 10.518C28.8488 10.5622 28.2516 10.5718 28.1081 10.8141C27.9162 11.1382 28.0618 11.6752 28.1001 12.1171C28.1111 12.246 28.2332 12.45 28.3369 12.4729C29.1445 12.6519 29.9603 12.7948 30.8054 12.9546C30.968 12.0619 31.1232 11.2156 31.2887 10.3081C32.0919 10.4576 32.9238 10.4606 33.6049 10.7825C34.297 11.1095 34.9465 11.34 35.6975 11.2583C36.0418 11.2207 36.2396 11.3445 36.3654 11.6708C36.8744 12.9936 37.6967 14.0933 38.7581 15.0273C39.1134 15.3403 39.4267 15.7005 39.7592 16.0393C40.3432 16.6344 40.3808 16.9202 39.9659 17.7253C39.2142 17.6325 38.4242 17.3695 37.6997 17.4911C36.9752 17.6133 36.3338 18.1672 35.6225 18.4486C34.0705 19.0622 32.876 20.0764 31.8955 21.4199C31.1886 22.3885 30.239 23.1957 30.1353 24.5076C30.1287 24.5908 29.9661 24.7329 29.886 24.727C29.4696 24.6961 29.0386 24.6799 28.6466 24.554C28.1685 24.4 27.7271 24.1326 27.2615 23.9345C27.1402 23.8829 26.9651 23.8505 26.8533 23.8999C26.2582 24.1606 25.6764 24.4501 25.0645 24.741C25.2248 25.4194 25.3778 26.0639 25.5676 26.8675C26.0898 25.8017 26.8952 25.6411 27.8757 25.8297C27.8456 26.4175 27.8154 27.0133 27.783 27.6475C28.6164 27.7506 29.2931 28.0821 29.7212 28.7833C30.0566 29.3328 30.4707 29.3711 31.0371 29.1604C31.5027 28.9873 32.033 28.798 32.5008 28.8621C33.6939 29.0256 34.8678 29.3283 36.0498 29.5721C36.7361 29.7143 37.4283 29.8307 38.1079 30.0001C38.3712 30.0656 38.6875 30.1813 38.8405 30.3809C40.0652 31.9792 41.5591 33.2321 43.3678 34.1182C43.865 34.362 44.3292 34.6743 44.8065 34.9586C44.9286 35.0308 45.0427 35.1162 45.1773 35.2083C44.2622 36.9591 43.3671 38.6849 42.455 40.4011C42.38 40.5418 42.2056 40.6508 42.0526 40.7244C41.2877 41.0934 40.5058 41.4278 39.7511 41.816C39.5466 41.9213 39.3532 42.1438 39.2635 42.3589C38.956 43.0976 38.7184 43.8659 38.4087 44.6032C38.2969 44.8691 38.0991 45.1416 37.8667 45.3051C36.8104 46.0476 35.7645 46.8187 34.6413 47.4492C33.7638 47.942 33.5475 49.5116 33.5107 49.5705C33.2136 49.6464 32.8973 49.7208 32.5795 49.7893C33.5644 49.5816 34.5435 49.3112 35.5158 48.9746C41.2958 46.9734 45.8201 43.365 48.9734 38.1037C51.8766 33.2594 53.0123 28.0011 52.3981 22.3686Z" fill="#AD1E23"/>
<path d="M32.5803 49.7893C32.0441 49.902 31.5064 49.9955 30.9666 50.0714C31.4402 50.0147 32.0118 49.9123 32.5803 49.7893Z" fill="#AD1E23"/>
</g>
<defs>
<clipPath id="clip0_247_6802">
<rect width="52.56" height="53" fill="white"/>
</clipPath>
</defs>
</svg>
