<svg width="204" height="85" viewBox="0 0 204 85" fill="none" xmlns="http://www.w3.org/2000/svg">
<g clip-path="url(#clip0_184_16153)">
<path d="M92.341 38.2224C90.9753 38.2224 89.4808 38.0487 87.8483 37.6967C86.2159 37.3446 84.6938 36.796 83.2821 36.0416C81.8704 35.2872 80.6886 34.2996 79.7413 33.0697C78.794 31.8399 78.3158 30.3494 78.3158 28.5937C78.3158 26.9386 78.7664 25.5121 79.6677 24.3051C80.569 23.1027 81.8704 22.4992 83.5764 22.4992C85.2824 22.4992 86.5838 23.1392 87.6276 24.4148C88.6761 25.695 89.3428 27.0849 89.6371 28.5891C88.7588 28.5891 88.0415 28.8909 87.4805 29.4898C86.9195 30.0933 86.639 30.8432 86.639 31.7484C86.639 32.4982 86.8091 33.1749 87.1494 33.7784C87.4897 34.3819 87.9403 34.8666 88.5013 35.246C89.0623 35.6209 89.6831 35.9136 90.3637 36.1102C91.0442 36.3113 91.7018 36.4119 92.3364 36.4119C93.1135 36.4119 93.8953 36.3113 94.6724 36.1102C95.4495 35.909 96.1577 35.5981 96.7923 35.1683C97.4269 34.7431 97.9373 34.1899 98.3236 33.5132C98.7144 32.8366 98.9076 32.0227 98.9076 31.0672C98.9076 29.7641 98.4339 28.6714 97.482 27.7936C96.5348 26.9158 95.353 26.0882 93.9412 25.311C92.5295 24.5337 90.9937 23.7565 89.3382 22.9792C87.6828 22.202 86.1469 21.3013 84.7352 20.2726C83.3235 19.2439 82.1417 18.0048 81.1944 16.5509C80.2471 15.097 79.7689 13.3185 79.7689 11.2108C79.7689 9.30422 80.2425 7.69028 81.1944 6.35982C82.1417 5.03392 83.3235 3.92749 84.7352 3.04965C86.1469 2.17182 87.715 1.53173 89.444 1.12939C91.173 0.727049 92.7916 0.525879 94.2999 0.525879C95.6611 0.525879 97.1372 0.690473 98.719 1.01509C100.301 1.3397 101.763 1.87921 103.101 2.63359C104.439 3.38341 105.548 4.35269 106.426 5.5277C107.304 6.70729 107.741 8.17492 107.741 9.92602C107.741 11.4805 107.313 12.7104 106.463 13.6111C105.612 14.5118 104.43 14.9644 102.922 14.9644C101.414 14.9644 100.076 14.4889 99.0501 13.5379C98.0293 12.587 97.2981 11.3845 96.8613 9.92602C97.689 9.92602 98.3236 9.66084 98.7604 9.13505C99.1973 8.60927 99.418 7.94632 99.418 7.14164C99.418 5.63743 98.857 4.45784 97.7396 3.60744C96.6175 2.75704 95.376 2.33184 94.0148 2.33184C92.41 2.33184 91.0672 2.84391 89.9958 3.87262C88.9244 4.90133 88.391 6.24094 88.391 7.89603C88.391 9.14877 88.8876 10.2278 89.89 11.1285C90.8879 12.0292 92.1295 12.8704 93.6148 13.6477C95.1001 14.4249 96.7049 15.1884 98.4339 15.9428C100.163 16.6927 101.768 17.5979 103.253 18.6495C104.738 19.7011 105.98 20.9447 106.978 22.3711C107.976 23.7976 108.477 25.5441 108.477 27.597C108.477 29.6498 107.93 31.3689 106.835 32.7497C105.741 34.1305 104.389 35.2186 102.784 36.0233C101.179 36.828 99.4364 37.3903 97.5602 37.7149C95.6841 38.0396 93.9459 38.2042 92.3364 38.2042L92.341 38.2224Z" fill="#AD1E23"/>
<path d="M143.393 7.76346C143.489 7.56229 143.82 7.26053 144.377 6.86276C144.938 6.46042 145.618 5.98493 146.423 5.43629C147.228 4.88307 148.079 4.3207 148.98 3.74463C149.881 3.16855 150.732 2.64276 151.537 2.1627C152.341 1.6872 153.036 1.29858 153.62 0.996823C154.204 0.695067 154.572 0.544189 154.714 0.544189C156.37 0.544189 157.804 0.868805 159.023 1.52261C160.241 2.17641 161.248 3.05425 162.053 4.15611C162.858 5.25797 163.465 6.53815 163.879 7.99206C164.293 9.44597 164.5 10.9502 164.5 12.5047V27.2404C164.5 28.0954 164.546 29.0189 164.647 30.0248C164.743 31.0306 164.913 32.0045 165.157 32.96C165.401 33.911 165.778 34.7889 166.288 35.5935C166.799 36.3982 167.443 37.02 168.224 37.4726H150.185C150.962 37.02 151.596 36.3845 152.084 35.5524C152.571 34.7248 152.934 33.847 153.178 32.9189C153.422 31.9908 153.592 31.0261 153.689 30.0248C153.785 29.0235 153.836 28.0954 153.836 27.2404V12.8019C153.836 12.052 153.762 11.2748 153.615 10.4701C153.468 9.67 153.224 8.93848 152.884 8.28924C152.544 7.64001 152.07 7.11423 151.458 6.71189C150.847 6.30955 150.106 6.10838 149.233 6.10838C148.359 6.10838 147.6 6.30955 146.97 6.71189C146.336 7.11423 145.802 7.6263 145.365 8.25267C144.929 8.87904 144.598 9.59685 144.381 10.397C144.161 11.2016 144.027 12.0017 143.981 12.8019V27.2404C143.981 28.0954 144.027 29.0189 144.128 30.0248C144.225 31.0306 144.395 32.0045 144.639 32.96C144.883 33.911 145.26 34.7889 145.77 35.5935C146.281 36.3982 146.924 37.02 147.706 37.4726H129.666C130.444 37.02 131.078 36.3845 131.566 35.5524C132.053 34.7248 132.416 33.847 132.66 32.9189C132.904 31.9908 133.074 31.0261 133.17 30.0248C133.267 29.0235 133.318 28.0954 133.318 27.2404V12.8019C133.318 12.052 133.244 11.2748 133.097 10.4701C132.95 9.67 132.706 8.93848 132.366 8.28924C132.025 7.64001 131.552 7.11423 130.94 6.71189C130.329 6.30955 129.588 6.10838 128.715 6.10838C127.206 6.10838 126.038 6.64788 125.211 7.72688C124.383 8.80589 123.845 10.0449 123.606 11.4485V27.2404C123.606 28.0954 123.643 29.0189 123.716 30.0248C123.79 31.0306 123.946 32.0045 124.19 32.96C124.433 33.911 124.797 34.7889 125.284 35.5935C125.772 36.3982 126.429 37.02 127.257 37.4726H109.217C109.994 37.02 110.629 36.3845 111.116 35.5524C111.604 34.7248 111.981 33.847 112.248 32.9189C112.514 31.9908 112.698 31.0261 112.795 30.0248C112.891 29.0235 112.942 28.0954 112.942 27.2404V16.5601C112.942 15.5085 112.845 14.5438 112.648 13.666C112.455 12.7881 112.183 11.9743 111.843 11.2199C111.503 10.4701 111.075 9.72944 110.565 9.00248C110.054 8.27553 109.479 7.512 108.849 6.70731C110.555 6.40556 111.999 6.11752 113.195 5.8432C114.386 5.56887 115.508 5.23054 116.556 4.8282C117.605 4.42586 118.676 3.93665 119.771 3.36057C120.865 2.78449 122.143 2.04382 123.606 1.14313V7.00907C123.946 6.65702 124.654 6.13124 125.726 5.43171C126.797 4.72762 127.928 4.01438 129.124 3.28742C130.315 2.56046 131.414 1.92038 132.412 1.37173C133.41 0.818512 134.007 0.544189 134.2 0.544189C136.73 0.544189 138.767 1.28486 140.298 2.76163C141.829 4.24298 142.892 6.08552 143.476 8.28924L143.402 7.76346H143.393Z" fill="#AD1E23"/>
<path d="M102.554 56.9998C102.554 55.2029 102.986 53.6667 103.851 52.3957C104.715 51.1247 105.824 50.0731 107.185 49.2501C108.541 48.4272 110.022 47.8282 111.627 47.4533C113.232 47.0784 114.772 46.8909 116.253 46.8909C119.706 46.8909 123.15 46.9047 126.581 46.9275C130.011 46.955 133.456 46.9412 136.909 46.8909C137.056 46.8909 137.378 46.7904 137.87 46.5892C138.362 46.388 138.684 46.2417 138.831 46.1411C140.905 45.1444 142.606 43.6951 143.94 41.7977C144.915 40.4078 145.72 38.9036 146.354 37.3491C146.382 37.2805 146.809 37.3262 147.177 37.3811C147.467 37.4222 147.72 37.4725 147.72 37.4725V46.8909C147.872 46.8909 182.833 46.8909 182.985 46.8818C183.785 46.8498 184.618 46.7401 185.487 46.5526C186.521 46.3286 187.473 45.9674 188.338 45.4645C189.202 44.9661 190.333 44.1843 191.124 42.9818C192.683 40.2798 191.791 37.2576 189.041 36.1649C189.69 35.0448 192.159 36.0003 193.037 35.2322C194.431 34.0069 194.403 31.3643 196.376 31.3643C198.151 31.3643 199.599 31.9769 200.708 33.1977C201.82 34.423 202.372 36.3661 202.372 38.1126C202.372 39.8591 201.954 42.1863 201.112 43.407C199.406 45.9217 196.656 47.4853 193.709 48.162C192.177 48.514 190.697 48.6878 189.267 48.6878H147.72V75.2011C147.72 76.6504 148.203 77.6837 149.164 78.3101C150.125 78.9365 151.247 79.2474 152.534 79.2474C153.224 79.2474 153.905 79.1742 154.572 79.0233C155.238 78.8724 155.868 78.6256 156.461 78.2735V79.0233C154.981 80.4224 153.266 81.57 151.316 82.4707C149.366 83.3713 147.352 83.8194 145.283 83.8194C143.802 83.8194 142.528 83.5451 141.471 82.9964C140.408 82.4478 139.544 81.7117 138.877 80.7881C138.21 79.8646 137.718 78.7902 137.396 77.5694C137.075 76.3487 136.914 75.0594 136.914 73.7106V48.6969H119.807C118.966 48.6969 118.129 48.8112 117.292 49.0352C116.451 49.2593 115.701 49.5976 115.034 50.0457C114.367 50.4937 113.825 51.0698 113.406 51.7693C112.988 52.4689 112.776 53.2918 112.776 54.2428C112.776 55.2441 113.034 56.1173 113.554 56.8626C114.073 57.6124 114.749 58.1885 115.591 58.5863C113.912 61.4804 111.47 62.9297 108.261 62.9297C106.532 62.9297 105.152 62.3673 104.113 61.2426C103.078 60.1179 102.559 58.7097 102.559 57.0089L102.554 56.9998Z" fill="#AD1E23"/>
<path d="M76.2097 54.691C76.3063 54.4898 76.6374 54.1926 77.203 53.7903C77.764 53.3925 78.4538 52.917 79.2631 52.3684C80.0724 51.8197 80.9277 51.2574 81.8382 50.6813C82.7441 50.1098 83.604 49.584 84.4133 49.1085C85.2227 48.633 85.9216 48.249 86.5102 47.9472C87.0988 47.6454 87.4667 47.4991 87.6138 47.4991C89.2785 47.4991 90.727 47.8237 91.9501 48.473C93.1733 49.1222 94.1942 49.9955 95.0035 51.0928C95.8128 52.1901 96.4244 53.4657 96.8429 54.9104C97.2567 56.3598 97.4683 57.8548 97.4683 59.4048V74.0856C97.4683 74.936 97.5142 75.8596 97.6154 76.8563C97.712 77.8576 97.8821 78.8314 98.1304 79.7778C98.3741 80.7288 98.7558 81.6021 99.2708 82.3976C99.7859 83.1977 100.434 83.8195 101.221 84.2676H83.0568C83.8385 83.8195 84.4777 83.1794 84.9697 82.3565C85.4572 81.5335 85.825 80.6602 86.0734 79.7367C86.3171 78.8131 86.4872 77.853 86.5884 76.8517C86.685 75.855 86.7355 74.9314 86.7355 74.081V59.7019C86.7355 58.9521 86.662 58.1794 86.5148 57.3793C86.3677 56.5792 86.1239 55.8568 85.7791 55.2076C85.4342 54.5584 84.9559 54.0372 84.3443 53.6348C83.7328 53.2371 82.9832 53.0359 82.1003 53.0359C81.2174 53.0359 80.4587 53.2371 79.8195 53.6348C79.1803 54.0372 78.6423 54.5447 78.2009 55.171C77.7594 55.7974 77.4283 56.5061 77.2076 57.3062C76.9869 58.1063 76.8535 58.9064 76.8029 59.7019V74.081C76.8029 74.9314 76.8489 75.855 76.9501 76.8517C77.0466 77.853 77.2168 78.8268 77.4651 79.7732C77.7088 80.7242 78.0905 81.5975 78.6055 82.393C79.1205 83.1931 79.7689 83.8149 80.5552 84.263H62.3915C63.1732 83.8149 63.8124 83.1748 64.3044 82.3519C64.7918 81.5289 65.1597 80.6557 65.408 79.7321C65.6517 78.8085 65.8219 77.8484 65.9231 76.8471C66.0196 75.8504 66.0702 74.9269 66.0702 74.0765V59.6974C66.0702 58.9476 65.9966 58.1749 65.8495 57.3748C65.7023 56.5747 65.454 55.8523 65.1137 55.203C64.7689 54.5538 64.2906 54.0326 63.679 53.6303C63.0674 53.2325 62.3179 53.0313 61.435 53.0313C59.9129 53.0313 58.7403 53.5662 57.908 54.6407C57.0757 55.7151 56.5331 56.9496 56.2894 58.3486V74.0765C56.2894 74.9269 56.3261 75.8504 56.3997 76.8471C56.4733 77.8484 56.6296 78.8223 56.8779 79.7687C57.1217 80.7197 57.4895 81.5929 57.9816 82.3885C58.469 83.1886 59.1312 83.8104 59.9681 84.2584H41.8043C42.586 83.8104 43.2252 83.1703 43.7173 82.3473C44.2047 81.5243 44.5864 80.6511 44.8577 79.7275C45.1244 78.804 45.3083 77.8438 45.4095 76.8426C45.506 75.8459 45.5566 74.9223 45.5566 74.0719V63.4373C45.5566 62.3903 45.4601 61.4302 45.2623 60.5523C45.0646 59.6791 44.7979 58.8653 44.453 58.12C44.1081 57.3702 43.6805 56.6341 43.1654 55.9117C42.6504 55.1893 42.0756 54.4258 41.4364 53.6257C43.1516 53.3239 44.6093 53.0405 45.8095 52.7661C47.0097 52.4918 48.1363 52.1535 49.194 51.7557C50.247 51.3579 51.3276 50.8687 52.4313 50.2972C53.5349 49.7257 54.8225 48.985 56.2894 48.0889V53.932C56.6296 53.5845 57.3424 53.0587 58.423 52.3592C59.4991 51.6597 60.6395 50.951 61.8443 50.2241C63.0444 49.5017 64.1481 48.8662 65.1551 48.313C66.1576 47.7643 66.76 47.49 66.9577 47.49C69.5052 47.49 71.5515 48.2261 73.0966 49.6983C74.6417 51.1705 75.7085 53.0085 76.2971 55.203L76.2235 54.6773L76.2097 54.691Z" fill="#AD1E23"/>
<path d="M55.7329 24.9313C56.6296 26.2526 57.6597 27.4231 58.8231 28.4518C59.9865 29.4805 61.2464 30.2806 62.6076 30.8567C63.9687 31.4328 65.4264 31.7391 66.9853 31.7757C68.5395 31.8168 70.1628 31.5059 71.8504 30.8521C72.3654 30.6509 72.9724 30.3766 73.6714 30.02C74.3703 29.668 75.0647 29.2748 75.7637 28.8404C76.458 28.4106 77.0972 27.9306 77.672 27.4094C78.2514 26.8882 78.6515 26.3669 78.8814 25.8503L79.608 26.0515C79.1527 29.5674 78.1319 32.4935 76.5408 34.8389C74.9497 37.1844 72.4206 39.0269 68.9534 40.3803C66.5162 41.3313 64.0791 41.7656 61.6465 41.6925C59.2093 41.6193 56.9469 41.0844 54.8546 40.0968C52.7623 39.1092 50.8816 37.7285 49.2078 35.9545C47.5385 34.1806 46.2234 32.082 45.2669 29.6542C44.3104 27.2265 43.8276 24.9359 43.708 22.5081C43.5885 20.0804 43.8966 17.7761 44.6369 15.6043C45.3773 13.4326 46.5361 11.4712 48.1179 9.72467C49.6998 7.97814 51.7323 6.62024 54.2154 5.65097C56.4641 4.77314 58.6483 4.31593 60.7682 4.27021C62.8835 4.22906 64.8424 4.59483 66.6358 5.37665C68.4292 6.15847 70.0386 7.32434 71.4595 8.86969C72.8805 10.415 74.0301 12.3124 74.913 14.5528L75.5751 16.2353L55.7283 24.9313H55.7329ZM63.2881 12.6188C62.9754 11.8278 62.4926 11.046 61.8396 10.2779C61.1867 9.50978 60.4371 8.87427 59.5864 8.36677C58.7403 7.86384 57.8482 7.52094 56.9147 7.3472C55.9812 7.17346 55.0662 7.26033 54.1787 7.60323C53.1486 8.00558 52.468 8.75539 52.1462 9.84811C51.8197 10.9454 51.6955 12.1387 51.7737 13.428C51.8473 14.7173 52.045 16.0021 52.3577 17.2777C52.6704 18.5579 52.9647 19.5454 53.2406 20.245C53.6452 21.2737 54.1281 22.2932 54.6937 23.3128C55.595 22.8556 56.4871 22.371 57.3654 21.868C58.2483 21.3651 59.1312 20.8576 60.0141 20.3547C61.5131 19.4997 62.6076 18.4299 63.2881 17.1405C63.9687 15.8512 63.9687 14.3424 63.2881 12.6188Z" fill="#AD1E23"/>
<path d="M4.08868 43.6219V16.1713C4.08868 15.1198 3.99211 14.1551 3.79438 13.2772C3.60124 12.3994 3.32994 11.5856 2.98965 10.8312C2.64937 10.0768 2.22172 9.3407 1.71129 8.61374C1.20087 7.88679 0.626063 7.12326 -0.00392151 6.31857C1.70209 6.01682 3.146 5.72878 4.34159 5.45446C5.53258 5.18013 6.6546 4.8418 7.70304 4.43946C8.75148 4.03712 9.82292 3.54791 10.9173 2.97183C12.0118 2.39576 13.2901 1.68251 14.7524 0.827541V6.24085C15.3824 5.49103 16.0538 4.75036 16.7619 4.02341C17.4655 3.29645 18.1737 2.6335 18.8818 2.02999C19.5854 1.42648 20.2935 0.941843 21.0017 0.562362C21.7052 0.187454 22.3536 0 22.9376 0C25.4668 0 28.1706 0.502926 30.1158 1.5042C32.0609 2.51006 34.167 3.84967 35.5051 5.52761C36.8433 7.21013 37.8549 9.14867 38.5355 11.357C39.2161 13.5653 39.5563 15.8696 39.5563 18.2745C39.5563 20.8303 39.1931 23.29 38.4619 25.6446C37.7308 28.0038 36.6455 30.0841 35.2108 31.8855C33.7761 33.6914 31.5597 35.1316 29.4904 36.2106C27.4211 37.2896 24.6115 37.8292 21.9812 37.8292C20.3257 37.8292 18.9876 37.7149 17.9621 37.4908C16.9413 37.2668 15.8698 36.9513 14.7478 36.549V43.6174C14.7478 44.4678 14.7846 45.3959 14.8582 46.4017C14.9318 47.403 15.1019 48.3677 15.3686 49.2959C15.6353 50.224 16.0124 51.0881 16.4998 51.8928C16.9873 52.6929 17.6172 53.3467 18.399 53.8496H0.363953C1.19167 53.3467 1.84924 52.6929 2.33668 51.8928C2.82411 51.0881 3.18739 50.224 3.4311 49.2959C3.67482 48.3677 3.84496 47.403 3.94153 46.4017C4.03809 45.3959 4.08868 44.4723 4.08868 43.6174V43.6219ZM14.7524 7.14612V26.1704C14.7524 27.1214 14.826 28.1776 14.9732 29.3297C15.1203 30.4819 15.41 31.5472 15.8515 32.5256C16.2929 33.504 16.8861 34.3178 17.6402 34.9716C18.3944 35.6254 19.3784 35.95 20.597 35.95C22.1053 35.95 23.3745 35.5111 24.3953 34.6333C25.4162 33.7555 26.2347 32.6673 26.8417 31.3643C27.4487 30.0612 27.8901 28.6713 28.1568 27.19C28.4235 25.7132 28.5569 24.3462 28.5569 23.0889C28.5569 21.132 28.3132 19.1798 27.8258 17.2229C27.3383 15.2661 26.5842 13.5013 25.5633 11.9193C24.5425 10.3374 23.2365 9.06181 21.6547 8.08339C20.0728 7.10497 18.2104 6.61576 16.0676 6.61576C15.7273 6.61576 15.2858 6.79407 14.7524 7.14154V7.14612Z" fill="#AD1E23"/>
<path d="M186.397 0.114258C188.926 0.114258 191.267 0.617184 193.41 1.61846C195.553 2.62431 197.415 3.98679 198.997 5.71502C200.579 7.44326 201.811 9.45039 202.685 11.7318C203.563 14.0133 204 16.4319 204 18.9877C204 21.5435 203.563 23.9621 202.685 26.2435C201.807 28.525 200.579 30.5184 198.997 32.2238C197.415 33.9292 195.553 35.2825 193.41 36.2838C191.267 37.285 188.931 37.788 186.397 37.788C183.864 37.788 181.514 37.285 179.348 36.2838C177.182 35.2825 175.32 33.9292 173.761 32.2238C172.202 30.5184 170.974 28.525 170.073 26.2435C169.172 23.9621 168.721 21.5435 168.721 18.9877C168.721 16.4319 169.172 14.0133 170.073 11.7318C170.974 9.45039 172.202 7.44326 173.761 5.71502C175.32 3.98679 177.182 2.61974 179.348 1.61846C181.514 0.617184 183.864 0.114258 186.397 0.114258ZM188.733 35.7626C189.851 35.7626 190.729 35.3373 191.364 34.4824C191.998 33.632 192.481 32.617 192.826 31.4374C193.166 30.2624 193.387 29.0462 193.483 27.7889C193.58 26.5361 193.631 25.5303 193.631 24.7805C193.631 23.8295 193.557 22.5996 193.41 21.0954C193.263 19.5912 193.019 18.0138 192.679 16.3588C192.338 14.7037 191.911 13.0395 191.4 11.3569C190.89 9.67899 190.242 8.17479 189.464 6.84432C188.683 5.51842 187.795 4.4257 186.797 3.5753C185.799 2.7249 184.641 2.29513 183.33 2.29513C182.309 2.29513 181.505 2.69747 180.921 3.49758C180.337 4.30226 179.9 5.25324 179.605 6.35511C179.311 7.45697 179.132 8.58627 179.058 9.73843C178.985 10.8906 178.948 11.8187 178.948 12.5228C178.948 13.4235 179.021 14.6168 179.169 16.0936C179.316 17.5749 179.546 19.1751 179.863 20.908C180.18 22.6408 180.594 24.3827 181.104 26.1338C181.615 27.8895 182.236 29.4806 182.967 30.9116C183.698 32.3381 184.539 33.504 185.487 34.4092C186.439 35.3099 187.519 35.7626 188.738 35.7626H188.733Z" fill="#AD1E23"/>
<path d="M132.734 81.0304C132.246 81.0304 131.846 80.8566 131.529 80.5046C131.212 80.1525 130.982 79.7273 130.834 79.229C130.687 78.726 130.591 78.214 130.54 77.6882C130.49 77.1624 130.467 76.7235 130.467 76.3714V62.6096C130.467 60.5521 130.126 58.8011 129.446 57.3471C128.765 55.8932 127.813 54.6771 126.599 53.6986C125.381 52.7202 123.983 52.007 122.401 51.5544C120.819 51.1017 119.104 50.8777 117.251 50.8777L116.74 51.5544C117.665 51.5544 118.345 51.879 118.787 52.5328C119.223 53.1866 119.518 53.973 119.665 54.9011C119.812 55.8292 119.872 56.7802 119.849 57.7586C119.826 58.737 119.812 59.528 119.812 60.1269C118.644 61.43 117.048 62.6461 115.03 63.7754C113.006 64.9047 111.011 66.0706 109.043 67.2731C107.07 68.4755 105.364 69.806 103.929 71.2599C102.494 72.7138 101.772 74.4192 101.772 76.376C101.772 79.2336 102.586 81.291 104.219 82.5437C105.851 83.7965 107.953 84.4228 110.537 84.4228C112.436 84.4228 114.202 84.1074 115.83 83.481C117.462 82.8546 118.911 81.7893 120.175 80.2851C120.709 81.5882 121.638 82.6031 122.953 83.3301C124.268 84.0571 125.583 84.4183 126.898 84.4183C127.726 84.4183 128.457 84.3451 129.087 84.1942C129.722 84.0433 130.306 83.8422 130.839 83.5953C131.372 83.3438 131.91 83.0192 132.444 82.6169C132.977 82.2145 133.561 81.7893 134.196 81.3367V80.5869C133.759 80.8886 133.272 81.0395 132.734 81.0395V81.0304ZM119.807 78.6255C118.883 79.1787 117.931 79.453 116.961 79.453C115.991 79.453 115.283 79.2656 114.699 78.8906C114.115 78.5157 113.664 78.0265 113.347 77.423C113.029 76.8241 112.809 76.1337 112.689 75.3565C112.565 74.5792 112.505 73.7882 112.505 72.9881C112.505 71.8863 112.763 70.8575 113.273 69.9066C113.783 68.9556 114.404 68.064 115.135 67.2365C115.867 66.4089 116.658 65.618 117.508 64.8682C118.359 64.1138 119.127 63.4143 119.807 62.7604V78.63V78.6255Z" fill="#AD1E23"/>
</g>
<defs>
<clipPath id="clip0_184_16153">
<rect width="204" height="84.4138" fill="white"/>
</clipPath>
</defs>
</svg>
