<?xml version="1.0" encoding="utf-8"?>
<!-- Generator: Adobe Illustrator 27.8.1, SVG Export Plug-In . SVG Version: 6.00 Build 0)  -->
<svg version="1.1" id="Layer_1" xmlns="http://www.w3.org/2000/svg" xmlns:xlink="http://www.w3.org/1999/xlink" x="0px" y="0px"
	 viewBox="0 0 493.92 83.99" style="enable-background:new 0 0 493.92 83.99;" xml:space="preserve">
<style type="text/css">
	.st0{fill:#AD1E23;}
</style>
<g>
	<path class="st0" d="M395.43,70.09c-9.7-11.38,3.5-35.9-10.4-45.76c-7.69-3.46-17.72-2.1-24.84,2.2c-0.23,0.15-0.44,0.33-0.91,0.07
		c-6.56-5.18-15.2-2.46-22.2,0.79c-0.7,0.33-0.92,0.35-1.17-0.57c-1.37-10.45-22.06-0.36-26.27,4.12c-5.96,2.84-5.4,14.1,3,12.31
		c0.51-0.08,0.67,0.05,0.6,0.52c-0.31,8,3.21,22.43-2.06,28.69c-5.44,7.86,8.1,6.93,12.62,6.76c5.03-1.13,11.55,1.63,15.51-2.27
		c0.18-0.2,0.41-0.68,0.74-0.29c4.09,4.69,17.08,2.14,23,2.02c1.05-1.24,2.52-2.06,3.43-3.45c0.15-0.22,0.56-0.76,0.78-0.12
		c3.66,6.31,14.43,2.41,20.62,3.39c0-0.01,0-0.03,0-0.04c5.32,0.14,7.05,0.06,8.8-4.53C397.42,72.3,396.44,71.12,395.43,70.09z
		 M339.44,69.17c-1.72-2.03-1.69-4.46-1.87-6.9c-0.13-6.63-1.49-14.15,1.11-20.34c4.71-3.45,1.92,10.54,2.62,12.87
		C341.4,56.52,343.1,74.47,339.44,69.17z M366.27,70.4c-2.82-8.48-1.83-17.82-1.83-26.66c0.1-2.35,4.7-6.91,4.96-2.46
		c0.03,2.43,0.01,4.86,0.01,7.3c0.23,5.49-0.13,10.83,0.67,16.3C370.16,66.33,367.57,72.88,366.27,70.4z M394.43,73.83
		c-3.39,4.02-15.19,1.83-20.55,2.49c-2.88,0.19-6.96-2.03-4.07-5.03c4.31-4.67,1.42-11.8,2.13-17.45
		c0.04-5.96,1.48-23.75-8.62-14.28c-2.11,5.32-2.04,26.57,0.92,31.43c3.46,6.79-5.66,6.09-9.86,5.93c0,0.02,0,0.05,0,0.07
		c-4.8-0.25-16.61,2.12-11.46-6.41c1.33-1.58,0.78-3.69,0.81-5.5c-0.18-8.36,0.2-16.79-0.26-25.1c-1.11-2.75-3.93-1.83-5.87-0.65
		c-2.98,1.18-2.69,3.96-2.76,6.26c1.05,8.01-3.19,19.61,3.12,25.62c1.93,1.42,1.42,2.71-0.09,4.48c-2.52,2.96-5.56,1.27-8.31,1.55
		c-3.54-0.28-24.39,1.76-15.24-5.15c2.84-4.61,1.99-10.82,1.56-16.01c-1.49-3.86,3.12-16.99-3.51-15.52
		c-1.51,0.32-2.79,0.39-3.52-1.15c-3.34-8.63,14.51-13.75,20.88-14.52c5.01-0.53,2.64,7.24,6.13,5.72
		c19.1-11.89,20.63,2.69,25.77-1.93c34.25-14.47,26.51,12.85,27.79,35.55C388.94,68.38,395.16,70.1,394.43,73.83z"/>
	<path class="st0" d="M241,71.83c-9.49-11.8,3.41-32.89-9.46-43.5c-6.93-3.3-15.77-2.2-22.25,2.04c-0.23,0.17-0.42,0.25-0.86,0.01
		c-5.83-4.76-13.56-2.34-19.76,0.82c-0.64,0.34-0.9,0.38-1.05-0.53c-2.62-10.75-20.12,0.65-24.94,5.1c-4,3.63-2.62,11.9,4.01,10.57
		c0.29-0.03,0.68-0.2,0.64,0.36c-0.05,7.67,2.67,21.05-1.87,27.18c-6.08,10.33,15.87,5.46,20.81,6.27c1.8,0.03,3.11-0.57,4.27-1.82
		c0.16-0.17,0.3-0.82,0.77-0.3c2.51,2.79,5.94,2.48,9.13,2.44c3.5-0.04,6.99-0.81,10.52-0.2c1.67-0.52,2.6-2.62,3.98-3.72
		c0.14-0.15,0.37-0.61,0.59-0.07c2.49,4.94,8.9,2.85,13.33,3.24c0-0.02,0-0.04,0-0.06C234.25,79.96,246.09,80.45,241,71.83z
		 M191.77,71.83c-4.39-3.61-2.68-14.68-2.8-20.19c-0.13-2.38-0.52-6.63,2.3-7.19c1.02,0.07,1.11,0.88,1.13,1.54
		C191.81,54.23,194.44,64.37,191.77,71.83z M214.65,71.94c-2.56-8.05-1.34-16.69-1.58-25.08c0.29-1.73,1.07-3.15,2.62-3.97
		c3.38-1.29,1.19,6.36,1.78,8.27c-0.03,5.72,0.35,11.3,0.39,17.01C217.64,69.26,215.57,74.17,214.65,71.94z M238.26,76.75
		c-3.65,0.07-25.53,4.07-20.3-4.09c4.43-7.47,0.7-19.77,1.56-28.43c0.03-2.25-1.98-4.44-3.63-3.94c-6.99,1.41-4.25,9.57-4.76,14.74
		c-0.3,4.5,0.38,8.95,0.24,13.44c3.43,9.27,2.86,9.97-7.26,9.67c0,0.02,0,0.04,0,0.06c-4.55-0.18-14.84,1.84-10.31-6.02
		c2.16-8.77-0.19-18.48,0.8-27.57c-0.85-6.99-9.4-0.72-8.01,3.73c1.01,7.45-2.76,18.49,2.62,24.23c1.91,1.48,1.58,2.62,0.11,4.42
		c-2.29,2.8-5.09,1.17-7.61,1.45c-4.63,0.51-9.27-0.53-13.93-0.4c-0.7,0.02-0.98-0.36-1.24-0.9c-1.34-2.73,4.1-2.98,3.3-10.1
		c0.6-4.7-0.5-9.39-0.38-14.1c-0.51-2.86,2.21-10.74-3.01-9.18c-2.76,1.1-4.44-2.49-3.38-4.58c1.27-4.66,21.34-15.35,22.29-7.32
		c0.52,3.09,1.26,3.5,3.73,1.63c15.38-9.96,17.24,3.4,21.44-1c4.75-3.72,10.88-3.36,16.54-3.25c9.91,1.41,7.59,14.4,8.03,21.59
		c1.08,7.06-2.3,16.03,3.7,21.35C240.5,73.94,240.33,75.62,238.26,76.75z"/>
	<path class="st0" d="M61.17,7.07C47.57-3.78,28.95,2.62,13.19,0C6.28-0.14-3.41,6.46,3.41,13.28c1.4,1.38,3.09,2.72,2.69,5.1
		c0.8,13.1,0.98,26.34,0.52,39.6C7.8,66.41-4.61,73.29,1.9,81.34c-0.33,1.45,0.5,1.2,1.3,1.28c1.55,0.16,3.27,0.03,4.59,0.68
		c4.34,1.18,8.61,0.58,13.02,0.16c6.15,0.19,20.65,2.26,22.6-5.04c2.48-6.41-3.9-9.32-6.25-14.01c-0.8-20.77-0.93-12.85,15.36-18.94
		C70.63,41.42,75.13,18.7,61.17,7.07z M34.68,51.67c0.23,5.63-2.42,12.59,2.58,16.86c4.46,2.73,7.03,12.4-1.23,12.15
		c-7.49,2.01-15-0.19-22.53,0.13C9.77,81.2,3.2,82.45,2.84,77.07c0.04-7.52,7.88-12,6.15-20.06c0.55-13,0.19-25.87-0.36-38.78
		c0.93-4.54-5.22-5.74-5.02-10.1C7.8-2.48,23.87,4.96,32.65,2.89c15.3-1.63,35.03,4.38,34.33,22.87
		C64.5,50.72,33.5,40.84,34.68,51.67z"/>
	<path class="st0" d="M449.11,63.66c-1.46,0.3-1.07-1.64-1.27-2.51c-0.65-24.41,7.52-42.4-25.98-39.93
		c-7.86,0.86-16.22,3.67-19.75,11.47c-2.29,5.74-0.11,13.33,5.93,14.82c1.18,0.42-2.12,2.14-2.36,2.98
		c-5.18,5.05-5.13,15.05-1.77,21.03c3.88,4.51,10.32,6.36,16.33,6.39c17.41-4.59,6.43-0.39,19.27,0.79
		C453.33,80.16,463.38,61.57,449.11,63.66z M452.1,71.51c-4.72,5.25-13.65,7.38-19.45,2.46c-0.91-0.83-2.03-0.95-3.32-0.5
		c-9.14,4.72-25.15,1.92-25.3-10.49C402.37,48.3,414.99,50,422.9,42.43c9.33-2.6,9.94-12.01-0.77-11.8
		c-0.97,0.22-2.39,0.13-2.79,1.21c-0.09,0.95,1.5,1.17,1.45,2.33c3.01,7.17-4.55,11.83-10.93,11.36
		c-7.18-1.25-8.63-11.81-3.12-16.42c9.01-8.5,26.16-7.79,36.23-1.68c3.71,3.96,3.13,9.81,3.2,14.81c0.17,7.86-0.89,15.71-0.45,23.57
		c0.46,2.17,4.37-0.83,6.01-0.66C454.37,65.85,454.4,69.48,452.1,71.51z M423.41,34.2c1.1-1.89,4.42,0.25,4,2.21
		c0.16,1.49-2.74,4.14-3.43,2.37C425.11,37.08,422.25,35.82,423.41,34.2z"/>
	<path class="st0" d="M89.48,28.55c-8.63-0.64-17.68,3.48-21.25,11.38c-6.61,5.24-8.79,18.09-6.19,25.86
		c4.47,12.81,22.04,20.92,34.42,14.64c5.28-3.32,12.78-10.16,8.21-16.73C123.12,64.86,113.21,25.39,89.48,28.55z M91.92,60.82
		c-2.8,0.77-6.74-1.22-8.87,0.9c-1.74,6.63,7.56,8.32,10.37,4.11c2.51-3.51,7.96-2.49,9.7,0.06c2.34,5.19-5.62,11.57-10.03,13.36
		c-12.31,3.97-26.46-4.93-29.4-17.3c-1.72-14.81,9.24-31.24,24.89-31.34c15.84-1.97,28.54,17.26,20.41,30.62
		C103.48,61.38,97.6,60.94,91.92,60.82z M92.75,62.96c-0.93,2.48-3.42,2.82-5.59,3.01c-1.67,0.44-3.29-3.26-0.82-2.63
		C88.46,63.28,90.65,62.65,92.75,62.96z"/>
	<path class="st0" d="M487.44,60.25c-5.05,3.7-2.49-8.48-3.08-11.04c-0.05-4.6,0.16-9.21-0.26-13.81c-0.07-0.74-0.08-1.86,0.6-1.96
		c4.82-1.02,11.06-1.88,8.71-8.2c-0.02-1.75-2.67-4.29-3.83-4.28c-5.82,0.04-4.85,0.16-4.92-4.94c0.27-16.46-10.56-6.88-16.93-0.34
		c-4.59,3.64-9.01,7.44-12.83,11.9c-3.27,5.06,3.42,7.17,7.37,6.53c0.34,0.01,0.92-0.22,0.9,0.44c0.99,4.21-0.14,8.27,0.23,12.49
		c0.98,10.66-5.71,29.46,10.06,31.18c8.07-1.04,21.17-4.79,20.35-14.93C493.69,60.15,490.07,58.36,487.44,60.25z M491.08,67.05
		c-3.81,6.1-16.57,11.93-22.79,6.74c-4.82-4.91-2.1-12.59-2.25-18.76c-0.35-7.23-0.17-14.44,0.1-21.67
		c-0.58-3.48-7.37-0.21-9.01-3.12c3.48-7.71,11.88-12.12,17.44-18.32c4.6-5.34,8.83-2.22,8.15,4.12c-0.76,7.6-0.21,6.76,7.19,7.48
		c3.46,1.94,1.66,6.87-1.95,7c-2.64,0.13-7.18-0.55-5.94,3.58c0.46,9.27-0.38,19.38,0.49,28.93c0.43,2.34,2.06,0.72,2.71,0.26
		C489.38,60.96,492.25,61.83,491.08,67.05z"/>
	<path class="st0" d="M289.32,27.87c-16.33-11.92-42.36,2.71-43,22.46c-3.82,18.56,7.84,29.28,25.06,32.09
		c14.92,0.51,31.89-12.2,31.92-27.26C303.15,42.26,300.41,33.59,289.32,27.87z M276.02,79.45c-10.63,1.26-25.57-5.37-26.88-17.41
		c-2.47-13.43,2.75-29.8,17.02-33.89C305.73,16.21,313.57,75.06,276.02,79.45z"/>
	<path class="st0" d="M141.68,40.9c0.74-1.84,2.73-2.13,5.06-0.21c10.1,5.1,8.12-9.64,7.17-15.33c-0.47-4.19-6.17-3.23-8.53-0.55
		c-0.52,0.57-1,1.19-1.95,1.18c-2.59-0.01-5.18,0.18-7.62-0.38c-11.7-0.83-18.55,10.52-16.33,21.41c0.86,4.98,4.06,8.65,7.81,11.84
		c1.42,1.79,5.14,2.9,5.19,5.27c-1.43,0.76-3.62-0.62-4.63-1.74c-2.37-3.4-7.91-2.09-8.65,1.77c0.16,4.43,0.55,8.81,0.32,13.21
		c-0.22,4.25,5.37,5.56,7.9,2.41c1.61-2.05,2.3-2.22,4.27-0.61c9.14,4.28,22.9-1.36,24.03-12.15
		C159.3,48.17,144.76,49.61,141.68,40.9z M136.56,77.95c-3.39,0.37-7.81-4.9-9.47-1.58c-1.11,4.15-6.23,3.6-5.88-0.82
		c1.21-4.05-1.65-8.69,0.71-12.37c3.43-2.98,6.46,3.86,10.18,3.88c1.99,0.73,3.73-2.24,2.9-4.1c-5.1-6.09-13.9-9.78-13.69-19.1
		c-1.29-13.01,10.65-19.43,22.17-15.21c0.75,0.22,1.64-0.29,1.94-1.22c0.64-2.91,6.8-4.8,6.52-0.68c0.28,4.4,2.32,15.93-5.34,12.12
		c-3.39-3.78-8.16-0.84-6.85,3.86c1.48,2.18,3.31,3.89,5.63,5.38C161.4,55.19,154.27,81.14,136.56,77.95z"/>
	<path class="st0" d="M387.24,46.75c0.89,7.11-2.48,18.52,3.11,24.58c5.95,4.83-14.78,2.7-17.09,3.35c-1.72,0.17-2.78-1.9-1.55-2.85
		c4.86-4.17,1.06-17.66,2.07-24.31c-0.42-4.82,1.87-15.44-6.53-12.78c-2.1,1.77-7.12,2.28-7.53,5.12c-0.4,9.25,0.21,18.5,0.23,27.76
		c-0.01,1.1,0.3,1.94,1.16,2.58c7.68,7.99-12.08,4.4-15.84,4.77c-1.54,0.12-1.9-1.23-0.99-2.36c4.23-8,0.53-21.57,1.46-30.93
		c0.48-6.53-6.12-8.14-10.47-4.16c-5.72,2.8-1.1,23.88-2.2,30.82c0.01,1.33,0.83,2.19,1.77,2.76c1.45,0.98,3.33,4.19,0.38,4.14
		c-1.01-0.67-1.74,0.09-2.58,0.09c-5.16-0.02-10.31,0.02-15.47,0.02c-1.46,0.61-2.16-2.09-0.94-2.6c4.66-3.03,0.6-24.57,2.06-31.72
		c-0.23-7.33-5.91-0.54-7.39-3.83c-0.09-4.99,13.36-9.81,17.85-9.78c5.4,0.24,2.66,8.47,4.58,7.06c7.22-5.12,19.63-10.53,25.32-0.5
		c0.33,0.6,0.41,0.46,0.81,0.14c6.1-5.78,16.61-8.74,24.2-4.96C388.98,33.23,386.23,39.92,387.24,46.75z"/>
	<path class="st0" d="M233.32,48.31c-0.22,6.98-0.46,13.87,0.62,20.69c0.39,2.33,3.06,3.71,3.21,5.85c-1.17,1-17.36,2.02-17.91,0.24
		c-0.45-3.2,3.56-2.03,2.36-10.13c-1.39-5.39,3.74-31.27-6.18-26.66c-2.02,1.55-5.28,2.19-6.71,4.18c0.88,9.5-1.3,20.31,1.27,29.2
		c6.93,7.67-10.28,4.24-13.99,4.61c-1.17-0.11-1.99-0.79-1.2-1.8c3.69-5.46,1.47-25.15,1.07-32.67c-2.21-6.51-12.45-1.4-11.08,4.28
		c-0.35,7.56,0.59,15.18,0.22,22.78c-0.36,3.12,2.9,4.03,3.63,6.77c-5.33,2.2-11.9,0.42-17.67,0.96c-1.23,0.59-2.1-1.51-1.1-2.27
		c4.56-4.54,0.58-22.61,2-30.25c-0.3-6.69-4.98-0.81-6.51-3.37c-1.53-4.79,19.92-14.78,19.11-5.47c0.2,0.75-0.35,3.57,0.91,2.66
		c2.59-1.29,4.62-3.51,7.35-4.56c4.08-1.56,10.09-2.28,13.83,2c0.99,4.06,3.38,1.2,5.5-0.52c4.07-3.46,9.57-3.34,14.58-3.68
		C234.4,32.53,232.97,42.47,233.32,48.31z"/>
	<path class="st0" d="M480.43,44.49c1.07,4.26-3.3,24.86,4.63,21.08c1.13-0.51,2.8-1.99,3.86-0.67c2.47,5.89-22.25,13.64-20.7,3.59
		c-0.2-12.48-0.43-24.97,0.54-37.43c0.13-3.17-5.15,0.01-7.17-1.34c-5.82-1.37,13.01-14.32,14.46-17.22
		c9.31-7.15,1.49,13.14,6.2,12.2c2.06-0.22,6.68-1.02,6.99,1.78c-0.17,1.04-0.98,2.1-2.02,2.3c-2.01,0.91-6.54-1.11-6.81,1.93
		C480.46,35.29,480.43,39.89,480.43,44.49z"/>
	<path class="st0" d="M150.32,30.44c-0.54,1.67,0.99,8.67-2.3,6.8c-5.07-5.06-14.63-0.19-10.83,6.93
		c4.48,7.15,15.26,8.86,14.66,19.03c1.08,10.93-13.12,16.23-21.46,10.77c-4.64-3.08-3.53,2.76-6.37,2.83
		c-2.51-1.86,0.08-7.37-1.15-10.37c1.32-4.63,6.35,3.08,9.18,2.92c4.93,1.15,7.69-5.73,4.09-8.54c-5.92-5.11-13.3-10.54-12.57-19.37
		c0.47-10.62,11.67-14.08,20.26-10.47c3.83,1.61,1.32-4.46,4.45-4.1C150.2,27.08,150.27,28.86,150.32,30.44z"/>
	<path class="st0" d="M59.72,14.35C51.5,0.77,25.5,8.23,11.26,6.17c-2.79-0.07-5.53,3.41-3.12,5.68c1.8,1.45,3.03,3.04,2.98,5.62
		c1.23,15.16,0.47,30.3,1.04,45.49c0.63,4.02-1.52,6.83-4.37,9.34c-1.24,1.29-0.82,4.14,0.85,4.8c5.44,1.65,11.22,0.17,16.8,0.67
		c3.75,0.54,16.72,0.03,10.32-5.87c-8.31-4.94-4.1-16.61-5.52-24.62c-0.18-4.01,5.68-3.08,8.36-4.39c2.79,0.41,5.13-0.82,7.81-0.81
		C58.87,40.27,68.45,25.09,59.72,14.35z M29.86,37.27c0.83-4.39-2.81-23.88,2.54-23.45c4.94,0.91,11.2,2.29,11.33,8.43
		C47.27,30.82,37.42,38.61,29.86,37.27z"/>
	<path class="st0" d="M449.09,67.54c-5.24,3.55-5.13-1.64-4.72-5.45c-0.57-7.33,0.48-15.27,0.04-22.52
		c2.12-18.8-27.49-18.85-36.92-8.73c-4.56,5.02-2.02,13.49,5.21,12.85c5.58,0.01,8.9-7.12,5.11-10.91c-1.59-1.24-1.51-1.66,0.37-2.7
		c6.1-3.28,15.82-0.1,14.02,8.21c-1.73,7.35-21.81,7.66-25.75,19.08c-4.17,14.75,10.95,19.09,22.25,14.23
		c2.09-0.63,3.7-1.24,5.54,0.91c4.44,4.28,12.36,1.85,16.33-2.22C452.56,68.79,451.43,66.26,449.09,67.54z M426.65,66.3
		c-4.34,1.09-7.7-2.55-7.18-6.53c-0.47-7.11,2.27-9.21,8.32-12.02c0.73-0.34,1.61-0.6,2.43-0.78c2.49-0.56,1.06,1.53,1.6,2.34
		C430.21,54.93,434.31,64.31,426.65,66.3z"/>
	<path class="st0" d="M109.06,52.39C107.87,24,68.03,29.26,66.58,55.72c-2.49,7.16,2.5,13.99,7.93,18.19
		c7.62,5.83,23,5.14,26.47-5.09c0.88-2.7-4.23-3.69-5.56-1.99c-1.07,1.16-2.26,2.01-3.61,2.8c-6.38,3.05-11.93-2.55-12.08-8.83
		c-0.13-0.86,0.1-1.73,1.41-1.79c7.55-0.02,15.08-1.15,22.59-0.76C109.18,58.27,109.11,57.02,109.06,52.39z M87.95,52.56
		c-2.18,0.09-4.33-0.55-6.56-0.03c-0.91,0.21-0.73-1.18-0.66-1.89c0.57-13.51,18.81-17.56,18.72-1.44
		C100.49,53.23,90.62,51.6,87.95,52.56z"/>
	<path class="st0" d="M296.98,50.42c-0.79-30.54-47.77-26.21-45.51,3.94C250.89,87.81,299.25,82.76,296.98,50.42z M284.21,43.08
		c-0.6,7.27-6.88,14.2-8.8,21.31c-1.14,4.13-4.17,4.99-7.25,6.22c-11.46-1.55,0.23-20.19,2.37-26.28c0.88-2.52,2.21-5.38,5.1-6.76
		C279.72,36.26,285.25,37.7,284.21,43.08z"/>
	<path class="st0" d="M35.21,18.4c-4.19-1.57-1.93,9.24-2.73,11.76c-0.02,1.17-0.54,2.78,1.66,2.97c2.51-0.31,5.37-1.34,5.99-4.29
		C40.21,24.77,39.8,19.6,35.21,18.4z M35.37,30.49c-1.02-0.13-0.21-1.09-0.59-1.51c0.42-2.64-0.48-5.93,0.47-8.15
		C37.85,21.63,39.33,30.51,35.37,30.49z"/>
	<path class="st0" d="M429.79,50.55c0.04-1.77-2.26-0.45-3.11,0.04c-2.8,1.54-5.27,3.35-5.25,7.28c0.1,4.05,1.48,6.89,6.21,5.42
		C431.57,60.64,428.61,54.55,429.79,50.55z M427.73,54.45c-0.66,2.18,0.83,9.49-3.47,7.17c-1.04-2.85-1.39-6.34,1.49-8.23
		C427.33,51.9,427.87,52.33,427.73,54.45z"/>
	<path class="st0" d="M92.46,41.4c-3.73-1.25-7.54,2.48-7.89,6.51c-1.52,3.86,7.08,1.95,9.24,2.18
		C98.38,50.98,95.82,41.45,92.46,41.4z M93.37,46.83c0.03,1.79-1.35,1.08-2.16,0.87C79.87,50.66,93.93,36.82,93.37,46.83z"/>
	<path class="st0" d="M281.44,39.87c-8.21-3.96-10.78,12.47-14.33,17.26c-1.02,1.75-2.51,3.49-1.87,5.52
		c-0.27,2.51,0.3,4.31,2.78,5.03c6.07-0.65,7.17-9.47,10.01-13.85C279.38,49.63,284.63,44.08,281.44,39.87z M271.38,63.71
		c-0.05,0.76-1,0.89-1.68,0.71c-3.61-1.11-0.52-5.49,0.38-7.59c1.23-2.01,7.7-20.71,10.03-14.11
		C278.77,50.46,273.71,56.46,271.38,63.71z"/>
</g>
</svg>
