<svg width="53" height="52" viewBox="0 0 53 52" fill="none" xmlns="http://www.w3.org/2000/svg">
<g clip-path="url(#clip0_276_2362)">
<path d="M26.6722 51.998C23.0573 51.998 19.4424 52.0011 15.829 51.998C12.383 51.9949 9.98754 49.6093 9.98444 46.1758C9.97979 41.3813 9.97979 36.5868 9.98444 31.7907C9.98909 28.4193 12.3877 26.0088 15.7484 26.0057C23.0356 25.9995 30.3227 26.0011 37.6098 26.0057C40.9846 26.0073 43.3893 28.4022 43.3955 31.7675C43.4033 36.5821 43.4033 41.3952 43.3955 46.2099C43.3909 49.6108 40.9908 51.9933 37.5757 51.998C33.9422 52.0026 30.3088 51.998 26.6737 51.998H26.6722ZM26.6892 37.1433C29.1064 37.1433 31.522 37.1588 33.9391 37.1293C34.3436 37.1247 34.7898 37.0053 35.1384 36.8038C35.8419 36.3977 36.1192 35.5436 35.893 34.7856C35.642 33.9423 34.9556 33.4323 34.0228 33.4308C29.19 33.4261 24.3573 33.4277 19.5229 33.4292C18.2446 33.4292 17.4002 34.1795 17.4079 35.3002C17.4157 36.4116 18.2648 37.1417 19.5539 37.1417C21.9324 37.1417 24.3092 37.1417 26.6877 37.1417L26.6892 37.1433ZM23.9033 40.8573C22.4142 40.8573 20.9268 40.8542 19.4377 40.8573C18.2493 40.8604 17.4172 41.62 17.4095 42.6958C17.4017 43.7731 18.2369 44.5652 19.4083 44.5668C22.4049 44.573 25.4016 44.5714 28.3967 44.5668C29.5697 44.5652 30.4048 43.7747 30.3986 42.6973C30.3909 41.6247 29.5526 40.8604 28.3688 40.8558C26.8798 40.8511 25.3923 40.8558 23.9033 40.8558V40.8573Z" fill="#AD1E23"/>
<path d="M47.1081 42.4245C47.1081 42.1424 47.1081 41.9316 47.1081 41.7208C47.1081 38.3756 47.1143 35.0305 47.1065 31.6854C47.0941 26.3979 43.0129 22.2994 37.74 22.2932C30.3754 22.2824 23.0093 22.2824 15.6447 22.2932C10.3688 22.301 6.28281 26.3979 6.27197 31.6792C6.26422 35.0243 6.27197 38.3694 6.27197 41.7146C6.27197 41.9254 6.27197 42.1362 6.27197 42.4943C5.64134 42.2261 5.05564 42.0463 4.53967 41.7456C2.09461 40.3195 0.738834 38.185 0.715592 35.3452C0.669108 29.7586 0.686152 24.1689 0.707844 18.5807C0.718691 15.465 3.15755 13.0158 6.27197 13.0127C19.8809 12.9988 33.4898 12.9988 47.0988 13.0127C50.2194 13.0158 52.6567 15.4541 52.6691 18.5745C52.6924 24.1627 52.6924 29.7508 52.6691 35.339C52.6552 38.5322 50.5556 41.3642 47.5791 42.3052C47.4521 42.3455 47.3204 42.3718 47.1081 42.4261V42.4245Z" fill="#AD1E23"/>
<path d="M43.3909 9.28163H10.0356C10.017 9.14832 9.98288 9.02121 9.98443 8.89565C10.0123 7.46645 9.9178 6.02174 10.1068 4.61269C10.4524 2.02091 12.7595 0.0336677 15.3781 0.024367C22.9193 -0.00663518 30.459 -0.0097354 38.0003 0.024367C40.9257 0.038318 43.3165 2.48284 43.3862 5.41255C43.4172 6.68364 43.3909 7.95628 43.3909 9.28008V9.28163Z" fill="#AD1E23"/>
</g>
<defs>
<clipPath id="clip0_276_2362">
<rect width="52" height="52" fill="white" transform="translate(0.686035)"/>
</clipPath>
</defs>
</svg>
