<svg width="53" height="52" viewBox="0 0 53 52" fill="none" xmlns="http://www.w3.org/2000/svg">
<g clip-path="url(#clip0_276_2367)">
<path d="M0.686506 40.3219C0.686506 37.3771 0.683249 34.4323 0.686506 31.4859C0.689763 29.6204 1.72217 28.5883 3.59485 28.5883C9.44572 28.5851 15.295 28.5851 21.1458 28.5883C23.0413 28.5883 24.09 29.6367 24.0916 31.5315C24.0949 37.3803 24.0949 43.2308 24.0916 49.0797C24.0916 50.9517 23.056 51.9886 21.1931 51.9903C15.3227 51.9935 9.45224 51.9935 3.58182 51.9903C1.69612 51.9903 0.688134 50.981 0.686506 49.096C0.683249 46.1707 0.686506 43.2471 0.686506 40.3219ZM12.3589 44.1799V44.1896C12.7856 44.1896 13.2122 44.1978 13.6372 44.1896C15.1452 44.1538 16.2069 43.1527 16.2785 41.6469C16.3209 40.7565 16.3192 39.8595 16.2785 38.9691C16.2134 37.4927 15.1842 36.4655 13.7105 36.402C12.8198 36.3646 11.9225 36.3629 11.0318 36.402C9.52877 36.4704 8.51753 37.5366 8.4931 39.044C8.47845 39.9572 8.46705 40.8721 8.50613 41.7837C8.56149 43.0794 9.59879 44.1066 10.8966 44.1766C11.3819 44.2026 11.8704 44.1815 12.3573 44.1815L12.3589 44.1799Z" fill="#AD1E23"/>
<path d="M0.686018 11.6604C0.686018 8.73515 0.682761 5.81153 0.686018 2.88629C0.690903 1.00287 1.69889 0.00336849 3.59436 0.00174065C9.46477 0.000112797 15.3352 0.000112797 21.2056 0.00336849C23.0408 0.00336849 24.0911 1.04031 24.0928 2.86187C24.0993 8.75143 24.0993 14.6426 24.0928 20.5322C24.0911 22.3407 23.018 23.4037 21.1991 23.4053C15.3287 23.4102 9.45826 23.4102 3.58784 23.4053C1.72331 23.4037 0.690903 22.3635 0.687646 20.4947C0.684389 17.5499 0.687646 14.6052 0.687646 11.6588L0.686018 11.6604ZM12.4203 7.80402V7.80727C11.953 7.80727 11.4856 7.79425 11.0199 7.81053C9.5869 7.85937 8.53821 8.89793 8.4975 10.3304C8.47307 11.203 8.47796 12.0755 8.49261 12.948C8.51867 14.4554 9.52502 15.52 11.0297 15.5933C11.9204 15.6356 12.8177 15.634 13.7084 15.5933C15.1854 15.5282 16.2129 14.5026 16.278 13.0278C16.3187 12.1374 16.3187 11.2404 16.278 10.35C16.2064 8.84422 15.1463 7.84146 13.6384 7.80565C13.2329 7.79588 12.8258 7.80565 12.4203 7.80565V7.80402Z" fill="#AD1E23"/>
<path d="M41.0248 5.21016e-05C43.9299 5.21016e-05 46.8349 -0.00157575 49.74 5.21016e-05C51.6795 0.00167995 52.6842 0.989784 52.6842 2.90739C52.6874 8.77741 52.6874 14.6474 52.6842 20.5175C52.6842 22.3504 51.6436 23.402 49.8231 23.4036C43.9315 23.4085 38.0415 23.4085 32.1499 23.4036C30.3473 23.402 29.2807 22.3227 29.2791 20.5077C29.2742 14.6377 29.2742 8.76764 29.2791 2.89762C29.2791 1.03211 30.318 0.0033078 32.189 0.00167995C35.1348 -0.00157575 38.0806 0.00167995 41.0248 0.00167995V5.21016e-05ZM41.0476 7.81047V7.80233C40.6209 7.80233 40.1943 7.79582 39.7693 7.80233C38.1995 7.83163 37.1345 8.86369 37.0873 10.4313C37.0612 11.2827 37.058 12.1373 37.0873 12.9887C37.1426 14.4879 38.1832 15.5346 39.6846 15.5932C40.5558 15.6274 41.4319 15.629 42.3031 15.5932C43.837 15.5297 44.8548 14.4635 44.8792 12.9219C44.8922 12.0299 44.9036 11.1345 44.8678 10.2425C44.8157 8.90927 43.7784 7.87884 42.448 7.8121C41.9823 7.78931 41.5149 7.80884 41.0476 7.80884V7.81047Z" fill="#AD1E23"/>
<path d="M46.1627 36.3841C45.7165 36.3841 45.2687 36.3987 44.8225 36.3808C43.3765 36.3255 42.3196 35.2462 42.2936 33.7926C42.2789 32.9607 42.2838 32.1273 42.292 31.2954C42.3066 29.7653 43.3309 28.6665 44.8502 28.5981C45.7409 28.559 46.6382 28.559 47.5289 28.5981C49.0482 28.6648 50.0741 29.762 50.0904 31.2922C50.0986 32.1045 50.1002 32.9168 50.0904 33.7274C50.0709 35.2804 49.0026 36.3499 47.441 36.3857C47.0143 36.3955 46.5877 36.3857 46.1627 36.3857V36.3825V36.3841Z" fill="#AD1E23"/>
<path d="M37.0779 48.1355C37.0779 48.562 37.0877 48.9885 37.0747 49.415C37.0291 50.9126 35.9836 51.9528 34.4757 51.987C33.6241 52.0065 32.7708 52.0049 31.9175 51.987C30.4145 51.9561 29.3527 50.9387 29.2876 49.4329C29.2485 48.5408 29.2485 47.6455 29.2876 46.7551C29.3527 45.2868 30.3933 44.2596 31.8686 44.1994C32.7398 44.1636 33.6159 44.1652 34.4871 44.1977C36.0211 44.2531 37.0437 45.3177 37.0763 46.856C37.0861 47.2825 37.0763 47.709 37.0763 48.1355H37.0779Z" fill="#AD1E23"/>
<path d="M46.1463 51.9838C45.6789 51.9838 45.2116 52.0033 44.7459 51.9805C43.3992 51.9138 42.3423 50.8524 42.3 49.5013C42.2723 48.6092 42.2821 47.7155 42.2951 46.8219C42.3163 45.4154 43.277 44.3296 44.6872 44.2222C45.6757 44.1473 46.6788 44.1489 47.6689 44.2173C49.1051 44.3166 50.0724 45.4089 50.0919 46.8512C50.1033 47.7042 50.1066 48.5571 50.0903 49.4085C50.061 50.8589 48.996 51.9333 47.5484 51.9838C47.0826 52 46.6153 51.987 46.1479 51.987V51.9821L46.1463 51.9838Z" fill="#AD1E23"/>
<path d="M33.1373 36.3841C32.6911 36.3841 32.2433 36.3987 31.7971 36.3808C30.3511 36.3255 29.2943 35.2462 29.2682 33.7926C29.2535 32.9607 29.2584 32.1273 29.2666 31.2954C29.2812 29.7653 30.3055 28.6665 31.8248 28.5981C32.7155 28.559 33.6128 28.559 34.5035 28.5981C36.0228 28.6648 37.0487 29.762 37.065 31.2922C37.0732 32.1045 37.0748 32.9168 37.065 33.7274C37.0455 35.2804 35.9772 36.3499 34.4156 36.3857C33.989 36.3955 33.5623 36.3857 33.1373 36.3857V36.3825V36.3841Z" fill="#AD1E23"/>
<path d="M39.6588 44.1831C39.2126 44.1831 38.7648 44.1977 38.3186 44.1798C36.8726 44.1245 35.8157 43.0452 35.7897 41.5916C35.775 40.7597 35.7799 39.9263 35.7881 39.0944C35.8027 37.5643 36.827 36.4655 38.3463 36.3971C39.237 36.358 40.1343 36.358 41.025 36.3971C42.5443 36.4638 43.5702 37.561 43.5865 39.0912C43.5946 39.9035 43.5963 40.7158 43.5865 41.5265C43.567 43.0794 42.4987 44.1489 40.9371 44.1847C40.5104 44.1945 40.0838 44.1847 39.6588 44.1847V44.1815V44.1831Z" fill="#AD1E23"/>
</g>
<defs>
<clipPath id="clip0_276_2367">
<rect width="52" height="52" fill="white" transform="translate(0.686035)"/>
</clipPath>
</defs>
</svg>
