<svg width="50" height="52" viewBox="0 0 50 52" fill="none" xmlns="http://www.w3.org/2000/svg">
<g clip-path="url(#clip0_247_6800)">
<path d="M44.2045 50.2384C40.4567 46.3264 36.6965 42.4261 32.9407 38.5213L32.937 38.5177C32.7119 38.2837 32.3547 38.239 32.0797 38.4121C26.637 41.8474 20.997 42.5683 14.7666 40.7135C10.0163 39.2995 6.24503 36.445 3.50719 32.321C-2.41442 23.402 -0.689424 11.6922 7.56152 4.8289C15.4113 -1.70071 26.4763 -1.53716 34.1706 4.88757C37.0229 7.26898 39.0911 10.2291 40.3768 13.712C41.6588 17.184 41.9507 20.7631 41.3141 24.406C40.7083 27.8685 39.5664 30.5777 37.4175 33.2958C37.2062 33.5627 37.2216 33.9434 37.4556 34.1898C37.5561 34.2954 37.6551 34.3995 37.7548 34.503C41.5459 38.4436 45.3376 42.3828 49.1272 46.3249C50.3087 47.5541 50.1797 49.3334 49.0634 50.421C48.1833 51.3011 46.0652 52.0991 44.2045 50.2384ZM20.7447 5.75154C12.4637 5.74567 5.70964 12.4924 5.6891 20.791C5.66857 29.0815 12.4996 35.9119 20.7601 35.8605C29.0924 35.8084 35.7995 29.0881 35.7885 20.8005C35.7775 12.5034 29.0338 5.75667 20.7454 5.75154H20.7447Z" fill="#AD1E23"/>
</g>
<defs>
<clipPath id="clip0_247_6800">
<rect width="49.9582" height="51.37" fill="white"/>
</clipPath>
</defs>
</svg>
