<svg width="169" height="173" viewBox="0 0 169 173" fill="none" xmlns="http://www.w3.org/2000/svg">
<g clip-path="url(#clip0_294_12083)">
<path d="M149.536 169.189C136.858 156.014 124.138 142.879 111.433 129.729L111.42 129.716C110.658 128.929 109.45 128.778 108.52 129.361C90.1081 140.93 71.029 143.358 49.9527 137.111C33.8831 132.349 21.1257 122.736 11.864 108.848C-8.16777 78.8108 -2.3324 39.3757 25.5791 16.2619C52.1335 -5.72802 89.5648 -5.17722 115.593 16.4595C125.242 24.4794 132.238 34.4481 136.588 46.1779C140.924 57.8706 141.912 69.924 139.758 82.1922C137.709 93.8528 133.846 102.977 126.577 112.13C125.862 113.029 125.914 114.311 126.706 115.141C127.046 115.497 127.381 115.848 127.718 116.196C140.542 129.467 153.369 142.733 166.189 156.009C170.186 160.149 169.749 166.141 165.973 169.804C162.996 172.768 155.83 175.455 149.536 169.189ZM70.1756 19.3691C42.1623 19.3493 19.3145 42.0704 19.2451 70.0178C19.1756 97.9381 42.2839 120.941 70.2277 120.768C98.4146 120.592 121.104 97.9603 121.066 70.0499C121.029 42.1074 98.2161 19.3864 70.178 19.3691H70.1756Z" fill="#006867"/>
</g>
<defs>
<clipPath id="clip0_294_12083">
<rect width="169" height="173" fill="white"/>
</clipPath>
</defs>
</svg>
