<svg width="59" height="53" viewBox="0 0 59 53" fill="none" xmlns="http://www.w3.org/2000/svg">
<path d="M29.4109 26.4086C29.4109 32.9714 29.4127 39.5342 29.4109 46.097C29.4109 47.7986 28.4671 48.967 26.9019 49.2109C25.9688 49.3565 25.1979 48.9907 24.4937 48.3956C20.5797 45.0905 16.6549 41.8 12.7499 38.4859C12.3248 38.1255 11.9087 37.9654 11.3558 37.9781C9.78331 38.0109 8.21087 37.9981 6.63663 37.9872C3.08647 37.9636 0.672875 35.5375 0.658465 31.954C0.644056 28.2304 0.642254 24.505 0.658465 20.7813C0.672875 17.1978 3.08648 14.7773 6.64204 14.7554C8.23789 14.7463 9.83374 14.7354 11.4278 14.7645C11.9339 14.7736 12.3158 14.6226 12.7012 14.2968C16.626 10.9717 20.5671 7.66487 24.4973 4.34526C25.2015 3.75013 25.9742 3.38614 26.9073 3.53356C28.4022 3.76833 29.3893 4.91127 29.4073 6.44913C29.4271 8.19811 29.4127 9.9471 29.4127 11.6943C29.4127 16.599 29.4127 21.5038 29.4127 26.4104L29.4109 26.4086Z" fill="#AD1E23"/>
<path d="M58.2226 26.9946C57.7326 37.9563 52.6317 46.6848 42.4639 52.2721C40.8501 53.1584 39.1209 52.6488 38.3572 51.1382C37.5935 49.6258 38.2131 47.9824 39.845 47.1016C46.74 43.3743 50.9349 37.6232 52.1544 29.821C53.6962 19.9605 48.7483 10.3111 39.9531 5.69384C39.2326 5.31528 38.6202 4.86393 38.2888 4.08863C37.8024 2.95116 38.0492 1.68629 38.9282 0.832724C39.7928 -0.00627758 41.0896 -0.284732 42.1667 0.339515C43.8581 1.31865 45.5944 2.27231 47.1092 3.4935C54.3536 9.3283 57.9668 17.0031 58.2208 26.9965L58.2226 26.9946Z" fill="#AD1E23"/>
<path d="M46.6789 26.3504C46.6338 30.1432 45.5567 33.5665 43.3719 36.6222C42.3434 38.06 40.6323 38.4185 39.2976 37.4904C37.9251 36.5367 37.6585 34.7804 38.6599 33.2881C41.6877 28.7782 41.6841 23.9753 38.6491 19.4382C37.6657 17.9658 37.916 16.2514 39.2561 15.2796C40.5728 14.3241 42.3182 14.659 43.3412 16.0767C45.5549 19.1452 46.6356 22.5885 46.6807 26.3486L46.6789 26.3504Z" fill="#AD1E23"/>
</svg>
