<svg width="34" height="35" viewBox="0 0 34 35" fill="none" xmlns="http://www.w3.org/2000/svg">
<path d="M0.222656 1.45546C0.735996 0.31798 1.63479 -0.0241723 2.82898 0.00130715C5.30382 0.0559059 7.78046 0.0213267 10.2553 0.0158668C10.965 0.0158668 11.5774 0.217882 12.0133 0.811189C12.4618 1.42088 12.5518 2.09972 12.2402 2.78585C11.934 3.46287 11.3991 3.9033 10.6372 3.93242C9.66451 3.967 8.69006 3.95062 7.71562 3.95608C7.49948 3.95608 7.28153 3.95608 7.14644 3.95608C8.50994 5.33743 9.88786 6.73334 11.3162 8.18021C15.0231 5.53944 19.2126 4.6786 23.757 6.00172C27.1271 6.98267 29.7658 9.00829 31.6715 11.9766C35.5098 17.9552 34.3967 25.8447 29.0688 30.5584C23.8003 35.2193 15.8948 35.2467 10.5381 30.6585C5.17053 26.0613 3.67374 17.6149 8.34243 11.1649C6.94651 9.75993 5.55599 8.3622 4.11864 6.91534C4.11864 7.37215 4.11864 7.84533 4.11864 8.31852C4.11864 8.95369 4.12224 9.59068 4.11864 10.2258C4.10963 11.2723 3.51884 12.084 2.63085 12.2824C1.63839 12.5044 0.788231 12.0385 0.33433 11.023C0.301909 10.9484 0.25868 10.8792 0.222656 10.8064C0.222656 7.69064 0.222656 4.57305 0.222656 1.45546ZM19.7422 29.0442C24.8306 29.0442 28.9427 24.9129 28.9517 19.7879C28.9607 14.6338 24.8396 10.4588 19.744 10.4624C14.6736 10.4661 10.5723 14.6192 10.5687 19.757C10.5651 24.8929 14.6628 29.0424 19.7422 29.0424V29.0442Z" fill="#AD1E23"/>
</svg>
