<svg width="71" height="63" viewBox="0 0 71 63" fill="none" xmlns="http://www.w3.org/2000/svg">
<path d="M41.4109 26.4086C41.4109 32.9714 41.4127 39.5342 41.4109 46.097C41.4109 47.7986 40.4671 48.967 38.9019 49.2109C37.9688 49.3565 37.1979 48.9907 36.4937 48.3956C32.5797 45.0905 28.6549 41.8 24.7499 38.4859C24.3248 38.1255 23.9087 37.9654 23.3558 37.9781C21.7833 38.0109 20.2109 37.9981 18.6366 37.9872C15.0865 37.9636 12.6729 35.5375 12.6585 31.954C12.6441 28.2304 12.6423 24.505 12.6585 20.7813C12.6729 17.1978 15.0865 14.7773 18.642 14.7554C20.2379 14.7463 21.8337 14.7354 23.4278 14.7645C23.9339 14.7736 24.3158 14.6226 24.7012 14.2968C28.626 10.9717 32.5671 7.66487 36.4973 4.34526C37.2015 3.75013 37.9742 3.38614 38.9073 3.53356C40.4022 3.76833 41.3893 4.91127 41.4073 6.44913C41.4271 8.19811 41.4127 9.9471 41.4127 11.6943C41.4127 16.599 41.4127 21.5038 41.4127 26.4104L41.4109 26.4086Z" fill="#AD1E23"/>
<path d="M70.2226 26.9946C69.7326 37.9563 64.6317 46.6848 54.4639 52.2721C52.8501 53.1584 51.1209 52.6488 50.3572 51.1382C49.5935 49.6258 50.2131 47.9824 51.845 47.1016C58.74 43.3743 62.9349 37.6232 64.1544 29.821C65.6962 19.9605 60.7483 10.3111 51.9531 5.69384C51.2326 5.31528 50.6202 4.86393 50.2888 4.08863C49.8024 2.95116 50.0492 1.68629 50.9282 0.832724C51.7928 -0.00627758 53.0896 -0.284732 54.1667 0.339515C55.8581 1.31865 57.5944 2.27231 59.1092 3.49351C66.3536 9.3283 69.9668 17.0031 70.2208 26.9965L70.2226 26.9946Z" fill="#AD1E23"/>
<path d="M58.6789 26.3504C58.6338 30.1432 57.5567 33.5665 55.3719 36.6222C54.3434 38.06 52.6323 38.4185 51.2976 37.4904C49.9251 36.5367 49.6585 34.7804 50.6599 33.2881C53.6877 28.7782 53.6841 23.9753 50.6491 19.4382C49.6657 17.9658 49.916 16.2514 51.2561 15.2796C52.5728 14.3241 54.3182 14.659 55.3412 16.0767C57.5549 19.1452 58.6356 22.5885 58.6807 26.3486L58.6789 26.3504Z" fill="#AD1E23"/>
<path d="M16.4948 51.7118C18.0564 51.7118 19.5154 51.6918 20.9743 51.7191C21.8641 51.7354 22.6026 52.4088 22.7791 53.2751C22.9503 54.1105 22.5486 55.0223 21.7705 55.3917C21.4337 55.5519 21.032 55.6265 20.6573 55.6374C19.5208 55.6684 18.3824 55.6484 17.2441 55.6484C17.0225 55.6484 16.801 55.6484 16.493 55.6484C16.493 56.4491 16.493 57.2008 16.493 57.9542C16.493 58.6313 16.5038 59.3101 16.4894 59.9871C16.4642 61.1719 15.6644 61.9982 14.5585 62.0018C13.4652 62.0055 12.6294 61.1756 12.5988 59.9999C12.57 58.8515 12.5916 57.7013 12.5916 56.5511C12.5916 56.2853 12.5916 56.0196 12.5916 55.6793C12.3502 55.6684 12.1359 55.6502 11.9215 55.6502C10.7436 55.6465 9.56379 55.6611 8.38581 55.6447C7.14478 55.6265 6.28741 54.7912 6.30002 53.6409C6.31263 52.4998 7.13938 51.7191 8.3732 51.7081C9.74931 51.6972 11.1272 51.7063 12.5862 51.7063C12.5862 50.8946 12.6114 50.1412 12.5628 49.3932C12.5538 49.2621 12.2458 49.0838 12.0512 49.0419C6.31623 47.8025 2.47969 44.3846 0.862217 38.6936C-1.50815 30.36 4.06834 21.8663 12.5646 20.6596C20.5529 19.5258 27.7955 25.235 28.687 33.3684C29.5066 40.8557 24.393 47.7261 17.0171 49.0273C16.6173 49.0983 16.466 49.2403 16.4858 49.6571C16.5164 50.3086 16.4948 50.962 16.4948 51.7154V51.7118ZM14.5603 25.6008C9.40708 25.6208 5.34539 29.7631 5.36881 34.9736C5.39222 40.0768 9.54217 44.2026 14.6287 44.1808C19.6415 44.1608 23.7716 39.9494 23.7536 34.8753C23.7356 29.7376 19.6144 25.579 14.5603 25.599V25.6008Z" fill="#AD1E23"/>
</svg>
