<svg width="34" height="35" viewBox="0 0 34 35" fill="none" xmlns="http://www.w3.org/2000/svg">
<path d="M31.7337 31.0305C31.2462 31.0305 30.8462 30.8567 30.5289 30.5047C30.2116 30.1526 29.9817 29.7274 29.8345 29.2291C29.6874 28.7262 29.5908 28.2141 29.5402 27.6883C29.4896 27.1625 29.4666 26.7236 29.4666 26.3715V12.6097C29.4666 10.5523 29.1264 8.80116 28.4458 7.34725C27.7652 5.89333 26.8133 4.67717 25.5994 3.69875C24.3808 2.72033 22.9829 2.00709 21.401 1.55446C19.8191 1.10182 18.1039 0.877792 16.2508 0.877792L15.7403 1.55446C16.6646 1.55446 17.3452 1.87907 17.7866 2.53288C18.2235 3.18668 18.5178 3.97307 18.6649 4.9012C18.8121 5.82933 18.8719 6.78031 18.8489 7.75873C18.8259 8.73715 18.8121 9.52811 18.8121 10.1271C17.6441 11.4301 16.0484 12.6463 14.0297 13.7756C12.0064 14.9048 10.0107 16.0707 8.04257 17.2732C6.06985 18.4756 4.36383 19.8061 2.92912 21.26C1.49441 22.7139 0.772461 24.4193 0.772461 26.3761C0.772461 29.2337 1.58638 31.2911 3.21882 32.5438C4.85126 33.7966 6.95275 34.4229 9.53706 34.4229C11.4362 34.4229 13.202 34.1075 14.8298 33.4811C16.4623 32.8547 17.9108 31.7894 19.1754 30.2852C19.7088 31.5883 20.6377 32.6033 21.9528 33.3302C23.268 34.0572 24.5831 34.4184 25.8983 34.4184C26.726 34.4184 27.4571 34.3452 28.0871 34.1943C28.7217 34.0435 29.3057 33.8423 29.8391 33.5954C30.3725 33.3439 30.9105 33.0193 31.444 32.617C31.9774 32.2146 32.5614 31.7894 33.196 31.3368V30.587C32.7591 30.8887 32.2717 31.0396 31.7337 31.0396V31.0305ZM18.8075 28.6256C17.8832 29.1788 16.9313 29.4531 15.9611 29.4531C14.9908 29.4531 14.2826 29.2657 13.6986 28.8908C13.1146 28.5158 12.664 28.0266 12.3467 27.4231C12.0294 26.8242 11.8087 26.1338 11.6891 25.3566C11.565 24.5793 11.5052 23.7883 11.5052 22.9882C11.5052 21.8864 11.7627 20.8577 12.2731 19.9067C12.7835 18.9557 13.4043 18.0641 14.1355 17.2366C14.8666 16.4091 15.6576 15.6181 16.5083 14.8683C17.359 14.1139 18.1269 13.4144 18.8075 12.7606V28.6301V28.6256Z" fill="#AD1E23"/>
</svg>
