<svg width="37" height="38" viewBox="0 0 37 38" fill="none" xmlns="http://www.w3.org/2000/svg">
<path d="M12.733 20.9314C13.6297 22.2527 14.6598 23.4232 15.8232 24.4519C16.9866 25.4806 18.2466 26.2807 19.6077 26.8568C20.9688 27.4329 22.4265 27.7392 23.9854 27.7758C25.5397 27.8169 27.1629 27.506 28.8505 26.8522C29.3656 26.651 29.9725 26.3767 30.6715 26.0201C31.3705 25.6681 32.0648 25.2749 32.7638 24.8405C33.4582 24.4107 34.0973 23.9307 34.6721 23.4095C35.2515 22.8882 35.6516 22.367 35.8815 21.8504L36.6081 22.0516C36.1528 25.5675 35.132 28.4936 33.5409 30.839C31.9499 33.1845 29.4207 35.027 25.9535 36.3804C23.5164 37.3314 21.0792 37.7657 18.6466 37.6925C16.2095 37.6194 13.947 37.0845 11.8547 36.0969C9.76246 35.1093 7.88171 33.7286 6.20788 31.9546C4.53865 30.1807 3.2235 28.0821 2.26703 25.6543C1.31056 23.2266 0.827721 20.936 0.708162 18.5082C0.588603 16.0805 0.896696 13.7761 1.63704 11.6044C2.37739 9.43269 3.53619 7.47128 5.11805 5.72476C6.69991 3.97824 8.73242 2.62034 11.2156 1.65106C13.4642 0.773227 15.6484 0.316022 17.7683 0.270301C19.8836 0.229153 21.8425 0.594917 23.6359 1.37674C25.4293 2.15856 27.0387 3.32443 28.4597 4.86978C29.8806 6.41514 31.0302 8.31254 31.9131 10.5528L32.5753 12.2354L12.7284 20.9314H12.733ZM20.2883 8.61887C19.9756 7.8279 19.4927 7.04608 18.8398 6.27798C18.1868 5.50987 17.4372 4.87436 16.5865 4.36686C15.7404 3.86393 14.8483 3.52103 13.9148 3.34729C12.9814 3.17355 12.0663 3.26042 11.1788 3.60333C10.1487 4.00567 9.46816 4.75548 9.14627 5.8482C8.81979 6.9455 8.69563 8.1388 8.7738 9.42812C8.84737 10.7174 9.04511 12.0022 9.3578 13.2778C9.67049 14.558 9.96479 15.5455 10.2407 16.245C10.6454 17.2738 11.1282 18.2933 11.6938 19.3129C12.5951 18.8557 13.4872 18.3711 14.3655 17.8681C15.2484 17.3652 16.1313 16.8577 17.0142 16.3548C18.5133 15.4998 19.6077 14.4299 20.2883 13.1406C20.9688 11.8513 20.9688 10.3425 20.2883 8.61887Z" fill="#AD1E23"/>
</svg>
