<svg width="61" height="38" viewBox="0 0 61 38" fill="none" xmlns="http://www.w3.org/2000/svg">
<path d="M35.3925 7.76334C35.4891 7.56217 35.8202 7.26041 36.3766 6.86264C36.9376 6.4603 37.6181 5.98481 38.4229 5.43616C39.2276 4.88294 40.0783 4.32058 40.9796 3.7445C41.8809 3.16842 42.7316 2.64264 43.5363 2.16257C44.341 1.68708 45.0354 1.29846 45.6194 0.9967C46.2034 0.694945 46.5713 0.544067 46.7138 0.544067C48.3693 0.544067 49.804 0.868683 51.0226 1.52249C52.2411 2.17629 53.2482 3.05412 54.0529 4.15599C54.8576 5.25785 55.4646 6.53803 55.8785 7.99194C56.2924 9.44585 56.4993 10.9501 56.4993 12.5046V27.2403C56.4993 28.0953 56.5453 29.0188 56.6464 30.0247C56.743 31.0305 56.9131 32.0044 57.1569 32.9599C57.4006 33.9109 57.7776 34.7887 58.2881 35.5934C58.7985 36.3981 59.4423 37.0199 60.224 37.4725H42.1844C42.9615 37.0199 43.5961 36.3844 44.0835 35.5523C44.571 34.7247 44.9342 33.8469 45.1779 32.9188C45.4217 31.9906 45.5918 31.0259 45.6884 30.0247C45.7849 29.0234 45.8355 28.0953 45.8355 27.2403V12.8017C45.8355 12.0519 45.762 11.2747 45.6148 10.47C45.4677 9.66988 45.2239 8.93835 44.8837 8.28912C44.5434 7.63989 44.0697 7.11411 43.4581 6.71176C42.8465 6.30942 42.1062 6.10825 41.2325 6.10825C40.3588 6.10825 39.6001 6.30942 38.9701 6.71176C38.3355 7.11411 37.8021 7.62617 37.3652 8.25255C36.9284 8.87892 36.5973 9.59673 36.3812 10.3968C36.1604 11.2015 36.0271 12.0016 35.9811 12.8017V27.2403C35.9811 28.0953 36.0271 29.0188 36.1282 30.0247C36.2248 31.0305 36.395 32.0044 36.6387 32.9599C36.8824 33.9109 37.2595 34.7887 37.7699 35.5934C38.2803 36.3981 38.9241 37.0199 39.7058 37.4725H21.6662C22.4433 37.0199 23.0779 36.3844 23.5653 35.5523C24.0528 34.7247 24.4161 33.8469 24.6598 32.9188C24.9035 31.9906 25.0736 31.0259 25.1702 30.0247C25.2668 29.0234 25.3174 28.0953 25.3174 27.2403V12.8017C25.3174 12.0519 25.2438 11.2747 25.0966 10.47C24.9495 9.66988 24.7058 8.93835 24.3655 8.28912C24.0252 7.63989 23.5516 7.11411 22.94 6.71176C22.3284 6.30942 21.588 6.10825 20.7143 6.10825C19.206 6.10825 18.038 6.64776 17.2103 7.72676C16.3826 8.80576 15.8446 10.0448 15.6055 11.4484V27.2403C15.6055 28.0953 15.6423 29.0188 15.7158 30.0247C15.7894 31.0305 15.9458 32.0044 16.1895 32.9599C16.4332 33.9109 16.7965 34.7887 17.2839 35.5934C17.7713 36.3981 18.4289 37.0199 19.2566 37.4725H1.21699C1.99412 37.0199 2.62871 36.3844 3.11614 35.5523C3.60358 34.7247 3.98065 33.8469 4.24736 32.9188C4.51407 31.9906 4.698 31.0259 4.79457 30.0247C4.89113 29.0234 4.94172 28.0953 4.94172 27.2403V16.56C4.94172 15.5084 4.84515 14.5437 4.64742 13.6659C4.45429 12.788 4.18298 11.9742 3.84269 11.2198C3.50241 10.47 3.07476 9.72932 2.56433 9.00236C2.05391 8.27541 1.47911 7.51187 0.849121 6.70719C2.55514 6.40544 3.99904 6.1174 5.19463 5.84308C6.38563 5.56875 7.50764 5.23042 8.55608 4.82808C9.60452 4.42574 10.676 3.93653 11.7704 3.36045C12.8648 2.78437 14.1432 2.0437 15.6055 1.14301V7.00895C15.9457 6.6569 16.6539 6.13111 17.7253 5.43159C18.7968 4.72749 19.928 4.01425 21.1236 3.2873C22.3146 2.56034 23.4136 1.92025 24.4115 1.37161C25.4093 0.81839 26.0071 0.544067 26.2002 0.544067C28.7294 0.544067 30.7665 1.28474 32.2978 2.76151C33.829 4.24286 34.8913 6.08539 35.4753 8.28912L35.4017 7.76334H35.3925Z" fill="#AD1E23"/>
</svg>
