<svg width="36" height="38" viewBox="0 0 36 38" fill="none" xmlns="http://www.w3.org/2000/svg">
<path d="M18.3971 0.114304C20.9262 0.114304 23.2668 0.617229 25.4097 1.61851C27.5525 2.62436 29.4149 3.98683 30.9967 5.71507C32.5786 7.4433 33.811 9.45044 34.6847 11.7319C35.563 14.0133 35.9998 16.432 35.9998 18.9877C35.9998 21.5435 35.563 23.9621 34.6847 26.2436C33.8064 28.525 32.5786 30.5185 30.9967 32.2238C29.4149 33.9292 27.5525 35.2825 25.4097 36.2838C23.2668 37.2851 20.9308 37.788 18.3971 37.788C15.8633 37.788 13.5135 37.2851 11.3477 36.2838C9.1818 35.2825 7.31944 33.9292 5.76057 32.2238C4.20171 30.5185 2.97393 28.525 2.07264 26.2436C1.17135 23.9621 0.720703 21.5435 0.720703 18.9877C0.720703 16.432 1.17135 14.0133 2.07264 11.7319C2.97393 9.45044 4.20171 7.4433 5.76057 5.71507C7.31944 3.98683 9.1818 2.61979 11.3477 1.61851C13.5135 0.617229 15.8633 0.114304 18.3971 0.114304ZM20.7331 35.7626C21.8505 35.7626 22.7288 35.3374 23.3634 34.4824C23.9979 33.632 24.4808 32.617 24.8256 31.4374C25.1659 30.2624 25.3867 29.0463 25.4832 27.7889C25.5798 26.5362 25.6304 25.5303 25.6304 24.7805C25.6304 23.8295 25.5568 22.5997 25.4097 21.0955C25.2625 19.5912 25.0188 18.0139 24.6785 16.3588C24.3382 14.7037 23.9106 13.0395 23.4001 11.357C22.8897 9.67904 22.2413 8.17483 21.4642 6.84437C20.6825 5.51847 19.795 4.42575 18.7971 3.57535C17.7993 2.72495 16.6405 2.29517 15.3299 2.29517C14.309 2.29517 13.5043 2.69751 12.9203 3.49762C12.3363 4.3023 11.8995 5.25329 11.6052 6.35516C11.3109 7.45702 11.1315 8.58632 11.058 9.73847C10.9844 10.8906 10.9476 11.8188 10.9476 12.5229C10.9476 13.4235 11.0212 14.6169 11.1683 16.0936C11.3155 17.575 11.5454 19.1752 11.8627 20.908C12.18 22.6408 12.5938 24.3828 13.1043 26.1339C13.6147 27.8895 14.2355 29.4806 14.9666 30.9117C15.6978 32.3381 16.5393 33.504 17.4866 34.4093C18.4384 35.31 19.5191 35.7626 20.7377 35.7626H20.7331Z" fill="#AD1E23"/>
</svg>
