<svg width="40" height="54" viewBox="0 0 40 54" fill="none" xmlns="http://www.w3.org/2000/svg">
<path d="M4.08869 43.6219V16.1713C4.08869 15.1198 3.99213 14.1551 3.79439 13.2772C3.60126 12.3994 3.32995 11.5856 2.98967 10.8312C2.64939 10.0768 2.22173 9.3407 1.71131 8.61375C1.20088 7.88679 0.626078 7.12326 -0.00390625 6.31857C1.70211 6.01682 3.14602 5.72878 4.34161 5.45446C5.5326 5.18013 6.65462 4.8418 7.70306 4.43946C8.7515 4.03712 9.82293 3.54791 10.9174 2.97183C12.0118 2.39575 13.2901 1.68251 14.7524 0.827541V6.24085C15.3824 5.49103 16.0538 4.75036 16.762 4.02341C17.4655 3.29645 18.1737 2.6335 18.8818 2.02999C19.5854 1.42648 20.2935 0.941843 21.0017 0.562362C21.7053 0.187454 22.3536 0 22.9376 0C25.4668 0 28.1707 0.502926 30.1158 1.5042C32.0609 2.51006 34.167 3.84967 35.5051 5.52761C36.8433 7.21013 37.8549 9.14868 38.5355 11.357C39.2161 13.5653 39.5564 15.8696 39.5564 18.2745C39.5564 20.8303 39.1931 23.29 38.4619 25.6446C37.7308 28.0038 36.6456 30.0841 35.2108 31.8855C33.7761 33.6914 31.5597 35.1316 29.4904 36.2106C27.4211 37.2897 24.6115 37.8292 21.9812 37.8292C20.3257 37.8292 18.9876 37.7149 17.9621 37.4908C16.9413 37.2668 15.8699 36.9513 14.7478 36.549V43.6174C14.7478 44.4678 14.7846 45.3959 14.8582 46.4017C14.9318 47.403 15.1019 48.3677 15.3686 49.2959C15.6353 50.224 16.0124 51.0881 16.4998 51.8928C16.9873 52.6929 17.6173 53.3467 18.399 53.8496H0.363968C1.19168 53.3467 1.84926 52.6929 2.33669 51.8928C2.82413 51.0881 3.1874 50.224 3.43112 49.2959C3.67483 48.3677 3.84498 47.403 3.94154 46.4017C4.03811 45.3959 4.08869 44.4723 4.08869 43.6174V43.6219ZM14.7524 7.14612V26.1704C14.7524 27.1214 14.826 28.1776 14.9732 29.3297C15.1203 30.4819 15.41 31.5472 15.8515 32.5256C16.2929 33.504 16.8861 34.3178 17.6403 34.9716C18.3944 35.6254 19.3785 35.95 20.597 35.95C22.1053 35.95 23.3745 35.5111 24.3953 34.6333C25.4162 33.7555 26.2347 32.6673 26.8417 31.3643C27.4487 30.0612 27.8901 28.6713 28.1569 27.19C28.4236 25.7132 28.5569 24.3462 28.5569 23.0889C28.5569 21.132 28.3132 19.1798 27.8258 17.2229C27.3383 15.2661 26.5842 13.5013 25.5633 11.9193C24.5425 10.3374 23.2365 9.06181 21.6547 8.08339C20.0728 7.10497 18.2105 6.61576 16.0676 6.61576C15.7273 6.61576 15.2859 6.79407 14.7524 7.14154V7.14612Z" fill="#AD1E23"/>
</svg>
