<svg width="31" height="39" viewBox="0 0 31 39" fill="none" xmlns="http://www.w3.org/2000/svg">
<path d="M14.3411 38.2224C12.9754 38.2224 11.4809 38.0486 9.84846 37.6966C8.21601 37.3445 6.69394 36.7959 5.28222 36.0415C3.8705 35.2871 2.68871 34.2995 1.74143 33.0696C0.794157 31.8398 0.315918 30.3493 0.315918 28.5936C0.315918 26.9385 0.766565 25.512 1.66786 24.305C2.56915 23.1026 3.8705 22.4991 5.57652 22.4991C7.28254 22.4991 8.58389 23.1392 9.62773 24.4148C10.6762 25.6949 11.3429 27.0848 11.6372 28.589C10.7589 28.589 10.0416 28.8908 9.48059 29.4897C8.91958 30.0932 8.63907 30.8431 8.63907 31.7483C8.63907 32.4981 8.80922 33.1748 9.1495 33.7783C9.48978 34.3818 9.94043 34.8665 10.5014 35.2459C11.0624 35.6209 11.6832 35.9135 12.3638 36.1101C13.0444 36.3112 13.7019 36.4118 14.3365 36.4118C15.1137 36.4118 15.8954 36.3112 16.6725 36.1101C17.4497 35.9089 18.1578 35.598 18.7924 35.1682C19.427 34.743 19.9374 34.1898 20.3237 33.5131C20.7145 32.8365 20.9077 32.0226 20.9077 31.0671C20.9077 29.7641 20.434 28.6713 19.4822 27.7935C18.5349 26.9157 17.3531 26.0881 15.9414 25.3109C14.5297 24.5336 12.9938 23.7564 11.3383 22.9791C9.68291 22.2019 8.14704 21.3012 6.73533 20.2725C5.32361 19.2438 4.14181 18.0047 3.19454 16.5508C2.24726 15.0969 1.76902 13.3184 1.76902 11.2107C1.76902 9.30413 2.24266 7.69019 3.19454 6.35973C4.14181 5.03383 5.32361 3.92739 6.73533 3.04956C8.14704 2.17173 9.7151 1.53164 11.4441 1.1293C13.1731 0.726958 14.7918 0.525787 16.3001 0.525787C17.6612 0.525787 19.1373 0.690381 20.7191 1.015C22.301 1.33961 23.7633 1.87911 25.1014 2.6335C26.4396 3.38332 27.5478 4.35259 28.4261 5.52761C29.3044 6.7072 29.7413 8.17483 29.7413 9.92592C29.7413 11.4804 29.3136 12.7103 28.4629 13.611C27.6122 14.5117 26.4304 14.9643 24.9221 14.9643C23.4138 14.9643 22.0757 14.4888 21.0502 13.5378C20.0294 12.5869 19.2982 11.3844 18.8614 9.92592C19.6891 9.92592 20.3237 9.66075 20.7605 9.13496C21.1974 8.60917 21.4181 7.94623 21.4181 7.14155C21.4181 5.63734 20.8571 4.45775 19.7397 3.60735C18.6177 2.75695 17.3761 2.33175 16.0149 2.33175C14.4101 2.33175 13.0674 2.84382 11.9959 3.87253C10.9245 4.90124 10.3911 6.24085 10.3911 7.89593C10.3911 9.14868 10.8877 10.2277 11.8902 11.1284C12.888 12.0291 14.1296 12.8703 15.6149 13.6476C17.1002 14.4248 18.705 15.1884 20.434 15.9427C22.163 16.6926 23.7679 17.5978 25.2532 18.6494C26.7385 19.701 27.9801 20.9446 28.9779 22.371C29.9758 23.7975 30.477 25.5441 30.477 27.5969C30.477 29.6498 29.9298 31.3688 28.8354 32.7496C27.7409 34.1304 26.389 35.2185 24.7842 36.0232C23.1793 36.8279 21.4365 37.3902 19.5603 37.7149C17.6842 38.0395 15.946 38.2041 14.3365 38.2041L14.3411 38.2224Z" fill="#AD1E23"/>
</svg>
