<svg width="101" height="53" viewBox="0 0 101 53" fill="none" xmlns="http://www.w3.org/2000/svg">
<path d="M0.554199 25.9998C0.554199 24.203 0.986448 22.6667 1.85095 21.3957C2.71546 20.1247 3.82368 19.0731 5.18481 18.2501C6.54135 17.4272 8.02204 16.8282 9.62689 16.4533C11.2317 16.0784 12.7722 15.891 14.2529 15.891C17.7063 15.891 21.1505 15.9047 24.581 15.9275C28.0114 15.955 31.4556 15.9413 34.909 15.891C35.0562 15.891 35.3781 15.7904 35.8701 15.5892C36.3622 15.388 36.684 15.2417 36.8312 15.1411C38.9051 14.1444 40.6065 12.6951 41.94 10.7977C42.9149 9.40779 43.7196 7.90359 44.3542 6.34909C44.3818 6.28051 44.8095 6.32623 45.1773 6.38109C45.467 6.42224 45.7199 6.47253 45.7199 6.47253V15.891C45.8717 15.891 80.8335 15.891 80.9853 15.8818C81.7854 15.8498 82.6177 15.7401 83.4868 15.5526C84.5215 15.3286 85.4733 14.9674 86.3379 14.4645C87.2024 13.9661 88.3336 13.1843 89.1245 11.9819C90.6834 9.27978 89.7913 6.25765 87.0414 5.16493C87.6898 4.04477 90.1591 5.00033 91.0374 4.23223C92.4308 3.00692 92.4032 0.364273 94.3759 0.364273C96.1509 0.364273 97.5994 0.976929 98.7076 2.19767C99.8204 3.42298 100.372 5.3661 100.372 7.11262C100.372 8.85915 99.9538 11.1863 99.1123 12.4071C97.4063 14.9217 94.6564 16.4853 91.7088 17.162C90.1775 17.514 88.6968 17.6878 87.2667 17.6878H45.7199V44.2011C45.7199 45.6504 46.2028 46.6837 47.1639 47.3101C48.1249 47.9365 49.2469 48.2474 50.5345 48.2474C51.2243 48.2474 51.9048 48.1742 52.5716 48.0233C53.2384 47.8725 53.8684 47.6256 54.4616 47.2735V48.0233C52.9809 49.4224 51.2656 50.57 49.3159 51.4707C47.3662 52.3714 45.3521 52.8194 43.2828 52.8194C41.8021 52.8194 40.5283 52.5451 39.4707 51.9965C38.4084 51.4478 37.5439 50.7117 36.8772 49.7882C36.2104 48.8646 35.7184 47.7902 35.3965 46.5694C35.0746 45.3487 34.9136 44.0594 34.9136 42.7106V17.6969H17.8075C16.966 17.6969 16.1291 17.8112 15.2922 18.0353C14.4506 18.2593 13.7011 18.5976 13.0343 19.0457C12.3676 19.4937 11.8249 20.0698 11.4065 20.7693C10.988 21.4689 10.7765 22.2918 10.7765 23.2428C10.7765 24.2441 11.034 25.1174 11.5536 25.8626C12.0733 26.6124 12.7492 27.1885 13.5907 27.5863C11.9123 30.4804 9.47054 31.9297 6.26084 31.9297C4.53183 31.9297 3.15231 31.3674 2.11307 30.2426C1.07842 29.1179 0.558795 27.7097 0.558795 26.0089L0.554199 25.9998Z" fill="#AD1E23"/>
</svg>
