<svg width="33" height="34" viewBox="0 0 33 34" fill="none" xmlns="http://www.w3.org/2000/svg">
<g id="Group">
<path id="Vector" d="M18.3945 12.5742L16.0319 14.6591L15.3751 15.2405C14.5632 15.2496 10.6225 15.1496 12.2736 14.2412C12.6796 14.0186 13.0855 13.796 13.4914 13.578C15.5575 12.4606 17.1904 11.2615 18.3854 9.97145C18.3854 9.37642 18.3991 8.59515 18.4219 7.62765C18.4447 6.66015 18.3854 5.7199 18.2349 4.80236C18.0843 3.88483 17.7879 3.10355 17.3363 2.45855C16.8894 1.81355 16.1915 1.49105 15.2428 1.49105L15.7674 0.823341C17.6602 0.823341 19.4162 1.04591 21.0353 1.49105C22.6545 1.9362 23.6305 2.64479 24.8757 3.61229C26.1208 4.57979 27.0923 5.78349 27.7902 7.21884C28.488 8.65874 28.8346 10.3939 28.8346 12.4288V26.0465C28.8346 26.3963 28.8574 26.8278 28.9076 27.3501C28.9578 27.8725 29.0581 28.3812 29.2086 28.8763C29.3591 29.3714 29.5918 29.7939 29.9201 30.1436C30.244 30.4934 30.6545 30.666 31.1516 30.666C31.6989 30.666 32.1961 30.5161 32.6476 30.2208V30.9658C32 31.4109 31.4025 31.8333 30.8551 32.2331C30.3078 32.6328 29.7605 32.9507 29.2132 33.2006C28.6659 33.4504 28.0684 33.6457 27.4207 33.7956C26.7731 33.9455 26.4811 34.0182 25.6374 34.0182C24.2919 34.0182 22.9464 33.6593 21.6009 32.9371C20.2554 32.2194 18.9373 31.0793 18.3899 29.7893L18.399 12.5878L18.3945 12.5742Z" fill="#FFB400"/>
<path id="Vector_2" d="M21.8882 24.275C21.8061 23.1667 21.7195 22.0539 21.6191 20.9456C21.1174 20.8047 20.5929 20.7775 20.0866 20.6548C19.7856 19.7282 19.3523 18.7017 18.7913 17.9113C18.7548 17.8568 19.1881 16.9892 19.3432 16.5941C18.9692 16.317 18.7046 16.0581 18.3945 15.7901L18.3854 28.2631C17.4367 28.8127 16.4743 29.0853 15.4755 29.0898C14.4766 29.0944 13.756 28.9036 13.1539 28.5357C12.5564 28.1632 12.0912 27.6817 11.7674 27.0867C11.439 26.4917 11.2155 25.8103 11.0923 25.0381C10.9646 24.2705 10.9008 23.4847 10.9008 22.6898C10.9008 21.8949 11.0467 21.0909 11.3386 20.3551C11.439 20.1098 11.553 19.8645 11.6807 19.6283C12.2052 18.6835 12.8392 17.8023 13.5826 16.9802C13.7833 16.7576 14.0935 16.4442 14.3763 16.1671C14.5906 15.9536 14.805 15.7401 15.0239 15.5312H15.0285C15.1379 15.4222 15.2474 15.3495 15.3569 15.2496C14.504 14.8453 13.6191 14.5319 12.6796 14.3911C12.4789 13.9141 12.3649 13.4009 12.1459 12.9239C11.0148 13.0102 9.88367 13.0965 8.7571 13.1965C8.71605 13.6507 8.48344 14.7635 8.48344 14.7635C6.90077 15.2904 5.84262 16.0762 5.84262 16.0762C5.44581 15.8673 4.87113 15.6266 4.46976 15.4312C3.74 16.2716 3.01479 17.1164 2.29871 17.9704C2.51764 18.4337 2.87797 18.8061 3.12882 19.2467C2.69553 20.1098 2.22118 22.0947 2.14821 22.1265C1.92928 22.2128 1.22232 22.2583 0.830078 22.39L1.09461 26.0692C1.62369 26.2009 2.17101 26.1601 2.52221 26.1919C2.68184 26.7233 3.89507 28.899 3.8677 28.9581C3.6807 29.376 3.42985 29.8393 3.28846 30.2753C4.12312 30.9976 4.9669 31.7107 5.81525 32.4193C6.2303 32.2149 6.64991 31.8333 7.0376 31.5835C7.09689 31.5472 7.96348 32.1104 9.94752 32.5238C10.0615 32.7872 10.2029 33.2914 10.4675 33.9455L14.0296 33.682C14.0524 32.7827 14.0935 32.5101 14.1072 32.1695C15.0741 31.8561 15.9635 31.3973 16.7845 30.8068C17.2542 30.9976 17.5963 31.3155 18.1254 31.579C18.8506 30.7477 19.6123 29.7575 20.3238 28.9172C20.1003 28.4584 19.7491 28.0814 19.4891 27.6499C19.9088 26.8141 20.3831 24.9791 20.3877 24.9564C20.3877 24.9427 21.4549 24.4749 21.8791 24.275H21.8882Z" fill="#FFB400"/>
</g>
</svg>
