<svg width="36" height="38" viewBox="0 0 36 38" fill="none" xmlns="http://www.w3.org/2000/svg">
<path id="Vector" d="M12.2795 20.9052C13.1689 22.2179 14.1906 23.3807 15.3445 24.4027C16.4984 25.4248 17.7482 26.2196 19.0982 26.792C20.4483 27.3643 21.8941 27.6686 23.4403 27.705C24.9819 27.7458 26.5919 27.437 28.2658 26.7874C28.7767 26.5876 29.3787 26.315 30.072 25.9607C30.7653 25.611 31.454 25.2204 32.1472 24.7888C32.836 24.3619 33.4699 23.8849 34.0401 23.3671C34.6147 22.8493 35.0115 22.3315 35.2396 21.8182L35.9602 22.0181C35.5087 25.5111 34.4962 28.4181 32.9181 30.7483C31.3399 33.0785 28.8314 34.909 25.3924 36.2535C22.9751 37.1983 20.5577 37.6298 18.145 37.5571C15.7276 37.4845 13.4836 36.953 11.4084 35.9719C9.3331 34.9908 7.46765 33.619 5.80745 31.8566C4.1518 30.0942 2.84736 28.0093 1.89867 25.5974C0.94998 23.1854 0.471075 20.9097 0.352489 18.4978C0.233903 16.0859 0.539489 13.7966 1.27381 11.639C2.00813 9.48142 3.1575 7.53279 4.72649 5.79765C6.29548 4.06251 8.31144 2.71346 10.7744 1.7505C13.0047 0.878385 15.1712 0.424159 17.2738 0.378736C19.3719 0.337856 21.3149 0.701237 23.0937 1.47796C24.8724 2.25469 26.4688 3.41297 27.8781 4.94825C29.2875 6.48353 30.4277 8.36857 31.3035 10.5943L31.9602 12.2658L12.275 20.9052H12.2795ZM19.7732 8.6729C19.4631 7.88709 18.9842 7.11036 18.3365 6.34727C17.6889 5.58417 16.9454 4.95279 16.1016 4.4486C15.2624 3.94895 14.3776 3.60828 13.4517 3.43568C12.5258 3.26307 11.6182 3.34937 10.7379 3.69004C9.71623 4.08976 9.0412 4.83469 8.72193 5.92029C8.3981 7.01043 8.27495 8.19596 8.35249 9.47688C8.42546 10.7578 8.62159 12.0342 8.93174 13.3015C9.24188 14.5733 9.53379 15.5544 9.80745 16.2494C10.2088 17.2714 10.6877 18.2843 11.2487 19.2972C12.1427 18.843 13.0275 18.3615 13.8987 17.8619C14.7744 17.3622 15.6501 16.8581 16.5258 16.3584C18.0127 15.509 19.0982 14.4461 19.7732 13.1652C20.4483 11.8843 20.4483 10.3853 19.7732 8.6729Z" fill="#FFB400"/>
</svg>
