<svg width="60" height="38" viewBox="0 0 60 38" fill="none" xmlns="http://www.w3.org/2000/svg">
<path id="Vector" d="M35.2256 7.84902C35.3214 7.64916 35.6498 7.34938 36.2017 6.9542C36.7581 6.55448 37.4332 6.08208 38.2313 5.53701C39.0295 4.9874 39.8733 4.4287 40.7673 3.85638C41.6612 3.28405 42.505 2.76169 43.3032 2.28476C44.1014 1.81236 44.7901 1.42627 45.3693 1.12648C45.9486 0.826691 46.3134 0.676796 46.4548 0.676796C48.0968 0.676796 49.5198 0.999296 50.7285 1.64884C51.9372 2.29838 52.936 3.1705 53.7342 4.26518C54.5324 5.35987 55.1344 6.6317 55.5449 8.07614C55.9554 9.52058 56.1606 11.015 56.1606 12.5593V27.2036C56.1606 28.053 56.2062 28.9705 56.3066 29.9698C56.4024 30.9691 56.5711 31.9366 56.8129 32.886C57.0546 33.8308 57.4286 34.7029 57.9349 35.5023C58.4411 36.3017 59.0797 36.9195 59.855 37.3692H41.9622C42.733 36.9195 43.3625 36.2881 43.8459 35.4614C44.3294 34.6393 44.6897 33.7672 44.9314 32.8451C45.1732 31.923 45.3419 30.9646 45.4377 29.9698C45.5335 28.9751 45.5837 28.053 45.5837 27.2036V12.8546C45.5837 12.1097 45.5107 11.3375 45.3647 10.538C45.2188 9.74315 44.9771 9.01638 44.6395 8.37138C44.302 7.72638 43.8322 7.20402 43.2256 6.8043C42.619 6.40459 41.8847 6.20473 41.0181 6.20473C40.1515 6.20473 39.3989 6.40459 38.7741 6.8043C38.1447 7.20402 37.6156 7.71276 37.1823 8.33505C36.749 8.95734 36.4206 9.67047 36.2063 10.4654C35.9873 11.2648 35.855 12.0597 35.8094 12.8546V27.199C35.8094 28.0485 35.855 28.966 35.9554 29.9653C36.0512 30.9646 36.2199 31.9321 36.4617 32.8814C36.7034 33.8262 37.0774 34.6983 37.5837 35.4978C38.0899 36.2972 38.7285 36.9149 39.5039 37.3646H21.611C22.3819 36.9149 23.0113 36.2836 23.4947 35.4569C23.9782 34.6347 24.3385 33.7626 24.5802 32.8405C24.822 31.9185 24.9907 30.96 25.0865 29.9653C25.1823 28.9705 25.2325 28.0485 25.2325 27.199V12.8546C25.2325 12.1097 25.1595 11.3375 25.0135 10.538C24.8676 9.74315 24.6259 9.01638 24.2884 8.37138C23.9508 7.72638 23.481 7.20402 22.8744 6.8043C22.2678 6.40459 21.5335 6.20473 20.6669 6.20473C19.1709 6.20473 18.0124 6.74071 17.1914 7.81269C16.3704 8.88466 15.8368 10.1156 15.5996 11.5101V27.2036C15.5996 28.053 15.6361 28.9705 15.7091 29.9698C15.7821 30.9691 15.9372 31.9366 16.1789 32.886C16.4206 33.8308 16.7809 34.7029 17.2644 35.5023C17.7479 36.3017 18.4001 36.9195 19.2211 37.3692H1.32825C2.09906 36.9195 2.72848 36.2881 3.21195 35.4614C3.69542 34.6393 4.06942 33.7672 4.33396 32.8451C4.5985 31.923 4.78093 30.9646 4.87671 29.9698C4.97249 28.9751 5.02267 28.053 5.02267 27.2036V16.5929C5.02267 15.5482 4.92689 14.5897 4.73077 13.7176C4.5392 12.8455 4.2701 12.037 3.93259 11.2875C3.59508 10.5426 3.1709 9.80674 2.66463 9.08452C2.15836 8.3623 1.58824 7.60374 0.963379 6.8043C2.65551 6.50451 4.08766 6.21835 5.27353 5.94582C6.45483 5.67328 7.56771 5.33715 8.60762 4.93744C9.64753 4.53772 10.7102 4.05169 11.7958 3.47937C12.8813 2.90705 14.1492 2.1712 15.5996 1.27637V7.10409C15.9371 6.75434 16.6395 6.23198 17.7023 5.53701C18.765 4.83751 19.887 4.12891 21.0728 3.40669C22.2541 2.68447 23.3442 2.04856 24.334 1.50349C25.3237 0.953874 25.9166 0.681338 26.1082 0.681338C28.6167 0.681338 30.6373 1.41718 32.1561 2.88433C33.6749 4.35603 34.7285 6.18656 35.3077 8.37593L35.2348 7.85357L35.2256 7.84902Z" fill="#FFB400"/>
</svg>
