<svg width="39" height="39" viewBox="0 0 39 39" fill="none" xmlns="http://www.w3.org/2000/svg">
<path id="Vector" d="M3.02294 18.9367C3.02751 19.6862 2.55772 20.3493 1.85076 20.5901L0.760677 20.958L1.62271 24.8598L4.07197 24.669V24.6826C4.33651 25.3867 4.12671 26.1725 3.54746 26.6404L2.65349 27.3626L4.79717 30.7556L7.02294 29.7382L7.03206 29.7473C7.52008 30.3241 7.58851 31.1372 7.20994 31.7731L6.617 32.7679L9.77779 35.2434L11.511 33.5219L11.552 33.5446C12.1814 33.9125 12.519 34.6347 12.3867 35.3479L12.1678 36.5289L15.9716 37.7871L16.9979 35.5704H17.0115C17.7504 35.7112 18.3297 36.3017 18.4574 37.0421L18.6489 38.1822L22.6353 38.0732L22.8359 35.6295H22.8405C23.5794 35.5068 24.3274 35.8657 24.6968 36.5243L25.267 37.5372L28.9522 36.0746L28.3046 33.7036H28.3137C28.9568 33.3311 29.7641 33.3992 30.3342 33.8898L31.2282 34.662L34.17 32.0229L32.747 30.0016L32.7561 29.9925C33.2305 29.4248 34.0058 29.2158 34.7037 29.4838L35.812 29.9153L37.6546 26.4132L35.6341 24.987V24.9733C35.8895 24.2784 36.5463 23.8105 37.2898 23.8287L38.4665 23.8559L38.991 19.9178L36.6147 19.2592V19.2456C36.6102 18.5052 37.0572 17.842 37.755 17.6013L38.8724 17.2242L38.0104 13.3224L35.5611 13.5132V13.4996C35.2966 12.8001 35.4927 12.0234 36.0628 11.5601L36.9796 10.8197L34.8359 7.4266L32.6102 8.44406L32.601 8.43498C32.113 7.85811 32.0446 7.04505 32.4232 6.40459L33.0115 5.40983L29.8462 2.9343L28.113 4.65582H28.1039C27.4517 4.26972 27.1096 3.52479 27.2419 2.79349L27.4517 1.65338L23.6478 0.395178L22.6216 2.6118H22.6079C21.869 2.47099 21.2898 1.88504 21.1666 1.14465L20.975 0.0045433L16.9887 0.113558L16.7881 2.55729H16.7835C16.0446 2.68448 15.2966 2.32564 14.9272 1.66701L14.357 0.654086L10.6717 2.11669L11.324 4.4923H11.3148C10.6672 4.8693 9.85075 4.783 9.28063 4.28789L8.39581 3.52479L5.45395 6.16839L6.88155 8.19878L6.87242 8.20786C6.39807 8.77565 5.60902 8.97096 4.90663 8.70297L3.80742 8.276L1.96479 11.7781L3.99443 13.2089V13.2225C3.73901 13.922 3.06855 14.3763 2.32055 14.3626L1.15293 14.3354L0.628418 18.2735L3.00925 18.9321V18.9458L3.02294 18.9367ZM27.0321 27.358C26.95 28.5572 26.7493 29.72 26.43 30.8465C26.1062 31.9775 25.641 32.9496 25.0252 33.7717C24.4095 34.5938 23.552 35.0117 22.4483 35.0254C21.2487 35.039 20.1723 34.6256 19.2236 33.7762C18.2749 32.9268 17.4311 31.8276 16.6923 30.4695C15.9534 29.1159 15.3194 27.6033 14.7949 25.9363C14.2704 24.2693 13.8371 22.6114 13.5041 20.9625C13.1712 19.3137 12.9203 17.7875 12.7607 16.3794C12.5965 14.9713 12.5098 13.8357 12.5007 12.9727C12.4916 12.305 12.5144 11.4192 12.5737 10.3155C12.633 9.21625 12.7972 8.13519 13.0708 7.07684C13.3445 6.02304 13.7641 5.1055 14.3297 4.33332C14.8952 3.56113 15.6843 3.16596 16.6923 3.15233C17.9876 3.13416 19.137 3.52479 20.1313 4.32877C21.1256 5.12821 22.0195 6.1593 22.804 7.41751C23.5885 8.67572 24.2453 10.102 24.7698 11.7009C25.2943 13.2997 25.7367 14.8804 26.0925 16.4566C26.4483 18.0328 26.7082 19.5363 26.8724 20.9671C27.0366 22.4024 27.1233 23.5743 27.137 24.4828C27.1461 25.2005 27.1096 26.1589 27.0321 27.3535V27.358Z" fill="#FFB400"/>
</svg>
