<svg width="19" height="53" viewBox="0 0 19 53" fill="none" xmlns="http://www.w3.org/2000/svg">
<path id="Vector" d="M14.5494 6.33575V42.4967C14.5494 43.3415 14.5859 44.2591 14.6589 45.2538C14.7319 46.2486 14.9006 47.2025 15.1652 48.1245C15.4297 49.0421 15.7992 49.9006 16.2826 50.6955C16.7615 51.4904 17.3864 52.1354 18.1572 52.635H0.360153C1.17657 52.1354 1.82424 51.4904 2.30314 50.6955C2.78205 49.9006 3.14237 49.0421 3.3841 48.1245C3.62583 47.2025 3.79003 46.2486 3.89037 45.2538C3.98615 44.2591 4.03632 43.3415 4.03632 42.4967V15.284C4.03632 14.2393 3.94054 13.2854 3.74898 12.4133C3.55742 11.5457 3.29288 10.7372 2.95536 9.99227C2.61785 9.24734 2.19824 8.51603 1.69653 7.79381C1.19482 7.07614 0.629252 6.31758 0.00439453 5.51814C1.68284 5.21835 3.115 4.93673 4.29174 4.65965C5.46848 4.38712 6.57224 4.05099 7.60303 3.65127C8.63381 3.2561 9.69197 2.77007 10.7729 2.19775C11.8539 1.62542 13.1127 0.916832 14.554 0.0719719V5.44092" fill="#FFB400"/>
</svg>
