<svg width="38" height="38" viewBox="0 0 38 38" fill="none" xmlns="http://www.w3.org/2000/svg">
<path id="Vector" d="M35.4117 21.3888C35.5668 19.7808 37.8655 20.5258 37.8655 20.5258V16.6785C37.8655 16.6785 35.6124 17.4325 35.4026 15.7655C35.2019 14.1939 37.4094 14.1121 37.4094 14.1121L36.0868 10.4965C36.0868 10.4965 34.3992 12.0772 33.4779 10.5192C32.666 9.14741 34.7777 8.23896 34.7777 8.23896L32.292 5.29103C32.292 5.29103 31.17 7.20786 29.8199 6.18131C28.5018 5.17747 30.2897 3.61494 30.2897 3.61494L26.9419 1.68902C26.9419 1.68902 26.6364 4.01011 24.967 3.3742C23.0742 2.65198 24.4836 0.798736 24.4836 0.798736L20.6797 0.131023C20.6797 0.131023 21.1951 2.47029 19.3707 2.38398C17.4642 2.29314 18.0617 0.131023 18.0617 0.131023L14.2578 0.798736C14.2578 0.798736 15.6352 2.77916 13.7606 3.36965C12.0366 3.91018 11.804 1.68902 11.804 1.68902L8.4562 3.61494C8.4562 3.61494 10.3764 4.95945 8.93054 6.16314C7.51207 7.33959 6.45392 5.28649 6.45392 5.28649L3.96817 8.23441C3.96817 8.23441 6.22131 8.94301 5.27262 10.4828C4.43339 11.841 2.65916 10.4874 2.65916 10.4874L1.33647 14.103C1.33647 14.103 3.70819 13.8214 3.33875 15.77C2.98755 17.6233 0.880371 16.6694 0.880371 16.6694V20.5167C0.880371 20.5167 2.99212 19.5492 3.33419 21.3843C3.70363 23.3738 1.33647 23.0785 1.33647 23.0785L2.65916 26.6942C2.65916 26.6942 4.49269 25.4178 5.24981 26.6442C6.23955 28.2385 3.96361 28.9471 3.96361 28.9471L6.44936 31.895C6.44936 31.895 7.68995 30.0373 8.89405 30.9821C10.2578 32.0495 8.45164 33.5666 8.45164 33.5666L11.7994 35.4925C11.7994 35.4925 12.032 33.2804 13.788 33.8119C15.4345 34.3115 14.2532 36.3828 14.2532 36.3828L18.0617 37.0505C18.0617 37.0505 17.4596 34.7203 19.3661 34.793C21.2726 34.8657 20.6751 37.046 20.6751 37.046L24.4836 36.3783C24.4836 36.3783 23.2521 34.3569 24.9214 33.8164C26.3536 33.3531 26.9374 35.488 26.9374 35.488L30.2852 33.5621C30.2852 33.5621 28.4972 32.0131 29.7971 31.0093C31.1381 29.9782 32.2874 31.886 32.2874 31.886L34.7732 28.938C34.7732 28.938 32.6614 28.0477 33.4551 26.6896C34.2122 25.3996 36.0822 26.6851 36.0822 26.6851L37.4049 23.0694C37.4049 23.0694 35.2384 23.0921 35.4026 21.3706L35.4117 21.3888ZM23.918 24.7864C23.6535 26.2127 23.2247 27.5526 22.6227 28.8108C22.0206 30.0691 21.2133 31.1229 20.1962 31.9677C19.1791 32.8171 17.9203 33.2441 16.4197 33.2486C15.2065 33.2486 14.2259 32.9398 13.4687 32.3175C12.7162 31.6952 12.1187 30.9094 11.6808 29.9691C11.243 29.0289 10.9465 28.0023 10.796 26.894C10.6455 25.7857 10.5725 24.7682 10.5679 23.8507L10.5086 5.52269C11.0423 5.18202 11.4756 5.01395 11.8177 5.00941C13.9522 5.00033 15.8085 5.46818 17.3866 6.40388C18.9647 7.33959 20.2646 8.566 21.2909 10.0877C22.3125 11.6048 23.0697 13.3036 23.5622 15.1886C24.0503 17.0691 24.3011 18.9541 24.3102 20.8346C24.3102 22.0429 24.1825 23.3601 23.9226 24.7819L23.918 24.7864Z" fill="#FFB400"/>
</svg>
