<svg width="31" height="39" viewBox="0 0 31 39" fill="none" xmlns="http://www.w3.org/2000/svg">
<path id="Vector" d="M14.5893 38.1096C13.2347 38.1096 11.7523 37.937 10.1332 37.5872C8.51402 37.2374 7.00434 36.6924 5.60411 35.9429C4.20388 35.1934 3.0317 34.2123 2.09214 32.9904C1.15257 31.7686 0.678223 30.2878 0.678223 28.5436C0.678223 26.8993 1.1252 25.4821 2.01916 24.2829C2.91312 23.0883 4.20388 22.4887 5.89601 22.4887C7.58814 22.4887 8.87891 23.1246 9.91425 24.3919C10.9542 25.6638 11.6155 27.0446 11.9074 28.539C11.0363 28.539 10.3247 28.8388 9.76831 29.4338C9.21186 30.0334 8.93364 30.7784 8.93364 31.6777C8.93364 32.4226 9.1024 33.0949 9.43991 33.6945C9.77743 34.2941 10.2244 34.7755 10.7808 35.1525C11.3373 35.525 11.953 35.8157 12.6281 36.011C13.3031 36.2109 13.9553 36.3108 14.5847 36.3108C15.3555 36.3108 16.1309 36.2109 16.9017 36.011C17.6725 35.8112 18.3749 35.5023 19.0043 35.0753C19.6338 34.6529 20.14 34.1033 20.5232 33.431C20.9108 32.7588 21.1024 31.9503 21.1024 31.0009C21.1024 29.7064 20.6326 28.6208 19.6885 27.7487C18.7489 26.8765 17.5767 26.0544 16.1765 25.2822C14.7763 24.51 13.2529 23.7378 11.6109 22.9657C9.96899 22.1935 8.44561 21.2987 7.04539 20.2766C5.64516 19.2546 4.47298 18.0237 3.53342 16.5792C2.59385 15.1348 2.1195 13.3679 2.1195 11.2739C2.1195 9.37976 2.58929 7.77635 3.53342 6.45455C4.47298 5.13729 5.64516 4.03807 7.04539 3.16595C8.44561 2.29384 10.0009 1.65792 11.7158 1.2582C13.4308 0.858486 15.0363 0.658627 16.5323 0.658627C17.8823 0.658627 19.3464 0.822148 20.9154 1.14465C22.4844 1.46715 23.9348 2.00314 25.262 2.75261C26.5893 3.49754 27.6885 4.4605 28.5596 5.62786C29.4308 6.79976 29.8641 8.25783 29.8641 9.99751C29.8641 11.5419 29.4399 12.7637 28.5961 13.6586C27.7523 14.5534 26.5802 15.0031 25.0842 15.0031C23.5881 15.0031 22.2609 14.5307 21.2438 13.5859C20.2312 12.6411 19.506 11.4465 19.0728 9.99751C19.8937 9.99751 20.5232 9.73406 20.9564 9.2117C21.3897 8.68934 21.6087 8.03071 21.6087 7.23128C21.6087 5.73687 21.0522 4.56497 19.9439 3.72011C18.831 2.87525 17.5995 2.45282 16.2495 2.45282C14.6577 2.45282 13.3259 2.96155 12.2632 3.98356C11.2005 5.00557 10.6714 6.33645 10.6714 7.98075C10.6714 9.22533 11.164 10.2973 12.1583 11.1921C13.148 12.087 14.3795 12.9227 15.8527 13.6949C17.3259 14.4671 18.9177 15.2257 20.6326 15.9751C22.3476 16.7201 23.9393 17.6194 25.4125 18.6641C26.8857 19.7089 28.1172 20.9444 29.107 22.3615C30.0967 23.7787 30.5938 25.5139 30.5938 27.5533C30.5938 29.5928 30.0511 31.3007 28.9656 32.6725C27.88 34.0442 26.5391 35.1253 24.9473 35.9247C23.3555 36.7242 21.6269 37.2829 19.766 37.6054C17.9051 37.9279 16.1811 38.0914 14.5847 38.0914L14.5893 38.1096Z" fill="#FFB400"/>
</svg>
