<svg width="100" height="53" viewBox="0 0 100 53" fill="none" xmlns="http://www.w3.org/2000/svg">
<path id="Vector" d="M0.719727 25.7692C0.719727 23.9841 1.14846 22.4579 2.00593 21.1951C2.86339 19.9324 3.9626 18.8876 5.31265 18.07C6.65815 17.2524 8.12679 16.6574 9.71858 16.2849C11.3104 15.9125 12.8383 15.7262 14.307 15.7262C17.7323 15.7262 21.1485 15.7398 24.551 15.7626C27.9535 15.7898 31.3697 15.7762 34.795 15.7262C34.9409 15.7262 35.2602 15.6263 35.7482 15.4264C36.2363 15.2266 36.5555 15.0812 36.7015 14.9813C38.7585 13.9911 40.4461 12.5512 41.7688 10.6661C42.7357 9.2853 43.5339 7.7909 44.1633 6.24653C44.1906 6.17839 44.6148 6.22382 44.9797 6.27832C45.267 6.3192 45.5179 6.36917 45.5179 6.36917V15.7262C45.6684 15.7262 80.3457 15.7262 80.4962 15.7171C81.2898 15.6853 82.1154 15.5763 82.9774 15.3901C84.0036 15.1675 84.9478 14.8087 85.8052 14.309C86.6627 13.8139 87.7847 13.0372 88.5692 11.8426C90.1154 9.15812 89.2306 6.15569 86.5031 5.07009C86.6308 4.85206 86.7585 4.63857 86.8953 4.43417C87.429 3.6211 89.7961 3.83459 90.4666 3.23501C91.8623 1.97681 91.7847 0.300713 93.7779 0.300713C95.5384 0.300713 96.9751 0.909373 98.0743 2.12216C99.1781 3.33948 99.7254 5.26994 99.7254 7.00509C99.7254 8.74023 99.3104 11.0522 98.4757 12.265C96.7836 14.7633 94.0561 16.3167 91.1325 16.989C89.6137 17.3387 88.145 17.5113 86.7266 17.5113H45.5179V43.8519C45.5179 45.2918 45.9968 46.3183 46.9501 46.9406C47.9033 47.5629 49.0162 47.8718 50.2933 47.8718C50.9774 47.8718 51.6525 47.7991 52.3138 47.6492C52.9751 47.4993 53.6 47.254 54.1884 46.9043V47.6492C52.7197 49.0392 51.0185 50.1793 49.0846 51.0741C47.1507 51.9689 45.153 52.4141 43.1006 52.4141C41.6319 52.4141 40.3685 52.1415 39.3195 51.5964C38.2659 51.0514 37.4084 50.3201 36.7471 49.4025C36.0857 48.485 35.5977 47.4176 35.2785 46.2048C34.9592 44.992 34.7995 43.7111 34.7995 42.3711V17.5204H17.8326C16.9979 17.5204 16.1678 17.634 15.3377 17.8565C14.5031 18.0791 13.7596 18.4152 13.0983 18.8604C12.4369 19.3055 11.8987 19.8779 11.4837 20.5728C11.0686 21.2678 10.8588 22.0854 10.8588 23.0302C10.8588 24.0249 11.1143 24.8925 11.6296 25.6329C12.145 26.3778 12.8155 26.9501 13.6502 27.3453C11.9854 30.2206 9.56351 31.6605 6.37993 31.6605C4.66499 31.6605 3.29669 31.1018 2.26591 29.9844C1.23968 28.867 0.724285 27.468 0.724285 25.7782L0.719727 25.7692Z" fill="#FFB400"/>
</svg>
