<?xml version="1.0" encoding="utf-8"?>
<!-- Generator: Adobe Illustrator 27.8.1, SVG Export Plug-In . SVG Version: 6.00 Build 0)  -->
<svg version="1.1" id="Layer_1" xmlns="http://www.w3.org/2000/svg" xmlns:xlink="http://www.w3.org/1999/xlink" x="0px" y="0px"
	 viewBox="0 0 262.29 242.96" style="enable-background:new 0 0 262.29 242.96;" xml:space="preserve">
<style type="text/css">
	.st0{fill:#117271;}
	.st1{fill:#036868;}
</style>
<rect class="st0" width="262.29" height="242.96"/>
<path class="st1" d="M53.65,108.46l0.05-1.77l-6.05-0.8l-1.01,3.58h-0.02c-1.14,0-2.16-0.67-2.52-1.72l-0.58-1.68l-6,1.29l0.29,3.69
	h-0.02c-1.08,0.4-2.27,0.1-2.98-0.76l-1.14-1.38l-5.22,3.22l1.56,3.36L30,115.49c-0.89,0.73-2.14,0.84-3.12,0.26l-1.52-0.89
	l-3.81,4.76l2.64,2.62l-0.01,0.02c-0.59,0.98-1.73,1.5-2.85,1.29l-1.76-0.32l-1.95,5.73l3.4,1.55v0.02
	c-0.22,1.12-1.12,1.99-2.26,2.17L17.01,133l0.16,6.01l3.76,0.3v0.01c0.19,1.12-0.36,2.24-1.37,2.79l-1.56,0.86l2.24,5.57l3.65-0.98
	l0.01,0.01c0.57,0.97,0.43,2.21-0.32,3.06l-1.18,1.33l4.05,4.44l3.12-2.15l0.02,0.01c0.87,0.72,1.17,1.91,0.75,2.96l-0.66,1.66
	l5.37,2.79l2.2-3.06h0.02c1.08,0.39,1.77,1.4,1.74,2.53l-0.05,1.76l6.05,0.8l1.01-3.59h0.02c1.15,0,2.17,0.71,2.53,1.77l0.57,1.64
	l6-1.29l-0.29-3.69h0.02c1.09-0.4,2.29-0.08,3.01,0.8l1.11,1.35l5.21-3.22l-1.55-3.36l0.02-0.01c0.89-0.73,2.14-0.84,3.11-0.26
	l1.53,0.89l3.81-4.76l-2.64-2.62l0.04-0.07c0.57-0.95,1.68-1.45,2.77-1.25l1.81,0.33l1.94-5.73l-3.4-1.55v-0.02
	c0.22-1.12,1.12-1.99,2.26-2.18l1.75-0.29l-0.16-6.01l-3.76-0.31v-0.01c-0.19-1.12,0.37-2.24,1.38-2.8l1.55-0.86l-2.24-5.56
	l-3.64,0.97l-0.01-0.01c-0.56-0.97-0.46-2.19,0.3-3.05l1.19-1.34l-4.05-4.44l-3.11,2.14l-0.02-0.01c-0.87-0.72-1.19-1.89-0.77-2.94
	l0.66-1.67l-5.37-2.79l-2.19,3.04h-0.02c-1.07-0.39-1.78-1.38-1.76-2.5H53.65z M68.61,134.84c-0.02,12.12-10.01,21.93-22.31,21.91
	c-12.3-0.02-22.25-9.86-22.23-21.98c0.02-12.12,10.01-21.93,22.31-21.91C58.68,112.87,68.63,122.72,68.61,134.84z"/>
<path class="st1" d="M46.38,114.32c-11.48-0.02-20.8,9.14-20.82,20.45c-0.02,11.31,9.27,20.5,20.75,20.51
	c11.48,0.02,20.8-9.14,20.82-20.45C67.15,123.52,57.85,114.34,46.38,114.32z M34.18,140.66c-3.29,0-5.96-2.64-5.95-5.88
	c0.01-3.25,2.68-5.87,5.97-5.86c3.29,0.01,5.96,2.64,5.95,5.88C40.14,138.04,37.47,140.66,34.18,140.66z M46.31,152.65
	c-3.29,0-5.96-2.64-5.95-5.88c0.01-3.24,2.68-5.87,5.97-5.86c3.29,0,5.96,2.64,5.95,5.88C52.27,150.03,49.6,152.66,46.31,152.65z
	 M44.38,134.8c0-1.07,0.88-1.93,1.96-1.93c1.08,0,1.96,0.87,1.96,1.93c0,1.07-0.88,1.93-1.96,1.93
	C45.25,136.73,44.38,135.86,44.38,134.8z M46.34,128.7c-3.29,0-5.96-2.64-5.95-5.88c0.01-3.24,2.68-5.87,5.97-5.86
	c3.29,0,5.96,2.64,5.95,5.88C52.31,126.08,49.64,128.71,46.34,128.7z M58.48,140.7c-3.29,0-5.96-2.64-5.95-5.88
	c0.01-3.25,2.68-5.87,5.97-5.86c3.29,0,5.96,2.64,5.95,5.88C64.44,138.07,61.77,140.7,58.48,140.7z"/>
<path class="st1" d="M126.85,19.99l0.04-1.45l-4.96-0.65l-0.83,2.94h-0.02c-0.94,0.01-1.77-0.55-2.07-1.42l-0.47-1.38l-4.92,1.06
	l0.24,3.03h-0.02c-0.88,0.32-1.86,0.09-2.44-0.62l-0.93-1.13L106.18,23l1.28,2.75l-0.01,0.01c-0.73,0.6-1.76,0.68-2.56,0.22
	l-1.25-0.73l-3.12,3.91l2.17,2.15l-0.01,0.02c-0.48,0.8-1.42,1.23-2.34,1.06l-1.44-0.26l-1.6,4.7l2.79,1.27v0.02
	c-0.18,0.91-0.92,1.63-1.85,1.78l-1.44,0.23l0.13,4.93l3.08,0.25v0.01c0.15,0.91-0.3,1.84-1.13,2.29l-1.28,0.71l1.84,4.57l3-0.8
	l0.01,0.02c0.46,0.8,0.35,1.81-0.27,2.52l-0.97,1.09l3.32,3.65l2.56-1.77l0.01,0.01c0.72,0.59,0.96,1.57,0.62,2.43l-0.54,1.36
	l4.41,2.29l1.81-2.51h0.01c0.88,0.32,1.46,1.15,1.43,2.07l-0.04,1.44l4.96,0.65l0.83-2.94h0.02c0.94,0,1.78,0.58,2.08,1.46
	l0.46,1.35l4.92-1.06l-0.24-3.03h0.01c0.89-0.32,1.88-0.06,2.47,0.65l0.91,1.11l4.28-2.64l-1.28-2.75l0.01-0.01
	c0.73-0.6,1.75-0.69,2.55-0.22l1.26,0.74l3.12-3.91l-2.17-2.15l0.03-0.05c0.46-0.78,1.38-1.19,2.27-1.03l1.49,0.27l1.6-4.7
	l-2.79-1.27v-0.02c0.18-0.91,0.92-1.63,1.86-1.79l1.44-0.24l-0.13-4.93l-3.08-0.25V37.9c-0.15-0.92,0.3-1.84,1.13-2.3l1.28-0.71
	l-1.84-4.57l-2.99,0.8l-0.01-0.02c-0.46-0.8-0.38-1.8,0.25-2.5l0.98-1.11l-3.33-3.65l-2.55,1.76l-0.01-0.01
	c-0.71-0.59-0.98-1.55-0.63-2.41l0.54-1.37l-4.41-2.29l-1.8,2.5h-0.01c-0.88-0.32-1.46-1.13-1.44-2.05L126.85,19.99z M103.43,35.53
	c6.79,3.69,8.32,10.92,2.79,16.98C102.48,48.49,101.36,41.65,103.43,35.53z M126.89,58.55c-4.25,2.55-13.72,0.98-17.5-2.9
	C114.89,50.84,121.98,50.89,126.89,58.55z M130.74,56.77c-2.9-6.68-1.37-13.55,8.36-15.98C140.25,45.95,136.07,53.94,130.74,56.77z
	 M124.81,39.76c1.02,2.2,0.06,4.76-2.18,5.76c-2.19,0.98-4.89-0.04-5.85-2.2c-0.96-2.17,0.11-4.82,2.3-5.75
	C121.24,36.64,123.81,37.63,124.81,39.76z M138.65,36.74c-8.45,0.59-13.75-3.49-13.16-12.8C132.24,25.99,136.59,30.17,138.65,36.74z
	 M121.28,23.54c-1.74,7.89-8.44,11.32-15.75,8.06C107.86,26.81,116.07,22.61,121.28,23.54z"/>
<path class="st1" d="M236.38,84.69c-1.61-0.15-0.85-2.4-0.85-2.4h-3.84c0,0,0.75,2.2-0.91,2.4c-1.57,0.19-1.65-1.97-1.65-1.97
	l-3.61,1.29c0,0,1.57,1.66,0.02,2.56c-1.37,0.79-2.27-1.28-2.27-1.28l-2.94,2.43c0,0,1.91,1.1,0.88,2.42
	c-1,1.29-2.56-0.46-2.56-0.46l-1.93,3.28c0,0,2.32,0.3,1.68,1.94c-0.73,1.86-2.57,0.47-2.57,0.47l-0.67,3.72c0,0,2.34-0.5,2.25,1.28
	c-0.09,1.87-2.25,1.28-2.25,1.28l0.66,3.73c0,0,1.98-1.35,2.57,0.49c0.54,1.69-1.68,1.91-1.68,1.91l1.92,3.28
	c0,0,1.35-1.88,2.54-0.46c1.17,1.39-0.88,2.42-0.88,2.42l2.94,2.44c0,0,0.71-2.21,2.24-1.27c1.35,0.82,0,2.56,0,2.56l3.61,1.3
	c0,0-0.28-2.32,1.66-1.96c1.85,0.34,0.89,2.4,0.89,2.4h3.84c0,0-0.96-2.06,0.87-2.39c1.99-0.36,1.69,1.96,1.69,1.96l3.61-1.29
	c0,0-1.27-1.8-0.05-2.54c1.59-0.97,2.3,1.26,2.3,1.26l2.94-2.43c0,0-1.85-1.22-0.91-2.4c1.07-1.33,2.58,0.44,2.58,0.44l1.93-3.28
	c0,0-2.21-0.23-1.67-1.95c0.5-1.61,2.57-0.45,2.57-0.45l0.68-3.73c0,0-2.33,0.59-2.25-1.28c0.08-1.87,2.26-1.28,2.26-1.28
	l-0.66-3.73c0,0-2.02,1.2-2.55-0.43c-0.46-1.4,1.67-1.97,1.67-1.97l-1.92-3.28c0,0-1.55,1.75-2.55,0.47
	c-1.03-1.31,0.88-2.43,0.88-2.43l-2.94-2.44c0,0-0.89,2.07-2.25,1.29c-1.29-0.74,0-2.57,0-2.57l-3.61-1.3c0,0,0.02,2.12-1.7,1.96
	L236.38,84.69z M226.3,110.39c-2.78-1.38-4.53-3.69-5.28-6.6c-0.42-1.62-0.36-3.35-0.53-5.16c2.54,1.41,4.75,2.5,6.81,3.8
	c1.32,0.84,2.62,1.84,3.57,3.04c1.11,1.41,0.86,3.17-0.16,4.24C229.61,110.89,227.92,111.21,226.3,110.39L226.3,110.39z
	 M243.34,103.27c1.05,0.99,1.37,2.24,0.92,3.59c-0.91,2.72-3.01,4.35-5.54,5.47c-2.09,0.92-4.3,1.17-6.49,0.73
	c1.32-2.34,2.58-4.61,3.87-6.87c0.87-1.52,1.88-2.89,3.67-3.46C241.04,102.31,242.29,102.28,243.34,103.27z M233.24,103.52
	c-1.63-0.16-2.99-1.81-2.84-3.44c0.16-1.73,1.8-3.05,3.55-2.87c1.74,0.18,3.03,1.82,2.82,3.56
	C236.58,102.4,234.92,103.68,233.24,103.52L233.24,103.52z M240.56,90.02c3.72,1.69,5.52,4.73,6.03,8.6
	c0.14,1.06,0.02,2.14,0.01,3.22c-2.49-1.37-4.75-2.64-7.02-3.87c-1.57-0.85-2.96-1.85-3.56-3.59c-0.46-1.31-0.51-2.62,0.6-3.64
	C237.74,89.71,239.1,89.36,240.56,90.02z M235.2,87.78c-1.27,2.22-2.38,4.45-3.75,6.5c-0.88,1.31-1.98,2.6-3.27,3.51
	c-1.44,1.01-3.12,0.65-4.14-0.4c-1.1-1.13-1.3-2.72-0.54-4.26C225.47,89.1,230.93,86.64,235.2,87.78L235.2,87.78z"/>
<path class="st1" d="M61.66,182.81c-2.76-0.26-1.47-4.14-1.47-4.14l-6.61-0.01c0,0,1.29,3.79-1.57,4.14
	c-2.7,0.33-2.83-3.39-2.83-3.39l-6.21,2.22c0,0,2.71,2.85,0.03,4.39c-2.36,1.36-3.91-2.2-3.91-2.2L34.02,188
	c0,0,3.28,1.89,1.52,4.17c-1.72,2.22-4.4-0.8-4.4-0.8L27.83,197c0,0,3.98,0.52,2.89,3.33c-1.25,3.19-4.43,0.81-4.43,0.81l-1.16,6.41
	c0,0,4.02-0.86,3.87,2.21c-0.16,3.22-3.87,2.2-3.87,2.2l1.14,6.42c0,0,3.41-2.32,4.42,0.85c0.93,2.91-2.89,3.29-2.89,3.29l3.29,5.65
	c0,0,2.32-3.23,4.38-0.79c2.02,2.39-1.51,4.17-1.51,4.17l5.06,4.19c0,0,1.23-3.79,3.86-2.19c2.33,1.41,0,4.4,0,4.4l6.21,2.24
	c0,0-0.48-4,2.86-3.37c3.18,0.6,1.53,4.14,1.53,4.14l6.61,0.01c0,0-1.65-3.56,1.5-4.13c3.41-0.62,2.9,3.37,2.9,3.37l6.21-2.22
	c0,0-2.18-3.09-0.08-4.37c2.74-1.66,3.95,2.17,3.95,2.17l5.07-4.17c0,0-3.19-2.09-1.56-4.12c1.84-2.29,4.44,0.76,4.44,0.76
	l3.32-5.64c0,0-3.8-0.4-2.88-3.36c0.86-2.77,4.42-0.78,4.42-0.78l1.16-6.41c0,0-4,1.01-3.87-2.21c0.13-3.21,3.88-2.2,3.88-2.2
	l-1.14-6.42c0,0-3.47,2.08-4.4-0.74c-0.79-2.42,2.87-3.39,2.87-3.39l-3.29-5.65c0,0-2.67,3.01-4.38,0.81
	c-1.77-2.26,1.51-4.19,1.51-4.19l-5.06-4.19c0,0-1.54,3.56-3.87,2.22c-2.21-1.28,0-4.42,0-4.42l-6.21-2.24c0,0,0.03,3.65-2.92,3.37
	L61.66,182.81z M47.46,197.01c-1.18-1.96-2.34-3.93-3.35-5.98c-0.66-1.33,0.36-2.72,2.2-2.71c0.29,0.23,0.98,0.55,1.32,1.1
	c1.14,1.83,2.3,3.67,3.12,5.64c0.29,0.7-0.09,2.06-0.66,2.63C49.19,198.58,48.07,198.02,47.46,197.01L47.46,197.01z M41.26,207.3
	c-2.32-0.44-4.62-1.1-6.83-1.94c-0.62-0.23-1.3-1.46-1.18-2.09c0.13-0.73,1.12-1.29,1.65-1.84c2.84,0.87,5.28,1.49,7.58,2.42
	c0.54,0.22,1.07,1.62,0.85,2.22C43.11,206.66,41.88,207.42,41.26,207.3L41.26,207.3z M52.35,232c-0.24,0.6-1.71,1.23-2.35,1.02
	c-0.65-0.21-1.47-1.53-1.34-2.19c0.47-2.34,1.23-4.66,2.11-6.88c0.22-0.54,1.44-1.11,2.05-0.97c0.71,0.15,1.25,1.06,1.79,1.57
	C53.82,227.29,53.26,229.72,52.35,232z M66.37,222.76c1.11,1.78,2.07,3.64,3.08,5.46c0.66,1.19,0.39,2.18-0.8,2.81
	c-1.14,0.6-2.06,0.14-2.67-0.9c-1.09-1.86-2.18-3.73-3.16-5.65c-0.73-1.43,0.18-2.93,2.14-2.95C65.27,221.78,66,222.16,66.37,222.76
	z M37.8,222.32c-1.36,0.66-2.81-0.29-2.77-2.15c0.3-0.33,0.74-1.09,1.4-1.49c1.72-1.07,3.55-1.98,5.33-2.95
	c1.17-0.63,2.21-0.47,2.89,0.68c0.63,1.08,0.27,2.07-0.77,2.66C41.88,220.22,39.87,221.33,37.8,222.32L37.8,222.32z M72.38,212.25
	c2.37,0.47,4.72,1.14,6.98,2c0.59,0.22,1.19,1.46,1.08,2.13c-0.11,0.67-1.09,1.21-1.63,1.75c-2.78-0.84-5.28-1.48-7.64-2.4
	c-0.53-0.21-1.02-1.6-0.81-2.2c0.22-0.61,1.42-1.39,2.02-1.27L72.38,212.25z M66.7,210c-0.15,5.15-4.77,9.57-9.93,9.51
	c-5.29-0.06-9.85-4.66-9.75-9.85c0.09-5.34,4.64-9.66,10-9.53C62.44,200.27,66.86,204.77,66.7,210z M78.63,199.37
	c-0.23,0.28-0.54,0.99-1.09,1.32c-1.85,1.12-3.78,2.14-5.69,3.15c-1.18,0.62-2.42,0.41-2.78-0.81c-0.22-0.73,0.28-2.1,0.92-2.55
	c1.76-1.24,3.72-2.22,5.67-3.17C77.16,196.58,78.63,197.47,78.63,199.37z M63.67,186.59c0.63,0.21,1.45,1.41,1.33,2.01
	c-0.47,2.35-1.16,4.67-2.05,6.9c-0.23,0.57-1.52,1.13-2.21,1c-0.67-0.11-1.18-1.1-1.69-1.62c0.85-2.72,1.47-5.13,2.39-7.41
	c0.22-0.55,1.62-1.1,2.22-0.9L63.67,186.59z"/>
<path class="st1" d="M193.66,4.63h-0.03L192.34,0l-7.81,1l0.05,2.27c0.03,1.46-0.88,2.76-2.26,3.25l-0.02,0.01l-2.83-3.95
	l-6.95,3.58l0.84,2.14c0.53,1.36,0.14,2.9-0.98,3.82l-0.02,0.02l-4.03-2.79l-5.24,5.72l1.51,1.72c0.98,1.11,1.14,2.7,0.41,3.96
	L165,20.75l-4.71-1.28l-2.91,7.17l2.01,1.12c1.3,0.73,2.01,2.18,1.76,3.61v0.01l-4.85,0.38l-0.23,7.76l2.26,0.38
	c1.47,0.24,2.63,1.37,2.9,2.81v0.03l-4.39,1.99l2.48,7.41l2.26-0.41c1.45-0.26,2.92,0.41,3.68,1.68l0.01,0.02l-3.42,3.37l4.9,6.16
	l1.97-1.15c1.27-0.74,2.88-0.59,4.02,0.36l0.02,0.02l-2.02,4.33l6.72,4.17l1.47-1.78c0.92-1.11,2.47-1.49,3.85-0.98l0.02,0.01
	l-0.39,4.76l7.73,1.69l0.76-2.17c0.47-1.36,1.79-2.23,3.26-2.22h0.03l1.3,4.62l7.81-1l-0.05-2.28c-0.03-1.45,0.89-2.72,2.28-3.21
	l0.03-0.01l2.81,3.94l6.95-3.58l-0.85-2.16c-0.53-1.36-0.11-2.87,1.01-3.79l0.02-0.02l4.01,2.77l5.24-5.71l-1.53-1.74
	c-0.97-1.11-1.1-2.68-0.38-3.93l0.01-0.02l4.69,1.27l2.91-7.17l-2-1.11c-1.31-0.73-2.01-2.18-1.77-3.62v-0.01l4.85-0.38l0.23-7.75
	l-2.26-0.38c-1.47-0.25-2.63-1.37-2.9-2.82v-0.03l4.39-1.99l-2.48-7.41l-2.34,0.42c-1.41,0.25-2.84-0.4-3.57-1.63l-0.05-0.08
	l3.42-3.37l-4.9-6.16l-1.98,1.15c-1.27,0.74-2.88,0.59-4.02-0.36l-0.02-0.02l2.02-4.33l-6.72-4.18l-1.44,1.73
	c-0.93,1.12-2.49,1.53-3.89,1.02l-0.02-0.01l0.39-4.76l-7.73-1.69l-0.74,2.12C196.47,3.73,195.16,4.64,193.66,4.63L193.66,4.63z
	 M190.67,37.3c0,3.85-7.3,6.96-11.21,6.95c-3.91-0.01-7.07-3.13-7.06-6.98s3.18-6.97,7.09-6.96S190.68,33.45,190.67,37.3
	L190.67,37.3z M193.91,35.01c1.29,0,2.33,1.03,2.33,2.3c0,1.27-1.05,2.29-2.33,2.29c-1.29,0-2.33-1.03-2.33-2.3
	C191.59,36.03,192.63,35.01,193.91,35.01L193.91,35.01z M193.9,40.49c3.91,0.01,7.07,7.19,7.06,11.05s-3.18,6.97-7.09,6.96
	c-3.91-0.01-7.07-3.13-7.07-6.98C186.81,47.66,189.99,40.49,193.9,40.49L193.9,40.49z M197.14,37.31c0.01-3.85,7.3-6.96,11.21-6.95
	c3.91,0.01,7.07,3.13,7.07,6.98s-3.18,6.97-7.09,6.96C204.42,44.29,197.13,41.16,197.14,37.31z M193.91,34.12
	c-3.91-0.01-7.07-7.19-7.06-11.04c0.01-3.85,3.18-6.97,7.09-6.96c3.91,0.01,7.07,3.13,7.06,6.98
	C201,26.95,197.82,34.13,193.91,34.12z M184.66,24.88c0.96,0.95,0.96,2.5-0.01,3.45c-0.97,0.95-2.53,0.95-3.5-0.01
	c-0.96-0.95-0.96-2.5,0.01-3.44C182.12,23.94,183.69,23.94,184.66,24.88L184.66,24.88z M167.32,37.26
	c0.01-4.46,1.15-8.65,3.16-12.33l1.65,0.94c-1.84,3.4-2.89,7.27-2.9,11.39c-0.01,4.12,1.03,8,2.86,11.4l-1.65,0.93
	C168.45,45.91,167.31,41.71,167.32,37.26L167.32,37.26z M181.3,46.59c0.97-0.95,2.53-0.95,3.5,0.01c0.96,0.95,0.96,2.5-0.01,3.44
	c-0.97,0.95-2.53,0.95-3.5-0.01C180.33,49.08,180.33,47.54,181.3,46.59L181.3,46.59z M171.32,51.1l1.65-0.93
	c4.21,6.63,11.57,11.12,20.01,11.43v1.88C183.84,63.17,175.86,58.29,171.32,51.1z M216.44,51.17c-4.57,7.18-12.56,12.02-21.7,12.31
	V61.6c8.45-0.28,15.83-4.74,20.06-11.36L216.44,51.17L216.44,51.17z M203.33,49.9c-0.96-0.95-0.96-2.5,0.01-3.44
	c0.97-0.95,2.53-0.95,3.49,0.01c0.96,0.95,0.96,2.5,0,3.44C205.86,50.85,204.29,50.85,203.33,49.9L203.33,49.9z M220.49,37.34
	c-0.01,4.46-1.15,8.66-3.16,12.33l-1.65-0.94c1.84-3.4,2.89-7.27,2.9-11.4c0.01-4.12-1.03-8-2.86-11.4l1.65-0.93
	C219.36,28.68,220.49,32.88,220.49,37.34L220.49,37.34z M206.68,28.19c-0.97,0.95-2.53,0.95-3.49-0.01c-0.96-0.95-0.96-2.5,0-3.44
	c0.97-0.95,2.53-0.95,3.5,0.01C207.65,25.7,207.65,27.24,206.68,28.19z M216.48,23.5l-1.65,0.93c-4.21-6.63-11.57-11.12-20.01-11.43
	v-1.88C203.96,11.43,211.94,16.31,216.48,23.5z M193.06,13c-8.45,0.28-15.82,4.74-20.06,11.36l-1.64-0.94
	c4.57-7.18,12.56-12.02,21.7-12.31L193.06,13L193.06,13z"/>
<path class="st1" d="M120.92,91.89c-3.05-0.29-1.63-4.57-1.63-4.57l-7.3-0.01c0,0,1.42,4.19-1.74,4.58
	c-2.98,0.37-3.13-3.74-3.13-3.74l-6.86,2.45c0,0,2.99,3.15,0.04,4.85c-2.6,1.51-4.32-2.43-4.32-2.43l-5.6,4.61
	c0,0,3.63,2.09,1.68,4.6c-1.9,2.46-4.86-0.88-4.86-0.88l-3.66,6.22c0,0,4.41,0.57,3.19,3.68c-1.37,3.53-4.89,0.89-4.89,0.89
	l-1.28,7.08c0,0,4.44-0.95,4.27,2.44c-0.18,3.55-4.28,2.42-4.28,2.42l1.26,7.09c0,0,3.76-2.56,4.88,0.94
	c1.02,3.21-3.2,3.64-3.2,3.64l3.64,6.23c0,0,2.56-3.57,4.83-0.87c2.23,2.64-1.67,4.61-1.67,4.61l5.59,4.64c0,0,1.35-4.2,4.27-2.42
	c2.58,1.57,0,4.86,0,4.86l6.86,2.47c0,0-0.52-4.41,3.17-3.72c3.51,0.66,1.7,4.57,1.7,4.57l7.3,0.02c0,0-1.83-3.94,1.65-4.57
	c3.77-0.68,3.21,3.73,3.21,3.73l6.87-2.45c0,0-2.41-3.41-0.09-4.82c3.02-1.84,4.37,2.4,4.37,2.4l5.6-4.62c0,0-3.52-2.31-1.72-4.56
	c2.03-2.53,4.9,0.83,4.9,0.83l3.66-6.22c0,0-4.2-0.44-3.18-3.71c0.95-3.06,4.88-0.86,4.88-0.86l1.28-7.08c0,0-4.42,1.12-4.27-2.43
	c0.15-3.55,4.28-2.43,4.28-2.43l-1.26-7.09c0,0-3.84,2.29-4.86-0.82c-0.88-2.67,3.18-3.75,3.18-3.75l-3.64-6.23
	c0,0-2.95,3.32-4.84,0.9c-1.95-2.5,1.67-4.63,1.67-4.63l-5.59-4.63c0,0-1.7,3.93-4.27,2.45c-2.45-1.41,0-4.88,0-4.88l-6.86-2.47
	c0,0,0.04,4.03-3.23,3.72L120.92,91.89z M133.52,139.91c-3.04,2.91-6.8,5.09-10.99,6.24l-1.52-15.14L133.52,139.91z M108.56,146.14
	c-4.1-1.14-7.86-3.27-10.99-6.28l12.55-8.88L108.56,146.14L108.56,146.14z M89.83,121.68c0-2.16,0.28-4.26,0.8-6.26l14.09,6.28
	l-14.12,6.24C90.09,125.92,89.83,123.82,89.83,121.68L89.83,121.68z M141.34,121.77c0,2.16-0.28,4.26-0.8,6.25l-14.07-6.27
	l14.09-6.24C141.08,117.51,141.35,119.61,141.34,121.77z M123.14,121.74c0,4.11-3.4,7.44-7.57,7.44c-4.18,0-7.56-3.35-7.55-7.46
	c0-4.11,3.4-7.44,7.57-7.44C119.77,114.28,123.15,117.62,123.14,121.74z M133.58,103.59l-12.54,8.86l1.57-15.15
	C126.8,98.48,130.55,100.67,133.58,103.59z M110.18,112.44l-12.52-8.91c3.04-2.91,6.81-5.09,11-6.25L110.18,112.44L110.18,112.44z"
	/>
<path class="st1" d="M38.5,20.64c-3.63,0.67-10.53,3.54-10.62,3.59c-0.05,0.02-4.06-2.16-5.71-3c-3.3,2.88-6.58,5.77-9.84,8.69
	c0.75,1.89,1.93,3.58,2.75,5.42c-2.19,3.11-4.89,7.13-6.05,10.73c-0.08,0.24,0,0-5.39,0.88c0.02,1.65-0.03,15.05-0.03,15.05
	l5.69,0.71c0.76,3.59,1.9,7.06,3.69,10.3c-1.02,1.76-2.37,3.31-3.34,5.1c2.97,3.29,5.95,6.57,8.95,9.83
	c1.53-0.94,5.59-2.87,5.59-2.87c5.44,3.65,10.44,5.05,10.44,5.05c0.28,1.72,0.91,4.06,1.25,5.76c4.39,0.26,8.78,0.51,13.17,0.71
	c0.93-1.77,1.24-3.75,2.03-5.57c3.75-0.7,11.13-3.92,11.4-3.77c0.8,0.47,2.62,2.54,3.98,3.45l10.95-9.51
	c-0.84-1.94-2.28-3.54-3.01-4.7c1.3-1.75,5.25-10.64,5.5-10.7c1.77-0.42,3.81-0.73,5.53-1.32c0.27-4.29,0.51-8.58,0.72-12.86
	c-1.63-0.81-3.85-1.19-5.54-1.81c-0.26-0.1-0.55-4.09-3.98-11.21c0.56-0.98,1.8-2.6,3.24-4.97l-9.33-10.38
	c-2.88,2.05-3.85,2.57-4.94,3.34c-3.29-2.25-6.85-3.91-10.68-5.05c-0.53-1.9-0.34-3.71-0.77-5.95c-4.35-0.27-9.28-0.29-13.63-0.5
	C39.61,16.85,39.26,18.82,38.5,20.64L38.5,20.64z M42.95,57.72c-1.06-1.05-1.06-2.75,0.01-3.79c1.07-1.05,2.79-1.04,3.86,0.01
	c1.07,1.05,1.06,2.75-0.01,3.79C45.74,58.77,44.01,58.77,42.95,57.72z M19.75,65.98c-1.33-3.19-2.02-6.64-2.02-10.2
	c0.01-3.56,0.72-7,2.05-10.19l19.94,10.22L19.75,65.98z M50.07,55.84l19.96-10.16c1.33,3.19,2.02,6.64,2.01,10.19
	c-0.01,3.55-0.71,7-2.05,10.19L50.07,55.84z M23.41,39.46c0.71-0.9,1.47-1.77,2.31-2.58c4.28-4.2,9.72-6.82,15.61-7.57l0.98,22.11
	L23.41,39.46z M16.97,44.15l1.53,0.79c-2.93,6.92-2.94,14.76-0.04,21.68l-1.54,0.78C13.78,59.99,13.79,51.57,16.97,44.15z
	 M42.28,60.23l-1.05,22.11c-5.88-0.78-11.32-3.41-15.58-7.62c-0.83-0.82-1.59-1.69-2.3-2.59L42.28,60.23L42.28,60.23z M23.4,76.92
	c-1-0.99-1.9-2.03-2.73-3.11l1.46-0.92c0.76,0.98,1.59,1.93,2.5,2.83c4.52,4.47,10.29,7.25,16.54,8.04l-0.08,1.7
	C34.4,84.65,28.22,81.69,23.4,76.92z M69.04,73.89c-0.83,1.08-1.74,2.12-2.74,3.1c-4.84,4.76-11.03,7.69-17.71,8.49l-0.08-1.7
	c6.25-0.78,12.04-3.54,16.57-7.99c0.91-0.9,1.74-1.84,2.5-2.82L69.04,73.89L69.04,73.89z M64.05,74.78
	c-4.27,4.2-9.72,6.82-15.61,7.57l-0.98-22.1l18.89,11.94C65.65,73.09,64.89,73.96,64.05,74.78z M72.79,67.5l-1.53-0.79
	c2.93-6.92,2.94-14.76,0.04-21.68l1.54-0.79C75.99,51.67,75.97,60.09,72.79,67.5z M47.48,51.41l1.05-22.1
	c5.88,0.78,11.32,3.41,15.58,7.62c0.83,0.82,1.59,1.69,2.3,2.59L47.48,51.41L47.48,51.41z M66.36,34.73c1,0.99,1.9,2.03,2.73,3.11
	l-1.46,0.92c-0.76-0.98-1.59-1.93-2.5-2.83c-4.52-4.47-10.3-7.25-16.54-8.04l0.08-1.7C55.36,27,61.53,29.96,66.36,34.73L66.36,34.73
	z M41.26,27.87c-6.25,0.77-12.04,3.54-16.57,7.99c-0.91,0.9-1.74,1.84-2.51,2.82l-1.46-0.92c0.83-1.08,1.75-2.12,2.74-3.1
	c4.84-4.76,11.03-7.69,17.71-8.49L41.26,27.87L41.26,27.87z"/>
<path class="st1" d="M175.02,105.26c-0.01,3.79,3.11,6.87,6.96,6.88c3.85,0,6.98-3.06,6.98-6.86c0.01-3.79-3.11-6.87-6.96-6.88
	C178.15,98.39,175.03,101.46,175.02,105.26z"/>
<path class="st1" d="M178.03,83.37c-2.26,0.42-6.56,2.2-6.61,2.23c-0.03,0.02-2.52-1.34-3.55-1.87c-2.05,1.79-4.1,3.59-6.12,5.41
	c0.47,1.18,1.19,2.22,1.71,3.37c-1.36,1.94-3.05,4.44-3.77,6.68c-0.05,0.15,0,0-3.36,0.55c0.01,1.03-0.01,9.36-0.01,9.36l3.54,0.44
	c0.47,2.24,1.18,4.39,2.3,6.41c-0.64,1.1-1.48,2.06-2.08,3.18c1.85,2.04,3.7,4.09,5.57,6.12c0.95-0.59,3.48-1.79,3.48-1.79
	c3.38,2.27,6.5,3.14,6.5,3.14c0.18,1.07,0.57,2.53,0.78,3.59c2.73,0.17,5.46,0.31,8.19,0.44c0.58-1.1,0.77-2.34,1.27-3.46
	c2.33-0.44,6.93-2.44,7.09-2.35c0.5,0.29,1.63,1.58,2.48,2.15l6.82-5.92c-0.52-1.21-1.42-2.2-1.87-2.92
	c0.81-1.09,3.26-6.62,3.42-6.65c1.1-0.26,2.37-0.45,3.44-0.82c0.17-2.67,0.31-5.34,0.45-8c-1.01-0.5-2.39-0.74-3.45-1.13
	c-0.17-0.06-0.35-2.55-2.48-6.98c0.35-0.61,1.12-1.62,2.01-3.09l-5.81-6.46c-1.8,1.28-2.39,1.6-3.07,2.07
	c-2.05-1.4-4.26-2.43-6.65-3.14c-0.32-1.18-0.21-2.31-0.48-3.71c-2.71-0.17-5.78-0.18-8.48-0.31
	C178.72,81.01,178.51,82.24,178.03,83.37L178.03,83.37z M197.52,105.3c-0.01,8.45-6.98,15.28-15.55,15.27
	c-8.57-0.01-15.51-6.87-15.49-15.32c0.02-8.45,6.97-15.28,15.55-15.27C190.59,89.99,197.53,96.85,197.52,105.3z"/>
<path class="st1" d="M124.99,179.77c-3.02,0.56-8.76,2.95-8.83,2.98c-0.04,0.02-3.37-1.8-4.75-2.49c-2.74,2.39-5.48,4.8-8.18,7.23
	c0.62,1.57,1.6,2.97,2.29,4.51c-1.83,2.59-4.07,5.93-5.03,8.93c-0.07,0.2,0,0-4.48,0.73c0.02,1.37-0.02,12.52-0.02,12.52l4.74,0.59
	c0.63,2.99,1.58,5.87,3.07,8.57c-0.85,1.46-1.98,2.75-2.78,4.25c2.47,2.73,4.95,5.47,7.44,8.18c1.28-0.79,4.65-2.38,4.65-2.38
	c4.52,3.04,8.68,4.2,8.68,4.2c0.24,1.43,0.76,3.37,1.04,4.79c3.65,0.22,7.3,0.42,10.96,0.59c0.77-1.47,1.04-3.12,1.69-4.63
	c3.12-0.58,9.26-3.26,9.48-3.14c0.67,0.4,2.18,2.12,3.31,2.88l9.11-7.91c-0.71-1.61-1.9-2.94-2.51-3.91
	c1.08-1.46,4.37-8.85,4.58-8.9c1.47-0.34,3.17-0.6,4.61-1.1c0.23-3.57,0.42-7.13,0.6-10.7c-1.35-0.67-3.2-0.99-4.61-1.5
	c-0.22-0.08-0.46-3.41-3.32-9.33c0.47-0.82,1.5-2.17,2.69-4.14l-7.77-8.64c-2.4,1.71-3.2,2.14-4.11,2.77
	c-2.73-1.87-5.7-3.25-8.88-4.2c-0.44-1.58-0.28-3.08-0.64-4.96c-3.62-0.22-7.72-0.24-11.34-0.42
	C125.91,176.62,125.62,178.26,124.99,179.77L124.99,179.77z M157.51,209.08c-0.09,15-12.31,26.82-27.62,26.72
	c-15.11-0.11-26.9-12.05-26.81-27.17c0.09-14.7,12.29-26.43,27.38-26.33C145.42,182.4,157.6,194.46,157.51,209.08L157.51,209.08z"/>
<path class="st1" d="M107.92,208.99c-0.03,12.42,10.08,22.15,23,22.14c11.58-0.01,21.84-10.46,21.76-22.19
	c-0.08-12.01-10.25-21.97-22.45-21.97C117.98,186.96,107.94,196.86,107.92,208.99L107.92,208.99z M131.03,190.82
	c9.99,0.28,17.96,8.66,17.73,18.64c-0.23,10.13-8.56,18.03-18.79,17.81c-10.47-0.22-18.41-8.53-18.13-18.99
	C112.11,198.41,120.76,190.53,131.03,190.82L131.03,190.82z"/>
<path class="st1" d="M121.98,209.12c0,4.42,3.73,8.13,8.23,8.18c4.57,0.05,8.38-3.66,8.41-8.17c0.02-4.49-3.8-8.32-8.31-8.33
	C125.82,200.8,121.98,204.64,121.98,209.12L121.98,209.12z"/>
<path class="st1" d="M227.01,137.88l0.07-2.84l-9.69-1.28l-1.63,5.73h-0.03c-1.83,0.01-3.46-1.07-4.04-2.76l-0.93-2.7l-9.6,2.06
	l0.46,5.91l-0.03,0.01c-1.73,0.62-3.64,0.15-4.78-1.23l-1.82-2.21l-8.36,5.16l2.5,5.38l-0.02,0.02c-1.42,1.17-3.42,1.34-4.99,0.42
	l-2.44-1.43l-6.1,7.63l4.23,4.19l-0.02,0.03c-0.94,1.57-2.77,2.4-4.57,2.07l-2.81-0.51l-3.11,9.18l5.45,2.49v0.03
	c-0.35,1.79-1.8,3.18-3.62,3.48l-2.81,0.46l0.25,9.63l6.02,0.49v0.01c0.3,1.79-0.58,3.59-2.2,4.48l-2.5,1.38l3.59,8.91l5.85-1.57
	l0.01,0.02c0.91,1.56,0.7,3.53-0.52,4.91l-1.88,2.13l6.49,7.12l5.01-3.44l0.03,0.02c1.39,1.15,1.88,3.06,1.21,4.75l-1.05,2.65
	l8.61,4.47l3.53-4.9l0.03,0.01c1.72,0.61,2.84,2.23,2.79,4.04l-0.07,2.82l9.69,1.28l1.63-5.75h0.03c1.84-0.01,3.47,1.13,4.06,2.84
	l0.91,2.63l9.6-2.06l-0.46-5.91l0.03-0.01c1.74-0.63,3.67-0.11,4.82,1.28l1.78,2.16l8.35-5.16l-2.49-5.38l0.03-0.02
	c1.42-1.17,3.42-1.34,4.99-0.43l2.45,1.43l6.1-7.63l-4.23-4.2l0.06-0.1c0.91-1.52,2.69-2.33,4.44-2.01l2.9,0.53l3.11-9.18
	l-5.45-2.49v-0.03c0.35-1.79,1.8-3.18,3.62-3.49l2.81-0.46l-0.25-9.62l-6.02-0.49v-0.02c-0.3-1.79,0.58-3.59,2.21-4.48l2.49-1.37
	l-3.59-8.91l-5.83,1.56l-0.01-0.03c-0.9-1.56-0.73-3.51,0.48-4.88l1.9-2.16l-6.49-7.12l-4.99,3.43l-0.03-0.02
	c-1.39-1.15-1.9-3.02-1.24-4.71l1.06-2.68l-8.61-4.47l-3.51,4.87l-0.03-0.01c-1.71-0.61-2.86-2.2-2.81-4L227.01,137.88z
	 M215.22,216.28c-2.7,0-4.89-2.17-4.88-4.82c0-2.66,2.2-4.81,4.9-4.81c2.7,0,4.88,2.17,4.88,4.82
	C220.12,214.13,217.92,216.29,215.22,216.28z M235.4,204.88c1.34,2.31,0.54,5.25-1.8,6.57c-2.34,1.33-5.32,0.53-6.67-1.77
	c-1.34-2.3-0.54-5.25,1.8-6.57C231.07,201.78,234.06,202.58,235.4,204.88z M201.76,203.06c2.34,1.33,3.13,4.28,1.78,6.58
	c-1.35,2.3-4.34,3.09-6.68,1.75c-2.34-1.33-3.13-4.28-1.78-6.58C196.43,202.51,199.42,201.73,201.76,203.06L201.76,203.06z
	 M178.54,180.01c0-2.66,2.2-4.81,4.9-4.81c2.7,0,4.89,2.17,4.88,4.82c-0.01,2.66-2.2,4.81-4.9,4.81
	C180.72,184.83,178.54,182.67,178.54,180.01z M183.44,198.12c-1.34-2.3-0.54-5.24,1.8-6.57c2.34-1.33,5.33-0.53,6.68,1.77
	c1.34,2.31,0.54,5.25-1.8,6.57C187.77,201.21,184.78,200.42,183.44,198.12L183.44,198.12z M245.3,191.64
	c2.34,1.33,3.13,4.28,1.78,6.58c-1.35,2.3-4.34,3.08-6.68,1.75c-2.34-1.33-3.13-4.28-1.78-6.58
	C239.98,191.1,242.97,190.31,245.3,191.64z M252.03,180.13c0,2.66-2.19,4.81-4.9,4.81c-2.7,0-4.89-2.16-4.88-4.82
	c0.01-2.66,2.2-4.81,4.9-4.81C249.85,175.3,252.03,177.47,252.03,180.13L252.03,180.13z M234.94,180.1
	c-0.02,10.69-8.83,19.35-19.68,19.33c-10.85-0.02-19.63-8.7-19.62-19.4c0.02-10.69,8.83-19.35,19.68-19.33
	C226.17,160.73,234.96,169.41,234.94,180.1L234.94,180.1z M247.14,162.02c1.35,2.3,0.54,5.24-1.8,6.57
	c-2.34,1.33-5.33,0.53-6.67-1.78c-1.34-2.3-0.54-5.25,1.8-6.57C242.8,158.92,245.8,159.71,247.14,162.02z M190.18,160.16
	c2.34,1.33,3.13,4.28,1.78,6.58c-1.35,2.3-4.34,3.08-6.68,1.75c-2.34-1.33-3.13-4.28-1.78-6.58
	C184.85,159.61,187.84,158.83,190.18,160.16z M195.17,155.26c-1.35-2.31-0.54-5.25,1.8-6.57c2.34-1.32,5.33-0.53,6.67,1.77
	c1.34,2.31,0.54,5.25-1.8,6.58C199.5,158.36,196.52,157.57,195.17,155.26z M233.71,148.75c2.33,1.33,3.13,4.28,1.78,6.58
	c-1.35,2.3-4.35,3.08-6.68,1.75c-2.34-1.33-3.13-4.28-1.78-6.58C228.39,148.19,231.38,147.41,233.71,148.75L233.71,148.75z
	 M220.23,148.69c0,2.66-2.2,4.81-4.9,4.81c-2.7,0-4.88-2.16-4.88-4.82c0-2.66,2.2-4.81,4.9-4.81S220.23,146.02,220.23,148.69z"/>
<path class="st1" d="M209.1,180.06c-0.01,3.37,2.76,6.11,6.18,6.11c3.42,0,6.2-2.72,6.2-6.09s-2.76-6.1-6.18-6.11
	C211.88,173.97,209.1,176.7,209.1,180.06z"/>
<path class="st1" d="M203.95,168.86c-3.04,2.99-4.71,6.96-4.72,11.18c-0.01,4.23,1.66,8.21,4.68,11.2
	c3.03,2.99,7.06,4.65,11.35,4.65c4.29,0,8.32-1.63,11.37-4.62c3.04-2.98,4.71-6.95,4.72-11.18c0.02-8.72-7.18-15.84-16.04-15.85
	C211.02,164.25,206.99,165.89,203.95,168.86L203.95,168.86z M229.39,180.1c-0.01,3.71-1.48,7.2-4.15,9.82
	c-2.67,2.62-6.21,4.06-9.98,4.05c-3.77-0.01-7.31-1.46-9.97-4.08c-2.66-2.63-4.12-6.12-4.11-9.83c0.01-3.71,1.48-7.2,4.14-9.82
	c2.67-2.62,6.21-4.06,9.98-4.05C223.08,166.2,229.4,172.44,229.39,180.1L229.39,180.1z"/>
</svg>
