<svg width="38" height="52" viewBox="0 0 38 52" fill="none" xmlns="http://www.w3.org/2000/svg">
<path d="M17.1719 0C18.2547 0 19.3382 0 20.4209 0C20.5784 0.0306901 20.735 0.0781867 20.8932 0.0898782C23.6817 0.298133 26.4036 0.888552 29.023 2.0197C31.3438 3.02225 33.4924 4.36896 35.248 6.43104C36.7349 8.17746 37.6675 10.2359 37.6719 12.7262C37.6873 21.4509 37.6749 30.1757 37.68 38.9005C37.6815 40.9516 37.1016 42.7535 36.0086 44.3582C34.5635 46.4802 32.6659 47.9073 30.5721 49.0172C27.8085 50.4816 24.8867 51.251 21.8639 51.5696C17.4025 52.0395 13.0393 51.5338 8.81511 49.783C6.39921 48.7819 4.17146 47.3848 2.36685 45.227C0.882172 43.4506 -0.00146237 41.3725 1.81676e-06 38.8522C0.00585855 30.1947 0.001466 21.5379 0.00366227 12.8804C0.00366227 11.8478 0.120797 10.8365 0.445113 9.86322C1.20868 7.57023 2.62016 5.89177 4.33398 4.53264C7.28431 2.19069 10.6139 0.996698 14.1257 0.409202C15.1367 0.240406 16.1558 0.135183 17.1712 0H17.1719ZM10.7822 10.1767C10.537 10.5026 10.3181 10.7722 10.1204 11.0609C9.09404 12.5581 8.94469 14.2468 9.81661 15.6863C10.2273 16.3651 10.7625 16.9775 11.3306 17.4897C12.868 18.8759 14.685 19.5752 16.554 20.113C17.3681 20.3468 17.6632 20.216 18.1471 19.413C18.2635 19.2193 18.3821 19.0271 18.4963 18.8313C18.7825 18.3417 18.7393 18.1269 18.2664 17.9165C17.6807 17.6556 17.0804 17.4386 16.4918 17.1887C15.4566 16.7488 14.4786 16.1956 13.6674 15.3049C12.7882 14.3396 12.7816 13.1215 13.6813 12.108C13.8138 12.1898 13.9551 12.2717 14.092 12.3623C14.9786 12.9505 15.8666 13.5365 16.7481 14.1335C17.1661 14.4163 17.5717 14.4324 17.9889 14.1401C18.251 13.9567 18.5256 13.7959 18.784 13.606C19.1237 13.3568 19.1259 13.1354 18.7745 12.8957C17.9575 12.3382 17.1302 11.7989 16.3073 11.253C15.9823 11.0375 15.6565 10.8227 15.3344 10.61C15.8154 10.0357 16.251 10.0232 16.8125 10.4544C17.6866 11.1252 18.6295 11.6754 19.5373 12.2877C19.9575 12.5713 20.3631 12.58 20.7782 12.2863C21.0396 12.1014 21.3141 11.9399 21.5711 11.7477C21.9159 11.4905 21.9173 11.2918 21.5586 11.0441C20.9451 10.6188 20.3192 10.2169 19.6998 9.8033C19.3397 9.56363 18.9809 9.32176 18.5483 9.03166C20.4173 8.5377 22.1223 8.69042 23.7842 9.57093C24.8845 10.154 25.7733 11.0375 26.6093 12.0108C26.9431 12.4003 27.3143 12.5917 27.7931 12.4653C28.4051 12.3038 29.0238 12.173 29.6321 11.9947C30.3459 11.785 30.4286 11.4511 29.963 10.792C29.1958 9.70539 28.266 8.84095 27.1986 8.18257C23.8127 6.09564 20.2489 5.7544 16.565 6.8417C15.9142 7.03388 15.3556 7.0748 14.8197 6.55892C13.991 5.76024 13.1557 5.78509 12.3248 6.56257C12.2801 6.60422 12.223 6.62834 12.1739 6.6656C11.8291 6.92866 11.8211 7.12303 12.1666 7.37221C12.5327 7.63599 12.9119 7.8764 13.2962 8.13434C12.6103 8.78614 12.5788 8.83802 11.9236 8.31118C11.1483 7.68788 10.433 7.62503 9.6863 8.31337C9.61821 8.37621 9.53622 8.41713 9.46155 8.46974C9.01936 8.78249 9.01351 8.98782 9.44983 9.28668C9.87664 9.57897 10.3086 9.8603 10.7815 10.1752L10.7822 10.1767ZM2.58575 18.8452C2.60185 19.1996 2.60185 19.4144 2.62235 19.6271C2.77316 21.2208 3.50965 22.4586 4.47967 23.5254C6.34357 25.5758 8.6255 26.7625 11.059 27.5926C14.4222 28.7398 17.8608 29.0372 21.3478 28.7157C24.6327 28.4132 27.7792 27.5429 30.6827 25.6906C32.1447 24.7574 33.4478 23.6051 34.3541 21.9493C34.8358 21.0695 35.0855 20.1101 35.0569 18.9694C34.8827 19.1419 34.7699 19.2646 34.6469 19.3735C34.0335 19.9164 33.447 20.5105 32.7969 20.9869C30.2068 22.8853 27.3414 23.9529 24.3369 24.5631C21.5257 25.1337 18.6947 25.2368 15.8564 24.9313C13.1066 24.6354 10.433 23.9522 7.87511 22.7217C5.95849 21.7995 4.19196 20.6055 2.58575 18.8445V18.8452ZM35.065 25.7205C34.9215 25.8535 34.8402 25.9185 34.7692 25.9953C33.4851 27.3829 31.9924 28.3942 30.395 29.217C27.7272 30.5915 24.9226 31.3375 22.022 31.6627C18.333 32.0756 14.6879 31.8045 11.1022 30.7113C8.01567 29.7701 5.13708 28.3416 2.76657 25.7848C2.73143 25.7468 2.67287 25.7381 2.61576 25.7103C2.60332 26.7165 2.87492 27.738 3.36542 28.5937C4.5807 30.7135 6.36334 32.0076 8.30924 33.0401C10.7493 34.3349 13.3328 35.013 16.0006 35.3024C20.1471 35.7518 24.2081 35.3346 28.1372 33.6729C30.0311 32.872 31.7976 31.7986 33.2545 30.1509C34.3058 28.962 35.0576 27.5963 35.0642 25.7198L35.065 25.7205ZM2.60405 38.9881C2.62382 40.8259 3.41374 42.2274 4.51261 43.4316C6.39189 45.4915 8.69358 46.6673 11.1432 47.4959C14.5379 48.6453 18.0094 48.9398 21.5235 48.589C24.7432 48.2675 27.8363 47.398 30.6849 45.5756C32.1454 44.6417 33.4522 43.4937 34.3585 41.8365C34.8219 40.9888 35.0752 40.0681 35.0555 38.9823C34.9361 39.0883 34.8651 39.1416 34.8043 39.2074C33.1235 41.029 31.1263 42.2486 28.9784 43.1328C23.7732 45.276 18.4399 45.5953 13.0254 44.4612C10.2134 43.8723 7.53541 42.8303 5.10048 41.0787C4.23954 40.4591 3.45181 39.7043 2.60405 38.9881ZM35.062 32.4234C35.0145 32.4285 34.9786 32.4197 34.9595 32.4365C34.879 32.5081 34.8007 32.5841 34.726 32.6638C33.4566 34.0178 31.9895 35.0182 30.4191 35.8256C27.5867 37.2827 24.6063 38.0448 21.5213 38.3312C18.0512 38.6542 14.6228 38.3802 11.25 37.3769C8.37952 36.5227 5.67956 35.2366 3.37275 33.0226C3.13042 32.7902 2.89762 32.5454 2.63699 32.2824C2.61796 32.3912 2.60112 32.438 2.60332 32.484C2.60771 32.6017 2.61942 32.7186 2.62967 32.8362C2.76731 34.4548 3.51477 35.7021 4.49577 36.7821C6.3487 38.8223 8.62111 39.9943 11.037 40.8317C13.9925 41.8569 17.024 42.1865 20.1003 42.0535C23.3764 41.9125 26.5449 41.2139 29.5355 39.6217C31.1673 38.7529 32.6747 37.6663 33.8394 36.047C34.5942 34.9984 35.0716 33.822 35.0628 32.4227L35.062 32.4234Z" fill="#FFB400"/>
</svg>
