<svg width="871" height="44" viewBox="0 0 871 44" fill="none" xmlns="http://www.w3.org/2000/svg">
<path d="M317.143 16.2031L317.185 14.5786L311.715 13.8477L310.798 17.1341H310.78C309.746 17.1388 308.829 16.5197 308.499 15.5515L307.978 14.0059L302.555 15.1882L302.815 18.5772H302.797C301.824 18.9403 300.744 18.6703 300.102 17.8789L299.073 16.6127L294.353 19.5686L295.763 22.6503L295.749 22.6596C294.949 23.3299 293.818 23.4277 292.928 22.9017L291.551 22.0823L288.106 26.4534L290.494 28.8554L290.485 28.8693C289.954 29.7677 288.921 30.2426 287.906 30.0564L286.319 29.763L284.559 35.0233L287.636 36.4477V36.4661C287.44 37.4902 286.621 38.291 285.592 38.4586L284.005 38.7239L284.149 44.2401L287.547 44.5194V44.5287C287.72 45.5528 287.222 46.5815 286.305 47.0935L284.894 47.8849L286.919 52.9913L290.224 52.0931L290.233 52.1069C290.745 53.0007 290.624 54.1319 289.94 54.9186L288.874 56.1382L292.537 60.2159L295.363 58.2423L295.377 58.2516C296.164 58.9126 296.438 60.0018 296.057 60.97L295.461 62.4922L300.32 65.0525L302.313 62.2456H302.327C303.299 62.604 303.928 63.5303 303.905 64.5683L303.863 66.1837L309.332 66.9145L310.249 63.6235H310.268C311.31 63.6188 312.227 64.2704 312.558 65.2479L313.07 66.7563L318.493 65.5739L318.232 62.1849H318.251C319.233 61.8172 320.322 62.1152 320.969 62.9159L321.975 64.1542L326.69 61.1982L325.284 58.1166L325.298 58.1073C326.099 57.4369 327.23 57.3392 328.114 57.8652L329.497 58.6846L332.941 54.3135L330.554 51.9115L330.586 51.851C331.098 50.9805 332.104 50.5196 333.09 50.7011L334.729 51.0039L336.484 45.7436L333.407 44.3192V44.3005C333.602 43.2764 334.422 42.4757 335.45 42.3035L337.033 42.0383L336.889 36.5221L333.491 36.2382V36.2288C333.319 35.2048 333.821 34.1713 334.738 33.6593L336.144 32.8726L334.119 27.7708L330.824 28.6645L330.814 28.6506C330.307 27.7569 330.4 26.6396 331.084 25.8529L332.159 24.6193L328.496 20.5415L325.68 22.506L325.666 22.4966C324.879 21.8403 324.591 20.765 324.968 19.8014L325.568 18.2653L320.709 15.7051L318.726 18.4981H318.712C317.743 18.1397 317.101 17.2319 317.124 16.2031H317.143ZM330.665 40.4138C330.647 51.5345 321.616 60.5372 310.491 60.5186C299.371 60.5 290.368 51.4692 290.387 40.3438C290.406 29.223 299.436 20.2203 310.561 20.2389C321.681 20.2576 330.684 29.2884 330.665 40.4138Z" fill="#FFE5B8"/>
<path d="M310.556 21.584C300.176 21.5654 291.746 29.9677 291.732 40.3483C291.713 50.7289 300.115 59.159 310.496 59.173C320.876 59.187 329.306 50.7893 329.32 40.4087C329.338 30.0281 320.936 21.598 310.556 21.584ZM299.524 45.7526C296.55 45.748 294.139 43.332 294.143 40.3528C294.148 37.3783 296.564 34.967 299.543 34.9716C302.522 34.9763 304.928 37.3923 304.924 40.3715C304.919 43.3506 302.503 45.7573 299.524 45.7526ZM310.496 56.7616C307.521 56.757 305.11 54.3363 305.115 51.3618C305.119 48.3873 307.535 45.9762 310.514 45.9808C313.489 45.9855 315.9 48.4013 315.895 51.3804C315.891 54.3596 313.475 56.7663 310.496 56.7616ZM308.75 40.3762C308.75 39.3987 309.546 38.6072 310.524 38.6072C311.501 38.6072 312.292 39.4032 312.292 40.3808C312.292 41.3583 311.496 42.1498 310.519 42.1498C309.541 42.1498 308.75 41.3538 308.75 40.3762ZM310.528 34.7809C307.554 34.7763 305.143 32.3556 305.147 29.3811C305.152 26.4066 307.568 23.9953 310.547 23.9999C313.521 24.0046 315.932 26.4252 315.928 29.3997C315.923 32.3743 313.507 34.7856 310.528 34.7809ZM321.5 45.7899C318.525 45.7853 316.114 43.3693 316.119 40.3901C316.123 37.4156 318.539 35.0043 321.518 35.0089C324.493 35.0136 326.904 37.4295 326.899 40.4087C326.895 43.3833 324.479 45.7946 321.5 45.7899Z" fill="#FFE5B8"/>
<path d="M365.591 26.6216C364.139 26.482 364.819 24.415 364.819 24.415H361.346C361.346 24.415 362.026 26.4354 360.522 26.6216C359.102 26.7985 359.033 24.8155 359.033 24.8155L355.77 25.9977C355.77 25.9977 357.194 27.5199 355.788 28.3438C354.55 29.07 353.735 27.1708 353.735 27.1708L351.073 29.4005C351.073 29.4005 352.8 30.4106 351.874 31.6209C350.966 32.8033 349.56 31.1975 349.56 31.1975L347.819 34.2046C347.819 34.2046 349.914 34.4792 349.337 35.9827C348.68 37.6864 347.009 36.4109 347.009 36.4109L346.399 39.8278C346.399 39.8278 348.513 39.3716 348.434 41.0055C348.35 42.7185 346.399 42.1785 346.399 42.1785L346.995 45.6C346.995 45.6 348.787 44.3616 349.318 46.0514C349.807 47.6015 347.796 47.8063 347.796 47.8063L349.527 50.8182C349.527 50.8182 350.747 49.0959 351.827 50.3993C352.888 51.6748 351.036 52.6243 351.036 52.6243L353.694 54.8633C353.694 54.8633 354.336 52.8383 355.723 53.6948C356.947 54.4489 355.723 56.041 355.723 56.041L358.986 57.2327C358.986 57.2327 358.735 55.1007 360.49 55.4359C362.161 55.7524 361.295 57.6422 361.295 57.6422H364.767C364.767 57.6422 363.897 55.7478 365.554 55.4452C367.351 55.1147 367.081 57.2467 367.081 57.2467L370.349 56.0644C370.349 56.0644 369.204 54.4165 370.307 53.7369C371.745 52.8478 372.383 54.8958 372.383 54.8958L375.045 52.6661C375.045 52.6661 373.37 51.5489 374.226 50.4643C375.194 49.24 376.558 50.8693 376.558 50.8693L378.299 47.8622C378.299 47.8622 376.302 47.6527 376.786 46.07C377.238 44.5897 379.109 45.6557 379.109 45.6557L379.719 42.2344C379.719 42.2344 377.615 42.7743 377.685 41.0566C377.754 39.3436 379.723 39.8835 379.723 39.8835L379.128 36.4621C379.128 36.4621 377.303 37.5655 376.819 36.0666C376.405 34.7772 378.332 34.2557 378.332 34.2557L376.6 31.2439C376.6 31.2439 375.199 32.8499 374.296 31.6769C373.365 30.4712 375.092 29.4426 375.092 29.4426L372.434 27.2035C372.434 27.2035 371.624 29.1027 370.4 28.3859C369.236 27.7062 370.4 26.0256 370.4 26.0256L367.137 24.8339C367.137 24.8339 367.155 26.7799 365.601 26.6309L365.591 26.6216ZM356.468 50.2129C353.959 48.9421 352.376 46.8287 351.697 44.1521C351.32 42.6672 351.375 41.0752 351.222 39.418C353.521 40.7075 355.514 41.7083 357.376 42.9093C358.567 43.6773 359.745 44.5944 360.606 45.7023C361.611 46.9963 361.383 48.6117 360.462 49.5985C359.461 50.6692 357.939 50.9624 356.463 50.2129H356.468ZM371.875 43.6728C372.83 44.5851 373.118 45.7303 372.709 46.9685C371.885 49.4682 369.99 50.9624 367.695 51.9865C365.805 52.829 363.809 53.0618 361.83 52.6568C363.022 50.5062 364.162 48.4255 365.326 46.3494C366.108 44.9575 367.025 43.7008 368.64 43.1748C369.804 42.793 370.926 42.765 371.875 43.6728ZM362.752 43.901C361.276 43.752 360.052 42.2438 360.187 40.7402C360.331 39.1529 361.812 37.9424 363.394 38.11C364.968 38.2775 366.136 39.7765 365.94 41.3778C365.764 42.8767 364.269 44.0546 362.747 43.901H362.752ZM369.366 31.5139C372.732 33.064 374.361 35.857 374.822 39.4087C374.948 40.377 374.836 41.3732 374.831 42.3647C372.578 41.1032 370.539 39.9441 368.482 38.813C367.067 38.0356 365.81 37.1185 365.261 35.5172C364.847 34.3162 364.795 33.1152 365.805 32.1749C366.82 31.2299 368.049 30.9087 369.366 31.5139ZM364.516 29.4564C363.371 31.4953 362.366 33.5388 361.123 35.424C360.327 36.6297 359.331 37.8074 358.167 38.6407C356.864 39.5717 355.341 39.2413 354.42 38.2777C353.428 37.2443 353.242 35.7824 353.931 34.3673C355.723 30.6666 360.662 28.4137 364.521 29.4564H364.516Z" fill="#FFE5B8"/>
<path d="M718.54 6.52052C716.045 6.27846 717.209 2.72221 717.209 2.72221L711.232 2.71289C711.232 2.71289 712.4 6.19478 709.812 6.51597C707.373 6.81855 707.252 3.40636 707.252 3.40636L701.634 5.44065C701.634 5.44065 704.082 8.05682 701.662 9.47193C699.53 10.7241 698.129 7.45629 698.129 7.45629L693.544 11.2873C693.544 11.2873 696.513 13.0236 694.921 15.1091C693.362 17.1479 690.942 14.3783 690.942 14.3783L687.944 19.5499C687.944 19.5499 691.547 20.0247 690.555 22.6082C689.429 25.5361 686.552 23.3485 686.552 23.3485L685.505 29.2322C685.505 29.2322 689.14 28.4455 689 31.2572C688.851 34.2084 685.5 33.2728 685.5 33.2728L686.529 39.1613C686.529 39.1613 689.61 37.0339 690.523 39.9387C691.36 42.606 687.907 42.9598 687.907 42.9598L690.886 48.1408C690.886 48.1408 692.98 45.1757 694.842 47.4194C696.667 49.6119 693.478 51.2456 693.478 51.2456L698.049 55.0953C698.049 55.0953 699.157 51.6135 701.541 53.0844C703.649 54.3832 701.541 57.1248 701.541 57.1248L707.154 59.1777C707.154 59.1777 706.721 55.5095 709.742 56.0868C712.619 56.636 711.13 59.8853 711.13 59.8853L717.106 59.8946C717.106 59.8946 715.612 56.6269 718.461 56.1008C721.547 55.5329 721.086 59.1964 721.086 59.1964L726.705 57.1621C726.705 57.1621 724.731 54.3273 726.63 53.1542C729.107 51.6274 730.205 55.1464 730.205 55.1464L734.79 51.3154C734.79 51.3154 731.909 49.3976 733.38 47.531C735.041 45.4269 737.392 48.2247 737.392 48.2247L740.39 43.0528C740.39 43.0528 736.955 42.6899 737.783 39.9714C738.561 37.4298 741.777 39.259 741.777 39.259L742.824 33.3753C742.824 33.3753 739.203 34.3016 739.324 31.3503C739.445 28.4037 742.829 29.3347 742.829 29.3347L741.8 23.4462C741.8 23.4462 738.658 25.35 737.825 22.7618C737.108 20.546 740.422 19.6477 740.422 19.6477L737.443 14.4667C737.443 14.4667 735.032 17.2272 733.482 15.2116C731.886 13.1354 734.851 11.3664 734.851 11.3664L730.28 7.51675C730.28 7.51675 728.888 10.7799 726.784 9.55103C724.782 8.37798 726.784 5.49179 726.784 5.49179L721.17 3.4391C721.17 3.4391 721.198 6.78586 718.526 6.52984L718.54 6.52052ZM705.697 19.5545C704.631 17.7576 703.584 15.947 702.672 14.071C702.076 12.8467 702.993 11.5712 704.664 11.5805C704.925 11.79 705.553 12.088 705.856 12.5861C706.884 14.2619 707.936 15.9564 708.681 17.7625C708.946 18.4049 708.597 19.6569 708.081 20.1736C707.257 20.9929 706.251 20.4809 705.702 19.5499L705.697 19.5545ZM700.088 28.9949C697.989 28.5899 695.908 27.9847 693.911 27.212C693.353 26.9979 692.734 25.876 692.841 25.2941C692.962 24.6284 693.855 24.1071 694.335 23.6044C696.904 24.4004 699.106 24.9682 701.191 25.8201C701.68 26.0202 702.155 27.305 701.96 27.8543C701.764 28.4129 700.652 29.1065 700.088 28.9994V28.9949ZM710.119 51.6693C709.905 52.2186 708.569 52.8005 707.992 52.6096C707.406 52.4188 706.661 51.2084 706.782 50.6033C707.21 48.4527 707.89 46.3301 708.69 44.2866C708.886 43.7885 709.994 43.2716 710.543 43.3926C711.185 43.5323 711.674 44.3657 712.163 44.8312C711.446 47.3448 710.939 49.5699 710.119 51.6693ZM722.799 43.1833C723.8 44.8125 724.671 46.5209 725.588 48.1967C726.188 49.2906 725.941 50.1936 724.866 50.7708C723.833 51.3247 722.999 50.9011 722.455 49.9469C721.473 48.2385 720.486 46.5255 719.601 44.7659C718.94 43.4486 719.764 42.0754 721.533 42.0568C721.803 42.2896 722.464 42.634 722.799 43.1833ZM696.96 42.783C695.727 43.3882 694.423 42.5176 694.456 40.8092C694.726 40.5066 695.122 39.813 695.717 39.4407C697.277 38.4631 698.925 37.6252 700.54 36.7361C701.596 36.1542 702.537 36.3079 703.151 37.3645C703.724 38.3514 703.398 39.2591 702.453 39.8084C700.652 40.8558 698.836 41.8705 696.965 42.7876L696.96 42.783ZM728.227 33.5428C730.373 33.9711 732.495 34.5902 734.534 35.3769C735.065 35.5817 735.609 36.7175 735.507 37.3273C735.405 37.9464 734.525 38.4398 734.031 38.9379C731.513 38.1651 729.26 37.5834 727.119 36.7315C726.644 36.5407 726.197 35.2605 726.388 34.7159C726.588 34.1526 727.673 33.4403 728.217 33.5474L728.227 33.5428ZM723.093 31.476C722.953 36.2008 718.777 40.26 714.113 40.2041C709.328 40.1483 705.209 35.9262 705.292 31.1642C705.376 26.2672 709.486 22.2964 714.337 22.4175C719.243 22.5431 723.237 26.6721 723.093 31.476ZM733.878 21.7192C733.673 21.9799 733.394 22.6315 732.896 22.9341C731.22 23.9629 729.479 24.8937 727.747 25.8201C726.681 26.3926 725.555 26.1973 725.234 25.0754C725.038 24.4051 725.49 23.1483 726.067 22.7386C727.654 21.5982 729.432 20.7044 731.197 19.8293C732.556 19.159 733.878 19.9736 733.878 21.7192ZM720.355 9.99312C720.928 10.184 721.668 11.2873 721.556 11.8412C721.133 13.9965 720.504 16.1284 719.704 18.1766C719.499 18.698 718.326 19.21 717.702 19.0983C717.097 18.9959 716.632 18.093 716.171 17.6088C716.939 15.1091 717.497 12.9026 718.335 10.8125C718.535 10.3098 719.802 9.80703 720.346 9.98857L720.355 9.99312Z" fill="#FFE5B8"/>
<path d="M514.315 3.77513L514.381 1.17306L505.62 0L504.149 5.26004H504.121C502.469 5.26935 500.993 4.27797 500.467 2.72321L499.629 0.246614L490.948 2.14134L491.362 7.56889L491.335 7.57821C489.775 8.15077 488.044 7.71801 487.015 6.4472L485.372 4.41746L477.812 9.15177L480.07 14.0859L480.047 14.1045C478.762 15.1798 476.951 15.3335 475.531 14.4909L473.325 13.1783L467.804 20.1794L471.631 24.0291L471.617 24.0523C470.769 25.4906 469.112 26.2541 467.483 25.9515L464.942 25.4813L462.125 33.9068L467.055 36.1877V36.2157C466.738 37.8542 465.43 39.1345 463.783 39.4091L461.241 39.8326L461.469 48.6677L466.911 49.1194V49.1332C467.185 50.7718 466.389 52.4244 464.923 53.2436L462.665 54.5099L465.91 62.6886L471.202 61.2503L471.216 61.2735C472.036 62.7072 471.845 64.5134 470.746 65.7796L469.042 67.7345L474.912 74.2656L479.441 71.1048L479.465 71.1235C480.726 72.1802 481.164 73.9304 480.559 75.4805L479.609 77.915L487.392 82.0161L490.585 77.5241L490.613 77.5334C492.168 78.0967 493.183 79.5815 493.141 81.2433L493.075 83.827L501.841 85L503.311 79.7259H503.339C505.006 79.7166 506.477 80.764 507.012 82.3327L507.831 84.7486L516.513 82.8539L516.098 77.4263L516.126 77.417C517.695 76.8398 519.445 77.3145 520.483 78.5946L522.089 80.5778L529.644 75.8437L527.391 70.9046L527.414 70.886C528.694 69.8107 530.505 69.6525 531.925 70.495L534.136 71.8076L539.652 64.8065L535.826 60.9569L535.881 60.8639C536.705 59.4674 538.311 58.7273 539.894 59.0205L542.519 59.5092L545.335 51.0837L540.406 48.8028V48.7748C540.722 47.1362 542.035 45.8563 543.683 45.577L546.22 45.1533L545.992 36.3227L540.55 35.8713V35.8572C540.276 34.214 541.076 32.5616 542.547 31.7423L544.8 30.4808L541.556 22.3066L536.282 23.7356L536.268 23.7125C535.458 22.2834 535.607 20.4911 536.705 19.2343L538.428 17.2559L532.562 10.7251L528.052 13.8718L528.029 13.8531C526.772 12.8011 526.306 11.0788 526.907 9.53339L527.866 7.07544L520.083 2.9746L516.908 7.44797L516.88 7.43865C515.33 6.8754 514.297 5.4231 514.339 3.77058L514.315 3.77513ZM503.661 75.7273C501.221 75.7273 499.243 73.7395 499.248 71.3003C499.248 68.8611 501.235 66.8828 503.675 66.8874C506.114 66.8921 508.092 68.875 508.087 71.3142C508.087 73.7534 506.1 75.732 503.661 75.7273ZM521.908 65.2675C523.122 67.3855 522.396 70.0854 520.278 71.3003C518.165 72.5199 515.465 71.7892 514.246 69.6758C513.031 67.5625 513.757 64.8577 515.875 63.6428C517.988 62.4232 520.693 63.1541 521.908 65.2675ZM491.483 63.5964C493.597 64.8207 494.318 67.5251 493.089 69.6338C491.865 71.7472 489.161 72.4688 487.052 71.2399C484.939 70.0156 484.217 67.3156 485.441 65.2022C486.666 63.0889 489.37 62.372 491.479 63.5916L491.483 63.5964ZM470.49 42.4394C470.49 40.0002 472.478 38.0265 474.917 38.0265C477.356 38.0265 479.334 40.0141 479.33 42.4533C479.325 44.8925 477.342 46.8711 474.903 46.8664C472.464 46.8664 470.485 44.8786 470.49 42.4394ZM474.917 59.0578C473.702 56.9444 474.428 54.2446 476.541 53.025C478.659 51.8054 481.359 52.5361 482.579 54.6494C483.794 56.7675 483.068 59.4673 480.95 60.6823C478.832 61.9019 476.132 61.1711 474.917 59.053V59.0578ZM530.859 53.1179C532.972 54.3422 533.689 57.0468 532.465 59.1555C531.245 61.2689 528.536 61.9858 526.427 60.7662C524.314 59.5419 523.593 56.8374 524.821 54.724C526.046 52.6153 528.75 51.8937 530.859 53.1179ZM536.943 42.5513C536.943 44.9905 534.96 46.9642 532.516 46.9642C530.077 46.9642 528.098 44.981 528.103 42.5372C528.108 40.098 530.091 38.1196 532.53 38.1243C534.969 38.1243 536.947 40.112 536.938 42.5513H536.943ZM521.489 42.5279C521.47 52.3406 513.506 60.2819 503.688 60.2679C493.876 60.2493 485.935 52.2847 485.949 42.4674C485.967 32.6547 493.937 24.7134 503.749 24.7273C513.561 24.7459 521.503 32.7106 521.489 42.5233V42.5279ZM532.521 25.9329C533.74 28.0462 533.009 30.7461 530.891 31.9657C528.778 33.1853 526.074 32.4545 524.859 30.3365C523.644 28.2231 524.37 25.5186 526.488 24.3036C528.601 23.084 531.306 23.8149 532.521 25.9329ZM481.01 24.2291C483.123 25.4534 483.84 28.1579 482.621 30.2712C481.396 32.3846 478.692 33.1016 476.579 31.8773C474.465 30.653 473.749 27.9485 474.973 25.8351C476.197 23.7218 478.897 23.0048 481.01 24.2291ZM485.525 19.7278C484.306 17.6097 485.037 14.9099 487.154 13.6949C489.268 12.48 491.972 13.2063 493.187 15.3196C494.402 17.4376 493.676 20.1374 491.563 21.357C489.445 22.572 486.745 21.8458 485.525 19.7278ZM520.381 13.7508C522.489 14.9704 523.211 17.6749 521.987 19.7882C520.762 21.8969 518.058 22.6185 515.949 21.3943C513.836 20.17 513.119 17.4655 514.343 15.3521C515.568 13.2434 518.272 12.5218 520.381 13.7461V13.7508ZM508.185 13.6949C508.185 16.1341 506.197 18.1078 503.758 18.1078C501.319 18.1078 499.341 16.1249 499.346 13.6811C499.346 11.2418 501.333 9.26814 503.772 9.26814C506.211 9.26814 508.19 11.2511 508.185 13.6949Z" fill="#FFE5B8"/>
<path d="M498.121 42.4955C498.116 45.5911 500.616 48.1 503.712 48.1047C506.807 48.1094 509.316 45.6051 509.321 42.5142C509.325 39.4233 506.826 36.9141 503.73 36.9048C500.639 36.9001 498.126 39.4046 498.121 42.4955Z" fill="#FFE5B8"/>
<path d="M493.467 32.2172C490.72 34.9589 489.203 38.6037 489.198 42.4813C489.189 46.3636 490.697 50.0131 493.434 52.7595C496.171 55.506 499.816 57.0235 503.698 57.0281C507.58 57.0328 511.225 55.5294 513.976 52.7923C516.722 50.0551 518.24 46.4103 518.245 42.5327C518.258 34.5261 511.751 27.9998 503.745 27.9859C499.863 27.9812 496.218 29.4846 493.471 32.2217L493.467 32.2172ZM516.471 42.5279C516.466 45.9353 515.135 49.1379 512.719 51.5399C510.308 53.9465 507.101 55.2686 503.693 55.2593C500.286 55.25 497.084 53.9234 494.682 51.5121C492.275 49.1009 490.958 45.8935 490.962 42.4861C490.967 39.0786 492.298 35.8761 494.71 33.4741C497.121 31.0675 500.328 29.7453 503.735 29.7547C510.769 29.7686 516.48 35.499 516.471 42.5327V42.5279Z" fill="#FFE5B8"/>
<path d="M592.683 13.385C589.922 13.1197 591.212 9.19096 591.212 9.19096L584.611 9.18164C584.611 9.18164 585.901 13.0266 583.043 13.385C580.347 13.7201 580.212 9.94967 580.212 9.94967L574.007 12.1981C574.007 12.1981 576.712 15.0887 574.04 16.6528C571.685 18.0353 570.135 14.423 570.135 14.423L565.07 18.6546C565.07 18.6546 568.352 20.577 566.592 22.8766C564.87 25.1296 562.193 22.0713 562.193 22.0713L558.884 27.7829C558.884 27.7829 562.868 28.3089 561.77 31.1578C560.527 34.393 557.352 31.977 557.352 31.977L556.193 38.4755C556.193 38.4755 560.211 37.6048 560.057 40.7144C559.894 43.9729 556.189 42.9396 556.189 42.9396L557.324 49.4425C557.324 49.4425 560.727 47.0917 561.737 50.3037C562.664 53.2503 558.847 53.6413 558.847 53.6413L562.138 59.3623C562.138 59.3623 564.451 56.0853 566.509 58.5617C568.524 60.987 565 62.7885 565 62.7885L570.051 67.043C570.051 67.043 571.275 63.1934 573.91 64.818C576.242 66.2564 573.91 69.2775 573.91 69.2775L580.11 71.5443C580.11 71.5443 579.635 67.4945 582.973 68.1276C586.152 68.7328 584.509 72.3264 584.509 72.3264L591.109 72.3405C591.109 72.3405 589.457 68.7282 592.604 68.151C596.016 67.5226 595.504 71.5723 595.504 71.5723L601.713 69.3241C601.713 69.3241 599.535 66.1912 601.634 64.8971C604.366 63.212 605.581 67.0989 605.581 67.0989L610.646 62.8628C610.646 62.8628 607.462 60.7401 609.091 58.6826C610.925 56.3598 613.522 59.4461 613.522 59.4461L616.832 53.7345C616.832 53.7345 613.038 53.3341 613.955 50.3316C614.816 47.52 618.368 49.5404 618.368 49.5404L619.527 43.0419C619.527 43.0419 615.529 44.066 615.664 40.8076C615.799 37.5491 619.536 38.5778 619.536 38.5778L618.401 32.0749C618.401 32.0749 614.928 34.1743 614.007 31.3208C613.215 28.8722 616.879 27.8807 616.879 27.8807L613.588 22.1597C613.588 22.1597 610.925 25.2087 609.212 22.9836C607.448 20.6887 610.725 18.7382 610.725 18.7382L605.674 14.4883C605.674 14.4883 604.138 18.0959 601.811 16.7367C599.6 15.4426 601.811 12.254 601.811 12.254L595.611 9.98694C595.611 9.98694 595.643 13.6877 592.687 13.3991L592.683 13.385ZM604.078 57.4539C601.327 60.1259 597.924 62.1226 594.135 63.184L592.762 49.2936L604.078 57.4539ZM581.506 63.1747C577.801 62.1319 574.398 60.1724 571.573 57.4073L582.917 49.2611L581.502 63.1747H581.506ZM564.567 40.7237C564.567 38.7407 564.823 36.8182 565.294 34.9795L578.034 40.7423L565.266 46.4726C564.8 44.6153 564.563 42.6881 564.563 40.7237H564.567ZM611.148 40.803C611.148 42.786 610.892 44.7084 610.422 46.5424L597.701 40.7844L610.441 35.0586C610.906 36.8973 611.153 38.82 611.148 40.803ZM594.689 40.7751C594.684 44.5502 591.617 47.6038 587.842 47.5991C584.067 47.5945 581.008 44.5268 581.018 40.7516C581.022 36.9765 584.09 33.9229 587.865 33.9276C591.64 33.9369 594.694 36.9999 594.689 40.7751ZM604.129 24.1242L592.785 32.2563L594.205 18.3566C597.994 19.4319 601.387 21.4429 604.129 24.1242ZM582.963 32.247L571.638 24.0683C574.389 21.3963 577.792 19.3994 581.581 18.3334L582.963 32.2424V32.247Z" fill="#FFE5B8"/>
<path d="M646.356 41.3507C646.347 44.8326 649.168 47.6582 652.649 47.6629C656.131 47.6675 658.957 44.8512 658.961 41.3693C658.966 37.8874 656.15 35.0618 652.668 35.0571C649.186 35.0525 646.361 37.8688 646.356 41.3507Z" fill="#FFE5B8"/>
<path d="M649.065 21.2648C647.022 21.6512 643.135 23.2851 643.088 23.313C643.065 23.3269 640.807 22.0796 639.876 21.6001C638.019 23.2433 636.171 24.8957 634.342 26.5622C634.765 27.6421 635.422 28.601 635.892 29.6577C634.658 31.4359 633.136 33.731 632.484 35.7885C632.438 35.9281 632.484 35.7883 629.45 36.291C629.459 37.236 629.436 44.8841 629.436 44.8841L632.638 45.2891C633.066 47.342 633.709 49.3204 634.714 51.1731C634.137 52.1786 633.378 53.0629 632.834 54.087C634.505 55.963 636.18 57.8389 637.87 59.7009C638.731 59.161 641.012 58.0624 641.012 58.0624C644.07 60.1478 646.887 60.9438 646.887 60.9438C647.045 61.926 647.399 63.2621 647.589 64.235C650.061 64.3886 652.528 64.5237 655 64.64C655.526 63.6299 655.698 62.4941 656.145 61.4607C658.254 61.0603 662.41 59.2217 662.559 59.3055C663.011 59.5754 664.035 60.7577 664.798 61.279L670.961 55.8467C670.487 54.7388 669.681 53.8263 669.267 53.1653C669.998 52.1645 672.218 47.0907 672.363 47.0582C673.354 46.8208 674.508 46.6438 675.477 46.304C675.63 43.8555 675.761 41.4068 675.882 38.9583C674.965 38.4975 673.717 38.2788 672.763 37.925C672.614 37.8692 672.451 35.5881 670.524 31.5197C670.84 30.9611 671.534 30.0303 672.344 28.6803L667.093 22.7498C665.469 23.9228 664.929 24.2207 664.314 24.6536C662.462 23.3688 660.46 22.4239 658.305 21.7722C658.012 20.6875 658.114 19.6541 657.872 18.3693C655.424 18.2157 652.649 18.2018 650.201 18.0854C649.693 19.1002 649.498 20.2268 649.07 21.2648H649.065ZM666.688 41.3883C666.679 49.1389 660.381 55.4138 652.631 55.3999C644.88 55.3859 638.606 49.0923 638.62 41.3417C638.634 33.5912 644.927 27.3162 652.677 27.3302C660.427 27.3441 666.698 33.6378 666.688 41.3883Z" fill="#FFE5B8"/>
<path d="M416.043 14.1919C413.316 14.7087 408.121 16.8967 408.056 16.9293C408.023 16.9479 405.007 15.2765 403.759 14.6388C401.278 16.8313 398.806 19.0424 396.358 21.2722C396.921 22.7152 397.806 24 398.429 25.4105C396.777 27.7845 394.747 30.8569 393.877 33.6033C393.816 33.7895 393.877 33.6033 389.823 34.2736C389.837 35.5351 389.804 45.7622 389.804 45.7622L394.086 46.302C394.659 49.0438 395.515 51.6925 396.861 54.1643C396.093 55.505 395.073 56.692 394.347 58.0606C396.581 60.5696 398.82 63.0787 401.078 65.5645C402.232 64.843 405.281 63.3766 405.281 63.3766C409.368 66.1649 413.134 67.2308 413.134 67.2308C413.348 68.5435 413.818 70.3264 414.074 71.6298C417.375 71.8347 420.68 72.0162 423.984 72.1744C424.683 70.8245 424.92 69.307 425.516 67.9245C428.337 67.3892 433.89 64.9312 434.09 65.0476C434.695 65.4107 436.059 66.9889 437.083 67.6872L445.322 60.4299C444.685 58.9496 443.609 57.7302 443.055 56.8457C444.033 55.5097 447.003 48.7274 447.194 48.6809C448.52 48.3643 450.061 48.127 451.36 47.6708C451.564 44.3983 451.741 41.1258 451.9 37.8487C450.675 37.2343 449.009 36.9364 447.729 36.4709C447.533 36.401 447.315 33.3426 444.731 27.9103C445.155 27.1608 446.086 25.9225 447.166 24.1117L440.141 16.1844C437.972 17.7531 437.246 18.1487 436.427 18.7306C433.955 17.0175 431.274 15.7468 428.393 14.8763C427.997 13.4286 428.137 12.0461 427.811 10.3284C424.538 10.1236 420.833 10.105 417.556 9.94678C416.877 11.3014 416.616 12.8049 416.048 14.1967L416.043 14.1919ZM445.453 41.0886C445.369 54.858 434.318 65.7041 420.475 65.6063C406.808 65.5086 396.153 54.5462 396.232 40.6697C396.311 27.1795 407.348 16.4125 420.996 16.5056C434.518 16.5987 445.527 27.6682 445.448 41.0886H445.453Z" fill="#FFE5B8"/>
<path d="M400.608 41.0049C400.585 52.4049 409.722 61.3286 421.406 61.3193C431.879 61.31 441.156 51.7159 441.086 40.9583C441.017 29.9353 431.819 20.7976 420.787 20.793C409.708 20.793 400.631 29.8796 400.608 41.0003V41.0049ZM421.513 24.3353C430.543 24.5914 437.754 32.2862 437.549 41.4379C437.339 50.7385 429.808 57.9817 420.559 57.7862C411.091 57.586 403.908 49.9564 404.16 40.3625C404.397 31.2993 412.226 24.07 421.518 24.3353H421.513Z" fill="#FFE5B8"/>
<path d="M413.321 41.1257C413.316 45.1802 416.691 48.5828 420.764 48.6294C424.893 48.6759 428.346 45.2685 428.365 41.1303C428.384 37.0059 424.93 33.4915 420.847 33.4868C416.798 33.4868 413.321 37.0107 413.316 41.1257H413.321Z" fill="#FFE5B8"/>
<path d="M95.9836 20.9215L96.0162 19.5903L91.5289 18.9897L90.7749 21.685H90.7609C89.9137 21.6897 89.1596 21.1822 88.8897 20.3862L88.4614 19.12L84.0114 20.0883L84.2255 22.8719H84.2115C83.4156 23.1698 82.5265 22.9511 82.0005 22.2994L81.158 21.2613L77.2851 23.6866L78.4395 26.2143L78.4302 26.2236C77.7739 26.7729 76.8429 26.8519 76.1168 26.4236L74.9856 25.7533L72.1601 29.3423L74.1198 31.3114L74.1105 31.3254C73.6776 32.0609 72.8258 32.4519 71.9926 32.2983L70.6892 32.0562L69.2462 36.3714L71.7692 37.5397V37.5538C71.6062 38.3917 70.9359 39.0479 70.0934 39.1875L68.79 39.4017L68.9064 43.9264L71.6947 44.1592V44.1685C71.8343 45.0064 71.4247 45.8536 70.6752 46.2725L69.5162 46.9196L71.178 51.1091L73.8871 50.3736L73.8964 50.3875C74.3153 51.1229 74.2176 52.0493 73.6544 52.6963L72.7792 53.6971L75.7863 57.0442L78.1044 55.4243L78.1137 55.4336C78.7607 55.9736 78.9841 56.8718 78.6723 57.6631L78.1835 58.9108L82.1727 61.0103L83.8066 58.706H83.8205C84.6165 58.9992 85.1379 59.7626 85.1146 60.6098L85.082 61.932L89.5693 62.5325L90.3234 59.8324H90.3373C91.1891 59.8324 91.9432 60.3632 92.2179 61.1685L92.6368 62.4068L97.0868 61.4337L96.8727 58.6501H96.8867C97.692 58.3521 98.5857 58.5942 99.121 59.2506L99.9449 60.2654L103.813 57.8402L102.659 55.3125L102.668 55.3032C103.324 54.7539 104.251 54.67 104.977 55.1029L106.113 55.778L108.938 52.1935L106.978 50.2199L107.006 50.1734C107.425 49.4565 108.254 49.0795 109.059 49.2285L110.404 49.4799L111.847 45.1647L109.324 43.9962V43.9823C109.487 43.1444 110.158 42.4881 111.005 42.3438L112.304 42.1249L112.187 37.6004L109.399 37.3676V37.3583C109.259 36.5157 109.669 35.6731 110.423 35.2495L111.577 34.6026L109.916 30.4131L107.211 31.1438L107.202 31.1297C106.788 30.3989 106.862 29.482 107.425 28.835L108.31 27.8201L105.303 24.4732L102.994 26.0838L102.985 26.0745C102.342 25.5345 102.1 24.6547 102.412 23.8634L102.905 22.6019L98.9162 20.5026L97.287 22.7928H97.273C96.4771 22.4996 95.9511 21.7546 95.9697 20.9074L95.9836 20.9215ZM74.8041 35.1844C80.9392 38.5733 82.3263 45.202 77.3224 50.7693C73.943 47.0779 72.9328 40.8077 74.8041 35.1844ZM96.0116 56.3132C92.1667 58.65 83.6064 57.2118 80.1851 53.6507C85.1658 49.2378 91.5755 49.2796 96.0116 56.3132ZM99.5027 54.6795C96.8774 48.5535 98.2645 42.2413 107.058 40.0163C108.096 44.7457 104.316 52.082 99.5027 54.6795ZM94.131 39.0666C95.0573 41.0869 94.1822 43.433 92.1574 44.3501C90.1744 45.2485 87.7353 44.3173 86.8695 42.3297C86.0037 40.342 86.9672 37.9075 88.9502 37.051C90.9099 36.2038 93.2326 37.1115 94.131 39.0666ZM106.653 36.2968C99.0093 36.8368 94.2195 33.0942 94.7501 24.5523C100.853 26.4329 104.791 30.2686 106.653 36.2968ZM90.9471 24.1846C89.3691 31.423 83.3178 34.5699 76.7079 31.5814C78.8073 27.1871 86.2317 23.3327 90.9471 24.1846Z" fill="#FFE5B8"/>
<path d="M156.136 10.58H156.113L154.94 6.33008L147.878 7.25176L147.925 9.33241C147.953 10.6684 147.133 11.8647 145.881 12.3115L145.863 12.3209L143.303 8.69462L137.023 11.9765L137.782 13.9408C138.266 15.193 137.908 16.5989 136.893 17.4461L136.874 17.46L133.234 14.8997L128.491 20.1459L129.859 21.724C130.744 22.7435 130.893 24.2004 130.227 25.3548L130.218 25.3735L125.959 24.2004L123.324 30.7781L125.139 31.802C126.317 32.4677 126.959 33.7991 126.731 35.1164V35.1257L122.346 35.4749L122.142 42.5923L124.19 42.9415C125.516 43.1649 126.568 44.203 126.815 45.5203V45.5435L122.844 47.3682L125.088 54.1646L127.136 53.7923C128.449 53.5549 129.78 54.1693 130.46 55.3331L130.469 55.3515L127.374 58.4425L131.8 64.0982L133.583 63.0463C134.728 62.3713 136.19 62.5018 137.219 63.3722L137.237 63.3861L135.408 67.3567L141.482 71.1878L142.814 69.554C143.647 68.5345 145.043 68.19 146.296 68.6555L146.319 68.6648L145.97 73.0359L152.957 74.586L153.641 72.5936C154.069 71.3414 155.261 70.5455 156.592 70.5595H156.615L157.788 74.8001L164.85 73.8785L164.803 71.7837C164.775 70.4524 165.609 69.284 166.861 68.8371L166.884 68.8278L169.43 72.4401L175.71 69.1582L174.941 67.1753C174.462 65.9278 174.839 64.5405 175.854 63.698L175.872 63.6841L179.494 66.2302L184.237 60.9888L182.855 59.3921C181.975 58.3773 181.859 56.9343 182.515 55.7845L182.524 55.7659L186.769 56.9296L189.404 50.3522L187.593 49.3327C186.411 48.6671 185.773 47.3358 185.997 46.0138V46.0045L190.382 45.6554L190.591 38.5424L188.548 38.1933C187.221 37.9652 186.169 36.9319 185.922 35.6099V35.5865L189.893 33.7617L187.649 26.9654L185.536 27.3518C184.26 27.5846 182.966 26.9841 182.31 25.8576L182.264 25.7833L185.359 22.6923L180.932 17.0365L179.145 18.0885C178 18.7634 176.543 18.633 175.514 17.7625L175.495 17.7486L177.325 13.778L171.25 9.94223L169.952 11.5342C169.114 12.563 167.703 12.94 166.437 12.4745L166.414 12.4652L166.763 8.09433L159.776 6.54419L159.11 8.48983C158.677 9.75133 157.49 10.5893 156.145 10.58H156.136ZM153.436 40.5628C153.431 44.096 146.836 46.9541 143.303 46.9448C139.77 46.9401 136.907 44.068 136.916 40.5349C136.921 37.0017 139.793 34.1388 143.326 34.1481C146.859 34.1574 153.445 37.0297 153.441 40.5628H153.436ZM156.364 38.4588C157.528 38.4588 158.468 39.4035 158.468 40.5719C158.468 41.7357 157.518 42.676 156.359 42.676C155.196 42.676 154.251 41.7266 154.255 40.5628C154.26 39.3991 155.205 38.4588 156.369 38.4588H156.364ZM156.355 43.4906C159.888 43.4953 162.746 50.0915 162.737 53.6293C162.727 57.1671 159.86 60.0251 156.327 60.0158C152.794 60.0111 149.931 57.139 149.936 53.6059C149.94 50.0727 152.817 43.486 156.35 43.4906H156.355ZM159.283 40.5719C159.287 37.0388 165.883 34.1807 169.416 34.19C172.949 34.1993 175.812 37.0667 175.807 40.5999C175.803 44.133 172.931 46.9959 169.398 46.9866C165.865 46.9773 159.278 44.1051 159.283 40.5719ZM156.364 37.6441C152.831 37.6395 149.973 31.0434 149.982 27.5102C149.987 23.9771 152.859 21.1143 156.392 21.119C159.925 21.1236 162.788 23.9958 162.778 27.5289C162.774 31.062 159.897 37.6488 156.364 37.6441ZM147.995 29.1672C148.865 30.0424 148.865 31.4576 147.99 32.3327C147.115 33.2032 145.7 33.2031 144.825 32.328C143.954 31.4528 143.954 30.0377 144.829 29.1672C145.704 28.2967 147.119 28.2969 147.995 29.172V29.1672ZM132.317 40.5256C132.322 36.4338 133.36 32.5841 135.175 29.2093L136.665 30.0705C134.998 33.1893 134.049 36.7457 134.044 40.5256C134.039 44.3054 134.975 47.8665 136.632 50.9899L135.143 51.8464C133.336 48.4669 132.312 44.6125 132.322 40.5208L132.317 40.5256ZM144.96 49.0859C145.835 48.2154 147.25 48.2155 148.125 49.0907C148.995 49.9658 148.995 51.3809 148.12 52.2514C147.245 53.1219 145.83 53.1218 144.955 52.2467C144.085 51.3715 144.085 49.9565 144.96 49.0814V49.0859ZM135.939 53.229L137.428 52.3723C141.231 58.4611 147.888 62.5762 155.526 62.8601V64.5824C147.259 64.2984 140.044 59.8251 135.939 53.229ZM176.738 53.294C172.609 59.8808 165.38 64.3265 157.113 64.5871V62.8647C164.757 62.6087 171.427 58.5123 175.253 52.4376L176.738 53.2988V53.294ZM164.878 52.121C164.007 51.2458 164.007 49.8307 164.882 48.9602C165.757 48.0897 167.173 48.0898 168.043 48.965C168.913 49.8401 168.913 51.2553 168.043 52.1257C167.168 52.9962 165.753 52.9961 164.882 52.121H164.878ZM180.397 40.5999C180.392 44.6916 179.354 48.546 177.539 51.9162L176.049 51.055C177.716 47.9361 178.665 44.3798 178.67 40.5953C178.675 36.8155 177.739 33.2544 176.082 30.1309L177.571 29.2745C179.373 32.654 180.397 36.5082 180.392 40.5999H180.397ZM167.913 32.1977C167.038 33.0682 165.622 33.0681 164.752 32.193C163.882 31.3178 163.882 29.9029 164.757 29.0324C165.632 28.162 167.047 28.1618 167.917 29.037C168.788 29.9121 168.788 31.3272 167.913 32.1977ZM176.776 27.8964L175.286 28.7531C171.483 22.6644 164.827 18.5446 157.188 18.2653V16.5383C165.455 16.8223 172.67 21.2957 176.776 27.8964ZM155.596 18.2607C147.953 18.5168 141.287 22.6131 137.461 28.6879L135.976 27.8266C140.105 21.2398 147.334 16.7944 155.601 16.5338V18.2607H155.596Z" fill="#FFE5B8"/>
<path d="M231.454 7.81928C228.173 8.43839 221.931 11.0686 221.851 11.1105C221.809 11.1291 218.183 9.12728 216.689 8.35456C213.705 10.9939 210.74 13.6474 207.794 16.3287C208.473 18.0604 209.535 19.6104 210.279 21.3049C208.296 24.1584 205.857 27.8496 204.805 31.1546C204.736 31.3781 204.805 31.1546 199.932 31.96C199.95 33.4775 199.908 45.7715 199.908 45.7715L205.057 46.4184C205.746 49.7141 206.774 52.8982 208.39 55.8681C207.463 57.4787 206.244 58.9078 205.369 60.551C208.054 63.5675 210.745 66.5792 213.459 69.5723C214.846 68.7065 218.509 66.9423 218.509 66.9423C223.425 70.2939 227.949 71.5739 227.949 71.5739C228.205 73.1519 228.768 75.298 229.08 76.8621C233.051 77.1042 237.017 77.3276 240.992 77.5138C241.835 75.8938 242.114 74.0691 242.831 72.4026C246.22 71.7602 252.899 68.8042 253.137 68.9439C253.863 69.3768 255.506 71.276 256.735 72.1139L266.64 63.3904C265.877 61.6075 264.583 60.146 263.917 59.08C265.095 57.474 268.661 49.3186 268.889 49.2627C270.485 48.881 272.333 48.5922 273.893 48.0476C274.139 44.1141 274.353 40.1761 274.544 36.2426C273.069 35.5025 271.067 35.1487 269.531 34.5854C269.294 34.497 269.033 30.8289 265.928 24.2933C266.436 23.3949 267.553 21.9052 268.856 19.7313L260.417 10.2027C257.81 12.088 256.94 12.5628 255.953 13.2657C252.978 11.2035 249.757 9.68127 246.299 8.6339C245.824 6.89294 245.991 5.23123 245.6 3.16907C241.667 2.92236 237.212 2.90374 233.274 2.71289C232.46 4.34213 232.143 6.14826 231.459 7.82405L231.454 7.81928ZM235.481 41.8472C234.522 40.8837 234.522 39.3243 235.485 38.3653C236.449 37.4017 238.008 37.4063 238.972 38.3699C239.935 39.3335 239.931 40.8929 238.967 41.8518C238.004 42.8154 236.44 42.8108 235.481 41.8472ZM214.497 49.4255C213.296 46.4975 212.667 43.3323 212.672 40.0691C212.677 36.806 213.319 33.6451 214.529 30.7171L232.558 40.0969L214.497 49.4255ZM241.914 40.1203L259.961 30.7962C261.162 33.7242 261.785 36.8897 261.781 40.1482C261.776 43.4067 261.138 46.572 259.928 49.5L241.914 40.1203ZM217.806 25.0893C218.449 24.2654 219.138 23.4694 219.892 22.72C223.76 18.8657 228.685 16.4636 234.01 15.77L234.899 36.0565L217.806 25.0893ZM211.988 29.3997L213.375 30.1214C210.726 36.4708 210.717 43.6674 213.342 50.0214L211.951 50.7383C209.097 43.9281 209.111 36.2006 211.988 29.3997ZM234.876 44.1561L233.926 64.4425C228.606 63.7303 223.69 61.3143 219.836 57.446C219.086 56.6919 218.397 55.8959 217.755 55.0673L234.871 44.1561H234.876ZM217.802 59.4709C216.899 58.5632 216.079 57.6045 215.33 56.6129L216.652 55.7704C217.341 56.6734 218.086 57.5437 218.91 58.3677C222.996 62.4687 228.215 65.0198 233.866 65.7506L233.791 67.3146C227.749 66.5652 222.163 63.8466 217.802 59.4709ZM259.067 56.6873C258.313 57.6788 257.494 58.6331 256.586 59.5362C252.206 63.9025 246.61 66.5977 240.568 67.3285L240.499 65.7645C246.15 65.0523 251.382 62.5153 255.483 58.4329C256.307 57.609 257.056 56.7431 257.745 55.8447L259.062 56.692L259.067 56.6873ZM254.561 57.5019C250.697 61.3562 245.768 63.7583 240.448 64.4519L239.563 44.1747L256.646 55.1326C256.004 55.9565 255.315 56.7524 254.561 57.5019ZM262.465 50.8219L261.078 50.1005C263.726 43.7511 263.736 36.5591 261.11 30.205L262.502 29.4836C265.356 36.2938 265.342 44.021 262.465 50.8219ZM239.572 36.061L240.522 15.7793C245.842 16.4916 250.763 18.9074 254.612 22.7757C255.362 23.5298 256.051 24.326 256.688 25.1545L239.568 36.061H239.572ZM256.651 20.7509C257.554 21.6587 258.373 22.6128 259.123 23.6089L257.801 24.4515C257.112 23.5485 256.367 22.6826 255.543 21.854C251.456 17.753 246.233 15.1974 240.582 14.4713L240.657 12.9073C246.699 13.6567 252.28 16.3706 256.646 20.7509H256.651ZM233.954 14.4574C228.298 15.165 223.071 17.7019 218.97 21.789C218.146 22.6129 217.397 23.4788 216.703 24.3772L215.381 23.5298C216.135 22.5383 216.959 21.584 217.862 20.6809C222.242 16.3146 227.838 13.6194 233.88 12.8886L233.949 14.4526L233.954 14.4574Z" fill="#FFE5B8"/>
<path d="M31.2976 6.52052C28.8027 6.27846 29.9664 2.72221 29.9664 2.72221L23.9895 2.71289C23.9895 2.71289 25.1579 6.19478 22.5698 6.51597C20.1307 6.81855 20.0097 3.40636 20.0097 3.40636L14.3913 5.44065C14.3913 5.44065 16.8397 8.05682 14.4192 9.47193C12.2873 10.7241 10.8862 7.45629 10.8862 7.45629L6.30114 11.2873C6.30114 11.2873 9.27093 13.0236 7.67897 15.1091C6.1196 17.1479 3.69908 14.3783 3.69908 14.3783L0.701361 19.5499C0.701361 19.5499 4.30421 20.0247 3.31273 22.6082C2.18626 25.5361 -0.690436 23.3485 -0.690436 23.3485L-1.73778 29.2322C-1.73778 29.2322 1.89766 28.4455 1.75801 31.2572C1.60906 34.2084 -1.74243 33.2728 -1.74243 33.2728L-0.71371 39.1613C-0.71371 39.1613 2.3678 37.0339 3.28014 39.9387C4.11802 42.606 0.664123 42.9598 0.664123 42.9598L3.64322 48.1408C3.64322 48.1408 5.7379 45.1757 7.59984 47.4194C9.42454 49.6119 6.23597 51.2456 6.23597 51.2456L10.807 55.0953C10.807 55.0953 11.9149 51.6135 14.2982 53.0844C16.4068 54.3832 14.2982 57.1248 14.2982 57.1248L19.9119 59.1777C19.9119 59.1777 19.479 55.5095 22.5 56.0868C25.3767 56.636 23.8871 59.8853 23.8871 59.8853L29.864 59.8946C29.864 59.8946 28.3697 56.6269 31.2185 56.1008C34.3047 55.5329 33.8438 59.1964 33.8438 59.1964L39.4622 57.1621C39.4622 57.1621 37.4886 54.3273 39.3878 53.1542C41.8641 51.6274 42.9627 55.1464 42.9627 55.1464L47.5477 51.3154C47.5477 51.3154 44.6664 49.3976 46.1373 47.531C47.7991 45.4269 50.1498 48.2247 50.1498 48.2247L53.1475 43.0528C53.1475 43.0528 49.7122 42.6899 50.5408 39.9714C51.3181 37.4298 54.5346 39.259 54.5346 39.259L55.582 33.3753C55.582 33.3753 51.9605 34.3016 52.0815 31.3503C52.2025 28.4037 55.5866 29.3347 55.5866 29.3347L54.5579 23.4462C54.5579 23.4462 51.4159 25.35 50.5827 22.7618C49.8658 20.546 53.1801 19.6477 53.1801 19.6477L50.201 14.4667C50.201 14.4667 47.7898 17.2272 46.2397 15.2116C44.6431 13.1354 47.6082 11.3664 47.6082 11.3664L43.0372 7.51675C43.0372 7.51675 41.6454 10.7799 39.5414 9.55103C37.5398 8.37798 39.5414 5.49179 39.5414 5.49179L33.9276 3.4391C33.9276 3.4391 33.9556 6.78586 31.2837 6.52984L31.2976 6.52052ZM18.4549 19.5545C17.389 17.7576 16.3416 15.947 15.4293 14.071C14.8335 12.8467 15.7505 11.5712 17.4216 11.5805C17.6822 11.79 18.3106 12.088 18.6132 12.5861C19.6419 14.2619 20.6939 15.9564 21.4387 17.7625C21.704 18.4049 21.3549 19.6569 20.8382 20.1736C20.0143 20.9929 19.0089 20.4809 18.4596 19.5499L18.4549 19.5545ZM12.8458 28.9949C10.7465 28.5899 8.6658 27.9847 6.66887 27.212C6.11029 26.9979 5.49119 25.876 5.59826 25.2941C5.71928 24.6284 6.61301 24.1071 7.09246 23.6044C9.66193 24.4004 11.8637 24.9682 13.949 25.8201C14.4378 26.0202 14.9126 27.305 14.7171 27.8543C14.5216 28.4129 13.4091 29.1065 12.8458 28.9994V28.9949ZM22.877 51.6693C22.6629 52.2186 21.327 52.8005 20.7498 52.6096C20.1633 52.4188 19.4185 51.2084 19.5395 50.6033C19.9678 48.4527 20.6474 46.3301 21.448 44.2866C21.6435 43.7885 22.7514 43.2716 23.3006 43.3926C23.943 43.5323 24.4318 44.3657 24.9205 44.8312C24.2037 47.3448 23.6963 49.5699 22.877 51.6693ZM35.5568 43.1833C36.5576 44.8125 37.4281 46.5209 38.3451 48.1967C38.9456 49.2906 38.6988 50.1936 37.6236 50.7708C36.5902 51.3247 35.757 50.9011 35.2124 49.9469C34.2302 48.2385 33.2434 46.5255 32.359 44.7659C31.698 43.4486 32.5219 42.0754 34.2907 42.0568C34.5607 42.2896 35.2217 42.634 35.5568 43.1833ZM9.71779 42.783C8.48426 43.3882 7.1809 42.5176 7.21349 40.8092C7.48347 40.5066 7.87913 39.813 8.47495 39.4407C10.0343 38.4631 11.6821 37.6252 13.2974 36.7361C14.354 36.1542 15.2943 36.3079 15.9087 37.3645C16.4813 38.3514 16.1554 39.2591 15.2105 39.8084C13.4091 40.8558 11.5937 41.8705 9.72245 42.7876L9.71779 42.783ZM40.9844 33.5428C43.1303 33.9711 45.2529 34.5902 47.2917 35.3769C47.8223 35.5817 48.367 36.7175 48.2646 37.3273C48.1621 37.9464 47.2824 38.4398 46.789 38.9379C44.2707 38.1651 42.0177 37.5834 39.8765 36.7315C39.4017 36.5407 38.9549 35.2605 39.1457 34.7159C39.3459 34.1526 40.4305 33.4403 40.9751 33.5474L40.9844 33.5428ZM35.8501 31.476C35.7104 36.2008 31.535 40.26 26.8709 40.2041C22.0857 40.1483 17.9662 35.9262 18.05 31.1642C18.1338 26.2672 22.244 22.2964 27.0943 22.4175C32.0005 22.5431 35.9944 26.6721 35.8501 31.476ZM46.6354 21.7192C46.4305 21.9799 46.1513 22.6315 45.6532 22.9341C43.9774 23.9629 42.2365 24.8937 40.5049 25.8201C39.439 26.3926 38.3125 26.1973 37.9913 25.0754C37.7958 24.4051 38.2473 23.1483 38.8245 22.7386C40.4118 21.5982 42.19 20.7044 43.9542 19.8293C45.3134 19.159 46.6354 19.9736 46.6354 21.7192ZM33.113 9.99312C33.6856 10.184 34.4257 11.2873 34.314 11.8412C33.8904 13.9965 33.262 16.1284 32.4614 18.1766C32.2565 18.698 31.0835 19.21 30.4598 19.0983C29.8546 18.9959 29.3892 18.093 28.9283 17.6088C29.6964 15.1091 30.255 12.9026 31.0928 10.8125C31.293 10.3098 32.5591 9.80703 33.1037 9.98857L33.113 9.99312Z" fill="#FFE5B8"/>
<path d="M780.512 20.9215L780.545 19.5903L776.058 18.9897L775.304 21.685H775.29C774.443 21.6897 773.688 21.1822 773.418 20.3862L772.99 19.12L768.54 20.0883L768.754 22.8719H768.74C767.944 23.1698 767.055 22.9511 766.529 22.2994L765.687 21.2613L761.814 23.6866L762.968 26.2143L762.959 26.2236C762.303 26.7729 761.372 26.8519 760.646 26.4236L759.514 25.7533L756.689 29.3423L758.649 31.3114L758.639 31.3254C758.206 32.0609 757.355 32.4519 756.521 32.2983L755.218 32.0562L753.775 36.3714L756.298 37.5397V37.5538C756.135 38.3917 755.465 39.0479 754.622 39.1875L753.319 39.4017L753.435 43.9264L756.223 44.1592V44.1685C756.363 45.0064 755.953 45.8536 755.204 46.2725L754.045 46.9196L755.707 51.1091L758.416 50.3736L758.425 50.3875C758.844 51.1229 758.746 52.0493 758.183 52.6963L757.308 53.6971L760.315 57.0442L762.633 55.4243L762.642 55.4336C763.29 55.9736 763.513 56.8718 763.201 57.6631L762.712 58.9108L766.702 61.0103L768.335 58.706H768.349C769.145 58.9992 769.667 59.7626 769.643 60.6098L769.611 61.932L774.098 62.5325L774.852 59.8324H774.866C775.718 59.8324 776.472 60.3632 776.747 61.1685L777.166 62.4068L781.616 61.4337L781.402 58.6501H781.415C782.221 58.3521 783.114 58.5942 783.65 59.2506L784.474 60.2654L788.342 57.8402L787.187 55.3125L787.197 55.3032C787.853 54.7539 788.779 54.67 789.506 55.1029L790.641 55.778L793.467 52.1935L791.507 50.2199L791.535 50.1734C791.954 49.4565 792.783 49.0795 793.588 49.2285L794.933 49.4799L796.376 45.1647L793.853 43.9962V43.9823C794.016 43.1444 794.686 42.4881 795.534 42.3438L796.832 42.1249L796.716 37.6004L793.928 37.3676V37.3583C793.788 36.5157 794.198 35.6731 794.952 35.2495L796.106 34.6026L794.444 30.4131L791.74 31.1438L791.731 31.1297C791.316 30.3989 791.391 29.482 791.954 28.835L792.838 27.8201L789.831 24.4732L787.523 26.0838L787.513 26.0745C786.871 25.5345 786.629 24.6547 786.941 23.8634L787.434 22.6019L783.445 20.5026L781.816 22.7928H781.802C781.006 22.4996 780.48 21.7546 780.498 20.9074L780.512 20.9215ZM759.333 35.1844C765.468 38.5733 766.855 45.202 761.851 50.7693C758.472 47.0779 757.462 40.8077 759.333 35.1844ZM780.54 56.3132C776.695 58.65 768.135 57.2118 764.714 53.6507C769.695 49.2378 776.104 49.2796 780.54 56.3132ZM784.031 54.6795C781.406 48.5535 782.793 42.2413 791.586 40.0163C792.624 44.7457 788.845 52.082 784.031 54.6795ZM778.66 39.0666C779.586 41.0869 778.711 43.433 776.686 44.3501C774.703 45.2485 772.264 44.3173 771.398 42.3297C770.532 40.342 771.496 37.9075 773.479 37.051C775.439 36.2038 777.761 37.1115 778.66 39.0666ZM791.181 36.2968C783.538 36.8368 778.748 33.0942 779.279 24.5523C785.381 26.4329 789.319 30.2686 791.181 36.2968ZM775.476 24.1846C773.898 31.423 767.847 34.5699 761.237 31.5814C763.336 27.1871 770.761 23.3327 775.476 24.1846Z" fill="#FFE5B8"/>
<path d="M840.665 10.58H840.641L839.468 6.33008L832.407 7.25176L832.453 9.33241C832.481 10.6684 831.662 11.8647 830.41 12.3115L830.391 12.3209L827.831 8.69462L821.552 11.9765L822.31 13.9408C822.795 15.193 822.436 16.5989 821.421 17.4461L821.403 17.46L817.763 14.8997L813.019 20.1459L814.388 21.724C815.272 22.7435 815.421 24.2004 814.756 25.3548L814.746 25.3735L810.487 24.2004L807.852 30.7781L809.668 31.802C810.846 32.4677 811.488 33.7991 811.26 35.1164V35.1257L806.875 35.4749L806.67 42.5923L808.718 42.9415C810.045 43.1649 811.097 44.203 811.344 45.5203V45.5435L807.373 47.3682L809.617 54.1646L811.665 53.7923C812.977 53.5549 814.309 54.1693 814.988 55.3331L814.998 55.3515L811.902 58.4425L816.329 64.0982L818.112 63.0463C819.257 62.3713 820.718 62.5018 821.747 63.3722L821.766 63.3861L819.936 67.3567L826.011 71.1878L827.342 69.554C828.176 68.5345 829.572 68.19 830.824 68.6555L830.847 68.6648L830.498 73.0359L837.485 74.586L838.169 72.5936C838.598 71.3414 839.789 70.5455 841.121 70.5595H841.144L842.317 74.8001L849.378 73.8785L849.332 71.7837C849.304 70.4524 850.137 69.284 851.389 68.8371L851.413 68.8278L853.959 72.4401L860.238 69.1582L859.47 67.1753C858.991 65.9278 859.368 64.5405 860.382 63.698L860.401 63.6841L864.023 66.2302L868.766 60.9888L867.383 59.3921C866.504 58.3773 866.387 56.9343 867.043 55.7845L867.053 55.7659L871.298 56.9296L873.933 50.3522L872.122 49.3327C870.94 48.6671 870.302 47.3358 870.525 46.0138V46.0045L874.91 45.6554L875.12 38.5424L873.076 38.1933C871.75 37.9652 870.698 36.9319 870.451 35.6099V35.5865L874.421 33.7617L872.178 26.9654L870.064 27.3518C868.789 27.5846 867.495 26.9841 866.839 25.8576L866.792 25.7833L869.888 22.6923L865.461 17.0365L863.673 18.0885C862.528 18.7634 861.071 18.633 860.043 17.7625L860.024 17.7486L861.853 13.778L855.779 9.94223L854.48 11.5342C853.642 12.563 852.232 12.94 850.966 12.4745L850.942 12.4652L851.291 8.09433L844.305 6.54419L843.639 8.48983C843.206 9.75133 842.019 10.5893 840.674 10.58H840.665ZM837.965 40.5628C837.96 44.096 831.364 46.9541 827.831 46.9448C824.298 46.9401 821.435 44.068 821.445 40.5349C821.449 37.0017 824.321 34.1388 827.854 34.1481C831.387 34.1574 837.974 37.0297 837.969 40.5628H837.965ZM840.893 38.4588C842.056 38.4588 842.997 39.4035 842.997 40.5719C842.997 41.7357 842.047 42.676 840.888 42.676C839.724 42.676 838.779 41.7266 838.784 40.5628C838.789 39.3991 839.734 38.4588 840.897 38.4588H840.893ZM840.883 43.4906C844.416 43.4953 847.274 50.0915 847.265 53.6293C847.256 57.1671 844.388 60.0251 840.855 60.0158C837.322 60.0111 834.46 57.139 834.464 53.6059C834.469 50.0727 837.346 43.486 840.879 43.4906H840.883ZM843.811 40.5719C843.816 37.0388 850.412 34.1807 853.945 34.19C857.478 34.1993 860.341 37.0667 860.336 40.5999C860.331 44.133 857.459 46.9959 853.926 46.9866C850.393 46.9773 843.806 44.1051 843.811 40.5719ZM840.893 37.6441C837.36 37.6395 834.501 31.0434 834.511 27.5102C834.515 23.9771 837.387 21.1143 840.921 21.119C844.454 21.1236 847.316 23.9958 847.307 27.5289C847.302 31.062 844.426 37.6488 840.893 37.6441ZM832.523 29.1672C833.394 30.0424 833.394 31.4576 832.519 32.3327C831.643 33.2032 830.228 33.2031 829.353 32.328C828.483 31.4528 828.483 30.0377 829.358 29.1672C830.233 28.2967 831.648 28.2969 832.523 29.172V29.1672ZM816.846 40.5256C816.85 36.4338 817.888 32.5841 819.704 29.2093L821.193 30.0705C819.527 33.1893 818.577 36.7457 818.573 40.5256C818.568 44.3054 819.504 47.8665 821.161 50.9899L819.671 51.8464C817.865 48.4669 816.841 44.6125 816.85 40.5208L816.846 40.5256ZM829.488 49.0859C830.363 48.2154 831.778 48.2155 832.654 49.0907C833.524 49.9658 833.524 51.3809 832.649 52.2514C831.774 53.1219 830.359 53.1218 829.484 52.2467C828.613 51.3715 828.613 49.9565 829.488 49.0814V49.0859ZM820.467 53.229L821.957 52.3723C825.76 58.4611 832.416 62.5762 840.055 62.8601V64.5824C831.788 64.2984 824.573 59.8251 820.467 53.229ZM861.267 53.294C857.138 59.8808 849.909 64.3265 841.642 64.5871V62.8647C849.285 62.6087 855.956 58.5123 859.782 52.4376L861.267 53.2988V53.294ZM849.406 52.121C848.536 51.2458 848.536 49.8307 849.411 48.9602C850.286 48.0897 851.701 48.0898 852.572 48.965C853.442 49.8401 853.442 51.2553 852.572 52.1257C851.696 52.9962 850.281 52.9961 849.411 52.121H849.406ZM864.926 40.5999C864.921 44.6916 863.883 48.546 862.067 51.9162L860.578 51.055C862.244 47.9361 863.194 44.3798 863.199 40.5953C863.203 36.8155 862.268 33.2544 860.61 30.1309L862.1 29.2745C863.901 32.654 864.926 36.5082 864.921 40.5999H864.926ZM852.441 32.1977C851.566 33.0682 850.151 33.0681 849.281 32.193C848.41 31.3178 848.41 29.9029 849.285 29.0324C850.16 28.162 851.575 28.1618 852.446 29.037C853.316 29.9121 853.316 31.3272 852.441 32.1977ZM861.304 27.8964L859.815 28.7531C856.012 22.6644 849.355 18.5446 841.716 18.2653V16.5383C849.983 16.8223 857.198 21.2957 861.304 27.8964ZM840.125 18.2607C832.481 18.5168 825.816 22.6131 821.989 28.6879L820.504 27.8266C824.633 21.2398 831.862 16.7944 840.129 16.5338V18.2607H840.125Z" fill="#FFE5B8"/>
</svg>
