<svg width="734" height="1004" viewBox="0 0 734 1004" fill="none" xmlns="http://www.w3.org/2000/svg">
  <path d="M489.938 1004H431.877C413.67 1001.36 395.355 999.425 377.289 995.934C295.425 980.137 229.537 936.986 183.179 861.335C127.434 770.375 71.9244 649.261 16.3681 558.175C13.8884 554.1 11.8222 549.692 9.8267 545.311C-2.27643 518.667 -6.50006 484.5 20.2766 463.974C43 449.5 66.5 450 89 472.5C103 486.5 127.787 528.868 137.339 543.109C158.806 575.121 180.462 606.98 202.07 638.867C203.475 640.939 205.152 642.789 207.927 646.293C207.927 641.579 207.927 639.312 207.927 637.031C207.915 482.408 197.88 297.784 197.939 143.174C197.939 136.666 198.293 130.06 199.403 123.691C204.48 94.3906 229.655 74.4908 257.014 77.7587C286.25 81.2492 302.096 105.39 302.096 139.266C302.084 231.451 304.06 368.636 305.131 460.82C305.131 465.674 305.379 470.694 306.56 475.324C308.733 483.821 314.483 488.313 322.607 488.48C331.109 488.661 337.237 484.28 339.575 475.338C340.779 470.722 340.98 465.687 340.98 460.834C341.051 343.813 341.039 181.778 341.039 64.7564C341.039 61.1686 341.039 57.5529 341.251 53.979C343.542 16.4043 377.537 -8.62703 410.741 2.77612C434.511 10.953 448.172 32.8554 448.184 63.1989C448.208 180.874 448.184 343.563 448.208 461.237C448.208 465.465 448.137 469.818 448.964 473.906C450.77 482.862 457.69 488.535 465.956 488.563C474.327 488.577 480.881 488.084 482.9 478.99C483.597 470.847 483.986 467.551 483.986 464.311C483.986 358.067 483.927 206.837 483.832 100.593C483.809 82.0697 488.697 65.702 501.934 53.3393C519.126 37.2915 538.846 33.8844 559.38 43.8274C582.015 54.7717 591.32 75.6311 591.332 101.608C591.367 219.283 591.25 381.972 591.191 499.647C591.191 518.309 596.776 527.139 608.655 527.334C620.781 527.529 626.65 518.406 626.65 499.202C626.65 424.664 626.626 305.14 626.685 230.603C626.685 222.467 626.709 214.277 627.547 206.197C630.511 177.856 650.442 156.677 675.44 154.772C702.445 152.727 725.305 169.485 731.729 197.714C734.126 208.269 733.866 219.686 733.878 230.714C733.996 394.808 734.125 558.916 733.759 723.01C733.712 744.161 732.402 765.577 729.131 786.395C711.23 900.231 642.224 975.423 537.24 996.393C521.582 999.522 505.713 1001.5 489.949 1004H489.938Z" fill="#FFE5B8"/>
</svg>
