<svg width="587" height="960" viewBox="0 0 587 960" fill="none" xmlns="http://www.w3.org/2000/svg">
<path d="M107.086 786.424C106.744 785.777 106.42 785.129 106.134 784.463C83.1898 731.262 62.3778 695.255 34.0065 621.814C24.3336 592.509 15.6509 561.815 3.57879 531.025C-16.3954 483.365 52.7049 450.615 75.9732 496.028C76.2779 496.637 76.5635 497.284 76.8301 497.913C105.887 566.88 110.552 539.613 150.653 647.291C151.376 649.518 157.469 660.619 163.981 654.907C168.285 651.137 162.077 637.77 160.173 609.208C155.603 555.208 160.859 549.857 169.903 451.89C170.056 450.253 170.056 448.558 169.903 446.921C159.773 343.68 161.239 249.445 150.748 143.69C150.691 143.043 150.634 142.358 150.615 141.71C149.643 103.019 160.611 76.7418 183.594 76.5894C261.929 75.8659 236.909 448.082 273.354 434.925C294.927 426.585 269.926 324.143 277.657 261.174C277.771 260.203 277.847 259.232 277.847 258.242C278.304 190.703 276.496 118.537 289.082 44.8859C289.196 44.2005 289.348 43.4959 289.52 42.8105C311.493 -46.2259 364.561 21.6557 359.496 83.5585C359.382 84.8914 370.94 261.346 366.979 338.234C366.008 377.192 358.22 447.34 371.549 445.435C377.033 444.655 382.974 437.819 384.878 422.586C388.591 380.315 385.697 347.259 393.56 307.578C393.998 305.369 394.151 303.122 394.037 300.875C391.961 264.792 395.769 226.729 399.882 190.494C400.034 189.18 400.073 187.866 400.034 186.533C399.52 174.175 400.853 147.689 402.281 125.963C402.319 125.487 402.319 125.03 402.319 124.554C402.281 83.2729 445.124 51.2076 468.906 93.8026C471.724 98.8485 474.466 107.741 475.057 113.491C484.33 204.508 482.33 285.357 478.313 376.468C478.294 377.04 478.275 377.611 478.313 378.182C480.026 438.485 470.334 508.176 483.93 510.175C498.572 512.327 498.611 477.996 499.848 446.578C500.267 435.915 511.692 216.942 551.393 215.971C562.075 215.704 571.5 223.168 575.08 233.241C598.748 299.923 576.527 568.213 577.479 593.252C583.439 876.698 533.913 950.787 401.139 958.937C373.491 959.546 249.762 967.905 192.162 925.577C154.156 895.644 130.012 828.81 107.125 786.405L107.086 786.424ZM433.985 86.7574C433.928 87.024 433.928 87.0811 434.213 86.9478L433.985 86.7574Z" fill="#FFE5B8"/>
</svg>
