<svg width="46" height="53" viewBox="0 0 46 53" fill="none" xmlns="http://www.w3.org/2000/svg">
<path d="M30.1888 52.7561H26.5892C25.4604 52.6172 24.325 52.5156 23.2049 52.3322C18.1295 51.5021 14.0447 49.2347 11.1706 45.2596C7.71456 40.48 4.27313 35.6923 0.828785 30.9061C0.675053 30.692 0.546957 30.4604 0.423239 30.2302C-0.327122 28.8302 -0.0606627 27.0845 1.0711 25.9563C2.12307 24.907 3.85366 24.6154 5.48103 25.2124C6.44076 25.5639 7.11646 26.2135 7.7087 26.9617C9.03958 28.6438 10.3822 30.3179 11.7218 31.9935C11.809 32.1023 11.9129 32.1995 12.0849 32.3837C12.0849 32.1359 12.0849 32.0168 12.0849 31.897C12.0842 23.7722 12.082 15.6473 12.0857 7.52319C12.0857 7.18122 12.1076 6.83413 12.1764 6.49946C12.4912 4.95984 14.052 3.91418 15.7482 4.0859C17.5607 4.26931 18.7291 5.53784 18.7291 7.31786C18.7284 12.1618 18.7269 17.0057 18.7313 21.8496C18.7313 22.1047 18.7467 22.3684 18.8199 22.6118C18.9546 23.0582 19.3111 23.2943 19.8148 23.303C20.3419 23.3125 20.7218 23.0824 20.8667 22.6125C20.9414 22.3699 20.9538 22.1054 20.9538 21.8504C20.9582 15.7014 20.9575 9.55167 20.9575 3.40268C20.9575 3.21415 20.9575 3.02417 20.9707 2.83637C21.1127 0.861976 23.2203 -0.453315 25.2788 0.145873C26.7525 0.575535 27.5995 1.72641 27.6002 3.32084C27.6017 9.50417 27.6002 15.6882 27.6017 21.8716C27.6017 22.0937 27.5973 22.3224 27.6485 22.5372C27.7605 23.0078 28.1895 23.306 28.702 23.3074C29.221 23.3081 29.6273 23.0195 29.7525 22.5416C29.7957 22.3765 29.8198 22.2033 29.8198 22.033C29.8198 16.4504 29.8161 10.8684 29.8103 5.28574C29.8088 4.31242 30.1119 3.45237 30.9325 2.80276C31.9984 1.95951 33.221 1.78049 34.494 2.30295C35.8974 2.87803 36.4742 3.9741 36.475 5.33908C36.4772 11.5224 36.4699 17.7065 36.4662 23.8898C36.4662 24.8704 36.8125 25.3344 37.5489 25.3447C38.3008 25.3549 38.6646 24.8755 38.6646 23.8664C38.6646 19.9498 38.6631 16.0339 38.6667 12.1172C38.6667 11.6897 38.6682 11.2594 38.7202 10.8348C38.904 9.3456 40.1397 8.23272 41.6894 8.13261C43.3636 8.0252 44.7809 8.90571 45.1792 10.3891C45.3278 10.9437 45.3117 11.5436 45.3124 12.1231C45.3197 20.7455 45.3278 29.3687 45.3051 37.9912C45.3022 39.1026 45.2209 40.2279 45.0181 41.3218C43.9083 47.3034 39.6301 51.2544 33.1214 52.3563C32.1507 52.5208 31.1661 52.6245 30.1888 52.7561Z" fill="#FFB400"/>
</svg>
