<svg width="204" height="84" viewBox="0 0 204 84" fill="none" xmlns="http://www.w3.org/2000/svg">
<g clip-path="url(#clip0_167_38135)">
<path d="M91.5893 38.1096C90.2347 38.1096 88.7523 37.937 87.1332 37.5872C85.514 37.2374 84.0043 36.6924 82.6041 35.9429C81.2039 35.1934 80.0317 34.2123 79.0921 32.9904C78.1526 31.7686 77.6782 30.2878 77.6782 28.5436C77.6782 26.8993 78.1252 25.4821 79.0192 24.2829C79.9131 23.0883 81.2039 22.4887 82.896 22.4887C84.5881 22.4887 85.8789 23.1246 86.9143 24.3919C87.9542 25.6638 88.6155 27.0446 88.9074 28.539C88.0363 28.539 87.3247 28.8388 86.7683 29.4338C86.2119 30.0334 85.9336 30.7784 85.9336 31.6777C85.9336 32.4226 86.1024 33.0949 86.4399 33.6945C86.7774 34.2941 87.2244 34.7755 87.7808 35.1525C88.3373 35.525 88.953 35.8157 89.628 36.011C90.3031 36.2109 90.9553 36.3108 91.5847 36.3108C92.3555 36.3108 93.1309 36.2109 93.9017 36.011C94.6725 35.8112 95.3749 35.5023 96.0043 35.0753C96.6338 34.6529 97.14 34.1033 97.5232 33.431C97.9108 32.7588 98.1024 31.9503 98.1024 31.0009C98.1024 29.7064 97.6326 28.6208 96.6885 27.7487C95.7489 26.8765 94.5767 26.0544 93.1765 25.2822C91.7763 24.51 90.2529 23.7378 88.6109 22.9657C86.969 22.1935 85.4456 21.2987 84.0454 20.2766C82.6452 19.2546 81.473 18.0237 80.5334 16.5792C79.5938 15.1348 79.1195 13.3679 79.1195 11.2739C79.1195 9.37976 79.5893 7.77635 80.5334 6.45455C81.473 5.13729 82.6452 4.03807 84.0454 3.16595C85.4456 2.29384 87.0009 1.65792 88.7158 1.2582C90.4308 0.858486 92.0363 0.658627 93.5323 0.658627C94.8823 0.658627 96.3464 0.822148 97.9154 1.14465C99.4844 1.46715 100.935 2.00314 102.262 2.75261C103.589 3.49754 104.688 4.4605 105.56 5.62786C106.431 6.79976 106.864 8.25783 106.864 9.99751C106.864 11.5419 106.44 12.7637 105.596 13.6586C104.752 14.5534 103.58 15.0031 102.084 15.0031C100.588 15.0031 99.2609 14.5307 98.2438 13.5859C97.2312 12.6411 96.506 11.4465 96.0728 9.99751C96.8937 9.99751 97.5232 9.73406 97.9564 9.2117C98.3897 8.68934 98.6087 8.03071 98.6087 7.23128C98.6087 5.73687 98.0522 4.56497 96.9439 3.72011C95.831 2.87525 94.5995 2.45282 93.2495 2.45282C91.6577 2.45282 90.3259 2.96155 89.2632 3.98356C88.2005 5.00557 87.6714 6.33645 87.6714 7.98075C87.6714 9.22533 88.164 10.2973 89.1583 11.1921C90.148 12.087 91.3795 12.9227 92.8527 13.6949C94.3259 14.4671 95.9177 15.2257 97.6326 15.9751C99.3475 16.7201 100.939 17.6194 102.413 18.6641C103.886 19.7089 105.117 20.9444 106.107 22.3615C107.097 23.7787 107.594 25.5139 107.594 27.5533C107.594 29.5928 107.051 31.3007 105.966 32.6725C104.88 34.0442 103.539 35.1253 101.947 35.9247C100.356 36.7242 98.6269 37.2829 96.766 37.6054C94.9051 37.9279 93.1811 38.0914 91.5847 38.0914L91.5893 38.1096Z" fill="#FFB400"/>
<path d="M142.226 7.84902C142.321 7.64916 142.65 7.34938 143.202 6.9542C143.758 6.55448 144.433 6.08208 145.231 5.53701C146.03 4.9874 146.873 4.4287 147.767 3.85638C148.661 3.28405 149.505 2.76169 150.303 2.28476C151.101 1.81236 151.79 1.42627 152.369 1.12648C152.949 0.826691 153.313 0.676796 153.455 0.676796C155.097 0.676796 156.52 0.999296 157.728 1.64884C158.937 2.29838 159.936 3.1705 160.734 4.26518C161.532 5.35987 162.134 6.6317 162.545 8.07614C162.955 9.52058 163.161 11.015 163.161 12.5593V27.2036C163.161 28.053 163.206 28.9705 163.307 29.9698C163.402 30.9691 163.571 31.9366 163.813 32.886C164.055 33.8307 164.429 34.7029 164.935 35.5023C165.441 36.3017 166.08 36.9195 166.855 37.3692H148.962C149.733 36.9195 150.362 36.2881 150.846 35.4614C151.329 34.6393 151.69 33.7672 151.931 32.8451C152.173 31.923 152.342 30.9646 152.438 29.9698C152.534 28.9751 152.584 28.053 152.584 27.2036V12.8546C152.584 12.1097 152.511 11.3375 152.365 10.538C152.219 9.74315 151.977 9.01639 151.64 8.37138C151.302 7.72638 150.832 7.20402 150.226 6.8043C149.619 6.40459 148.885 6.20473 148.018 6.20473C147.152 6.20473 146.399 6.40459 145.774 6.8043C145.145 7.20402 144.616 7.71276 144.182 8.33505C143.749 8.95734 143.421 9.67047 143.206 10.4654C142.987 11.2648 142.855 12.0597 142.809 12.8546V27.199C142.809 28.0485 142.855 28.966 142.955 29.9653C143.051 30.9646 143.22 31.9321 143.462 32.8814C143.703 33.8262 144.077 34.6983 144.584 35.4978C145.09 36.2972 145.728 36.9149 146.504 37.3646H128.611C129.382 36.9149 130.011 36.2836 130.495 35.4569C130.978 34.6347 131.339 33.7626 131.58 32.8405C131.822 31.9185 131.991 30.96 132.087 29.9653C132.182 28.9705 132.232 28.0485 132.232 27.199V12.8546C132.232 12.1097 132.16 11.3375 132.014 10.538C131.868 9.74315 131.626 9.01639 131.288 8.37138C130.951 7.72638 130.481 7.20402 129.874 6.8043C129.268 6.40459 128.534 6.20473 127.667 6.20473C126.171 6.20473 125.012 6.74071 124.191 7.81269C123.37 8.88466 122.837 10.1156 122.6 11.5101V27.2036C122.6 28.053 122.636 28.9705 122.709 29.9698C122.782 30.9691 122.937 31.9366 123.179 32.886C123.421 33.8307 123.781 34.7029 124.264 35.5023C124.748 36.3017 125.4 36.9195 126.221 37.3692H108.328C109.099 36.9195 109.728 36.2881 110.212 35.4614C110.695 34.6393 111.069 33.7672 111.334 32.8451C111.598 31.923 111.781 30.9646 111.877 29.9698C111.972 28.9751 112.023 28.053 112.023 27.2036V16.5929C112.023 15.5482 111.927 14.5897 111.731 13.7176C111.539 12.8455 111.27 12.037 110.933 11.2875C110.595 10.5426 110.171 9.80674 109.665 9.08452C109.158 8.3623 108.588 7.60374 107.963 6.8043C109.656 6.50451 111.088 6.21835 112.274 5.94582C113.455 5.67328 114.568 5.33715 115.608 4.93744C116.648 4.53772 117.71 4.05169 118.796 3.47937C119.881 2.90705 121.149 2.1712 122.6 1.27637V7.10409C122.937 6.75434 123.64 6.23198 124.702 5.53701C125.765 4.83751 126.887 4.12891 128.073 3.40669C129.254 2.68447 130.344 2.04856 131.334 1.50349C132.324 0.953874 132.917 0.681338 133.108 0.681338C135.617 0.681338 137.637 1.41718 139.156 2.88433C140.675 4.35603 141.728 6.18656 142.308 8.37593L142.235 7.85357L142.226 7.84902Z" fill="#FFB400"/>
<path d="M101.72 56.7692C101.72 54.9841 102.148 53.4579 103.006 52.1951C103.863 50.9324 104.963 49.8876 106.313 49.07C107.658 48.2524 109.127 47.6574 110.719 47.2849C112.31 46.9125 113.838 46.7262 115.307 46.7262C118.732 46.7262 122.148 46.7399 125.551 46.7626C128.953 46.7898 132.37 46.7762 135.795 46.7262C135.941 46.7262 136.26 46.6263 136.748 46.4264C137.236 46.2266 137.556 46.0812 137.701 45.9813C139.758 44.9911 141.446 43.5512 142.769 41.6661C143.736 40.2853 144.534 38.7909 145.163 37.2465C145.191 37.1784 145.615 37.2238 145.98 37.2783C146.267 37.3192 146.518 37.3692 146.518 37.3692V46.7262C146.668 46.7262 181.346 46.7262 181.496 46.7171C182.29 46.6853 183.115 46.5763 183.977 46.3901C185.004 46.1675 185.948 45.8087 186.805 45.309C187.663 44.8139 188.785 44.0372 189.569 42.8426C191.115 40.1581 190.231 37.1557 187.503 36.0701C187.631 35.8521 187.758 35.6386 187.895 35.4342C188.429 34.6211 190.796 34.8346 191.467 34.235C192.862 32.9768 192.785 31.3007 194.778 31.3007C196.538 31.3007 197.975 31.9094 199.074 33.1222C200.178 34.3395 200.725 36.2699 200.725 38.0051C200.725 39.7402 200.31 42.0522 199.476 43.265C197.784 45.7633 195.056 47.3167 192.132 47.989C190.614 48.3387 189.145 48.5113 187.727 48.5113H146.518V74.8519C146.518 76.2918 146.997 77.3183 147.95 77.9406C148.903 78.5629 150.016 78.8718 151.293 78.8718C151.977 78.8718 152.652 78.7991 153.314 78.6492C153.975 78.4993 154.6 78.254 155.188 77.9043V78.6492C153.72 80.0392 152.018 81.1793 150.085 82.0741C148.151 82.9689 146.153 83.4141 144.101 83.4141C142.632 83.4141 141.369 83.1415 140.319 82.5964C139.266 82.0514 138.408 81.3201 137.747 80.4025C137.086 79.485 136.598 78.4176 136.278 77.2048C135.959 75.992 135.8 74.7111 135.8 73.3711V48.5204H118.833C117.998 48.5204 117.168 48.634 116.338 48.8565C115.503 49.0791 114.76 49.4152 114.098 49.8604C113.437 50.3055 112.899 50.8778 112.484 51.5728C112.069 52.2678 111.859 53.0854 111.859 54.0302C111.859 55.0249 112.114 55.8925 112.63 56.6329C113.145 57.3778 113.816 57.9501 114.65 58.3453C112.985 61.2206 110.564 62.6605 107.38 62.6605C105.665 62.6605 104.297 62.1018 103.266 60.9844C102.24 59.867 101.724 58.468 101.724 56.7782L101.72 56.7692Z" fill="#FFB400"/>
<path d="M75.5894 54.4753C75.6852 54.2755 76.0136 53.9802 76.5746 53.5805C77.131 53.1853 77.8152 52.7129 78.6179 52.1678C79.4207 51.6228 80.269 51.0641 81.1721 50.4918C82.0706 49.924 82.9235 49.4016 83.7263 48.9292C84.529 48.4568 85.2223 48.0753 85.8061 47.7755C86.3899 47.4757 86.7548 47.3303 86.9007 47.3303C88.5518 47.3303 89.9885 47.6528 91.2017 48.2978C92.415 48.9428 93.4275 49.8104 94.2303 50.9006C95.033 51.9907 95.6396 53.258 96.0547 54.6933C96.4651 56.1332 96.6749 57.6186 96.6749 59.1584V73.7436C96.6749 74.5884 96.7206 75.506 96.8209 76.4962C96.9167 77.4909 97.0854 78.4584 97.3317 79.3987C97.5735 80.3435 97.952 81.2111 98.4629 82.0014C98.9737 82.7963 99.6168 83.4141 100.397 83.8592H82.3808C83.1561 83.4141 83.7901 82.7781 84.2781 81.9605C84.7616 81.1429 85.1265 80.2754 85.3728 79.3578C85.6145 78.4403 85.7833 77.4864 85.8836 76.4916C85.9794 75.5014 86.0296 74.5839 86.0296 73.739V59.4536C86.0296 58.7087 85.9566 57.9411 85.8106 57.1462C85.6647 56.3513 85.423 55.6336 85.0809 54.9886C84.7388 54.3436 84.2645 53.8258 83.6578 53.4261C83.0512 53.0309 82.3078 52.831 81.4321 52.831C80.5564 52.831 79.8038 53.0309 79.1698 53.4261C78.5358 53.8258 78.0022 54.33 77.5643 54.9523C77.1265 55.5745 76.7981 56.2786 76.5792 57.0735C76.3602 57.8684 76.228 58.6633 76.1778 59.4536V73.739C76.1778 74.5839 76.2234 75.5014 76.3237 76.4916C76.4195 77.4864 76.5883 78.4539 76.8346 79.3941C77.0763 80.3389 77.4549 81.2065 77.9657 81.9969C78.4765 82.7918 79.1196 83.4095 79.8996 83.8547H61.8836C62.659 83.4095 63.293 82.7736 63.781 81.956C64.2645 81.1384 64.6293 80.2708 64.8756 79.3533C65.1174 78.4357 65.2861 77.4819 65.3865 76.4871C65.4822 75.4969 65.5324 74.5794 65.5324 73.7345V59.4491C65.5324 58.7042 65.4594 57.9365 65.3135 57.1416C65.1675 56.3467 64.9212 55.6291 64.5837 54.9841C64.2417 54.3391 63.7673 53.8212 63.1607 53.4215C62.5541 53.0263 61.8106 52.8265 60.9349 52.8265C59.4252 52.8265 58.2622 53.3579 57.4366 54.4254C56.6111 55.4928 56.0729 56.7192 55.8312 58.1091V73.7345C55.8312 74.5794 55.8677 75.4969 55.9406 76.4871C56.0136 77.4819 56.1687 78.4494 56.415 79.3896C56.6567 80.3344 57.0216 81.202 57.5096 81.9923C57.9931 82.7872 58.6499 83.405 59.48 83.8501H41.464C42.2394 83.405 42.8734 82.7691 43.3614 81.9514C43.8448 81.1338 44.2234 80.2663 44.4925 79.3487C44.757 78.4312 44.9395 77.4773 45.0398 76.4826C45.1356 75.4924 45.1858 74.5748 45.1858 73.73V63.1647C45.1858 62.1245 45.09 61.1706 44.8939 60.2985C44.6978 59.4309 44.4332 58.6224 44.0911 57.882C43.7491 57.1371 43.3249 56.4058 42.8141 55.6881C42.3032 54.9704 41.7331 54.2119 41.0991 53.417C42.8004 53.1172 44.2462 52.8356 45.4366 52.563C46.6271 52.2905 47.7445 51.9544 48.7935 51.5592C49.838 51.164 50.9098 50.678 52.0045 50.1102C53.0991 49.5424 54.3762 48.8066 55.8312 47.9163V53.7213C56.1687 53.3761 56.8756 52.8537 57.9475 52.1588C59.0147 51.4638 60.1459 50.7598 61.3409 50.0375C62.5313 49.3199 63.6259 48.6885 64.6248 48.1389C65.6191 47.5938 66.2166 47.3213 66.4127 47.3213C68.9395 47.3213 70.9691 48.0526 72.5016 49.5152C74.0341 50.9778 75.0923 52.8038 75.6761 54.9841L75.6031 54.4617L75.5894 54.4753Z" fill="#FFB400"/>
<path d="M55.2795 24.9052C56.1689 26.2179 57.1906 27.3807 58.3445 28.4027C59.4984 29.4248 60.7482 30.2196 62.0982 30.792C63.4483 31.3643 64.8941 31.6686 66.4403 31.705C67.9819 31.7458 69.5919 31.437 71.2658 30.7874C71.7767 30.5876 72.3787 30.315 73.072 29.9607C73.7653 29.611 74.454 29.2204 75.1472 28.7888C75.836 28.3619 76.4699 27.8849 77.0401 27.3671C77.6147 26.8493 78.0116 26.3315 78.2396 25.8182L78.9602 26.0181C78.5087 29.5111 77.4962 32.4181 75.9181 34.7483C74.3399 37.0785 71.8314 38.909 68.3924 40.2535C65.9751 41.1983 63.5577 41.6298 61.145 41.5571C58.7276 41.4845 56.4836 40.953 54.4084 39.9719C52.3331 38.9907 50.4677 37.619 48.8074 35.8566C47.1518 34.0942 45.8474 32.0093 44.8987 29.5974C43.95 27.1854 43.4711 24.9097 43.3525 22.4978C43.2339 20.0859 43.5395 17.7966 44.2738 15.639C45.0081 13.4814 46.1575 11.5328 47.7265 9.79765C49.2955 8.06251 51.3114 6.71346 53.7744 5.7505C56.0047 4.87838 58.1712 4.42416 60.2738 4.37874C62.3719 4.33786 64.3149 4.70124 66.0937 5.47796C67.8724 6.25469 69.4688 7.41297 70.8781 8.94825C72.2875 10.4835 73.4277 12.3686 74.3035 14.5943L74.9602 16.2658L55.275 24.9052H55.2795ZM62.7732 12.6729C62.4631 11.8871 61.9842 11.1104 61.3365 10.3473C60.6889 9.58417 59.9454 8.95279 59.1016 8.4486C58.2624 7.94895 57.3776 7.60828 56.4517 7.43568C55.5258 7.26307 54.6182 7.34937 53.7379 7.69004C52.7162 8.08976 52.0412 8.83469 51.7219 9.92029C51.3981 11.0104 51.2749 12.196 51.3525 13.4769C51.4255 14.7578 51.6216 16.0342 51.9317 17.3015C52.2419 18.5733 52.5338 19.5544 52.8074 20.2494C53.2088 21.2714 53.6877 22.2843 54.2487 23.2972C55.1427 22.843 56.0275 22.3615 56.8987 21.8619C57.7744 21.3622 58.6501 20.8581 59.5258 20.3584C61.0127 19.509 62.0982 18.4461 62.7732 17.1652C63.4483 15.8843 63.4483 14.3853 62.7732 12.6729Z" fill="#FFB400"/>
<path d="M168.023 18.9367C168.028 19.6862 167.558 20.3493 166.851 20.5901L165.761 20.958L166.623 24.8598L169.072 24.669V24.6826C169.337 25.3867 169.127 26.1725 168.547 26.6404L167.653 27.3626L169.797 30.7556L172.023 29.7382L172.032 29.7473C172.52 30.3241 172.589 31.1372 172.21 31.7731L171.617 32.7679L174.778 35.2434L176.511 33.5219L176.552 33.5446C177.181 33.9125 177.519 34.6347 177.387 35.3479L177.168 36.5289L180.972 37.7871L181.998 35.5704H182.012C182.75 35.7112 183.33 36.3017 183.457 37.0421L183.649 38.1822L187.635 38.0732L187.836 35.6295H187.84C188.579 35.5068 189.327 35.8657 189.697 36.5243L190.267 37.5372L193.952 36.0746L193.305 33.7036H193.314C193.957 33.3311 194.764 33.3992 195.334 33.8898L196.228 34.662L199.17 32.0229L197.747 30.0016L197.756 29.9925C198.23 29.4248 199.006 29.2158 199.704 29.4838L200.812 29.9153L202.655 26.4132L200.634 24.987V24.9733C200.89 24.2784 201.546 23.8105 202.29 23.8287L203.466 23.8559L203.991 19.9178L201.615 19.2592V19.2456C201.61 18.5052 202.057 17.842 202.755 17.6013L203.872 17.2242L203.01 13.3224L200.561 13.5132V13.4996C200.297 12.8001 200.493 12.0234 201.063 11.5601L201.98 10.8197L199.836 7.4266L197.61 8.44406L197.601 8.43498C197.113 7.85811 197.045 7.04505 197.423 6.40459L198.012 5.40983L194.846 2.9343L193.113 4.65582H193.104C192.452 4.26972 192.11 3.52479 192.242 2.79349L192.452 1.65338L188.648 0.395178L187.622 2.6118H187.608C186.869 2.47099 186.29 1.88504 186.167 1.14465L185.975 0.0045433L181.989 0.113558L181.788 2.55729H181.783C181.045 2.68448 180.297 2.32564 179.927 1.66701L179.357 0.654086L175.672 2.11669L176.324 4.4923H176.315C175.667 4.8693 174.851 4.783 174.281 4.28789L173.396 3.52479L170.454 6.16839L171.882 8.19878L171.872 8.20786C171.398 8.77565 170.609 8.97096 169.907 8.70297L168.807 8.276L166.965 11.7781L168.994 13.2089V13.2225C168.739 13.922 168.069 14.3763 167.321 14.3626L166.153 14.3354L165.628 18.2735L168.009 18.9321V18.9458L168.023 18.9367ZM192.032 27.358C191.95 28.5572 191.749 29.72 191.43 30.8465C191.106 31.9775 190.641 32.9496 190.025 33.7717C189.409 34.5938 188.552 35.0117 187.448 35.0254C186.249 35.039 185.172 34.6256 184.224 33.7762C183.275 32.9268 182.431 31.8276 181.692 30.4695C180.953 29.1159 180.319 27.6033 179.795 25.9363C179.27 24.2693 178.837 22.6114 178.504 20.9625C178.171 19.3137 177.92 17.7875 177.761 16.3794C177.596 14.9713 177.51 13.8357 177.501 12.9727C177.492 12.305 177.514 11.4192 177.574 10.3155C177.633 9.21624 177.797 8.13519 178.071 7.07684C178.344 6.02304 178.764 5.1055 179.33 4.33332C179.895 3.56113 180.684 3.16596 181.692 3.15233C182.988 3.13416 184.137 3.52479 185.131 4.32877C186.126 5.12821 187.02 6.15931 187.804 7.41751C188.589 8.67572 189.245 10.102 189.77 11.7009C190.294 13.2997 190.737 14.8804 191.092 16.4566C191.448 18.0328 191.708 19.5363 191.872 20.9671C192.037 22.4024 192.123 23.5743 192.137 24.4828C192.146 25.2005 192.11 26.1589 192.032 27.3535V27.358Z" fill="#FFB400"/>
<path d="M118.394 62.5742L116.032 64.6591L115.375 65.2405C114.563 65.2496 110.623 65.1496 112.274 64.2412C112.68 64.0186 113.085 63.796 113.491 63.578C115.558 62.4606 117.19 61.2615 118.385 59.9715C118.385 59.3764 118.399 58.5951 118.422 57.6276C118.445 56.6601 118.385 55.7199 118.235 54.8024C118.084 53.8848 117.788 53.1036 117.336 52.4586C116.889 51.8136 116.192 51.4911 115.243 51.4911L115.767 50.8233C117.66 50.8233 119.416 51.0459 121.035 51.4911C122.654 51.9362 123.631 52.6448 124.876 53.6123C126.121 54.5798 127.092 55.7835 127.79 57.2188C128.488 58.6587 128.835 60.3939 128.835 62.4288V76.0465C128.835 76.3963 128.857 76.8278 128.908 77.3501C128.958 77.8725 129.058 78.3812 129.209 78.8763C129.359 79.3714 129.592 79.7939 129.92 80.1436C130.244 80.4934 130.654 80.666 131.152 80.666C131.699 80.666 132.196 80.5161 132.648 80.2208V80.9658C132 81.4109 131.402 81.8333 130.855 82.2331C130.308 82.6328 129.761 82.9507 129.213 83.2006C128.666 83.4504 128.068 83.6457 127.421 83.7956C126.773 83.9455 126.481 84.0182 125.637 84.0182C124.292 84.0182 122.946 83.6593 121.601 82.9371C120.255 82.2194 118.937 81.0793 118.39 79.7893L118.399 62.5878L118.394 62.5742Z" fill="#FFB400"/>
<path d="M121.888 74.275C121.806 73.1667 121.719 72.0539 121.619 70.9456C121.117 70.8047 120.593 70.7775 120.087 70.6548C119.786 69.7282 119.352 68.7017 118.791 67.9113C118.755 67.8568 119.188 66.9892 119.343 66.5941C118.969 66.317 118.705 66.0581 118.394 65.7901L118.385 78.2631C117.437 78.8127 116.474 79.0853 115.475 79.0898C114.477 79.0944 113.756 78.9036 113.154 78.5357C112.556 78.1632 112.091 77.6817 111.767 77.0867C111.439 76.4917 111.215 75.8103 111.092 75.0381C110.965 74.2705 110.901 73.4847 110.901 72.6898C110.901 71.8949 111.047 71.0909 111.339 70.3551C111.439 70.1098 111.553 69.8645 111.681 69.6283C112.205 68.6835 112.839 67.8023 113.583 66.9802C113.783 66.7576 114.093 66.4442 114.376 66.1671C114.591 65.9536 114.805 65.7401 115.024 65.5312H115.028C115.138 65.4222 115.247 65.3495 115.357 65.2496C114.504 64.8453 113.619 64.5319 112.68 64.3911C112.479 63.9141 112.365 63.4009 112.146 62.9239C111.015 63.0102 109.884 63.0965 108.757 63.1965C108.716 63.6507 108.483 64.7635 108.483 64.7635C106.901 65.2904 105.843 66.0762 105.843 66.0762C105.446 65.8673 104.871 65.6266 104.47 65.4312C103.74 66.2716 103.015 67.1164 102.299 67.9704C102.518 68.4337 102.878 68.8061 103.129 69.2467C102.696 70.1098 102.221 72.0947 102.148 72.1265C101.929 72.2128 101.222 72.2583 100.83 72.39L101.095 76.0692C101.624 76.2009 102.171 76.1601 102.522 76.1919C102.682 76.7233 103.895 78.899 103.868 78.9581C103.681 79.376 103.43 79.8393 103.288 80.2753C104.123 80.9976 104.967 81.7107 105.815 82.4193C106.23 82.2149 106.65 81.8333 107.038 81.5835C107.097 81.5472 107.963 82.1104 109.948 82.5238C110.062 82.7872 110.203 83.2914 110.467 83.9455L114.03 83.682C114.052 82.7827 114.093 82.5101 114.107 82.1695C115.074 81.8561 115.963 81.3973 116.784 80.8068C117.254 80.9976 117.596 81.3155 118.125 81.579C118.851 80.7477 119.612 79.7575 120.324 78.9172C120.1 78.4584 119.749 78.0814 119.489 77.6499C119.909 76.8141 120.383 74.9791 120.388 74.9564C120.388 74.9427 121.455 74.4749 121.879 74.275H121.888Z" fill="#FFB400"/>
<path d="M14.5494 7.33575V43.4967C14.5494 44.3415 14.5859 45.2591 14.6589 46.2538C14.7319 47.2486 14.9006 48.2025 15.1652 49.1245C15.4297 50.0421 15.7992 50.9006 16.2826 51.6955C16.7615 52.4904 17.3864 53.1354 18.1572 53.635H0.360153C1.17657 53.1354 1.82424 52.4904 2.30314 51.6955C2.78205 50.9006 3.14236 50.0421 3.3841 49.1245C3.62583 48.2025 3.79003 47.2486 3.89037 46.2538C3.98615 45.2591 4.03632 44.3415 4.03632 43.4967V16.284C4.03632 15.2393 3.94054 14.2854 3.74898 13.4133C3.55742 12.5457 3.29288 11.7372 2.95536 10.9923C2.61785 10.2473 2.19824 9.51603 1.69653 8.79381C1.19482 8.07614 0.629252 7.31758 0.00439453 6.51814C1.68284 6.21835 3.115 5.93673 4.29174 5.65965C5.46848 5.38712 6.57224 5.05099 7.60303 4.65127C8.63381 4.2561 9.69197 3.77007 10.7729 3.19775C11.8539 2.62542 13.1127 1.91683 14.554 1.07197V6.44092" fill="#FFB400"/>
<path d="M39.4117 22.3888C39.5668 20.7808 41.8656 21.5258 41.8656 21.5258V17.6785C41.8656 17.6785 39.6124 18.4325 39.4026 16.7655C39.2019 15.1939 41.4095 15.1121 41.4095 15.1121L40.0868 11.4965C40.0868 11.4965 38.3992 13.0772 37.4779 11.5192C36.666 10.1474 38.7777 9.23896 38.7777 9.23896L36.292 6.29103C36.292 6.29103 35.17 8.20786 33.8199 7.18131C32.5018 6.17747 34.2897 4.61494 34.2897 4.61494L30.9419 2.68902C30.9419 2.68902 30.6364 5.01011 28.967 4.3742C27.0742 3.65198 28.4836 1.79874 28.4836 1.79874L24.6797 1.13102C24.6797 1.13102 25.1951 3.47029 23.3707 3.38398C21.4642 3.29314 22.0617 1.13102 22.0617 1.13102L18.2578 1.79874C18.2578 1.79874 19.6352 3.77916 17.7606 4.36965C16.0366 4.91018 15.804 2.68902 15.804 2.68902L12.4562 4.61494C12.4562 4.61494 14.3764 5.95945 12.9305 7.16314C11.5121 8.33959 10.4539 6.28649 10.4539 6.28649L7.96817 9.23441C7.96817 9.23441 10.2213 9.94301 9.27262 11.4828C8.43339 12.841 6.65916 11.4874 6.65916 11.4874L5.33647 15.103C5.33647 15.103 7.70819 14.8214 7.33875 16.77C6.98755 18.6233 4.88037 17.6694 4.88037 17.6694V21.5167C4.88037 21.5167 6.99212 20.5492 7.33419 22.3843C7.70363 24.3738 5.33647 24.0785 5.33647 24.0785L6.65916 27.6942C6.65916 27.6942 8.49269 26.4178 9.24981 27.6442C10.2396 29.2385 7.96361 29.9471 7.96361 29.9471L10.4494 32.895C10.4494 32.895 11.6899 31.0373 12.8941 31.9821C14.2578 33.0495 12.4516 34.5666 12.4516 34.5666L15.7994 36.4925C15.7994 36.4925 16.032 34.2804 17.788 34.8119C19.4345 35.3115 18.2532 37.3828 18.2532 37.3828L22.0617 38.0505C22.0617 38.0505 21.4596 35.7203 23.3661 35.793C25.2726 35.8657 24.6751 38.046 24.6751 38.046L28.4836 37.3783C28.4836 37.3783 27.2521 35.3569 28.9214 34.8164C30.3536 34.3531 30.9374 36.488 30.9374 36.488L34.2852 34.562C34.2852 34.562 32.4972 33.0131 33.7971 32.0093C35.1381 30.9782 36.2874 32.886 36.2874 32.886L38.7732 29.938C38.7732 29.938 36.6614 29.0477 37.4551 27.6896C38.2122 26.3996 40.0822 27.6851 40.0822 27.6851L41.4049 24.0694C41.4049 24.0694 39.2384 24.0921 39.4026 22.3706L39.4117 22.3888ZM27.918 25.7864C27.6535 27.2127 27.2247 28.5526 26.6227 29.8108C26.0206 31.0691 25.2133 32.1229 24.1962 32.9677C23.1791 33.8171 21.9203 34.2441 20.4197 34.2486C19.2065 34.2486 18.2259 33.9398 17.4687 33.3175C16.7162 32.6952 16.1187 31.9094 15.6808 30.9691C15.243 30.0289 14.9465 29.0023 14.796 27.894C14.6455 26.7857 14.5725 25.7682 14.5679 24.8507L14.5086 6.52269C15.0423 6.18202 15.4756 6.01395 15.8177 6.00941C17.9522 6.00033 19.8085 6.46818 21.3866 7.40388C22.9647 8.33959 24.2646 9.566 25.2909 11.0877C26.3125 12.6048 27.0697 14.3036 27.5622 16.1886C28.0503 18.0691 28.3011 19.9541 28.3102 21.8346C28.3102 23.0429 28.1825 24.3601 27.9226 25.7819L27.918 25.7864Z" fill="#FFB400"/>
</g>
<defs>
<clipPath id="clip0_167_38135">
<rect width="204" height="84" fill="white"/>
</clipPath>
</defs>
</svg>
