<svg width="38" height="53" viewBox="0 0 38 53" fill="none" xmlns="http://www.w3.org/2000/svg">
<g clip-path="url(#clip0_245_2823)">
<path d="M18.354 0C21.6057 0.0264368 24.6645 0.407127 27.5461 1.6523C31.7257 3.45794 34.9299 6.33162 36.4976 10.6673C38.1552 15.2593 37.2034 19.4443 33.9729 23.1111C31.9214 25.4375 29.55 27.4229 27.213 29.4454C26.552 30.019 25.9202 30.6244 25.2699 31.2113C23.837 32.5094 23.0174 34.0824 22.8324 36.044C22.6315 38.1986 21.344 39.2561 19.1788 39.2587C18.4412 39.2587 19.9005 39.2746 19.163 39.2534C17.3124 39.1979 15.8769 37.8787 15.8954 36.0942C15.9218 33.2893 15.9747 32.2318 17.4313 29.7414C18.4121 28.0653 19.7049 26.3893 20.9739 25.2207C22.8773 23.4653 24.9262 21.8633 26.8481 20.1264C29.1587 18.0405 30.3854 14.067 28.8335 11.4736C27.7417 9.6468 23.9057 7.7645 21.8436 7.27806C21.722 7.24898 15.6125 6.09898 11.9008 8.436C10.4203 9.36922 8.65959 11.4366 7.89821 12.9911C7.73959 13.3136 7.61005 13.652 7.45936 13.9772C6.72177 15.5819 5.47924 16.2719 3.72648 16.0524C2.29096 15.8277 3.31671 15.8277 1.83889 15.5422C0.376934 15.3624 -0.225826 14.5165 0.0755544 13.0757C0.969119 8.79554 3.39338 5.56231 6.94913 3.13541C10.4256 0.766668 14.37 0.0343679 18.354 0Z" fill="#FFB400"/>
<path d="M23.0096 46.0609C22.9858 44.1496 21.9098 42.7986 20.3791 42.7484C20.046 42.7378 19.7605 42.7325 19.4723 42.7325C19.1842 42.7325 18.896 42.7378 18.5655 42.7484C17.0348 42.796 15.9589 44.1496 15.9351 46.0609C15.9219 47.1951 15.9033 48.3292 15.9456 49.4607C15.9456 51.6523 17.019 52.7521 18.1505 52.76H20.7942C21.923 52.7521 22.999 51.6523 22.999 49.4607C23.0439 48.3292 23.0254 47.1951 23.0096 46.0609Z" fill="#FFB400"/>
</g>
<defs>
<clipPath id="clip0_245_2823">
<rect width="37.4116" height="52.76" fill="white"/>
</clipPath>
</defs>
</svg>
