<svg width="975" height="86" viewBox="0 0 975 86" fill="none" xmlns="http://www.w3.org/2000/svg">
<g clip-path="url(#clip0_296_12772)">
<path d="M899.913 4V82H882.913L872.913 48.7692H97.4135L87.4135 82H69.9135V4H97.4135L87.4135 37.1933H882.913L873.413 4H899.913Z" fill="#FFB400"/>
</g>
<path d="M32.1644 82.1828L32.0967 84.8154L40.9414 86L42.4243 80.674H42.4544C44.1254 80.6664 45.6083 81.6697 46.1428 83.2388L46.9858 85.7436L55.7552 83.8275L55.3337 78.3353H55.3638C56.937 77.7469 58.6834 78.1844 59.7222 79.4669L61.3857 81.519L69.0185 76.7286L66.7377 71.7344L66.7603 71.7193C68.055 70.633 69.8841 70.4746 71.3219 71.327L73.55 72.655L79.1202 65.5712L75.2587 61.6784L75.2737 61.656C76.1318 60.2 77.8029 59.4303 79.4439 59.732L82.0107 60.2076L84.8561 51.6828L79.8805 49.3743V49.3445C80.1966 47.6849 81.5214 46.3871 83.185 46.1155L85.7518 45.6857L85.5185 36.7461L80.0235 36.2934V36.2783C79.745 34.6187 80.5504 32.9516 82.0333 32.1218L84.3141 30.8392L81.0397 22.5638L75.6953 24.0195L75.6802 23.9971C74.8522 22.5486 75.0479 20.7155 76.1544 19.4405L77.8782 17.464L71.9542 10.8557L67.385 14.0541L67.3625 14.039C66.0903 12.9678 65.6462 11.2026 66.2635 9.63353L67.227 7.16667L59.3684 3.01755L56.1467 7.56633H56.1241C54.5509 6.98545 53.5347 5.48442 53.5723 3.80214L53.64 1.18426L44.7954 1.90735e-06L43.3125 5.33338H43.2824C41.5962 5.34092 40.1134 4.28497 39.5789 2.70076L38.7509 0.256375L29.9815 2.17255L30.403 7.66468H30.3729C28.7847 8.26065 27.0232 7.7776 25.9769 6.48006L24.351 4.47327L16.7258 9.2637L18.9991 14.2578L18.9765 14.2729C17.6818 15.3592 15.8526 15.5177 14.4224 14.6652L12.1868 13.3373L6.61654 20.4211L10.4781 24.3138L10.4254 24.4118C9.59738 25.8225 7.97146 26.5695 6.37566 26.2753L3.72602 25.7847L0.888203 34.3095L5.8638 36.6179V36.6481C5.54765 38.3078 4.22283 39.6054 2.55928 39.8845L-3.28777e-05 40.3143L0.233314 49.2539L5.7283 49.714V49.7291C6.00681 51.3887 5.19386 53.0635 3.71097 53.8933L1.4377 55.1682L4.71211 63.4362L10.0415 61.9878L10.0565 62.0103C10.877 63.4587 10.7265 65.2694 9.61995 66.5444L7.88113 68.5434L13.8052 75.152L18.3592 71.9683L18.3818 71.9835C19.6539 73.0471 20.1206 74.7898 19.5109 76.3514L18.5399 78.8407L26.3985 82.9898L29.6051 78.4635H29.6277C31.1934 79.0444 32.2322 80.5156 32.1946 82.1828H32.1644ZM10.2974 42.947C10.3275 24.9247 24.9306 10.3349 42.9211 10.3651C60.904 10.3952 75.4619 25.0306 75.4318 43.0604C75.4017 61.0827 60.7986 75.6725 42.8082 75.6423C24.8253 75.6121 10.2673 60.9768 10.2974 42.947Z" fill="#FFB400"/>
<path d="M42.8159 73.4624C59.6019 73.4925 73.234 59.8758 73.2566 43.053C73.2867 26.2302 59.6998 12.5683 42.9138 12.5457C26.1277 12.5231 12.4956 26.1322 12.473 42.955C12.4429 59.7778 26.0298 73.4397 42.8159 73.4624ZM60.6558 34.2947C65.4658 34.3022 69.3649 38.2176 69.3574 43.0456C69.3499 47.8662 65.4432 51.7739 60.6257 51.7664C55.8081 51.7588 51.9165 47.8435 51.924 43.0154C51.9315 38.1874 55.8383 34.2872 60.6558 34.2947ZM42.9138 16.4535C47.7237 16.4611 51.6229 20.384 51.6154 25.2045C51.6079 30.025 47.7012 33.9324 42.8836 33.9249C38.0736 33.9173 34.1745 30.0024 34.182 25.1743C34.1895 20.3462 38.0962 16.446 42.9138 16.4535ZM45.7365 43.0077C45.7365 44.5919 44.4493 45.8746 42.8686 45.8746C41.2878 45.8746 40.0082 44.5845 40.0082 43.0003C40.0082 41.4161 41.2954 40.1334 42.8761 40.1334C44.4569 40.1334 45.7365 41.4235 45.7365 43.0077ZM42.8611 52.0754C47.6711 52.083 51.5702 56.0059 51.5627 60.8264C51.5552 65.6469 47.6485 69.5547 42.8309 69.5471C38.021 69.5396 34.1218 65.6167 34.1293 60.7962C34.1368 55.9757 38.0435 52.0679 42.8611 52.0754ZM25.119 34.2343C29.929 34.2418 33.8282 38.1572 33.8207 42.9852C33.8132 47.8058 29.9064 51.7135 25.0889 51.706C20.2789 51.6984 16.3798 47.7831 16.3873 42.955C16.3948 38.1345 20.3015 34.2267 25.119 34.2343Z" fill="#FFB400"/>
<path d="M922.588 80.2734C926.54 80.6375 924.697 85.986 924.697 85.986L934.162 86C934.162 86 932.312 80.7633 936.41 80.2802C940.273 79.8252 940.465 84.957 940.465 84.957L949.363 81.8975C949.363 81.8975 945.485 77.9629 949.319 75.8346C952.695 73.9513 954.914 78.866 954.914 78.866L962.175 73.1042C962.175 73.1042 957.472 70.4929 959.993 67.3565C962.462 64.29 966.296 68.4555 966.296 68.4555L971.043 60.6775C971.043 60.6775 965.337 59.9635 966.908 56.078C968.692 51.6743 973.247 54.9646 973.247 54.9646L974.906 46.1156C974.906 46.1156 969.149 47.2987 969.37 43.0701C969.606 38.6315 974.913 40.0386 974.913 40.0386L973.284 31.1824C973.284 31.1824 968.404 34.3819 966.959 30.0133C965.632 26.0017 971.102 25.4695 971.102 25.4695L966.384 17.6775C966.384 17.6775 963.067 22.137 960.118 18.7625C957.228 15.465 962.278 13.0079 962.278 13.0079L955.039 7.21806C955.039 7.21806 953.285 12.4547 949.51 10.2424C946.171 8.28909 949.51 4.16573 949.51 4.16573L940.62 1.07818C940.62 1.07818 941.305 6.59505 936.521 5.72693C931.965 4.90081 934.324 0.0140152 934.324 0.0140152L924.859 0C924.859 0 927.225 4.91463 922.714 5.70573C917.826 6.55985 918.556 1.05015 918.556 1.05015L909.658 4.10966C909.658 4.10966 912.784 8.37317 909.776 10.1374C905.854 12.4337 904.115 7.14114 904.115 7.14114L896.853 12.9029C896.853 12.9029 901.416 15.7873 899.087 18.5947C896.455 21.7591 892.732 17.5513 892.732 17.5513L887.985 25.3297C887.985 25.3297 893.425 25.8755 892.113 29.9641C890.882 33.7866 885.788 31.0354 885.788 31.0354L884.13 39.8844C884.13 39.8844 889.865 38.4913 889.673 42.9299C889.482 47.3615 884.122 45.9614 884.122 45.9614L885.751 54.8176C885.751 54.8176 890.727 51.9543 892.047 55.8469C893.182 59.1793 887.933 60.5305 887.933 60.5305L892.651 68.3225C892.651 68.3225 896.47 64.1709 898.925 67.2023C901.453 70.3247 896.757 72.9853 896.757 72.9853L903.997 78.7751C903.997 78.7751 906.201 73.8673 909.533 75.7156C912.703 77.4798 909.533 81.8206 909.533 81.8206L918.423 84.9078C918.423 84.9078 918.379 79.8743 922.61 80.2594L922.588 80.2734ZM942.927 60.6707C944.615 63.373 946.274 66.0963 947.719 68.9177C948.662 70.7589 947.21 72.6773 944.564 72.6633C944.151 72.3482 943.156 71.9 942.677 71.1509C941.047 68.6306 939.381 66.0821 938.202 63.3658C937.782 62.3996 938.335 60.5166 939.153 59.7395C940.458 58.5073 942.05 59.2773 942.92 60.6775L942.927 60.6707ZM951.81 46.4725C955.135 47.0815 958.43 47.9917 961.593 49.1539C962.477 49.4759 963.458 51.1633 963.288 52.0384C963.096 53.0395 961.681 53.8236 960.922 54.5797C956.853 53.3825 953.366 52.5285 950.063 51.2474C949.289 50.9463 948.537 49.014 948.847 48.1878C949.156 47.3477 950.918 46.3046 951.81 46.4656V46.4725ZM935.924 12.3707C936.263 11.5446 938.379 10.6694 939.293 10.9565C940.222 11.2435 941.401 13.0638 941.21 13.9739C940.531 17.2084 939.455 20.4007 938.187 23.4742C937.877 24.2233 936.123 25.0007 935.253 24.8186C934.236 24.6086 933.462 23.3552 932.688 22.6551C933.823 18.8746 934.626 15.5281 935.924 12.3707ZM915.843 25.1335C914.258 22.6831 912.88 20.1138 911.427 17.5934C910.476 15.9482 910.867 14.5901 912.57 13.722C914.207 12.8889 915.526 13.526 916.389 14.9612C917.944 17.5305 919.507 20.1068 920.908 22.7532C921.954 24.7345 920.65 26.7997 917.848 26.8277C917.421 26.4776 916.374 25.9596 915.843 25.1335ZM956.764 25.7355C958.718 24.8253 960.782 26.1347 960.73 28.704C960.303 29.1591 959.676 30.2022 958.732 30.7623C956.263 32.2325 953.653 33.4927 951.095 34.8299C949.422 35.705 947.933 35.4739 946.96 33.8847C946.053 32.4005 946.569 31.0353 948.065 30.2092C950.918 28.634 953.793 27.1078 956.757 25.7286L956.764 25.7355ZM907.248 39.6325C903.849 38.9884 900.488 38.0573 897.259 36.8741C896.418 36.5661 895.556 34.8579 895.718 33.9408C895.88 33.0096 897.274 32.2676 898.055 31.5185C902.043 32.6806 905.611 33.5556 909.002 34.8367C909.754 35.1238 910.462 37.0491 910.159 37.8682C909.842 38.7153 908.125 39.7867 907.262 39.6256L907.248 39.6325ZM915.379 42.7409C915.6 35.6349 922.212 29.53 929.599 29.614C937.177 29.698 943.701 36.0479 943.569 43.2099C943.436 50.5749 936.926 56.5468 929.245 56.3648C921.475 56.1757 915.15 49.9659 915.379 42.7409ZM898.298 57.4149C898.623 57.0229 899.065 56.0428 899.854 55.5878C902.507 54.0405 905.265 52.6405 908.007 51.2474C909.695 50.3862 911.479 50.68 911.988 52.3672C912.297 53.3754 911.582 55.2657 910.668 55.8817C908.154 57.597 905.338 58.9412 902.544 60.2574C900.392 61.2655 898.298 60.0403 898.298 57.4149ZM919.713 75.0507C918.807 74.7637 917.634 73.1043 917.811 72.2712C918.482 69.0297 919.477 65.8234 920.745 62.7429C921.07 61.9588 922.927 61.1887 923.915 61.3567C924.874 61.5108 925.611 62.8687 926.341 63.5968C925.124 67.3564 924.24 70.6749 922.913 73.8184C922.596 74.5745 920.591 75.3306 919.728 75.0575L919.713 75.0507Z" fill="#FFB400"/>
<defs>
<clipPath id="clip0_296_12772">
<rect width="830" height="78" fill="white" transform="translate(69.9135 4)"/>
</clipPath>
</defs>
</svg>
