<svg width="50" height="52" viewBox="0 0 50 52" fill="none" xmlns="http://www.w3.org/2000/svg">
<path d="M44.2045 50.2383C40.4567 46.3263 36.6965 42.4259 32.9407 38.5212L32.937 38.5176C32.7119 38.2836 32.3547 38.2389 32.0797 38.4119C26.637 41.8473 20.997 42.5682 14.7666 40.7134C10.0163 39.2994 6.24503 36.4449 3.50719 32.3209C-2.41442 23.4018 -0.689424 11.6921 7.56152 4.82878C15.4113 -1.70083 26.4763 -1.53728 34.1706 4.88745C37.0229 7.26886 39.0911 10.2289 40.3768 13.7119C41.6588 17.1839 41.9507 20.763 41.3141 24.4059C40.7083 27.8683 39.5664 30.5776 37.4175 33.2956C37.2062 33.5626 37.2216 33.9432 37.4556 34.1897C37.5561 34.2953 37.6551 34.3994 37.7548 34.5028C41.5459 38.4435 45.3376 42.3827 49.1272 46.3248C50.3087 47.554 50.1797 49.3333 49.0634 50.4209C48.1833 51.301 46.0652 52.099 44.2045 50.2383ZM20.7447 5.75142C12.4637 5.74555 5.70964 12.4923 5.6891 20.7909C5.66857 29.0814 12.4996 35.9117 20.7601 35.8604C29.0924 35.8083 35.7995 29.088 35.7885 20.8004C35.7775 12.5033 29.0338 5.75655 20.7454 5.75142H20.7447Z" fill="#FFB400"/>
</svg>
